<?xml version="1.0" encoding="utf-8"?>
<!-- Generator: Adobe Illustrator 16.0.3, SVG Export Plug-In . SVG Version: 6.00 Build 0)  -->
<!DOCTYPE svg PUBLIC "-//W3C//DTD SVG 1.1//EN" "http://www.w3.org/Graphics/SVG/1.1/DTD/svg11.dtd">
<svg version="1.1" id="Camada_1" xmlns="http://www.w3.org/2000/svg" xmlns:xlink="http://www.w3.org/1999/xlink" x="0px" y="0px"
	 width="156px" height="50px" viewBox="0 0 156 50" enable-background="new 0 0 156 50" xml:space="preserve">
<g>
	<g>
		<g>
			<polygon fill-rule="evenodd" clip-rule="evenodd" fill="#2CAC71" points="21.367,0.195 41.893,35.723 35.052,47.57 
				14.527,12.042 			"/>
			<polygon fill-rule="evenodd" clip-rule="evenodd" fill="#363F44" points="0.846,35.723 12.27,15.955 19.093,27.834 7.686,47.57 
							"/>
		</g>
		<g>
			<g>
				<path fill="#363F44" d="M110.552,25.836c-5.746,0-9.009,3.478-9.009,7.894v6.416c0,4.414,3.263,7.887,9.009,7.887
					c5.877,0,8.954-3.518,8.954-7.887V33.73C119.506,29.363,116.429,25.836,110.552,25.836z M110.547,45.494
					c-5.523,0-5.193-3.676-5.193-8.5c0-4.855-0.33-8.613,5.193-8.613s5.15,3.758,5.15,8.613
					C115.697,41.844,116.07,45.494,110.547,45.494z"/>
				<path fill="#363F44" d="M76.327,47.617h-4.463L68.59,38.91H56.304l-3.227,8.707h-4.241l11.401-28.686h4.948L76.327,47.617z
					 M67.531,35.947l-4.86-12.95h-0.4l-4.859,12.95H67.531z"/>
				<path fill="#363F44" d="M83.371,47.631h-3.979V18.946h3.979V47.631z"/>
				<path fill="#363F44" d="M99.343,48.074c-3.722,0.127-5.834-0.465-6.894-1.396c-1.059-0.926-1.592-2.689-1.592-5.281V28.404
					h-4.458v-2.611h4.458v-6.847h4.023v6.847h4.462v2.611h-4.462v13.215c0,1.529,0.291,2.555,0.884,3.07
					c0.59,0.516,1.779,0.771,3.578,0.771V48.074z"/>
				<path fill="#363F44" d="M155.154,23.097h-3.973v-4.15h3.973V23.097z M155.154,47.631h-3.973V25.836h3.973V47.631z"/>
				<path fill="#363F44" d="M145.889,38.377v-9.828c0-5.754-3.854-9.708-11.207-9.708c-7.197,0-11.278,3.887-11.278,9.708v9.828
					c0,5.82,4.081,9.707,11.278,9.707c2.23,0,4.138-0.365,5.712-1.033l2.752,2.754l2.168-2.18l-2.253-2.254
					C144.93,43.662,145.889,41.244,145.889,38.377z M136.847,39.154l-2.165,2.178l3.475,3.479c-0.916,0.33-2.059,0.506-3.481,0.506
					c-7.657,0-7.195-5.092-7.195-11.775c0-6.729-0.462-11.93,7.195-11.93c7.653,0,7.133,5.202,7.133,11.93
					c0,3.918,0.173,7.268-1.194,9.379L136.847,39.154z"/>
			</g>
		</g>
	</g>
</g>
</svg>
