<?xml version="1.0" encoding="utf-8"?>
<!-- Generator: Adobe Illustrator 16.0.0, SVG Export Plug-In . SVG Version: 6.00 Build 0)  -->
<!DOCTYPE svg PUBLIC "-//W3C//DTD SVG 1.1//EN" "http://www.w3.org/Graphics/SVG/1.1/DTD/svg11.dtd">
<svg version="1.1" id="Camada_1" xmlns="http://www.w3.org/2000/svg" xmlns:xlink="http://www.w3.org/1999/xlink" x="0px" y="0px"
	 width="446.333px" height="43.917px" viewBox="0 -5.417 446.333 43.917" enable-background="new 0 -5.417 446.333 43.917"
	 xml:space="preserve">
<g id="Logo_Horizontal_1_">
	<g>
		<path fill="#373F44" d="M176.144,21.832c0.087,0,0.163,0.033,0.228,0.102l0.636,0.691c-0.402,0.482-0.895,0.857-1.478,1.119
			c-0.583,0.264-1.283,0.391-2.094,0.391c-0.72,0-1.369-0.123-1.952-0.369c-0.582-0.248-1.076-0.596-1.487-1.043
			c-0.411-0.443-0.727-0.973-0.949-1.59c-0.221-0.615-0.331-1.291-0.331-2.029c0-0.739,0.116-1.417,0.353-2.036
			c0.234-0.617,0.563-1.148,0.99-1.593c0.427-0.445,0.938-0.79,1.532-1.037c0.596-0.246,1.251-0.368,1.967-0.368
			c0.71,0,1.339,0.115,1.883,0.345s1.018,0.537,1.419,0.92l-0.528,0.745c-0.036,0.05-0.08,0.093-0.129,0.129
			c-0.049,0.037-0.117,0.056-0.204,0.056c-0.091,0-0.197-0.042-0.313-0.127c-0.116-0.084-0.266-0.178-0.444-0.281
			c-0.179-0.101-0.406-0.196-0.678-0.28c-0.269-0.084-0.608-0.127-1.014-0.127c-0.469,0-0.899,0.083-1.292,0.248
			c-0.392,0.163-0.729,0.403-1.012,0.717c-0.284,0.315-0.504,0.697-0.661,1.148c-0.157,0.451-0.236,0.964-0.236,1.542
			c0,0.578,0.083,1.092,0.248,1.549c0.163,0.453,0.391,0.836,0.676,1.148c0.287,0.311,0.626,0.547,1.013,0.715
			c0.387,0.164,0.804,0.246,1.252,0.246c0.273,0,0.519-0.014,0.735-0.045c0.215-0.027,0.417-0.076,0.599-0.141
			c0.182-0.07,0.355-0.154,0.517-0.252c0.161-0.102,0.32-0.225,0.48-0.371C175.962,21.871,176.051,21.832,176.144,21.832z"/>
		<path fill="#373F44" d="M184.241,17.052v6.976h-0.889c-0.196,0-0.323-0.094-0.377-0.281l-0.11-0.65
			c-0.144,0.158-0.298,0.297-0.461,0.426c-0.162,0.129-0.333,0.236-0.516,0.328c-0.183,0.09-0.376,0.162-0.585,0.213
			c-0.208,0.049-0.431,0.072-0.667,0.072c-0.382,0-0.721-0.063-1.012-0.191c-0.292-0.125-0.538-0.307-0.735-0.537
			c-0.198-0.234-0.348-0.514-0.446-0.84c-0.1-0.326-0.153-0.684-0.153-1.078V17.05h1.473v4.438c0,0.471,0.108,0.836,0.324,1.094
			c0.216,0.26,0.546,0.391,0.989,0.391c0.322,0,0.625-0.072,0.905-0.221c0.28-0.15,0.544-0.354,0.79-0.613V17.05h1.471V17.052z"/>
		<path fill="#373F44" d="M187.763,18.345c0.22-0.445,0.485-0.791,0.793-1.045c0.31-0.254,0.682-0.38,1.116-0.38
			c0.149,0,0.292,0.017,0.424,0.051c0.131,0.035,0.252,0.085,0.354,0.153l-0.102,1.107c-0.018,0.078-0.047,0.131-0.085,0.161
			c-0.039,0.03-0.09,0.044-0.155,0.044c-0.069,0-0.167-0.014-0.294-0.037c-0.128-0.021-0.261-0.036-0.402-0.036
			c-0.207,0-0.388,0.029-0.545,0.089c-0.158,0.057-0.3,0.145-0.423,0.258c-0.126,0.115-0.237,0.254-0.333,0.416
			c-0.096,0.166-0.185,0.354-0.267,0.563v4.336h-1.47V17.05h0.856c0.154,0,0.261,0.028,0.319,0.085
			c0.061,0.058,0.102,0.156,0.124,0.298L187.763,18.345z"/>
		<path fill="#373F44" d="M195.896,18.317c-0.037,0.063-0.078,0.108-0.124,0.138c-0.044,0.025-0.103,0.041-0.17,0.041
			c-0.077,0-0.163-0.026-0.253-0.072c-0.093-0.048-0.2-0.103-0.323-0.162c-0.123-0.059-0.268-0.112-0.434-0.16
			s-0.362-0.07-0.584-0.07c-0.183,0-0.35,0.022-0.497,0.064c-0.147,0.044-0.272,0.105-0.375,0.184
			c-0.104,0.08-0.182,0.174-0.235,0.281c-0.057,0.11-0.083,0.221-0.083,0.346c0,0.164,0.05,0.301,0.151,0.41
			s0.232,0.203,0.397,0.283c0.163,0.082,0.349,0.154,0.559,0.215c0.21,0.064,0.425,0.133,0.644,0.207
			c0.217,0.072,0.434,0.158,0.642,0.252c0.21,0.098,0.396,0.215,0.561,0.354c0.165,0.139,0.297,0.307,0.397,0.506
			c0.101,0.197,0.151,0.438,0.151,0.721c0,0.328-0.061,0.631-0.178,0.908c-0.118,0.277-0.292,0.521-0.52,0.725
			c-0.229,0.207-0.512,0.365-0.853,0.479c-0.34,0.115-0.729,0.17-1.167,0.17c-0.241,0-0.474-0.02-0.7-0.063
			c-0.227-0.043-0.442-0.102-0.643-0.178c-0.205-0.074-0.393-0.166-0.569-0.271c-0.175-0.104-0.331-0.217-0.467-0.342l0.342-0.561
			c0.04-0.07,0.091-0.121,0.154-0.162c0.062-0.037,0.136-0.059,0.228-0.059c0.096,0,0.19,0.029,0.284,0.094
			c0.095,0.063,0.205,0.129,0.328,0.201c0.125,0.07,0.278,0.141,0.457,0.203c0.177,0.061,0.397,0.092,0.663,0.092
			c0.219,0,0.406-0.027,0.568-0.078c0.161-0.053,0.291-0.125,0.397-0.217c0.104-0.09,0.181-0.193,0.231-0.309
			c0.051-0.117,0.075-0.242,0.075-0.373c0-0.178-0.049-0.324-0.15-0.438c-0.101-0.115-0.233-0.215-0.4-0.295
			c-0.165-0.082-0.354-0.154-0.568-0.221c-0.212-0.063-0.427-0.131-0.646-0.205c-0.218-0.07-0.437-0.156-0.646-0.252
			c-0.212-0.098-0.402-0.219-0.568-0.365c-0.166-0.15-0.3-0.33-0.399-0.541c-0.1-0.211-0.152-0.471-0.152-0.775
			c0-0.279,0.057-0.543,0.167-0.793c0.111-0.252,0.276-0.474,0.494-0.666c0.215-0.189,0.483-0.34,0.799-0.453
			c0.318-0.111,0.683-0.168,1.098-0.168c0.471,0,0.896,0.074,1.279,0.227c0.383,0.15,0.705,0.355,0.963,0.615L195.896,18.317z"/>
		<path fill="#373F44" d="M201.06,16.941c0.514,0,0.979,0.087,1.396,0.255c0.418,0.166,0.772,0.405,1.068,0.719
			c0.295,0.309,0.52,0.684,0.681,1.127c0.159,0.441,0.24,0.939,0.24,1.492c0,0.549-0.082,1.047-0.24,1.49
			c-0.162,0.443-0.387,0.82-0.681,1.131c-0.295,0.313-0.649,0.555-1.068,0.723c-0.417,0.166-0.882,0.252-1.396,0.252
			c-0.523,0-0.99-0.084-1.406-0.252c-0.418-0.168-0.774-0.41-1.071-0.723c-0.296-0.311-0.524-0.688-0.683-1.131
			c-0.162-0.441-0.24-0.941-0.24-1.49c0-0.553,0.078-1.051,0.24-1.492c0.16-0.443,0.387-0.818,0.683-1.127
			c0.297-0.312,0.653-0.551,1.071-0.719C200.07,17.026,200.537,16.941,201.06,16.941z M201.06,22.98
			c0.628,0,1.095-0.209,1.404-0.631c0.31-0.422,0.462-1.025,0.462-1.809c0-0.785-0.153-1.391-0.462-1.818
			c-0.308-0.426-0.776-0.638-1.404-0.638c-0.64,0-1.113,0.212-1.424,0.638c-0.31,0.428-0.464,1.033-0.464,1.818
			c0,0.783,0.155,1.385,0.464,1.809C199.947,22.771,200.42,22.98,201.06,22.98z"/>
		<path fill="#373F44" d="M210.36,18.317c-0.037,0.063-0.076,0.108-0.122,0.138c-0.048,0.025-0.104,0.041-0.17,0.041
			c-0.079,0-0.164-0.026-0.255-0.072c-0.09-0.048-0.197-0.103-0.32-0.162c-0.123-0.059-0.268-0.112-0.437-0.16
			c-0.164-0.048-0.359-0.07-0.583-0.07c-0.183,0-0.349,0.022-0.496,0.064c-0.147,0.044-0.273,0.105-0.375,0.184
			c-0.104,0.08-0.181,0.174-0.236,0.281c-0.055,0.11-0.083,0.221-0.083,0.346c0,0.164,0.051,0.301,0.15,0.41
			c0.102,0.109,0.233,0.203,0.397,0.283c0.163,0.082,0.349,0.154,0.56,0.215c0.211,0.063,0.424,0.133,0.645,0.207
			c0.217,0.072,0.434,0.158,0.641,0.252c0.211,0.098,0.398,0.215,0.563,0.354c0.163,0.139,0.295,0.307,0.396,0.506
			c0.101,0.197,0.151,0.438,0.151,0.721c0,0.328-0.063,0.631-0.178,0.908c-0.119,0.277-0.292,0.521-0.52,0.725
			c-0.23,0.207-0.514,0.365-0.854,0.479c-0.34,0.115-0.728,0.17-1.165,0.17c-0.243,0-0.478-0.02-0.702-0.063
			s-0.44-0.102-0.642-0.178c-0.205-0.074-0.393-0.166-0.567-0.271c-0.176-0.104-0.332-0.217-0.47-0.342l0.343-0.561
			c0.04-0.07,0.094-0.121,0.155-0.162c0.063-0.037,0.137-0.059,0.228-0.059c0.096,0,0.191,0.029,0.284,0.094
			c0.094,0.063,0.203,0.129,0.33,0.201c0.125,0.07,0.275,0.141,0.454,0.203c0.177,0.061,0.399,0.092,0.664,0.092
			c0.217,0,0.407-0.027,0.566-0.078c0.161-0.053,0.292-0.125,0.397-0.217c0.104-0.09,0.182-0.193,0.232-0.309
			c0.049-0.117,0.074-0.242,0.074-0.373c0-0.178-0.051-0.324-0.15-0.438c-0.1-0.115-0.232-0.215-0.399-0.295
			c-0.167-0.082-0.355-0.154-0.568-0.221c-0.213-0.063-0.427-0.131-0.647-0.205c-0.219-0.07-0.434-0.156-0.646-0.252
			c-0.212-0.098-0.4-0.219-0.567-0.365c-0.167-0.15-0.3-0.33-0.399-0.541c-0.102-0.211-0.15-0.471-0.15-0.775
			c0-0.279,0.056-0.543,0.166-0.793c0.111-0.252,0.276-0.474,0.492-0.666c0.216-0.189,0.484-0.34,0.801-0.453
			c0.317-0.111,0.681-0.168,1.096-0.168c0.471,0,0.896,0.074,1.279,0.227c0.385,0.15,0.705,0.355,0.963,0.615L210.36,18.317z"/>
		<path fill="#373F44" d="M216.085,18.023c0.787-0.734,1.727-1.102,2.816-1.102c0.402,0,0.758,0.066,1.07,0.195
			c0.311,0.131,0.576,0.313,0.785,0.55c0.213,0.237,0.375,0.518,0.488,0.846c0.111,0.327,0.166,0.688,0.166,1.083v4.434h-0.654
			c-0.143,0-0.252-0.02-0.324-0.064c-0.072-0.043-0.133-0.133-0.184-0.264l-0.145-0.568c-0.178,0.16-0.352,0.303-0.527,0.428
			c-0.172,0.123-0.352,0.23-0.535,0.318c-0.184,0.086-0.383,0.152-0.594,0.197c-0.213,0.043-0.447,0.063-0.701,0.063
			c-0.283,0-0.547-0.035-0.791-0.117c-0.242-0.076-0.455-0.193-0.633-0.352s-0.316-0.35-0.422-0.582
			c-0.102-0.232-0.152-0.508-0.152-0.822c0-0.268,0.072-0.529,0.213-0.787c0.145-0.254,0.383-0.48,0.713-0.686
			c0.332-0.203,0.768-0.371,1.309-0.502c0.537-0.133,1.205-0.209,2-0.227v-0.467c0-0.498-0.107-0.873-0.324-1.12
			c-0.213-0.246-0.527-0.371-0.941-0.371c-0.285,0-0.52,0.037-0.713,0.108c-0.191,0.071-0.357,0.147-0.498,0.228
			c-0.143,0.083-0.268,0.16-0.379,0.231c-0.109,0.07-0.225,0.105-0.35,0.105c-0.098,0-0.184-0.025-0.256-0.078
			c-0.07-0.052-0.127-0.117-0.174-0.196L216.085,18.023z M219.983,20.979c-0.525,0.018-0.967,0.059-1.328,0.123
			c-0.359,0.068-0.652,0.15-0.875,0.256c-0.223,0.102-0.383,0.225-0.482,0.365c-0.098,0.143-0.145,0.297-0.145,0.465
			c0,0.164,0.023,0.303,0.076,0.42c0.051,0.117,0.125,0.213,0.219,0.289c0.092,0.074,0.203,0.127,0.328,0.162
			c0.127,0.035,0.262,0.053,0.412,0.053c0.385,0,0.715-0.072,0.99-0.215c0.275-0.145,0.543-0.354,0.805-0.627V20.979z"/>
		<path fill="#373F44" d="M224.866,18.064c0.291-0.344,0.621-0.617,0.996-0.828c0.369-0.209,0.801-0.315,1.295-0.315
			c0.391,0,0.746,0.08,1.066,0.236c0.318,0.157,0.594,0.385,0.818,0.686c0.23,0.301,0.406,0.676,0.533,1.12
			c0.125,0.443,0.188,0.953,0.188,1.529c0,0.514-0.07,0.996-0.209,1.438c-0.139,0.443-0.34,0.83-0.6,1.156s-0.574,0.58-0.945,0.768
			c-0.367,0.184-0.785,0.275-1.25,0.275c-0.408,0-0.756-0.066-1.041-0.201c-0.287-0.129-0.545-0.313-0.779-0.545v2.961h-1.471V17.05
			h0.891c0.201,0,0.328,0.093,0.385,0.28L224.866,18.064z M224.94,22.277c0.205,0.264,0.432,0.451,0.676,0.557
			c0.242,0.107,0.512,0.16,0.809,0.16c0.574,0,1.021-0.209,1.344-0.629c0.32-0.42,0.482-1.045,0.482-1.873
			c0-0.43-0.035-0.795-0.109-1.1c-0.074-0.303-0.18-0.551-0.314-0.743c-0.135-0.189-0.303-0.329-0.498-0.416
			c-0.197-0.088-0.416-0.131-0.666-0.131c-0.375,0-0.697,0.08-0.967,0.244c-0.271,0.162-0.523,0.393-0.756,0.694V22.277z"/>
		<path fill="#373F44" d="M233.032,13.906v10.122h-1.471V13.906H233.032z"/>
		<path fill="#373F44" d="M236.97,14.945c0,0.133-0.025,0.258-0.078,0.376s-0.125,0.222-0.217,0.311
			c-0.088,0.09-0.195,0.161-0.316,0.213c-0.119,0.051-0.25,0.078-0.387,0.078c-0.131,0-0.256-0.027-0.373-0.078
			c-0.115-0.053-0.217-0.123-0.303-0.213c-0.086-0.089-0.158-0.192-0.207-0.311c-0.057-0.117-0.08-0.243-0.08-0.376
			c0-0.136,0.023-0.264,0.08-0.383c0.049-0.119,0.119-0.223,0.207-0.311c0.086-0.089,0.188-0.161,0.303-0.212
			c0.117-0.051,0.242-0.078,0.373-0.078c0.137,0,0.266,0.025,0.387,0.078s0.229,0.124,0.316,0.212
			c0.092,0.088,0.164,0.192,0.217,0.311S236.97,14.809,236.97,14.945z M236.724,17.052v6.976h-1.469v-6.976H236.724z"/>
		<path fill="#373F44" d="M243.853,18.419c-0.047,0.059-0.09,0.104-0.131,0.137c-0.045,0.031-0.102,0.049-0.178,0.049
			c-0.078,0-0.158-0.029-0.244-0.084c-0.082-0.054-0.184-0.115-0.301-0.183c-0.115-0.063-0.256-0.123-0.422-0.179
			c-0.162-0.057-0.369-0.082-0.613-0.082c-0.32,0-0.598,0.057-0.84,0.17c-0.242,0.116-0.441,0.278-0.6,0.491
			c-0.164,0.211-0.285,0.469-0.361,0.771c-0.082,0.301-0.123,0.645-0.123,1.023c0,0.393,0.047,0.74,0.129,1.045
			c0.09,0.307,0.213,0.563,0.375,0.773c0.162,0.209,0.357,0.369,0.588,0.479c0.229,0.109,0.488,0.164,0.775,0.164
			c0.283,0,0.512-0.033,0.691-0.104c0.178-0.068,0.324-0.141,0.445-0.227c0.115-0.08,0.217-0.154,0.303-0.225
			c0.084-0.068,0.174-0.102,0.27-0.102c0.119,0,0.211,0.045,0.275,0.137l0.414,0.539c-0.166,0.207-0.354,0.377-0.561,0.52
			c-0.203,0.141-0.42,0.256-0.648,0.348c-0.227,0.09-0.463,0.152-0.711,0.191c-0.25,0.037-0.494,0.057-0.748,0.057
			c-0.432,0-0.834-0.08-1.215-0.242c-0.373-0.162-0.701-0.396-0.982-0.703c-0.281-0.311-0.502-0.686-0.666-1.129
			c-0.162-0.445-0.242-0.953-0.242-1.521c0-0.516,0.072-0.994,0.221-1.434c0.146-0.441,0.357-0.82,0.639-1.138
			c0.279-0.32,0.627-0.569,1.041-0.751c0.418-0.177,0.896-0.269,1.436-0.269c0.506,0,0.955,0.082,1.338,0.247
			c0.385,0.165,0.729,0.396,1.031,0.697L243.853,18.419z"/>
		<path fill="#373F44" d="M245.655,18.023c0.791-0.734,1.729-1.102,2.816-1.102c0.4,0,0.76,0.066,1.074,0.195
			c0.311,0.131,0.572,0.313,0.783,0.55c0.211,0.237,0.373,0.518,0.486,0.846c0.111,0.327,0.17,0.688,0.17,1.083v4.434h-0.66
			c-0.143,0-0.248-0.02-0.32-0.064c-0.072-0.043-0.133-0.133-0.186-0.264l-0.145-0.568c-0.174,0.16-0.35,0.303-0.523,0.428
			c-0.176,0.123-0.355,0.23-0.537,0.318c-0.186,0.086-0.383,0.152-0.598,0.197c-0.211,0.043-0.441,0.063-0.697,0.063
			c-0.283,0-0.547-0.035-0.793-0.117c-0.244-0.076-0.453-0.193-0.631-0.352s-0.318-0.35-0.42-0.582
			c-0.105-0.232-0.154-0.508-0.154-0.822c0-0.268,0.07-0.529,0.215-0.787c0.141-0.254,0.379-0.48,0.711-0.686
			c0.332-0.203,0.768-0.371,1.309-0.502c0.539-0.133,1.207-0.209,1.998-0.227v-0.467c0-0.498-0.109-0.873-0.32-1.12
			c-0.213-0.246-0.531-0.371-0.941-0.371c-0.287,0-0.523,0.037-0.715,0.108c-0.193,0.071-0.359,0.147-0.5,0.228
			c-0.141,0.083-0.266,0.16-0.375,0.231c-0.109,0.07-0.227,0.105-0.35,0.105c-0.1,0-0.186-0.025-0.256-0.078
			c-0.072-0.052-0.131-0.117-0.176-0.196L245.655,18.023z M249.554,20.979c-0.523,0.018-0.965,0.059-1.324,0.123
			c-0.363,0.068-0.654,0.15-0.877,0.256c-0.225,0.102-0.385,0.225-0.484,0.365c-0.096,0.143-0.146,0.297-0.146,0.465
			c0,0.164,0.027,0.303,0.078,0.42c0.053,0.117,0.129,0.213,0.221,0.289c0.094,0.074,0.203,0.127,0.328,0.162
			s0.26,0.053,0.412,0.053c0.383,0,0.713-0.072,0.988-0.215c0.277-0.145,0.543-0.354,0.805-0.627V20.979L249.554,20.979z"/>
		<path fill="#373F44" d="M258.964,13.906v10.122h-0.887c-0.197,0-0.322-0.094-0.377-0.281l-0.131-0.76
			c-0.293,0.344-0.621,0.619-0.994,0.828c-0.371,0.211-0.807,0.314-1.297,0.314c-0.393,0-0.748-0.078-1.064-0.236
			c-0.32-0.158-0.594-0.387-0.822-0.689c-0.229-0.301-0.406-0.674-0.529-1.117c-0.127-0.443-0.188-0.953-0.188-1.527
			c0-0.521,0.066-1,0.209-1.443c0.139-0.441,0.336-0.825,0.596-1.152c0.26-0.324,0.578-0.581,0.949-0.766
			c0.371-0.184,0.785-0.278,1.246-0.278c0.41,0,0.76,0.065,1.047,0.195c0.289,0.131,0.545,0.312,0.771,0.545v-3.755L258.964,13.906
			L258.964,13.906z M257.493,18.768c-0.203-0.264-0.428-0.449-0.676-0.553c-0.246-0.104-0.514-0.159-0.803-0.159
			c-0.572,0-1.02,0.21-1.344,0.634c-0.324,0.42-0.486,1.047-0.486,1.869c0,0.43,0.035,0.797,0.109,1.098
			c0.074,0.303,0.178,0.549,0.314,0.742c0.139,0.191,0.303,0.33,0.5,0.418c0.193,0.084,0.416,0.127,0.662,0.127
			c0.375,0,0.697-0.08,0.967-0.242c0.273-0.16,0.525-0.389,0.756-0.688V18.768L257.493,18.768z"/>
		<path fill="#373F44" d="M264.116,16.941c0.514,0,0.98,0.087,1.396,0.255c0.418,0.166,0.773,0.405,1.068,0.719
			c0.293,0.309,0.52,0.684,0.682,1.127c0.158,0.441,0.238,0.939,0.238,1.492c0,0.549-0.08,1.047-0.238,1.49
			c-0.164,0.443-0.391,0.82-0.682,1.131c-0.295,0.314-0.65,0.555-1.068,0.723c-0.416,0.166-0.883,0.252-1.396,0.252
			c-0.521,0-0.988-0.084-1.406-0.252c-0.416-0.168-0.773-0.41-1.07-0.723c-0.299-0.311-0.527-0.688-0.684-1.131
			c-0.162-0.441-0.24-0.941-0.24-1.49c0-0.553,0.078-1.051,0.24-1.492c0.158-0.443,0.387-0.818,0.684-1.127
			c0.297-0.312,0.654-0.551,1.07-0.719C263.128,17.026,263.595,16.941,264.116,16.941z M264.116,22.98
			c0.627,0,1.096-0.209,1.404-0.631c0.309-0.424,0.461-1.025,0.461-1.809c0-0.785-0.152-1.391-0.461-1.818
			c-0.309-0.426-0.777-0.638-1.404-0.638c-0.641,0-1.111,0.212-1.424,0.638c-0.309,0.428-0.467,1.033-0.467,1.818
			c0,0.783,0.158,1.385,0.467,1.809C263.005,22.771,263.476,22.98,264.116,22.98z"/>
		<path fill="#373F44" d="M273.417,18.317c-0.037,0.063-0.078,0.108-0.121,0.138c-0.047,0.025-0.105,0.041-0.174,0.041
			c-0.078,0-0.162-0.026-0.252-0.072c-0.094-0.048-0.201-0.103-0.322-0.162c-0.123-0.059-0.268-0.112-0.434-0.16
			c-0.168-0.048-0.359-0.07-0.586-0.07c-0.182,0-0.348,0.022-0.496,0.064c-0.145,0.044-0.273,0.105-0.375,0.184
			c-0.104,0.08-0.182,0.174-0.236,0.281c-0.055,0.11-0.08,0.221-0.08,0.346c0,0.164,0.049,0.301,0.148,0.41s0.232,0.203,0.398,0.283
			c0.162,0.082,0.35,0.154,0.559,0.215c0.209,0.063,0.424,0.133,0.641,0.207c0.221,0.072,0.438,0.158,0.646,0.252
			c0.211,0.098,0.396,0.215,0.563,0.354c0.16,0.139,0.293,0.307,0.391,0.506c0.104,0.197,0.152,0.438,0.152,0.721
			c0,0.328-0.059,0.631-0.176,0.908s-0.291,0.521-0.518,0.725c-0.23,0.207-0.514,0.365-0.854,0.479
			c-0.34,0.115-0.73,0.17-1.166,0.17c-0.244,0-0.475-0.02-0.701-0.063s-0.439-0.102-0.643-0.178
			c-0.203-0.074-0.393-0.166-0.568-0.271c-0.176-0.104-0.332-0.217-0.469-0.342l0.344-0.561c0.039-0.07,0.09-0.121,0.152-0.162
			c0.064-0.037,0.137-0.059,0.229-0.059c0.1,0,0.189,0.029,0.285,0.094c0.094,0.063,0.205,0.129,0.33,0.201
			c0.121,0.07,0.275,0.141,0.453,0.203c0.176,0.061,0.396,0.092,0.662,0.092c0.219,0,0.408-0.027,0.572-0.078
			c0.158-0.053,0.289-0.125,0.395-0.217c0.104-0.09,0.18-0.193,0.232-0.309c0.051-0.117,0.074-0.242,0.074-0.373
			c0-0.178-0.053-0.324-0.152-0.438c-0.102-0.115-0.234-0.215-0.398-0.295c-0.166-0.082-0.355-0.154-0.57-0.221
			c-0.211-0.063-0.424-0.131-0.645-0.205c-0.219-0.07-0.434-0.156-0.645-0.252c-0.215-0.098-0.404-0.219-0.568-0.365
			c-0.166-0.15-0.299-0.33-0.4-0.541c-0.098-0.211-0.152-0.471-0.152-0.775c0-0.279,0.059-0.543,0.17-0.793
			c0.109-0.252,0.275-0.474,0.49-0.666c0.217-0.189,0.484-0.34,0.801-0.453c0.316-0.111,0.682-0.168,1.098-0.168
			c0.471,0,0.898,0.074,1.277,0.227c0.387,0.15,0.707,0.355,0.965,0.615L273.417,18.317z"/>
		<path fill="#373F44" d="M279.138,18.023c0.791-0.734,1.73-1.102,2.82-1.102c0.4,0,0.756,0.066,1.07,0.195
			c0.309,0.131,0.572,0.313,0.787,0.55c0.211,0.237,0.371,0.518,0.484,0.846c0.111,0.327,0.166,0.688,0.166,1.083v4.434h-0.656
			c-0.139,0-0.25-0.02-0.32-0.064c-0.074-0.043-0.135-0.133-0.186-0.264l-0.141-0.568c-0.18,0.16-0.355,0.303-0.529,0.428
			c-0.172,0.123-0.352,0.23-0.535,0.318c-0.184,0.086-0.387,0.152-0.596,0.197c-0.213,0.043-0.445,0.063-0.703,0.063
			c-0.283,0-0.541-0.035-0.789-0.117c-0.244-0.076-0.453-0.193-0.631-0.352c-0.18-0.158-0.318-0.35-0.42-0.582
			c-0.105-0.232-0.156-0.508-0.156-0.822c0-0.268,0.07-0.529,0.219-0.787c0.141-0.254,0.379-0.48,0.711-0.686
			c0.328-0.203,0.764-0.371,1.305-0.502c0.543-0.133,1.207-0.209,1.998-0.227v-0.467c0-0.498-0.104-0.873-0.32-1.12
			c-0.211-0.246-0.529-0.371-0.941-0.371c-0.283,0-0.521,0.037-0.715,0.108c-0.191,0.071-0.355,0.147-0.498,0.228
			c-0.139,0.083-0.264,0.16-0.373,0.231c-0.111,0.07-0.227,0.105-0.352,0.105c-0.102,0-0.188-0.025-0.254-0.078
			c-0.07-0.052-0.131-0.117-0.178-0.196L279.138,18.023z M281.157,14.07c0.168,0,0.295,0.027,0.377,0.081
			c0.082,0.055,0.156,0.14,0.219,0.253l0.998,1.655h-0.834c-0.113,0-0.207-0.015-0.275-0.047c-0.072-0.031-0.146-0.089-0.215-0.172
			l-1.648-1.77H281.157z M283.036,20.979c-0.523,0.018-0.965,0.059-1.326,0.123c-0.357,0.068-0.652,0.15-0.875,0.256
			c-0.223,0.102-0.385,0.225-0.482,0.365c-0.098,0.143-0.146,0.297-0.146,0.465c0,0.164,0.027,0.303,0.076,0.42
			c0.055,0.117,0.127,0.213,0.219,0.289c0.094,0.074,0.203,0.127,0.33,0.162c0.125,0.035,0.264,0.053,0.414,0.053
			c0.381,0,0.711-0.072,0.986-0.215c0.277-0.145,0.543-0.354,0.803-0.627v-1.291H283.036z"/>
		<path fill="#373F44" d="M291.339,20.656c0.02,0.396,0.082,0.738,0.186,1.027c0.105,0.291,0.246,0.533,0.422,0.723
			c0.176,0.191,0.385,0.334,0.627,0.428c0.246,0.092,0.521,0.141,0.818,0.141c0.289,0,0.535-0.033,0.746-0.102
			c0.211-0.064,0.393-0.139,0.547-0.217c0.154-0.08,0.287-0.152,0.398-0.221c0.109-0.064,0.207-0.098,0.299-0.098
			c0.117,0,0.209,0.045,0.273,0.137l0.418,0.541c-0.174,0.205-0.369,0.377-0.588,0.518c-0.219,0.143-0.451,0.258-0.697,0.348
			c-0.246,0.092-0.502,0.154-0.762,0.193c-0.26,0.035-0.512,0.057-0.758,0.057c-0.482,0-0.932-0.08-1.346-0.242
			c-0.41-0.162-0.768-0.4-1.072-0.717c-0.303-0.316-0.539-0.705-0.709-1.17c-0.172-0.465-0.258-0.998-0.258-1.605
			c0-0.484,0.078-0.936,0.229-1.355c0.152-0.419,0.371-0.782,0.658-1.094c0.285-0.308,0.633-0.553,1.039-0.732
			c0.408-0.179,0.871-0.271,1.385-0.271c0.43,0,0.824,0.07,1.189,0.209c0.365,0.14,0.68,0.343,0.943,0.61
			c0.264,0.27,0.473,0.6,0.619,0.989c0.148,0.393,0.223,0.836,0.223,1.332c0,0.227-0.023,0.379-0.074,0.457
			c-0.053,0.078-0.141,0.117-0.275,0.117h-4.48V20.656z M294.851,19.754c0-0.248-0.037-0.477-0.109-0.689
			c-0.072-0.211-0.172-0.395-0.309-0.553c-0.139-0.158-0.305-0.281-0.51-0.371c-0.201-0.087-0.438-0.131-0.703-0.131
			c-0.535,0-0.949,0.152-1.254,0.458c-0.309,0.304-0.502,0.734-0.584,1.287H294.851z"/>
		<path fill="#373F44" d="M299.253,17.974c0.15-0.154,0.307-0.294,0.469-0.42c0.16-0.127,0.332-0.233,0.516-0.325
			c0.186-0.091,0.377-0.162,0.582-0.212c0.205-0.049,0.428-0.075,0.67-0.075c0.385,0,0.721,0.065,1.01,0.192
			c0.289,0.126,0.533,0.308,0.73,0.54c0.201,0.231,0.35,0.51,0.449,0.838c0.098,0.327,0.148,0.684,0.148,1.077v4.439h-1.461v-4.439
			c0-0.469-0.111-0.836-0.326-1.092c-0.215-0.262-0.545-0.393-0.99-0.393c-0.328,0-0.629,0.075-0.91,0.226
			c-0.281,0.151-0.545,0.355-0.791,0.617v5.082h-1.469v-6.976h0.889c0.201,0,0.328,0.092,0.381,0.28L299.253,17.974z"/>
		<path fill="#373F44" d="M311.905,17.306v0.544c0,0.183-0.109,0.294-0.326,0.336l-0.699,0.118c0.117,0.264,0.178,0.557,0.178,0.879
			c0,0.344-0.07,0.652-0.205,0.932c-0.133,0.279-0.32,0.516-0.555,0.713c-0.24,0.195-0.521,0.346-0.85,0.451
			c-0.33,0.104-0.684,0.156-1.068,0.156c-0.145,0-0.285-0.008-0.426-0.023c-0.139-0.018-0.275-0.039-0.404-0.066
			c-0.135,0.078-0.234,0.16-0.299,0.246c-0.061,0.086-0.092,0.176-0.092,0.27c0,0.15,0.063,0.26,0.195,0.332
			c0.133,0.074,0.309,0.127,0.525,0.158s0.463,0.053,0.74,0.064c0.277,0.01,0.561,0.021,0.848,0.045
			c0.291,0.023,0.574,0.063,0.852,0.117c0.277,0.051,0.525,0.137,0.74,0.258c0.217,0.119,0.393,0.283,0.523,0.488
			c0.135,0.205,0.201,0.471,0.201,0.801c0,0.301-0.078,0.594-0.227,0.883c-0.152,0.287-0.369,0.543-0.652,0.768
			c-0.285,0.221-0.635,0.4-1.047,0.535c-0.408,0.133-0.875,0.201-1.4,0.201c-0.521,0-0.971-0.051-1.359-0.15
			c-0.385-0.102-0.707-0.236-0.961-0.406c-0.26-0.172-0.449-0.371-0.578-0.592c-0.121-0.223-0.188-0.455-0.188-0.697
			c0-0.33,0.105-0.609,0.313-0.842s0.484-0.414,0.846-0.547c-0.193-0.09-0.348-0.217-0.465-0.377
			c-0.115-0.16-0.174-0.369-0.174-0.629c0-0.203,0.078-0.42,0.227-0.643c0.152-0.225,0.375-0.414,0.678-0.568
			c-0.348-0.191-0.621-0.445-0.822-0.76c-0.199-0.318-0.301-0.689-0.301-1.115c0-0.348,0.068-0.658,0.203-0.936
			c0.133-0.277,0.322-0.515,0.563-0.712c0.244-0.196,0.531-0.345,0.859-0.45c0.33-0.104,0.689-0.157,1.082-0.157
			c0.605,0,1.127,0.126,1.576,0.377h1.949V17.306z M310.429,24.369c0-0.154-0.045-0.279-0.135-0.373
			c-0.088-0.094-0.205-0.166-0.357-0.219c-0.148-0.053-0.328-0.09-0.527-0.115c-0.201-0.023-0.414-0.045-0.639-0.055
			c-0.227-0.012-0.457-0.023-0.691-0.033c-0.236-0.01-0.461-0.033-0.68-0.066c-0.221,0.115-0.398,0.252-0.537,0.41
			c-0.139,0.16-0.209,0.346-0.209,0.555c0,0.137,0.035,0.262,0.105,0.383c0.072,0.117,0.18,0.219,0.328,0.307
			s0.34,0.156,0.572,0.205c0.227,0.051,0.504,0.076,0.828,0.076c0.648,0,1.135-0.104,1.457-0.301
			C310.267,24.941,310.429,24.686,310.429,24.369z M308.382,20.477c0.455,0,0.799-0.115,1.027-0.35
			c0.229-0.23,0.342-0.533,0.342-0.908c0-0.383-0.113-0.686-0.342-0.91c-0.229-0.222-0.572-0.335-1.027-0.335
			c-0.451,0-0.791,0.113-1.02,0.335c-0.234,0.224-0.348,0.527-0.348,0.91c0,0.182,0.029,0.352,0.09,0.506
			c0.059,0.154,0.148,0.289,0.258,0.4c0.117,0.111,0.256,0.199,0.426,0.26C307.964,20.445,308.161,20.477,308.382,20.477z"/>
		<path fill="#373F44" d="M314.362,20.656c0.02,0.396,0.08,0.738,0.182,1.027c0.105,0.291,0.248,0.533,0.422,0.723
			c0.178,0.191,0.387,0.334,0.629,0.428c0.244,0.092,0.518,0.141,0.818,0.141c0.287,0,0.533-0.033,0.744-0.102
			c0.209-0.064,0.395-0.139,0.547-0.217c0.156-0.08,0.289-0.152,0.395-0.221c0.113-0.064,0.213-0.098,0.303-0.098
			c0.119,0,0.211,0.045,0.273,0.137l0.416,0.541c-0.172,0.205-0.371,0.377-0.584,0.518c-0.221,0.143-0.453,0.258-0.697,0.348
			c-0.25,0.09-0.5,0.154-0.764,0.193c-0.256,0.035-0.514,0.057-0.758,0.057c-0.484,0-0.93-0.08-1.344-0.242
			c-0.412-0.162-0.77-0.4-1.074-0.717c-0.301-0.316-0.541-0.705-0.711-1.17s-0.256-0.998-0.256-1.605
			c0-0.484,0.074-0.936,0.227-1.355c0.152-0.419,0.371-0.782,0.658-1.094c0.283-0.308,0.631-0.553,1.041-0.732
			c0.404-0.179,0.869-0.271,1.383-0.271c0.43,0,0.824,0.07,1.189,0.209c0.367,0.14,0.68,0.343,0.943,0.61
			c0.268,0.27,0.471,0.6,0.621,0.989c0.145,0.393,0.223,0.836,0.223,1.332c0,0.227-0.027,0.379-0.078,0.457
			c-0.047,0.078-0.139,0.117-0.271,0.117h-4.477V20.656z M317.87,19.754c0-0.248-0.037-0.477-0.105-0.689
			c-0.072-0.211-0.176-0.395-0.313-0.553c-0.137-0.158-0.307-0.281-0.508-0.371c-0.205-0.087-0.438-0.131-0.701-0.131
			c-0.535,0-0.953,0.152-1.26,0.458c-0.305,0.304-0.5,0.734-0.58,1.287H317.87z"/>
		<path fill="#373F44" d="M322.274,17.974c0.15-0.154,0.305-0.294,0.469-0.42c0.162-0.127,0.334-0.233,0.514-0.325
			c0.184-0.091,0.377-0.162,0.582-0.212c0.207-0.049,0.43-0.075,0.672-0.075c0.381,0,0.719,0.065,1.01,0.192
			c0.287,0.126,0.531,0.308,0.727,0.54c0.201,0.231,0.352,0.51,0.449,0.838c0.102,0.327,0.15,0.684,0.15,1.077v4.439h-1.463v-4.439
			c0-0.469-0.107-0.836-0.326-1.092c-0.215-0.262-0.545-0.393-0.984-0.393c-0.33,0-0.635,0.075-0.916,0.226
			c-0.281,0.151-0.543,0.355-0.789,0.617v5.082h-1.473v-6.976h0.891c0.203,0,0.328,0.092,0.385,0.28L322.274,17.974z"/>
		<path fill="#373F44" d="M330.386,17.878c0.285-0.283,0.602-0.51,0.943-0.681c0.34-0.171,0.74-0.256,1.197-0.256
			c0.383,0,0.719,0.064,1.006,0.19c0.291,0.128,0.535,0.308,0.734,0.542c0.197,0.23,0.348,0.51,0.443,0.836
			c0.102,0.327,0.154,0.684,0.154,1.079v4.439h-1.467v-4.439c0-0.471-0.105-0.836-0.322-1.094c-0.215-0.261-0.545-0.393-0.988-0.393
			c-0.33,0-0.635,0.076-0.914,0.227c-0.281,0.15-0.543,0.356-0.789,0.614v5.084h-1.469V13.905h1.469v3.974H330.386z"/>
		<path fill="#373F44" d="M336.761,18.023c0.787-0.734,1.729-1.102,2.816-1.102c0.4,0,0.758,0.066,1.068,0.195
			c0.313,0.131,0.576,0.313,0.787,0.55c0.211,0.237,0.375,0.518,0.488,0.846c0.111,0.327,0.166,0.688,0.166,1.083v4.434h-0.656
			c-0.141,0-0.248-0.02-0.322-0.064c-0.074-0.043-0.135-0.133-0.184-0.264l-0.145-0.568c-0.18,0.16-0.352,0.303-0.525,0.428
			c-0.174,0.123-0.354,0.23-0.539,0.318c-0.184,0.086-0.381,0.152-0.594,0.197c-0.213,0.043-0.445,0.063-0.701,0.063
			c-0.283,0-0.547-0.035-0.791-0.117c-0.242-0.076-0.455-0.193-0.631-0.352c-0.178-0.158-0.318-0.35-0.422-0.582
			c-0.102-0.232-0.154-0.508-0.154-0.822c0-0.268,0.074-0.529,0.215-0.787c0.145-0.254,0.383-0.48,0.711-0.686
			c0.332-0.203,0.768-0.371,1.309-0.502c0.537-0.133,1.207-0.209,2-0.227v-0.467c0-0.498-0.107-0.873-0.32-1.12
			c-0.215-0.246-0.529-0.371-0.945-0.371c-0.283,0-0.52,0.037-0.711,0.108s-0.357,0.147-0.5,0.228
			c-0.141,0.083-0.268,0.16-0.377,0.231c-0.107,0.07-0.223,0.105-0.35,0.105c-0.102,0-0.186-0.025-0.256-0.078
			c-0.072-0.052-0.129-0.117-0.174-0.196L336.761,18.023z M340.657,20.979c-0.523,0.018-0.967,0.059-1.328,0.123
			c-0.359,0.068-0.65,0.15-0.875,0.256c-0.223,0.102-0.383,0.225-0.482,0.365c-0.098,0.143-0.145,0.297-0.145,0.465
			c0,0.164,0.023,0.303,0.078,0.42c0.053,0.117,0.123,0.213,0.217,0.289c0.094,0.074,0.203,0.127,0.33,0.162
			s0.264,0.053,0.414,0.053c0.383,0,0.713-0.072,0.986-0.215c0.277-0.145,0.545-0.354,0.805-0.627V20.979L340.657,20.979z"/>
		<path fill="#373F44" d="M345.534,18.345c0.219-0.445,0.484-0.791,0.791-1.045c0.311-0.254,0.682-0.38,1.117-0.38
			c0.15,0,0.291,0.017,0.422,0.051c0.133,0.035,0.25,0.085,0.357,0.153l-0.102,1.107c-0.021,0.078-0.049,0.131-0.088,0.161
			c-0.037,0.03-0.09,0.044-0.152,0.044c-0.072,0-0.166-0.014-0.297-0.037c-0.129-0.021-0.26-0.036-0.4-0.036
			c-0.209,0-0.391,0.029-0.545,0.089c-0.158,0.057-0.301,0.145-0.424,0.258c-0.125,0.115-0.234,0.254-0.33,0.416
			c-0.098,0.166-0.188,0.354-0.27,0.563v4.336h-1.471V17.05h0.857c0.154,0,0.262,0.028,0.32,0.085
			c0.059,0.058,0.1,0.156,0.121,0.298L345.534,18.345z"/>
		<path fill="#373F44" d="M351.312,14.945c0,0.133-0.025,0.258-0.078,0.376s-0.125,0.222-0.215,0.311
			c-0.092,0.09-0.199,0.161-0.316,0.213c-0.123,0.051-0.252,0.078-0.387,0.078c-0.133,0-0.256-0.027-0.375-0.078
			c-0.115-0.053-0.217-0.123-0.301-0.213c-0.086-0.089-0.158-0.192-0.211-0.311c-0.051-0.117-0.076-0.243-0.076-0.376
			c0-0.136,0.025-0.264,0.076-0.383c0.055-0.119,0.125-0.223,0.211-0.311c0.084-0.089,0.188-0.161,0.301-0.212
			c0.115-0.051,0.242-0.078,0.375-0.078c0.135,0,0.262,0.025,0.387,0.078c0.117,0.052,0.225,0.124,0.316,0.212
			c0.09,0.088,0.162,0.192,0.215,0.311S351.312,14.809,351.312,14.945z M351.067,17.052v6.976h-1.473v-6.976H351.067z"/>
		<path fill="#373F44" d="M353.091,18.023c0.789-0.734,1.729-1.102,2.816-1.102c0.402,0,0.76,0.066,1.07,0.195
			c0.314,0.131,0.576,0.313,0.787,0.55c0.211,0.237,0.375,0.518,0.486,0.846c0.111,0.327,0.168,0.688,0.168,1.083v4.434h-0.658
			c-0.141,0-0.246-0.02-0.318-0.064c-0.076-0.043-0.137-0.133-0.188-0.264l-0.143-0.568c-0.178,0.16-0.357,0.303-0.529,0.428
			c-0.174,0.125-0.35,0.23-0.535,0.318c-0.184,0.086-0.381,0.152-0.594,0.197c-0.213,0.043-0.445,0.063-0.701,0.063
			c-0.283,0-0.547-0.035-0.791-0.117c-0.242-0.076-0.453-0.193-0.633-0.352c-0.176-0.158-0.316-0.35-0.42-0.582
			c-0.102-0.232-0.152-0.508-0.152-0.822c0-0.268,0.07-0.529,0.213-0.787c0.145-0.254,0.383-0.48,0.711-0.686
			c0.332-0.203,0.77-0.371,1.309-0.502c0.539-0.133,1.207-0.209,2-0.227v-0.467c0-0.498-0.107-0.873-0.32-1.12
			c-0.217-0.246-0.529-0.371-0.945-0.371c-0.283,0-0.52,0.037-0.711,0.108c-0.189,0.071-0.357,0.147-0.5,0.228
			c-0.141,0.083-0.266,0.16-0.375,0.231c-0.111,0.07-0.227,0.105-0.35,0.105c-0.102,0-0.184-0.025-0.256-0.078
			c-0.072-0.052-0.131-0.117-0.176-0.196L353.091,18.023z M356.989,20.979c-0.525,0.018-0.969,0.059-1.328,0.123
			c-0.359,0.068-0.65,0.15-0.875,0.256c-0.223,0.102-0.381,0.225-0.482,0.365c-0.098,0.143-0.148,0.297-0.148,0.465
			c0,0.164,0.029,0.303,0.082,0.42c0.051,0.117,0.123,0.213,0.219,0.289c0.092,0.074,0.201,0.127,0.328,0.162
			c0.125,0.035,0.262,0.053,0.412,0.053c0.383,0,0.715-0.072,0.988-0.215c0.277-0.145,0.545-0.354,0.805-0.627V20.979
			L356.989,20.979z"/>
		<path fill="#373F44" d="M365.29,20.656c0.02,0.396,0.08,0.738,0.186,1.027c0.104,0.291,0.246,0.533,0.42,0.723
			c0.178,0.191,0.387,0.334,0.631,0.428c0.244,0.092,0.516,0.141,0.813,0.141c0.289,0,0.537-0.033,0.748-0.102
			c0.211-0.064,0.393-0.139,0.549-0.217c0.152-0.08,0.285-0.152,0.396-0.221c0.111-0.064,0.209-0.098,0.299-0.098
			c0.121,0,0.213,0.045,0.275,0.137l0.416,0.541c-0.174,0.205-0.367,0.377-0.586,0.518c-0.219,0.143-0.453,0.258-0.699,0.348
			c-0.246,0.092-0.498,0.154-0.758,0.193c-0.26,0.035-0.512,0.057-0.762,0.057c-0.484,0-0.928-0.08-1.342-0.242
			s-0.771-0.4-1.074-0.717s-0.541-0.705-0.713-1.17c-0.17-0.465-0.254-0.998-0.254-1.605c0-0.484,0.074-0.936,0.229-1.355
			c0.15-0.419,0.369-0.782,0.658-1.094c0.283-0.308,0.627-0.553,1.039-0.732c0.406-0.179,0.867-0.271,1.383-0.271
			c0.43,0,0.824,0.07,1.191,0.209c0.363,0.14,0.678,0.343,0.943,0.61c0.266,0.27,0.471,0.6,0.619,0.989
			c0.148,0.393,0.223,0.836,0.223,1.332c0,0.227-0.027,0.379-0.074,0.457c-0.053,0.078-0.143,0.117-0.275,0.117h-4.48V20.656z
			 M368.798,19.754c0-0.248-0.031-0.477-0.105-0.689c-0.07-0.211-0.172-0.395-0.313-0.553c-0.133-0.158-0.305-0.281-0.506-0.371
			c-0.205-0.087-0.438-0.131-0.703-0.131c-0.531,0-0.953,0.152-1.258,0.458c-0.307,0.304-0.498,0.734-0.58,1.287H368.798z"/>
		<path fill="#373F44" d="M375.403,18.023c0.791-0.734,1.73-1.102,2.82-1.102c0.402,0,0.756,0.066,1.07,0.195
			c0.314,0.131,0.576,0.313,0.787,0.55c0.211,0.237,0.373,0.518,0.484,0.846c0.111,0.327,0.17,0.688,0.17,1.083v4.434h-0.658
			c-0.143,0-0.252-0.02-0.32-0.064c-0.074-0.043-0.137-0.133-0.186-0.264l-0.145-0.568c-0.178,0.16-0.354,0.303-0.525,0.428
			c-0.174,0.123-0.355,0.23-0.537,0.318c-0.186,0.086-0.385,0.152-0.598,0.197c-0.209,0.043-0.443,0.063-0.697,0.063
			c-0.283,0-0.547-0.035-0.791-0.117c-0.244-0.078-0.455-0.193-0.635-0.352c-0.176-0.158-0.316-0.35-0.418-0.582
			c-0.105-0.232-0.154-0.508-0.154-0.822c0-0.268,0.07-0.529,0.215-0.787c0.143-0.254,0.379-0.48,0.711-0.686
			c0.33-0.203,0.768-0.371,1.307-0.502c0.541-0.133,1.205-0.209,2.002-0.227v-0.467c0-0.498-0.109-0.873-0.326-1.12
			c-0.211-0.246-0.527-0.371-0.938-0.371c-0.285,0-0.521,0.037-0.713,0.108c-0.193,0.071-0.359,0.147-0.5,0.228
			c-0.141,0.083-0.268,0.16-0.377,0.231c-0.109,0.07-0.227,0.105-0.348,0.105c-0.1,0-0.186-0.025-0.258-0.078
			c-0.07-0.052-0.131-0.117-0.176-0.196L375.403,18.023z M379.306,20.979c-0.525,0.018-0.969,0.059-1.326,0.123
			c-0.361,0.068-0.656,0.15-0.881,0.256c-0.221,0.102-0.381,0.225-0.48,0.365c-0.096,0.143-0.146,0.297-0.146,0.465
			c0,0.164,0.027,0.303,0.076,0.42c0.053,0.117,0.129,0.213,0.221,0.289c0.094,0.074,0.203,0.127,0.328,0.162
			s0.262,0.053,0.412,0.053c0.385,0,0.713-0.072,0.99-0.215c0.277-0.145,0.543-0.354,0.807-0.627V20.979L379.306,20.979z"/>
		<path fill="#373F44" d="M384.181,18.345c0.219-0.445,0.482-0.791,0.793-1.045c0.309-0.254,0.682-0.38,1.115-0.38
			c0.148,0,0.291,0.017,0.424,0.051c0.131,0.035,0.252,0.085,0.355,0.153l-0.104,1.107c-0.018,0.078-0.045,0.131-0.084,0.161
			c-0.041,0.032-0.09,0.044-0.156,0.044c-0.068,0-0.164-0.014-0.291-0.037c-0.129-0.021-0.264-0.036-0.406-0.036
			c-0.207,0-0.385,0.029-0.543,0.089c-0.158,0.057-0.297,0.145-0.424,0.258c-0.125,0.115-0.236,0.254-0.332,0.416
			c-0.096,0.166-0.186,0.354-0.266,0.563v4.336h-1.471V17.05h0.854c0.156,0,0.262,0.028,0.324,0.085
			c0.059,0.058,0.1,0.156,0.121,0.298L384.181,18.345z"/>
		<path fill="#373F44" d="M393.876,17.052v9.294h-1.469v-3.27c-0.285,0.313-0.611,0.568-0.969,0.764
			c-0.357,0.193-0.773,0.289-1.248,0.289c-0.391,0-0.744-0.078-1.066-0.234c-0.32-0.158-0.592-0.387-0.82-0.689
			c-0.227-0.301-0.4-0.674-0.529-1.117c-0.125-0.445-0.188-0.955-0.188-1.529c0-0.52,0.068-0.998,0.209-1.441
			c0.139-0.443,0.34-0.827,0.598-1.154c0.258-0.324,0.574-0.579,0.947-0.765c0.371-0.184,0.787-0.278,1.246-0.278
			c0.225,0,0.428,0.021,0.613,0.058c0.186,0.041,0.355,0.096,0.516,0.172c0.158,0.074,0.301,0.165,0.434,0.272
			c0.131,0.109,0.256,0.229,0.377,0.365l0.088-0.457c0.055-0.186,0.182-0.28,0.377-0.28H393.876z M392.407,18.768
			c-0.205-0.259-0.43-0.442-0.676-0.551c-0.248-0.106-0.514-0.161-0.801-0.161c-0.574,0-1.023,0.21-1.348,0.634
			c-0.324,0.42-0.484,1.047-0.484,1.869c0,0.43,0.035,0.797,0.109,1.098c0.072,0.303,0.178,0.549,0.314,0.742
			c0.137,0.191,0.303,0.33,0.498,0.418c0.193,0.084,0.416,0.127,0.662,0.127c0.375,0,0.699-0.08,0.971-0.242
			c0.27-0.16,0.523-0.389,0.754-0.688V18.768L392.407,18.768z"/>
		<path fill="#373F44" d="M401.894,17.052v6.976h-0.889c-0.197,0-0.32-0.094-0.377-0.281l-0.109-0.65
			c-0.145,0.158-0.301,0.297-0.463,0.426s-0.332,0.236-0.516,0.328c-0.182,0.09-0.377,0.162-0.584,0.213
			c-0.207,0.047-0.43,0.072-0.668,0.072c-0.383,0-0.721-0.063-1.01-0.191c-0.293-0.125-0.539-0.307-0.734-0.537
			c-0.201-0.234-0.35-0.514-0.451-0.84s-0.148-0.684-0.148-1.078V17.05h1.471v4.438c0,0.471,0.107,0.836,0.322,1.094
			c0.219,0.26,0.545,0.391,0.992,0.391c0.322,0,0.623-0.072,0.904-0.221c0.279-0.15,0.543-0.354,0.791-0.613V17.05h1.469V17.052z"/>
		<path fill="#373F44" d="M405.806,14.945c0,0.133-0.027,0.258-0.078,0.376c-0.053,0.118-0.125,0.222-0.215,0.311
			c-0.094,0.09-0.199,0.161-0.32,0.213c-0.117,0.051-0.248,0.078-0.385,0.078c-0.133,0-0.256-0.027-0.373-0.078
			c-0.115-0.053-0.219-0.123-0.303-0.213c-0.086-0.089-0.16-0.192-0.211-0.311c-0.051-0.117-0.078-0.243-0.078-0.376
			c0-0.136,0.027-0.264,0.078-0.383s0.123-0.223,0.211-0.311c0.084-0.089,0.188-0.161,0.303-0.212
			c0.117-0.052,0.24-0.078,0.373-0.078c0.137,0,0.266,0.025,0.385,0.078c0.123,0.052,0.227,0.124,0.32,0.212
			c0.09,0.088,0.164,0.192,0.215,0.311S405.806,14.809,405.806,14.945z M405.56,17.052v6.976h-1.471v-6.976H405.56z"/>
		<path fill="#373F44" d="M409.989,24.135c-0.576,0-1.021-0.16-1.336-0.486c-0.313-0.326-0.467-0.785-0.467-1.379v-4.064h-0.766
			c-0.084,0-0.152-0.024-0.213-0.076s-0.088-0.134-0.088-0.237v-0.594l1.129-0.165l0.32-2.018c0.023-0.078,0.061-0.141,0.117-0.188
			c0.055-0.048,0.127-0.072,0.215-0.072h0.754v2.292h1.936v1.058h-1.936v3.962c0,0.25,0.064,0.439,0.184,0.572
			c0.127,0.133,0.293,0.199,0.494,0.199c0.111,0,0.213-0.016,0.293-0.043c0.082-0.031,0.156-0.063,0.213-0.098
			c0.057-0.033,0.111-0.066,0.152-0.096c0.045-0.029,0.086-0.043,0.127-0.043c0.084,0,0.148,0.045,0.199,0.135l0.439,0.721
			c-0.229,0.199-0.496,0.354-0.809,0.459C410.638,24.084,410.319,24.135,409.989,24.135z"/>
		<path fill="#373F44" d="M414.114,20.656c0.018,0.396,0.08,0.738,0.186,1.027c0.105,0.291,0.244,0.533,0.418,0.723
			c0.178,0.191,0.387,0.334,0.631,0.428c0.244,0.092,0.516,0.141,0.814,0.141c0.289,0,0.537-0.033,0.746-0.102
			c0.211-0.064,0.395-0.139,0.547-0.217c0.158-0.08,0.289-0.152,0.398-0.221c0.109-0.064,0.209-0.098,0.301-0.098
			c0.117,0,0.209,0.045,0.273,0.137l0.416,0.541c-0.172,0.205-0.369,0.377-0.586,0.518c-0.219,0.143-0.449,0.258-0.701,0.348
			c-0.246,0.09-0.496,0.154-0.758,0.193c-0.26,0.035-0.512,0.057-0.76,0.057c-0.482,0-0.932-0.08-1.344-0.242
			s-0.771-0.4-1.072-0.717c-0.305-0.316-0.539-0.705-0.713-1.17c-0.172-0.465-0.254-0.998-0.254-1.605
			c0-0.484,0.074-0.936,0.229-1.355c0.15-0.419,0.371-0.782,0.654-1.094c0.285-0.308,0.629-0.553,1.041-0.732
			c0.408-0.179,0.867-0.271,1.387-0.271c0.428,0,0.824,0.07,1.189,0.209c0.361,0.14,0.674,0.343,0.941,0.61
			c0.264,0.27,0.473,0.6,0.621,0.989c0.146,0.393,0.221,0.836,0.221,1.332c0,0.227-0.023,0.379-0.074,0.457
			c-0.053,0.078-0.143,0.117-0.275,0.117h-4.477V20.656z M417.624,19.754c0-0.248-0.037-0.477-0.111-0.689
			c-0.07-0.211-0.17-0.395-0.307-0.553c-0.137-0.158-0.307-0.281-0.508-0.371c-0.207-0.087-0.441-0.131-0.705-0.131
			c-0.533,0-0.953,0.152-1.258,0.458c-0.305,0.304-0.498,0.734-0.582,1.287H417.624z"/>
		<path fill="#373F44" d="M422.825,24.135c-0.576,0-1.021-0.16-1.334-0.486s-0.467-0.785-0.467-1.379v-4.064h-0.768
			c-0.082,0-0.152-0.024-0.211-0.076c-0.063-0.052-0.09-0.134-0.09-0.237v-0.594l1.131-0.165l0.318-2.018
			c0.023-0.078,0.061-0.141,0.117-0.188c0.053-0.048,0.129-0.072,0.219-0.072h0.752v2.292h1.934v1.058h-1.934v3.962
			c0,0.25,0.061,0.439,0.184,0.572c0.125,0.133,0.289,0.199,0.494,0.199c0.109,0,0.211-0.016,0.293-0.043
			c0.08-0.031,0.152-0.063,0.211-0.098c0.057-0.033,0.111-0.066,0.154-0.096c0.045-0.029,0.086-0.043,0.125-0.043
			c0.084,0,0.148,0.045,0.201,0.135l0.438,0.721c-0.23,0.199-0.498,0.354-0.809,0.459C423.476,24.084,423.155,24.135,422.825,24.135
			z"/>
		<path fill="#373F44" d="M431.815,17.052v6.976h-0.891c-0.197,0-0.32-0.094-0.377-0.281l-0.111-0.65
			c-0.145,0.158-0.299,0.297-0.461,0.426c-0.158,0.129-0.332,0.236-0.518,0.328c-0.182,0.09-0.375,0.162-0.582,0.213
			c-0.209,0.049-0.428,0.072-0.67,0.072c-0.381,0-0.719-0.063-1.008-0.191c-0.295-0.125-0.537-0.307-0.734-0.537
			c-0.199-0.234-0.352-0.514-0.449-0.84c-0.102-0.326-0.152-0.684-0.152-1.078V17.05h1.473v4.438c0,0.471,0.107,0.836,0.322,1.094
			c0.215,0.26,0.545,0.391,0.992,0.391c0.322,0,0.625-0.072,0.906-0.221c0.277-0.15,0.543-0.354,0.789-0.613V17.05h1.471V17.052z"/>
		<path fill="#373F44" d="M435.335,18.345c0.221-0.445,0.484-0.791,0.793-1.045c0.313-0.254,0.682-0.38,1.115-0.38
			c0.15,0,0.293,0.017,0.426,0.051c0.131,0.035,0.248,0.085,0.354,0.153l-0.102,1.107c-0.02,0.078-0.047,0.131-0.086,0.161
			c-0.037,0.03-0.09,0.044-0.154,0.044c-0.068,0-0.164-0.014-0.293-0.037c-0.127-0.021-0.262-0.036-0.402-0.036
			c-0.205,0-0.389,0.029-0.545,0.089c-0.158,0.057-0.299,0.145-0.424,0.258c-0.125,0.115-0.236,0.254-0.332,0.416
			c-0.094,0.166-0.184,0.354-0.268,0.563v4.336h-1.471V17.05h0.857c0.156,0,0.262,0.028,0.32,0.085
			c0.059,0.058,0.102,0.156,0.123,0.298L435.335,18.345z"/>
		<path fill="#373F44" d="M439.063,18.023c0.787-0.734,1.729-1.102,2.818-1.102c0.398,0,0.758,0.066,1.07,0.195
			c0.309,0.131,0.574,0.313,0.781,0.55c0.215,0.237,0.379,0.518,0.49,0.846c0.111,0.327,0.168,0.688,0.168,1.083v4.434h-0.658
			c-0.141,0-0.25-0.02-0.322-0.064c-0.072-0.043-0.131-0.133-0.186-0.264l-0.143-0.568c-0.178,0.16-0.352,0.303-0.527,0.428
			c-0.174,0.123-0.35,0.23-0.535,0.318c-0.182,0.086-0.383,0.152-0.594,0.197c-0.215,0.043-0.447,0.063-0.701,0.063
			c-0.283,0-0.547-0.035-0.791-0.117c-0.246-0.078-0.455-0.193-0.631-0.352c-0.178-0.158-0.318-0.35-0.424-0.582
			c-0.1-0.232-0.152-0.508-0.152-0.822c0-0.268,0.072-0.529,0.213-0.787c0.143-0.254,0.381-0.48,0.715-0.686
			c0.33-0.203,0.766-0.371,1.307-0.502c0.535-0.133,1.205-0.209,2-0.227v-0.467c0-0.498-0.107-0.873-0.322-1.12
			c-0.215-0.246-0.529-0.371-0.943-0.371c-0.285,0-0.521,0.037-0.713,0.108s-0.357,0.147-0.496,0.228
			c-0.146,0.083-0.268,0.16-0.379,0.231c-0.111,0.07-0.225,0.105-0.35,0.105c-0.098,0-0.184-0.025-0.258-0.078
			c-0.07-0.052-0.125-0.117-0.17-0.196L439.063,18.023z M442.962,20.979c-0.527,0.018-0.967,0.059-1.326,0.123
			c-0.359,0.068-0.652,0.15-0.877,0.256c-0.223,0.102-0.383,0.225-0.48,0.365c-0.1,0.143-0.146,0.297-0.146,0.465
			c0,0.164,0.021,0.303,0.078,0.42c0.051,0.117,0.123,0.213,0.217,0.289c0.092,0.074,0.203,0.127,0.326,0.162
			c0.129,0.035,0.264,0.053,0.414,0.053c0.387,0,0.715-0.072,0.988-0.215c0.277-0.145,0.545-0.354,0.807-0.627V20.979z"/>
	</g>
	<line fill="none" x1="150.901" y1="36.611" x2="150.901" y2="-2.839"/>
	
		<line fill="none" stroke="#373F44" stroke-width="0.66" stroke-miterlimit="10" x1="150.901" y1="36.611" x2="150.901" y2="-2.839"/>
	<g id="Logo_Correta_1_">
		<g>
			<path fill="#373F44" d="M77.866,33.398c-3.045-0.842-5.766-1.781-8.523-2.818c-0.454-0.197-0.94-0.295-1.426-0.324
				c-5.058-0.262-9.564-3.99-9.564-11.09c0-6.736,4.183-11.474,10.438-11.474c6.321,0,10.083,4.864,10.083,11.019
				c0,5.252-2.433,8.787-5.64,10.086v0.123c1.879,0.52,3.985,0.977,5.771,1.301L77.866,33.398z M68.627,27.045
				c3.825,0,6.031-3.568,6.031-8.135c0-4.151-2.044-8.009-5.998-8.009c-3.986,0-6.095,3.792-6.095,8.171
				c0,4.375,2.237,7.973,6.03,7.973H68.627z"/>
			<path fill="#373F44" d="M83.533,11.84c-1.327,0-2.199-0.975-2.199-2.139c0-1.229,0.906-2.171,2.234-2.171
				c1.36,0,2.203,0.937,2.238,2.171c0,1.164-0.874,2.139-2.238,2.139H83.533z M81.562,14.11h3.984V29.9h-3.984V14.11z"/>
			<path fill="#373F44" d="M89.378,25.551c1.26,0.744,3.237,1.396,5.283,1.396c2.526,0,3.956-1.201,3.956-2.984
				c0-1.65-1.101-2.625-3.858-3.629c-3.63-1.264-5.933-3.207-5.933-6.324c0-3.598,2.982-6.287,7.747-6.287
				c2.369,0,4.085,0.513,5.217,1.068l-0.939,3.242c-0.81-0.423-2.332-1.036-4.373-1.036c-2.53,0-3.6,1.327-3.6,2.627
				c0,1.684,1.265,2.459,4.181,3.563c3.792,1.461,5.611,3.373,5.611,6.48c0,3.531-2.659,6.551-8.27,6.551
				c-2.333,0-4.732-0.648-5.931-1.365L89.378,25.551z"/>
			<path fill="#373F44" d="M117.968,26.107c0,1.422,0.065,2.813,0.259,3.789h-3.6l-0.291-1.754h-0.1
				c-0.938,1.232-2.592,2.113-4.667,2.113c-3.175,0-4.959-2.303-4.959-4.705c0-3.953,3.533-5.998,9.368-5.965v-0.254
				c0-1.04-0.421-2.759-3.208-2.759c-1.555,0-3.179,0.488-4.249,1.162l-0.775-2.59c1.168-0.716,3.206-1.395,5.706-1.395
				c5.061,0,6.518,3.21,6.518,6.676v5.682H117.968z M114.076,22.184c-2.821-0.033-5.51,0.549-5.51,2.947
				c0,1.561,1.003,2.27,2.268,2.27c1.622,0,2.754-1.035,3.141-2.17c0.101-0.291,0.101-0.584,0.101-0.875L114.076,22.184
				L114.076,22.184z"/>
			<path fill="#373F44" d="M125.975,10.06v4.051h3.792v2.979h-3.792v6.939c0,1.943,0.52,2.918,2.043,2.918
				c0.709,0,1.101-0.033,1.556-0.162l0.065,3.014c-0.584,0.229-1.657,0.42-2.885,0.42c-1.492,0-2.691-0.488-3.434-1.301
				c-0.877-0.908-1.269-2.361-1.269-4.436V17.09h-2.234v-2.98h2.234v-2.949L125.975,10.06z"/>
		</g>
		<g>
			<polygon fill="#E3E5E8" points="33.925,-3.916 15.034,-3.916 1.167,16.904 1.855,17.916 20.726,17.916 20.039,16.894 			"/>
			<polygon fill="#C0CBCF" points="33.925,37.693 15.034,37.693 1.167,16.894 20.039,16.894 20.039,16.883 			"/>
			<polygon fill="#0B8D87" points="15.017,-3.916 33.904,-3.916 47.774,16.883 47.092,17.916 28.216,17.916 28.903,16.883 
				28.903,16.894 			"/>
			<polygon fill="#1B5485" points="15.017,37.693 33.904,37.693 47.774,16.894 28.903,16.894 28.903,16.883 			"/>
			<polygon fill="#0B8D87" points="13.89,20.533 10.58,20.533 13.011,16.889 10.58,13.249 13.89,13.249 16.324,16.896 			"/>
			<polygon fill="#1B5485" points="21.028,22.076 16.324,22.076 19.777,16.898 16.324,11.724 21.028,11.724 24.483,16.904 			"/>
		</g>
	</g>
</g>
</svg>
