<?xml version="1.0" encoding="utf-8"?>
<!-- Generator: Adobe Illustrator 16.0.0, SVG Export Plug-In . SVG Version: 6.00 Build 0)  -->
<!DOCTYPE svg PUBLIC "-//W3C//DTD SVG 1.1//EN" "http://www.w3.org/Graphics/SVG/1.1/DTD/svg11.dtd">
<svg version="1.1" id="Camada_1" xmlns="http://www.w3.org/2000/svg" xmlns:xlink="http://www.w3.org/1999/xlink" x="0px" y="0px"
	 width="446.333px" height="43.917px" viewBox="0 0 446.333 43.917" enable-background="new 0 0 446.333 43.917"
	 xml:space="preserve">
<g id="Logo_Horizontal_1_">
	<g>
		<path fill="#373F44" d="M176.144,26.748c0.087,0,0.163,0.033,0.228,0.103l0.636,0.69c-0.402,0.482-0.895,0.857-1.478,1.119
			c-0.583,0.264-1.283,0.391-2.094,0.391c-0.72,0-1.369-0.122-1.952-0.368c-0.582-0.248-1.076-0.597-1.487-1.043
			c-0.411-0.443-0.727-0.974-0.949-1.591c-0.221-0.614-0.331-1.291-0.331-2.028c0-0.739,0.116-1.417,0.353-2.036
			c0.234-0.617,0.563-1.148,0.99-1.593c0.427-0.445,0.938-0.79,1.532-1.037c0.596-0.246,1.251-0.368,1.967-0.368
			c0.71,0,1.339,0.115,1.883,0.345s1.018,0.537,1.419,0.92l-0.528,0.745c-0.036,0.05-0.08,0.093-0.129,0.129
			c-0.049,0.037-0.117,0.056-0.204,0.056c-0.091,0-0.197-0.042-0.313-0.127c-0.116-0.084-0.266-0.178-0.444-0.281
			c-0.179-0.101-0.406-0.196-0.678-0.28c-0.269-0.084-0.608-0.127-1.014-0.127c-0.469,0-0.899,0.083-1.292,0.248
			c-0.392,0.163-0.729,0.403-1.012,0.717c-0.284,0.315-0.504,0.697-0.661,1.148c-0.157,0.451-0.236,0.964-0.236,1.542
			s0.083,1.092,0.248,1.549c0.163,0.453,0.391,0.836,0.676,1.148c0.287,0.311,0.626,0.547,1.013,0.715
			c0.387,0.164,0.804,0.246,1.252,0.246c0.273,0,0.519-0.014,0.735-0.045c0.215-0.027,0.417-0.076,0.599-0.141
			c0.182-0.07,0.355-0.154,0.517-0.252c0.161-0.103,0.32-0.226,0.48-0.371C175.962,26.787,176.051,26.748,176.144,26.748z"/>
		<path fill="#373F44" d="M184.241,21.968v6.976h-0.889c-0.196,0-0.323-0.094-0.377-0.28l-0.11-0.65
			c-0.144,0.158-0.298,0.297-0.461,0.426c-0.162,0.129-0.333,0.236-0.516,0.328c-0.183,0.09-0.376,0.162-0.585,0.213
			c-0.208,0.049-0.431,0.072-0.667,0.072c-0.382,0-0.721-0.063-1.012-0.191c-0.292-0.125-0.538-0.307-0.735-0.537
			c-0.198-0.234-0.348-0.514-0.446-0.84c-0.1-0.326-0.153-0.684-0.153-1.078v-4.44h1.473v4.438c0,0.471,0.108,0.836,0.324,1.094
			c0.216,0.26,0.546,0.392,0.989,0.392c0.322,0,0.625-0.072,0.905-0.222s0.544-0.354,0.79-0.612v-5.089h1.471L184.241,21.968
			L184.241,21.968z"/>
		<path fill="#373F44" d="M187.763,23.261c0.22-0.445,0.485-0.791,0.793-1.045c0.31-0.254,0.682-0.38,1.116-0.38
			c0.149,0,0.292,0.017,0.424,0.051c0.131,0.035,0.252,0.085,0.354,0.153l-0.102,1.107c-0.018,0.078-0.047,0.131-0.085,0.161
			c-0.039,0.029-0.09,0.044-0.155,0.044c-0.069,0-0.167-0.015-0.294-0.037c-0.128-0.021-0.261-0.036-0.402-0.036
			c-0.207,0-0.388,0.029-0.545,0.09c-0.158,0.057-0.3,0.145-0.423,0.258c-0.126,0.115-0.237,0.254-0.333,0.416
			c-0.096,0.166-0.185,0.354-0.267,0.563v4.336h-1.47v-6.975h0.856c0.154,0,0.261,0.028,0.319,0.085
			c0.061,0.058,0.102,0.156,0.124,0.298L187.763,23.261z"/>
		<path fill="#373F44" d="M195.896,23.233c-0.037,0.063-0.078,0.108-0.124,0.138c-0.044,0.025-0.103,0.041-0.17,0.041
			c-0.077,0-0.163-0.025-0.253-0.072c-0.093-0.047-0.2-0.103-0.323-0.161c-0.123-0.06-0.268-0.112-0.434-0.16
			s-0.362-0.069-0.584-0.069c-0.183,0-0.35,0.021-0.497,0.063c-0.147,0.044-0.272,0.104-0.375,0.184
			c-0.104,0.08-0.182,0.175-0.235,0.281c-0.057,0.11-0.083,0.222-0.083,0.347c0,0.163,0.05,0.301,0.151,0.409
			c0.101,0.108,0.232,0.203,0.397,0.283c0.163,0.082,0.349,0.153,0.559,0.215c0.21,0.063,0.425,0.134,0.644,0.207
			c0.217,0.071,0.434,0.158,0.642,0.252c0.21,0.099,0.396,0.216,0.561,0.354s0.297,0.307,0.397,0.506
			c0.101,0.197,0.151,0.438,0.151,0.721c0,0.328-0.061,0.631-0.178,0.908c-0.118,0.277-0.292,0.521-0.52,0.725
			c-0.229,0.207-0.512,0.365-0.853,0.479c-0.34,0.115-0.729,0.171-1.167,0.171c-0.241,0-0.474-0.021-0.7-0.063
			c-0.227-0.043-0.442-0.102-0.643-0.178c-0.205-0.074-0.393-0.166-0.569-0.271c-0.175-0.104-0.331-0.217-0.467-0.342l0.342-0.561
			c0.04-0.07,0.091-0.121,0.154-0.162c0.062-0.037,0.136-0.059,0.228-0.059c0.096,0,0.19,0.028,0.284,0.094
			c0.095,0.063,0.205,0.129,0.328,0.201c0.125,0.07,0.278,0.141,0.457,0.203c0.177,0.061,0.397,0.092,0.663,0.092
			c0.219,0,0.406-0.027,0.568-0.078c0.161-0.053,0.291-0.125,0.397-0.217c0.104-0.09,0.181-0.193,0.231-0.31
			c0.051-0.116,0.075-0.241,0.075-0.372c0-0.179-0.049-0.324-0.15-0.439c-0.101-0.114-0.233-0.215-0.4-0.295
			c-0.165-0.082-0.354-0.153-0.568-0.221c-0.212-0.063-0.427-0.131-0.646-0.205c-0.218-0.07-0.437-0.156-0.646-0.252
			c-0.212-0.098-0.402-0.219-0.568-0.365c-0.166-0.149-0.3-0.33-0.399-0.541c-0.1-0.211-0.152-0.471-0.152-0.774
			c0-0.278,0.057-0.543,0.167-0.793c0.111-0.252,0.276-0.474,0.494-0.666c0.215-0.189,0.483-0.34,0.799-0.453
			c0.318-0.111,0.683-0.168,1.098-0.168c0.471,0,0.896,0.074,1.279,0.227c0.383,0.15,0.705,0.355,0.963,0.616L195.896,23.233z"/>
		<path fill="#373F44" d="M201.06,21.857c0.514,0,0.979,0.087,1.396,0.255c0.418,0.166,0.772,0.405,1.068,0.72
			c0.295,0.309,0.52,0.684,0.681,1.127c0.159,0.44,0.24,0.938,0.24,1.492c0,0.549-0.082,1.047-0.24,1.489
			c-0.162,0.442-0.387,0.819-0.681,1.131c-0.295,0.313-0.649,0.556-1.068,0.724c-0.417,0.166-0.882,0.252-1.396,0.252
			c-0.523,0-0.99-0.084-1.406-0.252c-0.418-0.168-0.774-0.41-1.071-0.724c-0.296-0.312-0.524-0.688-0.683-1.131
			c-0.162-0.44-0.24-0.94-0.24-1.489c0-0.554,0.078-1.052,0.24-1.492c0.16-0.443,0.387-0.818,0.683-1.127
			c0.297-0.313,0.653-0.551,1.071-0.72C200.07,21.942,200.537,21.857,201.06,21.857z M201.06,27.896
			c0.628,0,1.095-0.209,1.404-0.631c0.31-0.422,0.462-1.025,0.462-1.809c0-0.785-0.153-1.392-0.462-1.818
			C202.156,23.212,201.688,23,201.06,23c-0.64,0-1.113,0.213-1.424,0.639c-0.31,0.428-0.464,1.033-0.464,1.818
			c0,0.783,0.155,1.385,0.464,1.809C199.947,27.687,200.42,27.896,201.06,27.896z"/>
		<path fill="#373F44" d="M210.36,23.233c-0.037,0.063-0.076,0.108-0.122,0.138c-0.048,0.025-0.104,0.041-0.17,0.041
			c-0.079,0-0.164-0.025-0.255-0.072c-0.09-0.047-0.197-0.103-0.32-0.161c-0.123-0.06-0.268-0.112-0.437-0.16
			c-0.164-0.048-0.359-0.069-0.583-0.069c-0.183,0-0.349,0.021-0.496,0.063c-0.147,0.044-0.273,0.104-0.375,0.184
			c-0.104,0.08-0.181,0.175-0.236,0.281c-0.055,0.11-0.083,0.222-0.083,0.347c0,0.163,0.051,0.301,0.15,0.409
			c0.102,0.108,0.233,0.203,0.397,0.283c0.163,0.082,0.349,0.153,0.56,0.215c0.211,0.063,0.424,0.134,0.645,0.207
			c0.217,0.071,0.434,0.158,0.641,0.252c0.211,0.099,0.398,0.216,0.563,0.354c0.163,0.139,0.295,0.307,0.396,0.506
			c0.101,0.197,0.151,0.438,0.151,0.721c0,0.328-0.063,0.631-0.178,0.908c-0.119,0.277-0.292,0.521-0.52,0.725
			c-0.23,0.207-0.514,0.365-0.854,0.479c-0.34,0.115-0.728,0.171-1.165,0.171c-0.243,0-0.478-0.021-0.702-0.063
			c-0.224-0.043-0.44-0.102-0.642-0.178c-0.205-0.074-0.393-0.166-0.567-0.271c-0.176-0.104-0.332-0.217-0.47-0.342l0.343-0.561
			c0.04-0.07,0.094-0.121,0.155-0.162c0.063-0.037,0.137-0.059,0.228-0.059c0.096,0,0.191,0.028,0.284,0.094
			c0.094,0.063,0.203,0.129,0.33,0.201c0.125,0.07,0.275,0.141,0.454,0.203c0.177,0.061,0.399,0.092,0.664,0.092
			c0.217,0,0.407-0.027,0.566-0.078c0.161-0.053,0.292-0.125,0.397-0.217c0.104-0.09,0.182-0.193,0.232-0.31
			c0.049-0.116,0.074-0.241,0.074-0.372c0-0.179-0.051-0.324-0.15-0.439c-0.1-0.114-0.232-0.215-0.399-0.295
			c-0.167-0.082-0.355-0.153-0.568-0.221c-0.213-0.063-0.427-0.131-0.647-0.205c-0.219-0.07-0.434-0.156-0.646-0.252
			c-0.212-0.098-0.4-0.219-0.567-0.365c-0.167-0.149-0.3-0.33-0.399-0.541c-0.102-0.211-0.15-0.471-0.15-0.774
			c0-0.278,0.056-0.543,0.166-0.793c0.111-0.252,0.276-0.474,0.492-0.666c0.216-0.189,0.484-0.34,0.801-0.453
			c0.317-0.111,0.681-0.168,1.096-0.168c0.471,0,0.896,0.074,1.279,0.227c0.385,0.15,0.705,0.355,0.963,0.616L210.36,23.233z"/>
		<path fill="#373F44" d="M216.085,22.939c0.787-0.734,1.727-1.102,2.816-1.102c0.402,0,0.758,0.066,1.07,0.195
			c0.311,0.131,0.576,0.313,0.785,0.549c0.213,0.237,0.375,0.519,0.488,0.847c0.111,0.327,0.166,0.688,0.166,1.083v4.434h-0.654
			c-0.143,0-0.252-0.02-0.324-0.064c-0.072-0.043-0.133-0.133-0.184-0.264l-0.145-0.568c-0.178,0.16-0.352,0.304-0.527,0.429
			c-0.172,0.123-0.352,0.229-0.535,0.317c-0.184,0.086-0.383,0.152-0.594,0.197c-0.213,0.043-0.447,0.063-0.701,0.063
			c-0.283,0-0.547-0.035-0.791-0.117c-0.242-0.076-0.455-0.192-0.633-0.353c-0.178-0.158-0.316-0.35-0.422-0.582
			c-0.102-0.231-0.152-0.508-0.152-0.821c0-0.269,0.072-0.529,0.213-0.787c0.145-0.254,0.383-0.479,0.713-0.687
			c0.332-0.203,0.768-0.371,1.309-0.502c0.537-0.133,1.205-0.209,2-0.227v-0.467c0-0.498-0.107-0.873-0.324-1.12
			c-0.213-0.246-0.527-0.371-0.941-0.371c-0.285,0-0.52,0.037-0.713,0.108c-0.191,0.07-0.357,0.146-0.498,0.228
			c-0.143,0.083-0.268,0.16-0.379,0.231c-0.109,0.07-0.225,0.104-0.35,0.104c-0.098,0-0.184-0.024-0.256-0.077
			c-0.07-0.053-0.127-0.117-0.174-0.197L216.085,22.939z M219.983,25.895c-0.525,0.019-0.967,0.06-1.328,0.123
			c-0.359,0.067-0.652,0.149-0.875,0.256c-0.223,0.103-0.383,0.226-0.482,0.365c-0.098,0.144-0.145,0.297-0.145,0.465
			c0,0.164,0.023,0.304,0.076,0.42c0.051,0.117,0.125,0.213,0.219,0.289c0.092,0.074,0.203,0.127,0.328,0.162
			c0.127,0.034,0.262,0.053,0.412,0.053c0.385,0,0.715-0.071,0.99-0.215c0.275-0.146,0.543-0.354,0.805-0.627V25.895z"/>
		<path fill="#373F44" d="M224.866,22.98c0.291-0.344,0.621-0.617,0.996-0.828c0.369-0.209,0.801-0.315,1.295-0.315
			c0.391,0,0.746,0.08,1.066,0.236c0.318,0.157,0.594,0.385,0.818,0.686c0.229,0.301,0.405,0.676,0.533,1.119
			c0.125,0.443,0.188,0.953,0.188,1.529c0,0.514-0.07,0.996-0.209,1.438s-0.34,0.829-0.6,1.155c-0.261,0.326-0.574,0.58-0.945,0.769
			c-0.367,0.185-0.785,0.274-1.25,0.274c-0.408,0-0.756-0.065-1.041-0.2c-0.287-0.13-0.545-0.313-0.779-0.546v2.961h-1.471v-9.293
			h0.891c0.201,0,0.328,0.093,0.385,0.28L224.866,22.98z M224.94,27.193c0.205,0.264,0.432,0.451,0.676,0.557
			c0.242,0.107,0.512,0.16,0.809,0.16c0.574,0,1.021-0.209,1.345-0.629c0.319-0.42,0.481-1.045,0.481-1.873
			c0-0.43-0.035-0.795-0.108-1.1c-0.074-0.303-0.181-0.551-0.313-0.743c-0.136-0.188-0.304-0.329-0.498-0.416
			c-0.197-0.088-0.416-0.131-0.666-0.131c-0.375,0-0.697,0.08-0.968,0.244c-0.271,0.161-0.522,0.394-0.756,0.694L224.94,27.193
			L224.94,27.193z"/>
		<path fill="#373F44" d="M233.032,18.822v10.122h-1.471V18.822H233.032z"/>
		<path fill="#373F44" d="M236.97,19.861c0,0.133-0.025,0.258-0.078,0.376c-0.054,0.118-0.125,0.222-0.218,0.311
			c-0.088,0.09-0.194,0.161-0.315,0.213c-0.118,0.051-0.25,0.078-0.387,0.078c-0.132,0-0.257-0.027-0.373-0.078
			c-0.115-0.053-0.218-0.123-0.304-0.213c-0.086-0.089-0.157-0.192-0.207-0.311c-0.057-0.117-0.08-0.243-0.08-0.376
			c0-0.136,0.023-0.264,0.08-0.383c0.05-0.119,0.119-0.223,0.207-0.311c0.086-0.089,0.188-0.161,0.304-0.212
			c0.116-0.051,0.241-0.078,0.373-0.078c0.137,0,0.266,0.025,0.387,0.078c0.121,0.053,0.229,0.124,0.315,0.212
			c0.093,0.088,0.164,0.192,0.218,0.311C236.945,19.597,236.97,19.725,236.97,19.861z M236.724,21.968v6.976h-1.47v-6.976H236.724z"
			/>
		<path fill="#373F44" d="M243.853,23.335c-0.047,0.059-0.09,0.104-0.131,0.137c-0.046,0.031-0.103,0.049-0.179,0.049
			c-0.078,0-0.157-0.029-0.244-0.084c-0.082-0.055-0.184-0.115-0.301-0.184c-0.115-0.063-0.256-0.123-0.422-0.178
			c-0.162-0.058-0.369-0.082-0.613-0.082c-0.319,0-0.598,0.057-0.84,0.17c-0.242,0.115-0.44,0.277-0.6,0.49
			c-0.164,0.211-0.285,0.469-0.361,0.771c-0.082,0.301-0.123,0.645-0.123,1.023c0,0.393,0.047,0.739,0.129,1.045
			c0.09,0.307,0.213,0.563,0.375,0.772c0.162,0.209,0.357,0.368,0.588,0.479c0.229,0.108,0.488,0.164,0.775,0.164
			c0.283,0,0.512-0.033,0.691-0.104c0.178-0.068,0.324-0.142,0.445-0.228c0.115-0.08,0.217-0.154,0.303-0.225
			c0.084-0.068,0.174-0.102,0.27-0.102c0.119,0,0.211,0.045,0.275,0.137l0.414,0.539c-0.166,0.207-0.354,0.377-0.561,0.52
			c-0.203,0.141-0.42,0.256-0.648,0.348c-0.227,0.09-0.463,0.152-0.711,0.191c-0.25,0.037-0.494,0.057-0.748,0.057
			c-0.432,0-0.834-0.08-1.215-0.242c-0.373-0.161-0.701-0.396-0.982-0.702c-0.281-0.312-0.502-0.687-0.666-1.129
			c-0.162-0.445-0.242-0.953-0.242-1.521c0-0.517,0.072-0.994,0.221-1.435c0.146-0.44,0.357-0.82,0.64-1.138
			c0.278-0.32,0.627-0.569,1.041-0.751c0.418-0.177,0.896-0.269,1.437-0.269c0.506,0,0.955,0.082,1.338,0.247
			c0.385,0.165,0.729,0.396,1.03,0.697L243.853,23.335z"/>
		<path fill="#373F44" d="M245.655,22.939c0.791-0.734,1.729-1.102,2.816-1.102c0.4,0,0.76,0.066,1.074,0.195
			c0.311,0.131,0.572,0.313,0.783,0.549c0.211,0.237,0.373,0.519,0.485,0.847c0.11,0.327,0.17,0.688,0.17,1.083v4.434h-0.659
			c-0.144,0-0.248-0.02-0.32-0.064c-0.072-0.043-0.133-0.133-0.187-0.264l-0.146-0.568c-0.174,0.16-0.35,0.304-0.522,0.429
			c-0.176,0.123-0.354,0.229-0.537,0.317c-0.187,0.086-0.383,0.152-0.598,0.197c-0.211,0.043-0.44,0.063-0.697,0.063
			c-0.282,0-0.547-0.035-0.793-0.117c-0.244-0.076-0.453-0.192-0.631-0.353c-0.179-0.158-0.317-0.35-0.42-0.582
			c-0.104-0.231-0.154-0.508-0.154-0.821c0-0.269,0.07-0.529,0.216-0.787c0.141-0.254,0.379-0.479,0.711-0.687
			c0.332-0.203,0.768-0.371,1.309-0.502c0.539-0.133,1.207-0.209,1.998-0.227v-0.467c0-0.498-0.109-0.873-0.32-1.12
			c-0.213-0.246-0.531-0.371-0.941-0.371c-0.287,0-0.522,0.037-0.715,0.108c-0.193,0.07-0.359,0.146-0.5,0.228
			c-0.141,0.083-0.266,0.16-0.375,0.231c-0.109,0.07-0.227,0.104-0.35,0.104c-0.1,0-0.186-0.024-0.256-0.077
			c-0.072-0.053-0.131-0.117-0.176-0.197L245.655,22.939z M249.554,25.895c-0.522,0.019-0.966,0.06-1.324,0.123
			c-0.362,0.067-0.653,0.149-0.877,0.256c-0.226,0.103-0.386,0.226-0.483,0.365c-0.097,0.144-0.146,0.297-0.146,0.465
			c0,0.164,0.027,0.304,0.078,0.42c0.053,0.117,0.129,0.213,0.221,0.289c0.094,0.074,0.203,0.127,0.328,0.162
			c0.125,0.034,0.26,0.053,0.412,0.053c0.383,0,0.713-0.071,0.988-0.215c0.276-0.146,0.543-0.354,0.805-0.627L249.554,25.895
			L249.554,25.895z"/>
		<path fill="#373F44" d="M258.963,18.822v10.122h-0.887c-0.197,0-0.322-0.094-0.377-0.28l-0.131-0.761
			c-0.293,0.345-0.621,0.619-0.994,0.828c-0.371,0.211-0.807,0.313-1.297,0.313c-0.393,0-0.748-0.078-1.064-0.235
			c-0.319-0.158-0.594-0.388-0.821-0.688c-0.229-0.302-0.406-0.675-0.529-1.117c-0.127-0.443-0.188-0.953-0.188-1.527
			c0-0.521,0.066-1,0.209-1.443c0.14-0.441,0.336-0.824,0.597-1.152c0.26-0.323,0.578-0.581,0.949-0.765
			c0.37-0.184,0.784-0.278,1.245-0.278c0.41,0,0.761,0.065,1.048,0.195c0.288,0.131,0.545,0.312,0.771,0.545v-3.755H258.963
			L258.963,18.822z M257.493,23.684c-0.203-0.265-0.428-0.449-0.676-0.554c-0.246-0.104-0.514-0.158-0.803-0.158
			c-0.572,0-1.02,0.21-1.344,0.634c-0.324,0.42-0.486,1.047-0.486,1.869c0,0.431,0.035,0.797,0.109,1.099
			c0.074,0.303,0.178,0.549,0.313,0.741c0.14,0.19,0.304,0.33,0.5,0.418c0.192,0.084,0.416,0.127,0.662,0.127
			c0.375,0,0.696-0.079,0.967-0.241c0.272-0.16,0.525-0.39,0.757-0.688V23.684L257.493,23.684z"/>
		<path fill="#373F44" d="M264.116,21.857c0.514,0,0.98,0.087,1.396,0.255c0.418,0.166,0.773,0.405,1.068,0.72
			c0.293,0.309,0.52,0.684,0.682,1.127c0.158,0.44,0.238,0.938,0.238,1.492c0,0.549-0.08,1.047-0.238,1.489
			c-0.164,0.442-0.391,0.819-0.682,1.131c-0.295,0.313-0.65,0.556-1.068,0.724c-0.416,0.166-0.883,0.252-1.396,0.252
			c-0.521,0-0.988-0.084-1.406-0.252c-0.416-0.168-0.772-0.41-1.069-0.724c-0.3-0.312-0.527-0.688-0.685-1.131
			c-0.162-0.44-0.24-0.94-0.24-1.489c0-0.554,0.078-1.052,0.24-1.492c0.158-0.443,0.387-0.818,0.685-1.127
			c0.297-0.313,0.653-0.551,1.069-0.72C263.127,21.942,263.595,21.857,264.116,21.857z M264.116,27.896
			c0.627,0,1.096-0.209,1.404-0.631c0.309-0.424,0.461-1.025,0.461-1.809c0-0.785-0.152-1.392-0.461-1.818
			c-0.309-0.426-0.777-0.639-1.404-0.639c-0.641,0-1.111,0.213-1.424,0.639c-0.309,0.428-0.467,1.033-0.467,1.818
			c0,0.783,0.158,1.385,0.467,1.809C263.004,27.687,263.476,27.896,264.116,27.896z"/>
		<path fill="#373F44" d="M273.417,23.233c-0.037,0.063-0.078,0.108-0.121,0.138c-0.047,0.025-0.104,0.041-0.174,0.041
			c-0.078,0-0.162-0.025-0.252-0.072c-0.094-0.047-0.201-0.103-0.322-0.161c-0.123-0.06-0.268-0.112-0.434-0.16
			c-0.168-0.048-0.359-0.069-0.586-0.069c-0.182,0-0.348,0.021-0.496,0.063c-0.145,0.044-0.273,0.104-0.375,0.184
			c-0.104,0.08-0.182,0.175-0.236,0.281c-0.055,0.11-0.08,0.222-0.08,0.347c0,0.163,0.05,0.301,0.148,0.409
			c0.1,0.108,0.232,0.203,0.398,0.283c0.162,0.082,0.35,0.153,0.559,0.215c0.209,0.063,0.424,0.134,0.641,0.207
			c0.222,0.071,0.438,0.158,0.646,0.252c0.211,0.099,0.396,0.216,0.563,0.354c0.16,0.139,0.293,0.307,0.392,0.506
			c0.104,0.197,0.151,0.438,0.151,0.721c0,0.328-0.059,0.631-0.176,0.908s-0.291,0.521-0.518,0.725
			c-0.23,0.207-0.514,0.365-0.854,0.479c-0.34,0.115-0.73,0.171-1.166,0.171c-0.244,0-0.476-0.021-0.701-0.063
			c-0.227-0.043-0.439-0.102-0.643-0.178c-0.203-0.074-0.394-0.166-0.568-0.271c-0.176-0.104-0.332-0.217-0.469-0.342l0.344-0.561
			c0.039-0.07,0.09-0.121,0.152-0.162c0.063-0.037,0.137-0.059,0.229-0.059c0.1,0,0.189,0.028,0.285,0.094
			c0.094,0.063,0.205,0.129,0.33,0.201c0.121,0.07,0.274,0.141,0.453,0.203c0.176,0.061,0.396,0.092,0.662,0.092
			c0.219,0,0.407-0.027,0.571-0.078c0.158-0.053,0.289-0.125,0.396-0.217c0.104-0.09,0.18-0.193,0.231-0.31s0.074-0.241,0.074-0.372
			c0-0.179-0.054-0.324-0.152-0.439c-0.103-0.114-0.233-0.215-0.397-0.295c-0.166-0.082-0.355-0.153-0.57-0.221
			c-0.211-0.063-0.424-0.131-0.645-0.205c-0.22-0.07-0.435-0.156-0.646-0.252c-0.215-0.098-0.403-0.219-0.567-0.365
			c-0.166-0.149-0.3-0.33-0.4-0.541c-0.098-0.211-0.152-0.471-0.152-0.774c0-0.278,0.059-0.543,0.17-0.793
			c0.109-0.252,0.275-0.474,0.49-0.666c0.217-0.189,0.484-0.34,0.801-0.453c0.316-0.111,0.682-0.168,1.098-0.168
			c0.472,0,0.898,0.074,1.277,0.227c0.387,0.15,0.707,0.355,0.965,0.616L273.417,23.233z"/>
		<path fill="#373F44" d="M279.138,22.939c0.791-0.734,1.729-1.102,2.819-1.102c0.4,0,0.756,0.066,1.07,0.195
			c0.309,0.131,0.572,0.313,0.787,0.549c0.211,0.237,0.371,0.519,0.484,0.847c0.111,0.327,0.166,0.688,0.166,1.083v4.434h-0.656
			c-0.139,0-0.25-0.02-0.32-0.064c-0.074-0.043-0.135-0.133-0.186-0.264l-0.141-0.568c-0.181,0.16-0.355,0.304-0.529,0.429
			c-0.172,0.123-0.352,0.229-0.535,0.317c-0.184,0.086-0.387,0.152-0.596,0.197c-0.213,0.043-0.445,0.063-0.703,0.063
			c-0.283,0-0.541-0.035-0.789-0.117c-0.244-0.076-0.453-0.192-0.631-0.353c-0.18-0.157-0.318-0.35-0.42-0.582
			c-0.105-0.231-0.156-0.508-0.156-0.821c0-0.269,0.07-0.529,0.219-0.787c0.141-0.254,0.379-0.479,0.711-0.687
			c0.328-0.203,0.764-0.371,1.305-0.502c0.543-0.133,1.207-0.209,1.998-0.227v-0.467c0-0.498-0.104-0.873-0.32-1.12
			c-0.211-0.246-0.528-0.371-0.94-0.371c-0.283,0-0.521,0.037-0.715,0.108c-0.19,0.07-0.354,0.146-0.498,0.228
			c-0.14,0.083-0.265,0.16-0.373,0.231c-0.11,0.07-0.228,0.104-0.353,0.104c-0.102,0-0.188-0.024-0.254-0.077
			c-0.07-0.053-0.131-0.117-0.178-0.197L279.138,22.939z M281.157,18.986c0.168,0,0.295,0.027,0.377,0.081
			c0.082,0.055,0.156,0.14,0.219,0.253l0.998,1.655h-0.834c-0.112,0-0.207-0.015-0.274-0.047c-0.072-0.031-0.146-0.089-0.216-0.172
			l-1.647-1.77H281.157z M283.036,25.895c-0.522,0.019-0.965,0.06-1.326,0.123c-0.356,0.067-0.651,0.149-0.875,0.256
			c-0.223,0.103-0.385,0.226-0.481,0.365c-0.099,0.144-0.146,0.297-0.146,0.465c0,0.164,0.026,0.304,0.076,0.42
			c0.055,0.117,0.127,0.213,0.219,0.289c0.094,0.074,0.203,0.127,0.33,0.162c0.125,0.034,0.264,0.053,0.414,0.053
			c0.381,0,0.711-0.071,0.985-0.215c0.276-0.146,0.543-0.354,0.804-0.627V25.895L283.036,25.895z"/>
		<path fill="#373F44" d="M291.338,25.572c0.021,0.396,0.082,0.738,0.187,1.027c0.104,0.291,0.246,0.533,0.422,0.723
			c0.177,0.191,0.386,0.334,0.628,0.428c0.245,0.092,0.521,0.142,0.817,0.142c0.289,0,0.534-0.033,0.746-0.103
			c0.211-0.063,0.394-0.139,0.547-0.217c0.153-0.08,0.287-0.152,0.397-0.221c0.109-0.064,0.207-0.098,0.299-0.098
			c0.117,0,0.209,0.045,0.273,0.137l0.418,0.541c-0.174,0.205-0.369,0.377-0.588,0.518c-0.219,0.143-0.451,0.258-0.697,0.348
			c-0.246,0.093-0.502,0.154-0.762,0.193c-0.26,0.035-0.512,0.057-0.758,0.057c-0.482,0-0.932-0.08-1.346-0.241
			c-0.41-0.162-0.769-0.399-1.072-0.718c-0.303-0.315-0.539-0.705-0.709-1.17c-0.172-0.465-0.258-0.998-0.258-1.604
			c0-0.483,0.078-0.937,0.229-1.354c0.152-0.42,0.371-0.783,0.658-1.094c0.285-0.309,0.633-0.554,1.039-0.733
			c0.408-0.179,0.871-0.271,1.385-0.271c0.43,0,0.824,0.07,1.189,0.209c0.365,0.14,0.68,0.343,0.943,0.61
			c0.264,0.271,0.473,0.601,0.618,0.989c0.147,0.393,0.224,0.836,0.224,1.332c0,0.227-0.023,0.379-0.074,0.457
			c-0.053,0.078-0.141,0.117-0.275,0.117h-4.48V25.572z M294.851,24.669c0-0.248-0.037-0.477-0.108-0.688
			c-0.072-0.211-0.173-0.396-0.31-0.553c-0.14-0.158-0.306-0.281-0.511-0.371c-0.2-0.087-0.438-0.132-0.702-0.132
			c-0.535,0-0.949,0.152-1.255,0.459c-0.309,0.304-0.502,0.734-0.584,1.287h3.47V24.669z"/>
		<path fill="#373F44" d="M299.252,22.89c0.15-0.154,0.308-0.294,0.47-0.42c0.159-0.127,0.332-0.233,0.516-0.325
			c0.187-0.091,0.378-0.162,0.582-0.212c0.205-0.049,0.429-0.075,0.671-0.075c0.385,0,0.721,0.065,1.01,0.192
			c0.289,0.126,0.533,0.308,0.729,0.54c0.201,0.231,0.351,0.511,0.449,0.839c0.098,0.327,0.147,0.684,0.147,1.077v4.438h-1.461
			v-4.438c0-0.469-0.111-0.836-0.326-1.092c-0.215-0.263-0.545-0.394-0.99-0.394c-0.327,0-0.629,0.075-0.909,0.226
			c-0.281,0.151-0.545,0.355-0.791,0.617v5.082h-1.47v-6.976h0.89c0.201,0,0.328,0.092,0.381,0.28L299.252,22.89z"/>
		<path fill="#373F44" d="M311.905,22.222v0.544c0,0.183-0.109,0.294-0.326,0.336l-0.699,0.118c0.117,0.264,0.179,0.557,0.179,0.879
			c0,0.344-0.07,0.652-0.205,0.932c-0.133,0.279-0.319,0.516-0.556,0.713c-0.239,0.195-0.521,0.346-0.85,0.451
			c-0.33,0.104-0.684,0.156-1.068,0.156c-0.145,0-0.284-0.008-0.426-0.023c-0.139-0.018-0.274-0.039-0.404-0.065
			c-0.135,0.077-0.233,0.159-0.299,0.245c-0.061,0.087-0.092,0.177-0.092,0.271c0,0.15,0.063,0.261,0.195,0.332
			c0.133,0.074,0.309,0.127,0.525,0.158c0.216,0.03,0.463,0.053,0.74,0.063c0.276,0.01,0.561,0.021,0.848,0.045
			c0.291,0.023,0.574,0.063,0.852,0.117c0.277,0.051,0.525,0.137,0.74,0.258c0.217,0.119,0.393,0.283,0.523,0.488
			c0.135,0.205,0.201,0.471,0.201,0.801c0,0.301-0.078,0.594-0.228,0.883c-0.152,0.287-0.369,0.543-0.652,0.769
			c-0.284,0.222-0.635,0.399-1.047,0.535c-0.407,0.133-0.875,0.201-1.399,0.201c-0.521,0-0.972-0.052-1.359-0.15
			c-0.385-0.103-0.707-0.235-0.961-0.405c-0.26-0.172-0.449-0.371-0.578-0.592c-0.121-0.224-0.188-0.455-0.188-0.697
			c0-0.33,0.104-0.609,0.313-0.842c0.208-0.234,0.484-0.414,0.846-0.548c-0.193-0.09-0.348-0.217-0.465-0.377
			c-0.115-0.159-0.174-0.368-0.174-0.629c0-0.203,0.078-0.42,0.227-0.644c0.152-0.225,0.375-0.414,0.678-0.567
			c-0.348-0.19-0.621-0.444-0.821-0.761c-0.199-0.317-0.302-0.688-0.302-1.114c0-0.349,0.068-0.658,0.203-0.937
			c0.133-0.276,0.322-0.515,0.563-0.711c0.244-0.196,0.531-0.345,0.858-0.45c0.33-0.104,0.689-0.157,1.082-0.157
			c0.605,0,1.127,0.126,1.576,0.377h1.949V22.222z M310.429,29.285c0-0.154-0.046-0.279-0.136-0.373
			c-0.088-0.094-0.205-0.166-0.356-0.219c-0.147-0.053-0.328-0.09-0.526-0.115c-0.201-0.022-0.414-0.045-0.64-0.055
			c-0.228-0.012-0.457-0.023-0.69-0.033c-0.236-0.01-0.461-0.033-0.681-0.066c-0.222,0.115-0.397,0.252-0.537,0.41
			c-0.139,0.16-0.209,0.347-0.209,0.556c0,0.137,0.035,0.262,0.104,0.383c0.072,0.117,0.181,0.22,0.328,0.308
			c0.148,0.088,0.34,0.155,0.572,0.205c0.227,0.051,0.504,0.075,0.828,0.075c0.648,0,1.135-0.104,1.457-0.301
			C310.267,29.857,310.429,29.602,310.429,29.285z M308.381,25.393c0.455,0,0.8-0.115,1.027-0.351
			c0.229-0.229,0.342-0.533,0.342-0.908c0-0.383-0.112-0.686-0.342-0.909c-0.229-0.222-0.572-0.335-1.027-0.335
			c-0.45,0-0.791,0.113-1.02,0.335c-0.234,0.224-0.348,0.526-0.348,0.909c0,0.183,0.029,0.353,0.09,0.507
			c0.059,0.153,0.148,0.289,0.258,0.399c0.117,0.111,0.256,0.199,0.426,0.26C307.963,25.361,308.161,25.393,308.381,25.393z"/>
		<path fill="#373F44" d="M314.362,25.572c0.02,0.396,0.08,0.738,0.182,1.027c0.105,0.291,0.248,0.533,0.422,0.723
			c0.179,0.191,0.388,0.334,0.63,0.428c0.243,0.092,0.518,0.142,0.817,0.142c0.287,0,0.533-0.033,0.744-0.103
			c0.209-0.063,0.395-0.139,0.547-0.217c0.156-0.08,0.289-0.152,0.396-0.221c0.112-0.064,0.213-0.098,0.303-0.098
			c0.119,0,0.211,0.045,0.272,0.137l0.416,0.541c-0.172,0.205-0.371,0.377-0.584,0.518c-0.221,0.143-0.453,0.258-0.696,0.348
			c-0.25,0.091-0.5,0.154-0.765,0.193c-0.256,0.035-0.514,0.057-0.758,0.057c-0.484,0-0.93-0.08-1.344-0.241
			c-0.412-0.162-0.77-0.399-1.074-0.718c-0.301-0.315-0.541-0.705-0.711-1.17s-0.256-0.998-0.256-1.604
			c0-0.483,0.074-0.937,0.227-1.354c0.152-0.42,0.371-0.783,0.658-1.094c0.283-0.309,0.631-0.554,1.041-0.733
			c0.404-0.179,0.869-0.271,1.383-0.271c0.431,0,0.824,0.07,1.189,0.209c0.367,0.14,0.68,0.343,0.943,0.61
			c0.268,0.271,0.471,0.601,0.621,0.989c0.145,0.393,0.223,0.836,0.223,1.332c0,0.227-0.027,0.379-0.078,0.457
			c-0.047,0.078-0.139,0.117-0.271,0.117h-4.477V25.572L314.362,25.572z M317.87,24.669c0-0.248-0.037-0.477-0.104-0.688
			c-0.072-0.211-0.177-0.396-0.313-0.553c-0.137-0.158-0.307-0.281-0.508-0.371c-0.205-0.087-0.438-0.132-0.701-0.132
			c-0.535,0-0.953,0.152-1.26,0.459c-0.305,0.304-0.5,0.734-0.58,1.287h3.467V24.669z"/>
		<path fill="#373F44" d="M322.274,22.89c0.15-0.154,0.305-0.294,0.469-0.42c0.162-0.127,0.334-0.233,0.514-0.325
			c0.185-0.091,0.377-0.162,0.582-0.212c0.207-0.049,0.431-0.075,0.672-0.075c0.382,0,0.72,0.065,1.011,0.192
			c0.287,0.126,0.53,0.308,0.728,0.54c0.201,0.231,0.352,0.511,0.448,0.839c0.103,0.327,0.15,0.684,0.15,1.077v4.438h-1.464v-4.438
			c0-0.469-0.106-0.836-0.325-1.092c-0.216-0.263-0.545-0.394-0.983-0.394c-0.33,0-0.636,0.075-0.916,0.226
			c-0.281,0.151-0.543,0.355-0.789,0.617v5.082h-1.474v-6.976h0.892c0.203,0,0.328,0.092,0.385,0.28L322.274,22.89z"/>
		<path fill="#373F44" d="M330.385,22.794c0.285-0.283,0.603-0.51,0.943-0.682c0.34-0.171,0.74-0.256,1.197-0.256
			c0.383,0,0.719,0.064,1.006,0.19c0.291,0.128,0.535,0.308,0.734,0.542c0.197,0.229,0.348,0.51,0.443,0.836
			c0.102,0.326,0.153,0.684,0.153,1.078v4.439h-1.467v-4.439c0-0.471-0.104-0.836-0.321-1.094c-0.216-0.261-0.546-0.393-0.988-0.393
			c-0.33,0-0.635,0.076-0.914,0.227c-0.281,0.15-0.543,0.356-0.789,0.614v5.084h-1.469V18.821h1.469v3.974H330.385L330.385,22.794z"
			/>
		<path fill="#373F44" d="M336.76,22.939c0.787-0.734,1.73-1.102,2.816-1.102c0.4,0,0.758,0.066,1.068,0.195
			c0.313,0.131,0.576,0.313,0.787,0.549c0.211,0.237,0.375,0.519,0.488,0.847c0.11,0.327,0.166,0.688,0.166,1.083v4.434h-0.656
			c-0.141,0-0.248-0.02-0.322-0.064c-0.074-0.043-0.135-0.133-0.184-0.264l-0.146-0.568c-0.18,0.16-0.353,0.304-0.524,0.429
			c-0.174,0.123-0.354,0.229-0.539,0.317c-0.184,0.086-0.381,0.152-0.594,0.197c-0.213,0.043-0.445,0.063-0.701,0.063
			c-0.283,0-0.547-0.035-0.791-0.117c-0.242-0.076-0.455-0.192-0.631-0.353c-0.179-0.157-0.318-0.35-0.422-0.582
			c-0.103-0.231-0.154-0.508-0.154-0.821c0-0.269,0.074-0.529,0.215-0.787c0.145-0.254,0.383-0.479,0.711-0.687
			c0.332-0.203,0.768-0.371,1.309-0.502c0.537-0.133,1.207-0.209,2-0.227v-0.467c0-0.498-0.107-0.873-0.32-1.12
			c-0.215-0.246-0.528-0.371-0.944-0.371c-0.283,0-0.521,0.037-0.711,0.108c-0.19,0.07-0.356,0.146-0.5,0.228
			c-0.142,0.083-0.269,0.16-0.377,0.231c-0.107,0.07-0.224,0.104-0.351,0.104c-0.102,0-0.186-0.024-0.256-0.077
			c-0.072-0.053-0.129-0.117-0.174-0.197L336.76,22.939z M340.657,25.895c-0.523,0.019-0.967,0.06-1.328,0.123
			c-0.358,0.067-0.649,0.149-0.875,0.256c-0.223,0.103-0.383,0.226-0.481,0.365c-0.099,0.144-0.146,0.297-0.146,0.465
			c0,0.164,0.023,0.304,0.078,0.42c0.053,0.117,0.123,0.213,0.217,0.289c0.094,0.074,0.203,0.127,0.33,0.162
			c0.127,0.034,0.264,0.053,0.414,0.053c0.383,0,0.713-0.071,0.986-0.215c0.277-0.146,0.545-0.354,0.805-0.627V25.895
			L340.657,25.895z"/>
		<path fill="#373F44" d="M345.534,23.261c0.219-0.445,0.484-0.791,0.791-1.045c0.311-0.254,0.682-0.38,1.117-0.38
			c0.15,0,0.291,0.017,0.422,0.051c0.133,0.035,0.25,0.085,0.357,0.153l-0.102,1.107c-0.021,0.078-0.05,0.131-0.089,0.161
			c-0.036,0.029-0.09,0.044-0.151,0.044c-0.072,0-0.166-0.015-0.297-0.037c-0.129-0.021-0.261-0.036-0.4-0.036
			c-0.209,0-0.391,0.029-0.545,0.09c-0.158,0.057-0.301,0.145-0.424,0.258c-0.125,0.115-0.234,0.254-0.33,0.416
			c-0.098,0.166-0.188,0.354-0.271,0.563v4.336h-1.471v-6.975h0.856c0.154,0,0.262,0.028,0.32,0.085
			c0.059,0.058,0.1,0.156,0.121,0.298L345.534,23.261z"/>
		<path fill="#373F44" d="M351.312,19.861c0,0.133-0.024,0.258-0.078,0.376c-0.053,0.118-0.125,0.222-0.215,0.311
			c-0.093,0.09-0.199,0.161-0.315,0.213c-0.123,0.051-0.252,0.078-0.388,0.078c-0.133,0-0.256-0.027-0.375-0.078
			c-0.114-0.053-0.217-0.123-0.301-0.213c-0.086-0.089-0.158-0.192-0.211-0.311c-0.052-0.117-0.076-0.243-0.076-0.376
			c0-0.136,0.024-0.264,0.076-0.383c0.055-0.119,0.125-0.223,0.211-0.311c0.084-0.089,0.188-0.161,0.301-0.212
			c0.115-0.051,0.242-0.078,0.375-0.078c0.136,0,0.263,0.025,0.388,0.078c0.116,0.052,0.225,0.124,0.315,0.212
			c0.09,0.088,0.162,0.192,0.215,0.311C351.288,19.597,351.312,19.725,351.312,19.861z M351.067,21.968v6.976h-1.473v-6.976H351.067
			z"/>
		<path fill="#373F44" d="M353.09,22.939c0.789-0.734,1.729-1.102,2.816-1.102c0.402,0,0.76,0.066,1.07,0.195
			c0.314,0.131,0.576,0.313,0.787,0.549c0.211,0.237,0.375,0.519,0.486,0.847c0.11,0.327,0.168,0.688,0.168,1.083v4.434h-0.658
			c-0.141,0-0.246-0.02-0.318-0.064c-0.076-0.043-0.137-0.133-0.188-0.264l-0.144-0.568c-0.178,0.16-0.356,0.304-0.528,0.429
			c-0.174,0.125-0.351,0.229-0.535,0.317c-0.184,0.086-0.381,0.152-0.594,0.197c-0.213,0.043-0.445,0.063-0.701,0.063
			c-0.283,0-0.547-0.035-0.791-0.117c-0.242-0.076-0.453-0.192-0.633-0.353c-0.177-0.157-0.316-0.35-0.42-0.582
			c-0.103-0.231-0.152-0.508-0.152-0.821c0-0.269,0.07-0.529,0.213-0.787c0.145-0.254,0.383-0.479,0.711-0.687
			c0.332-0.203,0.77-0.371,1.309-0.502c0.539-0.133,1.207-0.209,2-0.227v-0.467c0-0.498-0.107-0.873-0.32-1.12
			c-0.217-0.246-0.528-0.371-0.944-0.371c-0.283,0-0.521,0.037-0.711,0.108c-0.188,0.07-0.356,0.146-0.5,0.228
			c-0.142,0.083-0.267,0.16-0.375,0.231c-0.111,0.07-0.228,0.104-0.351,0.104c-0.102,0-0.184-0.024-0.256-0.077
			s-0.131-0.117-0.176-0.197L353.09,22.939z M356.989,25.895c-0.525,0.019-0.969,0.06-1.328,0.123
			c-0.359,0.067-0.649,0.149-0.875,0.256c-0.223,0.103-0.381,0.226-0.481,0.365c-0.099,0.144-0.147,0.297-0.147,0.465
			c0,0.164,0.028,0.304,0.081,0.42c0.052,0.117,0.123,0.213,0.22,0.289c0.092,0.074,0.201,0.127,0.328,0.162
			c0.125,0.034,0.262,0.053,0.411,0.053c0.384,0,0.716-0.071,0.988-0.215c0.276-0.146,0.545-0.354,0.806-0.627v-1.291H356.989z"/>
		<path fill="#373F44" d="M365.29,25.572c0.021,0.396,0.08,0.738,0.187,1.027c0.104,0.291,0.246,0.533,0.42,0.723
			c0.179,0.191,0.388,0.334,0.631,0.428c0.244,0.092,0.517,0.142,0.813,0.142c0.289,0,0.537-0.033,0.748-0.103
			c0.211-0.063,0.393-0.139,0.549-0.217c0.152-0.08,0.285-0.152,0.396-0.221c0.11-0.064,0.209-0.098,0.299-0.098
			c0.121,0,0.213,0.045,0.274,0.137l0.416,0.541c-0.174,0.205-0.366,0.377-0.586,0.518c-0.22,0.143-0.453,0.258-0.699,0.348
			c-0.245,0.093-0.497,0.154-0.758,0.193c-0.26,0.035-0.513,0.057-0.763,0.057c-0.483,0-0.928-0.08-1.342-0.241
			c-0.414-0.162-0.771-0.399-1.074-0.718c-0.303-0.316-0.54-0.705-0.713-1.17c-0.17-0.465-0.254-0.998-0.254-1.604
			c0-0.483,0.074-0.937,0.229-1.354c0.149-0.42,0.369-0.783,0.658-1.094c0.282-0.309,0.627-0.554,1.038-0.733
			c0.406-0.179,0.867-0.271,1.384-0.271c0.431,0,0.823,0.07,1.19,0.209c0.363,0.14,0.679,0.343,0.943,0.61
			c0.266,0.271,0.471,0.601,0.619,0.989c0.148,0.393,0.223,0.836,0.223,1.332c0,0.227-0.027,0.379-0.074,0.457
			c-0.053,0.078-0.143,0.117-0.274,0.117h-4.479v-0.004H365.29z M368.797,24.669c0-0.248-0.03-0.477-0.104-0.688
			c-0.069-0.211-0.172-0.396-0.313-0.553c-0.133-0.158-0.305-0.281-0.506-0.371c-0.205-0.087-0.438-0.132-0.703-0.132
			c-0.53,0-0.953,0.152-1.258,0.459c-0.307,0.304-0.498,0.734-0.58,1.287h3.465V24.669z"/>
		<path fill="#373F44" d="M375.403,22.939c0.791-0.734,1.73-1.102,2.82-1.102c0.402,0,0.756,0.066,1.07,0.195
			c0.313,0.131,0.576,0.313,0.787,0.549c0.211,0.237,0.373,0.519,0.483,0.847c0.11,0.327,0.17,0.688,0.17,1.083v4.434h-0.657
			c-0.144,0-0.252-0.02-0.32-0.064c-0.074-0.043-0.137-0.133-0.187-0.264l-0.146-0.568c-0.178,0.16-0.354,0.304-0.524,0.429
			c-0.174,0.123-0.354,0.229-0.536,0.317c-0.187,0.086-0.386,0.152-0.599,0.197c-0.209,0.043-0.442,0.063-0.697,0.063
			c-0.282,0-0.547-0.035-0.79-0.117c-0.244-0.078-0.455-0.192-0.636-0.353c-0.176-0.157-0.315-0.35-0.418-0.582
			c-0.104-0.231-0.153-0.508-0.153-0.821c0-0.269,0.069-0.529,0.215-0.787c0.143-0.254,0.379-0.479,0.711-0.687
			c0.33-0.203,0.768-0.371,1.307-0.502c0.541-0.133,1.205-0.209,2.002-0.227v-0.467c0-0.498-0.109-0.873-0.326-1.12
			c-0.211-0.246-0.527-0.371-0.938-0.371c-0.285,0-0.521,0.037-0.713,0.108c-0.193,0.07-0.359,0.146-0.5,0.228
			c-0.142,0.083-0.269,0.16-0.377,0.231c-0.109,0.07-0.228,0.104-0.349,0.104c-0.101,0-0.187-0.024-0.258-0.077
			c-0.07-0.053-0.132-0.117-0.177-0.197L375.403,22.939z M379.306,25.895c-0.524,0.019-0.97,0.06-1.326,0.123
			c-0.36,0.067-0.655,0.149-0.881,0.256c-0.222,0.103-0.382,0.226-0.479,0.365c-0.097,0.144-0.146,0.297-0.146,0.465
			c0,0.164,0.027,0.304,0.076,0.42c0.053,0.117,0.129,0.213,0.221,0.289c0.094,0.074,0.203,0.127,0.328,0.162
			c0.125,0.034,0.262,0.053,0.412,0.053c0.385,0,0.713-0.071,0.99-0.215c0.276-0.146,0.543-0.354,0.807-0.627L379.306,25.895
			L379.306,25.895z"/>
		<path fill="#373F44" d="M384.181,23.261c0.219-0.445,0.481-0.791,0.793-1.045c0.31-0.254,0.683-0.38,1.114-0.38
			c0.148,0,0.291,0.017,0.425,0.051c0.131,0.035,0.252,0.085,0.354,0.153l-0.104,1.107c-0.018,0.078-0.045,0.131-0.084,0.161
			c-0.041,0.031-0.09,0.044-0.156,0.044c-0.068,0-0.164-0.015-0.291-0.037c-0.129-0.021-0.264-0.036-0.406-0.036
			c-0.207,0-0.385,0.029-0.543,0.09c-0.158,0.057-0.297,0.145-0.424,0.258c-0.125,0.115-0.236,0.254-0.332,0.416
			c-0.096,0.166-0.186,0.354-0.266,0.563v4.336h-1.471v-6.975h0.854c0.156,0,0.262,0.028,0.324,0.085
			c0.059,0.058,0.1,0.156,0.121,0.298L384.181,23.261z"/>
		<path fill="#373F44" d="M393.875,21.968v9.294h-1.469v-3.271c-0.285,0.313-0.611,0.568-0.969,0.764
			c-0.357,0.193-0.773,0.289-1.248,0.289c-0.391,0-0.744-0.078-1.066-0.233c-0.319-0.158-0.592-0.388-0.819-0.688
			c-0.228-0.302-0.4-0.674-0.529-1.117c-0.125-0.445-0.188-0.955-0.188-1.529c0-0.52,0.068-0.998,0.209-1.441
			c0.14-0.443,0.341-0.826,0.599-1.154c0.258-0.323,0.574-0.579,0.946-0.764c0.371-0.184,0.787-0.278,1.246-0.278
			c0.226,0,0.429,0.021,0.613,0.058c0.187,0.041,0.355,0.096,0.516,0.172c0.158,0.074,0.302,0.165,0.435,0.272
			c0.132,0.109,0.257,0.229,0.377,0.365l0.089-0.457c0.055-0.186,0.182-0.28,0.377-0.28H393.875z M392.407,23.684
			c-0.205-0.259-0.43-0.442-0.676-0.552c-0.248-0.105-0.514-0.16-0.801-0.16c-0.574,0-1.023,0.21-1.348,0.634
			c-0.324,0.42-0.484,1.047-0.484,1.869c0,0.431,0.035,0.797,0.109,1.099c0.071,0.303,0.178,0.549,0.313,0.741
			c0.138,0.19,0.304,0.33,0.498,0.418c0.192,0.084,0.416,0.127,0.662,0.127c0.375,0,0.698-0.079,0.971-0.241
			c0.271-0.16,0.522-0.39,0.755-0.688V23.684L392.407,23.684z"/>
		<path fill="#373F44" d="M401.894,21.968v6.976h-0.89c-0.196,0-0.319-0.094-0.377-0.28l-0.108-0.65
			c-0.146,0.158-0.302,0.297-0.463,0.426c-0.162,0.129-0.332,0.236-0.517,0.328c-0.182,0.09-0.377,0.162-0.584,0.213
			c-0.207,0.047-0.43,0.072-0.668,0.072c-0.383,0-0.721-0.063-1.01-0.191c-0.293-0.125-0.539-0.307-0.734-0.537
			c-0.201-0.234-0.35-0.514-0.451-0.84c-0.1-0.326-0.147-0.684-0.147-1.078v-4.44h1.472v4.438c0,0.471,0.106,0.836,0.321,1.094
			c0.22,0.26,0.546,0.392,0.992,0.392c0.321,0,0.623-0.072,0.903-0.222c0.279-0.149,0.543-0.354,0.791-0.612v-5.089h1.47V21.968
			L401.894,21.968z"/>
		<path fill="#373F44" d="M405.806,19.861c0,0.133-0.027,0.258-0.078,0.376c-0.054,0.118-0.125,0.222-0.215,0.311
			c-0.095,0.09-0.199,0.161-0.32,0.213c-0.116,0.051-0.248,0.078-0.385,0.078c-0.134,0-0.257-0.027-0.373-0.078
			c-0.115-0.053-0.22-0.123-0.304-0.213c-0.086-0.089-0.159-0.192-0.211-0.311c-0.051-0.117-0.078-0.243-0.078-0.376
			c0-0.136,0.027-0.264,0.078-0.383c0.052-0.119,0.123-0.223,0.211-0.311c0.084-0.089,0.188-0.161,0.304-0.212
			c0.116-0.052,0.239-0.078,0.373-0.078c0.137,0,0.267,0.025,0.385,0.078c0.123,0.052,0.228,0.124,0.32,0.212
			c0.09,0.088,0.163,0.192,0.215,0.311C405.779,19.597,405.806,19.725,405.806,19.861z M405.56,21.968v6.976h-1.472v-6.976H405.56z"
			/>
		<path fill="#373F44" d="M409.989,29.05c-0.576,0-1.021-0.159-1.336-0.485c-0.313-0.325-0.467-0.784-0.467-1.379v-4.063h-0.766
			c-0.084,0-0.152-0.024-0.213-0.076c-0.062-0.053-0.088-0.135-0.088-0.237v-0.594l1.129-0.165l0.319-2.018
			c0.022-0.078,0.062-0.141,0.117-0.188c0.056-0.048,0.127-0.072,0.215-0.072h0.754v2.292h1.937v1.059h-1.937v3.961
			c0,0.25,0.063,0.439,0.185,0.572c0.127,0.133,0.293,0.199,0.494,0.199c0.11,0,0.213-0.016,0.293-0.043
			c0.082-0.031,0.155-0.063,0.213-0.098c0.057-0.033,0.111-0.066,0.152-0.096c0.045-0.029,0.086-0.043,0.127-0.043
			c0.084,0,0.147,0.045,0.198,0.135l0.438,0.721c-0.229,0.199-0.496,0.354-0.809,0.459C410.638,29,410.319,29.05,409.989,29.05z"/>
		<path fill="#373F44" d="M414.114,25.572c0.018,0.396,0.08,0.738,0.186,1.027c0.105,0.291,0.244,0.533,0.418,0.723
			c0.179,0.191,0.388,0.334,0.632,0.428c0.243,0.092,0.517,0.142,0.813,0.142c0.289,0,0.537-0.033,0.746-0.103
			c0.211-0.063,0.396-0.139,0.547-0.217c0.158-0.08,0.289-0.152,0.398-0.221c0.109-0.064,0.209-0.098,0.301-0.098
			c0.117,0,0.209,0.045,0.273,0.137l0.416,0.541c-0.172,0.205-0.369,0.377-0.586,0.518c-0.219,0.143-0.449,0.258-0.701,0.348
			c-0.246,0.091-0.496,0.154-0.758,0.193c-0.26,0.035-0.512,0.057-0.76,0.057c-0.482,0-0.933-0.08-1.345-0.241
			c-0.411-0.162-0.771-0.399-1.071-0.718c-0.306-0.315-0.539-0.705-0.713-1.17c-0.172-0.465-0.254-0.998-0.254-1.604
			c0-0.483,0.073-0.937,0.229-1.354c0.15-0.42,0.371-0.783,0.654-1.094c0.285-0.309,0.629-0.554,1.041-0.733
			c0.407-0.179,0.867-0.271,1.387-0.271c0.428,0,0.824,0.07,1.189,0.209c0.36,0.14,0.674,0.343,0.94,0.61
			c0.264,0.271,0.473,0.601,0.62,0.989c0.146,0.393,0.222,0.836,0.222,1.332c0,0.227-0.022,0.379-0.073,0.457
			c-0.054,0.078-0.144,0.117-0.275,0.117h-4.477V25.572L414.114,25.572z M417.624,24.669c0-0.248-0.037-0.477-0.11-0.688
			c-0.07-0.211-0.171-0.396-0.308-0.553c-0.137-0.158-0.307-0.281-0.508-0.371c-0.207-0.087-0.441-0.132-0.705-0.132
			c-0.533,0-0.953,0.152-1.258,0.459c-0.305,0.304-0.498,0.734-0.582,1.287h3.471V24.669z"/>
		<path fill="#373F44" d="M422.825,29.05c-0.576,0-1.021-0.159-1.334-0.485c-0.313-0.325-0.467-0.784-0.467-1.379v-4.063h-0.768
			c-0.082,0-0.152-0.024-0.211-0.076c-0.063-0.053-0.09-0.135-0.09-0.237v-0.594l1.131-0.165l0.318-2.018
			c0.021-0.078,0.061-0.141,0.115-0.188c0.055-0.048,0.131-0.072,0.221-0.072h0.752v2.292h1.934v1.059h-1.934v3.961
			c0,0.25,0.061,0.439,0.184,0.572c0.125,0.133,0.289,0.199,0.494,0.199c0.109,0,0.211-0.016,0.293-0.043
			c0.08-0.031,0.152-0.063,0.211-0.098c0.057-0.033,0.111-0.066,0.154-0.096c0.045-0.029,0.086-0.043,0.125-0.043
			c0.084,0,0.146,0.045,0.201,0.135l0.438,0.721c-0.23,0.199-0.498,0.354-0.809,0.459C423.475,29,423.155,29.05,422.825,29.05z"/>
		<path fill="#373F44" d="M431.815,21.968v6.976h-0.891c-0.197,0-0.32-0.094-0.377-0.28l-0.111-0.65
			c-0.145,0.158-0.299,0.297-0.461,0.426c-0.158,0.129-0.332,0.236-0.518,0.328c-0.182,0.09-0.375,0.162-0.582,0.213
			c-0.209,0.049-0.428,0.072-0.67,0.072c-0.381,0-0.719-0.063-1.008-0.191c-0.295-0.125-0.537-0.307-0.734-0.537
			c-0.199-0.234-0.352-0.514-0.449-0.84c-0.102-0.326-0.152-0.684-0.152-1.078v-4.44h1.473v4.438c0,0.471,0.107,0.836,0.322,1.094
			c0.215,0.26,0.545,0.392,0.992,0.392c0.322,0,0.625-0.072,0.906-0.222c0.277-0.149,0.543-0.354,0.789-0.612v-5.089h1.471V21.968
			L431.815,21.968z"/>
		<path fill="#373F44" d="M435.334,23.261c0.221-0.445,0.484-0.791,0.793-1.045c0.314-0.254,0.682-0.38,1.115-0.38
			c0.15,0,0.293,0.017,0.426,0.051c0.131,0.035,0.248,0.085,0.355,0.153l-0.104,1.107c-0.02,0.078-0.047,0.131-0.086,0.161
			c-0.037,0.029-0.09,0.044-0.154,0.044c-0.066,0-0.164-0.015-0.293-0.037c-0.127-0.021-0.262-0.036-0.4-0.036
			c-0.205,0-0.391,0.029-0.545,0.09c-0.158,0.057-0.301,0.145-0.426,0.258c-0.125,0.115-0.234,0.254-0.332,0.416
			c-0.094,0.166-0.184,0.354-0.268,0.563v4.336h-1.471v-6.975h0.857c0.156,0,0.262,0.028,0.32,0.085
			c0.059,0.058,0.102,0.156,0.123,0.298L435.334,23.261z"/>
		<path fill="#373F44" d="M439.063,22.939c0.787-0.734,1.729-1.102,2.818-1.102c0.398,0,0.758,0.066,1.07,0.195
			c0.309,0.131,0.574,0.313,0.781,0.549c0.215,0.237,0.379,0.519,0.488,0.847c0.111,0.327,0.168,0.688,0.168,1.083v4.434h-0.656
			c-0.143,0-0.25-0.02-0.322-0.064c-0.072-0.043-0.131-0.133-0.188-0.264l-0.143-0.568c-0.178,0.16-0.352,0.304-0.527,0.429
			c-0.174,0.123-0.35,0.229-0.535,0.317c-0.182,0.086-0.383,0.152-0.594,0.197c-0.215,0.043-0.447,0.063-0.701,0.063
			c-0.281,0-0.547-0.035-0.791-0.117c-0.246-0.078-0.455-0.192-0.631-0.353c-0.178-0.157-0.316-0.35-0.424-0.582
			c-0.1-0.231-0.152-0.508-0.152-0.821c0-0.269,0.072-0.529,0.215-0.787c0.143-0.254,0.381-0.479,0.715-0.687
			c0.33-0.203,0.766-0.371,1.307-0.502c0.535-0.133,1.205-0.209,2-0.227v-0.467c0-0.498-0.107-0.873-0.322-1.12
			c-0.215-0.246-0.529-0.371-0.943-0.371c-0.285,0-0.521,0.037-0.713,0.108c-0.191,0.07-0.357,0.146-0.496,0.228
			c-0.146,0.083-0.268,0.16-0.379,0.231c-0.111,0.07-0.225,0.104-0.35,0.104c-0.098,0-0.184-0.024-0.258-0.077
			c-0.07-0.053-0.125-0.117-0.17-0.197L439.063,22.939z M442.961,25.895c-0.527,0.019-0.967,0.06-1.326,0.123
			c-0.357,0.067-0.65,0.149-0.877,0.256c-0.223,0.103-0.383,0.226-0.479,0.365c-0.102,0.144-0.146,0.297-0.146,0.465
			c0,0.164,0.021,0.304,0.078,0.42c0.051,0.117,0.123,0.213,0.217,0.289c0.092,0.074,0.203,0.127,0.326,0.162
			c0.129,0.034,0.264,0.053,0.414,0.053c0.387,0,0.715-0.071,0.988-0.215c0.275-0.146,0.545-0.354,0.807-0.627v-1.291H442.961z"/>
	</g>
	<line fill="none" x1="150.901" y1="41.527" x2="150.901" y2="2.077"/>
	
		<line fill="none" stroke="#373F44" stroke-width="0.66" stroke-miterlimit="10" x1="150.901" y1="41.527" x2="150.901" y2="2.077"/>
	<g id="Logo_Correta_1_" display="none">
		<g display="inline">
			<path fill="#373F44" d="M77.866,38.314c-3.045-0.842-5.766-1.781-8.523-2.818c-0.454-0.197-0.94-0.295-1.426-0.324
				c-5.058-0.262-9.564-3.989-9.564-11.09c0-6.735,4.183-11.474,10.438-11.474c6.321,0,10.083,4.864,10.083,11.019
				c0,5.252-2.433,8.787-5.64,10.086v0.123c1.879,0.521,3.985,0.978,5.771,1.302L77.866,38.314z M68.627,31.96
				c3.825,0,6.031-3.567,6.031-8.135c0-4.151-2.044-8.009-5.998-8.009c-3.986,0-6.095,3.792-6.095,8.171
				c0,4.375,2.237,7.973,6.03,7.973H68.627L68.627,31.96z"/>
			<path fill="#373F44" d="M83.533,16.756c-1.327,0-2.199-0.975-2.199-2.139c0-1.229,0.906-2.171,2.234-2.171
				c1.36,0,2.203,0.937,2.238,2.171c0,1.164-0.874,2.139-2.238,2.139H83.533z M81.562,19.026h3.984v15.79h-3.984V19.026z"/>
			<path fill="#373F44" d="M89.378,30.466c1.26,0.744,3.237,1.396,5.283,1.396c2.526,0,3.956-1.201,3.956-2.984
				c0-1.649-1.101-2.625-3.858-3.629c-3.63-1.264-5.933-3.207-5.933-6.324c0-3.598,2.982-6.287,7.747-6.287
				c2.369,0,4.085,0.513,5.217,1.068l-0.939,3.242c-0.81-0.423-2.332-1.036-4.373-1.036c-2.53,0-3.6,1.327-3.6,2.627
				c0,1.684,1.265,2.459,4.181,3.563c3.792,1.461,5.611,3.373,5.611,6.48c0,3.531-2.659,6.551-8.27,6.551
				c-2.333,0-4.732-0.648-5.931-1.365L89.378,30.466z"/>
			<path fill="#373F44" d="M117.968,31.023c0,1.422,0.065,2.813,0.259,3.789h-3.6l-0.291-1.754h-0.1
				c-0.938,1.232-2.592,2.113-4.667,2.113c-3.175,0-4.959-2.303-4.959-4.705c0-3.953,3.533-5.998,9.368-5.965v-0.254
				c0-1.041-0.421-2.76-3.208-2.76c-1.555,0-3.179,0.488-4.249,1.162l-0.775-2.59c1.168-0.716,3.206-1.395,5.706-1.395
				c5.061,0,6.518,3.21,6.518,6.676v5.682H117.968z M114.076,27.1c-2.821-0.033-5.51,0.549-5.51,2.946
				c0,1.562,1.003,2.271,2.268,2.271c1.622,0,2.754-1.034,3.141-2.17c0.101-0.291,0.101-0.584,0.101-0.875V27.1L114.076,27.1z"/>
			<path fill="#373F44" d="M125.975,14.976v4.051h3.792v2.979h-3.792v6.939c0,1.943,0.52,2.918,2.043,2.918
				c0.709,0,1.101-0.033,1.556-0.162l0.065,3.014c-0.584,0.229-1.657,0.42-2.885,0.42c-1.492,0-2.691-0.487-3.434-1.301
				c-0.877-0.908-1.269-2.36-1.269-4.436v-7.392h-2.234v-2.98h2.234v-2.949L125.975,14.976z"/>
		</g>
		<g display="inline">
			<polygon fill="#E3E5E8" points="33.925,1 15.034,1 1.167,21.82 1.855,22.832 20.726,22.832 20.039,21.81 			"/>
			<polygon fill="#C0CBCF" points="33.925,42.609 15.034,42.609 1.167,21.81 20.039,21.81 20.039,21.799 			"/>
			<polygon fill="#0B8D87" points="15.017,1 33.904,1 47.774,21.799 47.092,22.832 28.216,22.832 28.903,21.799 28.903,21.81 			"/>
			<polygon fill="#1B5485" points="15.017,42.609 33.904,42.609 47.774,21.81 28.903,21.81 28.903,21.799 			"/>
			<polygon fill="#0B8D87" points="13.89,25.449 10.58,25.449 13.011,21.805 10.58,18.165 13.89,18.165 16.324,21.812 			"/>
			<polygon fill="#1B5485" points="21.028,26.992 16.324,26.992 19.777,21.814 16.324,16.64 21.028,16.64 24.483,21.82 			"/>
		</g>
	</g>
</g>
<g>
	<path fill="#363F44" d="M77.922,38.329c-3.048-0.842-5.771-1.783-8.528-2.822c-0.454-0.193-0.939-0.291-1.428-0.324
		c-5.059-0.261-9.566-3.988-9.566-11.091c0-6.744,4.183-11.478,10.44-11.478c6.325,0,10.086,4.863,10.086,11.022
		c0,5.255-2.432,8.79-5.642,10.087v0.127c1.88,0.521,3.986,0.977,5.772,1.3L77.922,38.329z M68.679,31.975
		c3.828,0,6.03-3.568,6.03-8.143c0-4.151-2.042-8.009-6-8.009c-3.99,0-6.096,3.795-6.096,8.174c0,4.376,2.239,7.975,6.032,7.975
		h0.034V31.975z"/>
	<path fill="#363F44" d="M83.601,16.764c-1.329,0-2.205-0.976-2.205-2.139c0-1.231,0.907-2.174,2.239-2.174
		c1.361,0,2.204,0.941,2.239,2.174c0,1.165-0.876,2.139-2.239,2.139H83.601z M81.622,19.033h3.988v15.796h-3.988V19.033z"/>
	<path fill="#363F44" d="M89.441,30.479c1.265,0.745,3.241,1.395,5.287,1.395c2.53,0,3.956-1.199,3.956-2.985
		c0-1.65-1.102-2.625-3.857-3.629c-3.635-1.266-5.936-3.208-5.936-6.324c0-3.602,2.983-6.292,7.75-6.292
		c2.368,0,4.087,0.517,5.221,1.068l-0.939,3.244c-0.812-0.422-2.334-1.037-4.378-1.037c-2.529,0-3.6,1.329-3.6,2.625
		c0,1.69,1.265,2.466,4.184,3.567c3.792,1.461,5.609,3.375,5.609,6.483c0,3.537-2.657,6.553-8.27,6.553
		c-2.334,0-4.735-0.649-5.936-1.364L89.441,30.479z"/>
	<path fill="#363F44" d="M118.042,31.031c0,1.427,0.065,2.819,0.26,3.796h-3.6l-0.291-1.754h-0.1
		c-0.937,1.234-2.59,2.107-4.667,2.107c-3.179,0-4.963-2.301-4.963-4.699c0-3.958,3.536-6.001,9.372-5.968v-0.26
		c0-1.037-0.421-2.757-3.209-2.757c-1.557,0-3.177,0.486-4.249,1.167l-0.778-2.595c1.167-0.716,3.209-1.397,5.708-1.397
		c5.059,0,6.517,3.213,6.517,6.681V31.031z M114.152,27.11c-2.823-0.033-5.514,0.551-5.514,2.949c0,1.558,1.005,2.271,2.27,2.271
		c1.622,0,2.756-1.038,3.144-2.173c0.099-0.291,0.099-0.585,0.099-0.877V27.11H114.152z"/>
	<path fill="#363F44" d="M126.055,14.978v4.054h3.794v2.983h-3.794v6.942c0,1.942,0.518,2.918,2.043,2.918
		c0.712,0,1.104-0.032,1.557-0.164l0.063,3.017c-0.584,0.226-1.654,0.422-2.885,0.422c-1.493,0-2.692-0.487-3.438-1.299
		c-0.875-0.908-1.266-2.366-1.266-4.443v-7.393h-2.236v-2.983h2.236v-2.951L126.055,14.978z"/>
	<path fill="#363F44" d="M2.139,21.481h17.934l13.31-19.807H15.461L2.139,21.481z M20.659,21.818l13.56,20.178l-0.418,0.638H15.28
		c-0.127,0-0.239-0.07-0.297-0.174L1.223,22.005l-0.01-0.018c-0.009-0.015-0.016-0.029-0.021-0.044
		c-0.011-0.023-0.018-0.051-0.022-0.076l-0.001-0.021l-0.001-0.021v-0.015l0.001-0.022l0.001-0.02
		c0.004-0.024,0.011-0.052,0.022-0.078c0.006-0.016,0.012-0.029,0.021-0.044l0.01-0.016l13.76-20.456C15.042,1.072,15.153,1,15.28,1
		h18.521l0.416,0.639L20.659,21.818z M20.073,22.155H2.139l13.322,19.807h17.922L20.073,22.155z"/>
	<path fill="#363F44" d="M47.788,21.822H29.042L15.277,1.342h18.737L47.788,21.822z M47.788,21.822H29.042L15.277,42.301h18.737
		L47.788,21.822z"/>
	<polygon fill="#363F44" points="21.435,26.927 24.883,21.816 24.883,21.815 21.435,16.703 16.802,16.703 20.249,21.815 
		16.802,26.927 	"/>
	<polygon fill="#363F44" points="14.118,25.4 16.533,21.821 14.118,18.242 10.877,18.242 13.288,21.821 10.877,25.4 	"/>
</g>
</svg>
