<?xml version="1.0" encoding="utf-8"?>
<!-- Generator: Adobe Illustrator 16.0.0, SVG Export Plug-In . SVG Version: 6.00 Build 0)  -->
<!DOCTYPE svg PUBLIC "-//W3C//DTD SVG 1.1//EN" "http://www.w3.org/Graphics/SVG/1.1/DTD/svg11.dtd">
<svg version="1.1" id="Camada_1" xmlns="http://www.w3.org/2000/svg" xmlns:xlink="http://www.w3.org/1999/xlink" x="0px" y="0px"
	 width="190px" height="162px" viewBox="0 0 190 162" enable-background="new 0 0 190 162" xml:space="preserve">
<g>
	<g>
		<g>
			<path fill="#FFFFFF" d="M117.572,70.003h-3.313c-0.915,0-1.657,0.739-1.657,1.654s0.741,1.661,1.657,1.661h3.313
				c0.916,0,1.661-0.745,1.661-1.661C119.233,70.743,118.488,70.003,117.572,70.003z"/>
			<path fill="#FFFFFF" d="M117.572,76.629h-3.313c-0.915,0-1.657,0.738-1.657,1.658c0,0.912,0.741,1.659,1.657,1.659h3.313
				c0.916,0,1.661-0.747,1.661-1.659C119.233,77.368,118.488,76.629,117.572,76.629z"/>
			<path fill="#FFFFFF" d="M117.572,63.371h-3.313c-0.915,0-1.657,0.743-1.657,1.661c0,0.91,0.741,1.656,1.657,1.656h3.313
				c0.916,0,1.661-0.746,1.661-1.656C119.233,64.113,118.488,63.371,117.572,63.371z"/>
			<path fill="#FFFFFF" d="M117.572,107.583h-3.313c-0.915,0-1.657,0.737-1.657,1.656c0,0.915,0.741,1.656,1.657,1.656h3.313
				c0.916,0,1.661-0.739,1.661-1.656C119.233,108.32,118.488,107.583,117.572,107.583z"/>
			<path fill="#FFFFFF" d="M81.114,63.371h-9.94c-0.916,0-1.658,0.743-1.658,1.661v23.202c0,0.911,0.741,1.652,1.658,1.652h9.94
				c0.917,0,1.659-0.741,1.659-1.652V65.03C82.773,64.113,82.031,63.371,81.114,63.371z M79.458,86.571h-6.627V66.687h6.627V86.571z
				"/>
			<path fill="#FFFFFF" d="M81.114,107.583h-9.94c-0.916,0-1.658,0.737-1.658,1.656c0,0.915,0.741,1.656,1.658,1.656h9.94
				c0.917,0,1.659-0.739,1.659-1.656C82.773,108.32,82.031,107.583,81.114,107.583z"/>
			<path fill="#FFFFFF" d="M81.114,114.205h-9.94c-0.916,0-1.658,0.751-1.658,1.663c0,0.915,0.741,1.656,1.658,1.656h9.94
				c0.917,0,1.659-0.738,1.659-1.656C82.773,114.954,82.031,114.205,81.114,114.205z"/>
			<path fill="#FFFFFF" d="M117.572,114.205h-3.313c-0.915,0-1.657,0.751-1.657,1.663c0,0.915,0.741,1.656,1.657,1.656h3.313
				c0.916,0,1.661-0.738,1.661-1.656C119.233,114.954,118.488,114.205,117.572,114.205z"/>
			<path fill="#FFFFFF" d="M137.46,114.205h-6.626c-0.921,0-1.658,0.751-1.658,1.663c0,0.915,0.737,1.656,1.658,1.656h6.626
				c0.912,0,1.655-0.738,1.655-1.656C139.115,114.954,138.372,114.205,137.46,114.205z"/>
			<path fill="#FFFFFF" d="M102.66,65.03c0-0.917-0.741-1.661-1.654-1.661h-6.634c-0.913,0-1.658,0.743-1.658,1.661v23.203
				c0,0.912,0.743,1.651,1.658,1.651h6.634c0.91,0,1.654-0.739,1.654-1.651V65.03z M99.343,86.571h-3.312V66.687h3.312V86.571z"/>
			<path fill="#FFFFFF" d="M137.46,107.583h-6.626c-0.921,0-1.658,0.737-1.658,1.656c0,0.915,0.737,1.656,1.658,1.656h6.626
				c0.912,0,1.655-0.739,1.655-1.656C139.115,108.32,138.372,107.583,137.46,107.583z"/>
			<path fill="#FFFFFF" d="M101.006,114.205h-6.634c-0.913,0-1.658,0.751-1.658,1.663c0,0.915,0.743,1.656,1.658,1.656h6.634
				c0.91,0,1.654-0.738,1.654-1.656C102.66,114.954,101.917,114.205,101.006,114.205z"/>
			<path fill="#FFFFFF" d="M130.834,96.515c0.912,0,1.656-0.74,1.656-1.658V78.287c0-0.919-0.742-1.658-1.656-1.658
				c-0.921,0-1.658,0.738-1.658,1.658v16.569C129.176,95.774,129.913,96.515,130.834,96.515z"/>
			<path fill="#FFFFFF" d="M139.115,78.287c0-0.919-0.74-1.658-1.655-1.658s-1.655,0.738-1.655,1.658v16.569
				c0,0.911,0.74,1.657,1.655,1.657c0.912,0,1.655-0.744,1.655-1.657V78.287z"/>
			<path fill="#FFFFFF" d="M140.771,50.115h-9.938c-0.921,0-1.658,0.743-1.658,1.658c0,0.912,0.737,1.654,1.658,1.654h9.938
				c0.916,0,1.66,0.744,1.66,1.66v67.407c0,0.918-0.743,1.662-1.66,1.662h-14.909V63.371h9.942c0.911,0,1.655-0.743,1.655-1.656
				s-0.741-1.658-1.655-1.658h-9.942V45.141c0-2.788-2.192-4.973-4.978-4.973h-9.938c-2.74,0-4.97,2.234-4.97,4.973v79.013H89.4
				V46.803h11.605c0.91,0,1.654-0.745,1.654-1.662c0-0.917-0.741-1.657-1.654-1.657H89.4v-1.655c0-2.791-2.183-4.974-4.97-4.974
				H67.859c-2.74,0-4.971,2.233-4.971,4.974v14.915h-8.286c-0.917,0-1.658,0.74-1.658,1.655c0,0.916,0.741,1.657,1.658,1.657h8.286
				v64.099H51.281c-0.909,0-1.654-0.743-1.654-1.662V51.773c0-0.913,0.746-1.658,1.654-1.658h6.634c0.914,0,1.656-0.744,1.656-1.662
				c0-0.912-0.74-1.65-1.656-1.65h-6.634c-2.734,0-4.965,2.229-4.965,4.97v70.722c0,2.744,2.23,4.971,4.965,4.971h89.49
				c2.742,0,4.975-2.227,4.975-4.971V55.086C145.748,52.345,143.516,50.115,140.771,50.115z M86.084,124.154H66.202v-74.04h14.912
				c0.917,0,1.659-0.745,1.659-1.662c0-0.912-0.743-1.65-1.659-1.65H66.202v-4.972c0-0.932,0.728-1.662,1.657-1.662h16.572
				c0.945,0,1.653,0.716,1.653,1.662V124.154L86.084,124.154z M122.545,124.154h-13.258V53.427h8.285
				c0.913,0,1.661-0.743,1.661-1.654c0-0.913-0.745-1.658-1.661-1.658h-8.285v-4.974c0-0.927,0.73-1.657,1.659-1.657h9.938
				c0.945,0,1.66,0.711,1.66,1.657V124.154z"/>
			<path fill="#FFFFFF" d="M57.916,107.583h-3.314c-0.917,0-1.658,0.737-1.658,1.656c0,0.915,0.741,1.656,1.658,1.656h3.314
				c0.915,0,1.656-0.739,1.656-1.656C59.571,108.32,58.832,107.583,57.916,107.583z"/>
			<path fill="#FFFFFF" d="M57.916,114.205h-3.314c-0.917,0-1.658,0.751-1.658,1.663c0,0.915,0.741,1.656,1.658,1.656h3.314
				c0.915,0,1.656-0.738,1.656-1.656C59.571,114.954,58.832,114.205,57.916,114.205z"/>
			<path fill="#FFFFFF" d="M101.006,107.583h-6.634c-0.913,0-1.658,0.737-1.658,1.656c0,0.915,0.743,1.656,1.658,1.656h6.634
				c0.91,0,1.654-0.739,1.654-1.656C102.66,108.32,101.917,107.583,101.006,107.583z"/>
			<path fill="#FFFFFF" d="M57.916,76.629h-3.314c-0.917,0-1.658,0.738-1.658,1.658c0,0.912,0.741,1.659,1.658,1.659h3.314
				c0.915,0,1.656-0.747,1.656-1.659C59.571,77.368,58.832,76.629,57.916,76.629z"/>
			<path fill="#FFFFFF" d="M57.916,83.261h-3.314c-0.917,0-1.658,0.739-1.658,1.658c0,0.913,0.741,1.652,1.658,1.652h3.314
				c0.915,0,1.656-0.74,1.656-1.652C59.571,84.001,58.832,83.261,57.916,83.261z"/>
		</g>
	</g>
</g>
</svg>
