<svg width="116" height="22" viewBox="0 0 116 22" version="1.1" xmlns="http://www.w3.org/2000/svg" xmlns:xlink="http://www.w3.org/1999/xlink">
<g id="Canvas" fill="none">
<g id="AltoQi Lab">
<path d="M 11.2017 14.488L 13.0737 20L 15.4917 20L 9.51173 2.476L 6.78173 2.476L 0.827734 20L 3.16773 20L 4.98773 14.488L 11.2017 14.488ZM 5.45573 12.72L 7.17173 7.65C 7.50973 6.584 7.79573 5.518 8.05573 4.478L 8.10773 4.478C 8.36773 5.492 8.62773 6.532 9.01773 7.676L 10.7337 12.72L 5.45573 12.72ZM 17.9195 20L 20.2075 20L 20.2075 1.54L 17.9195 1.54L 17.9195 20ZM 24.584 4.4L 24.584 7.416L 22.634 7.416L 22.634 9.158L 24.584 9.158L 24.584 16.022C 24.584 17.504 24.818 18.622 25.468 19.298C 26.014 19.922 26.872 20.26 27.938 20.26C 28.822 20.26 29.524 20.13 29.966 19.948L 29.862 18.232C 29.576 18.31 29.134 18.388 28.536 18.388C 27.262 18.388 26.82 17.504 26.82 15.944L 26.82 9.158L 30.096 9.158L 30.096 7.416L 26.82 7.416L 26.82 3.802L 24.584 4.4ZM 37.8491 7.13C 34.3651 7.13 31.6091 9.6 31.6091 13.812C 31.6091 17.79 34.2351 20.286 37.6411 20.286C 40.6831 20.286 43.9071 18.258 43.9071 13.604C 43.9071 9.756 41.4631 7.13 37.8491 7.13ZM 37.7971 8.846C 40.5011 8.846 41.5671 11.55 41.5671 13.682C 41.5671 16.516 39.9291 18.57 37.7451 18.57C 35.5091 18.57 33.9231 16.49 33.9231 13.734C 33.9231 11.342 35.0931 8.846 37.7971 8.846ZM 61.9726 20.676C 60.4906 20.416 58.5926 20 56.8506 19.558L 56.8506 19.454C 59.7626 18.44 61.8426 15.554 61.8426 11.056C 61.8426 5.882 58.7486 2.19 53.9906 2.19C 49.2586 2.19 45.8266 5.804 45.8266 11.42C 45.8266 17.062 49.3886 20.13 53.5486 20.286C 53.8866 20.286 54.2506 20.416 54.6146 20.546C 56.6426 21.248 58.9566 21.95 61.3226 22.574L 61.9726 20.676ZM 53.8086 18.44C 50.2726 18.44 48.2186 15.086 48.2446 11.368C 48.2186 7.572 50.0906 4.036 53.9126 4.036C 57.6306 4.036 59.4506 7.65 59.4506 11.16C 59.4506 15.164 57.4226 18.44 53.8086 18.44ZM 67.0024 20L 67.0024 7.416L 64.7144 7.416L 64.7144 20L 67.0024 20ZM 65.8584 2.45C 65.0264 2.45 64.4284 3.074 64.4284 3.88C 64.4284 4.66 65.0004 5.284 65.8064 5.284C 66.7164 5.284 67.2884 4.66 67.2624 3.88C 67.2624 3.074 66.7164 2.45 65.8584 2.45ZM 75.882 20L 86.828 20L 86.828 16.672L 79.86 16.672L 79.86 2.476L 75.882 2.476L 75.882 20ZM 99.9229 20C 99.7929 19.298 99.7409 18.128 99.7409 16.906L 99.7409 12.486C 99.7409 9.496 98.3889 7 94.1509 7C 91.8369 7 90.0949 7.624 89.2109 8.118L 89.9389 10.666C 90.7709 10.146 92.1489 9.704 93.4489 9.704C 95.3989 9.704 95.7629 10.666 95.7629 11.342L 95.7629 11.524C 91.2649 11.498 88.3009 13.084 88.3009 16.386C 88.3009 18.414 89.8349 20.286 92.4089 20.286C 93.9169 20.286 95.2169 19.74 96.0489 18.726L 96.1269 18.726L 96.3609 20L 99.9229 20ZM 95.8929 15.372C 95.8929 15.606 95.8669 15.84 95.8149 16.048C 95.5549 16.854 94.7489 17.504 93.7609 17.504C 92.8769 17.504 92.2009 17.01 92.2009 15.996C 92.2009 14.462 93.8129 13.968 95.8929 13.994L 95.8929 15.372ZM 106.119 20L 106.275 18.232L 106.327 18.232C 107.237 19.74 108.667 20.286 110.149 20.286C 113.061 20.286 115.973 17.998 115.973 13.422C 115.999 9.522 113.763 7 110.721 7C 108.953 7 107.627 7.702 106.873 8.794L 106.821 8.794L 106.821 1.54L 102.869 1.54L 102.869 16.204C 102.869 17.634 102.817 19.168 102.765 20L 106.119 20ZM 106.821 12.72C 106.821 12.46 106.847 12.226 106.899 11.992C 107.159 10.848 108.147 10.042 109.213 10.042C 111.059 10.042 111.943 11.602 111.943 13.578C 111.943 15.866 110.903 17.166 109.213 17.166C 108.069 17.166 107.159 16.36 106.899 15.294C 106.847 15.086 106.821 14.852 106.821 14.592L 106.821 12.72Z" transform="translate(0 -1)" fill="#363F44"/>
</g>
</g>
</svg>

