<svg width="445" height="23" viewBox="0 0 445 23" version="1.1" xmlns="http://www.w3.org/2000/svg" xmlns:xlink="http://www.w3.org/1999/xlink">
<g id="Canvas" fill="none">
<g id="Group">
<g id="Capacita&#195;&#167;&#195;&#163;o profissional em projetos de edifica&#195;&#167;&#195;&#181;es">
<path d="M 7.406 9.726C 6.916 9.964 6.16 10.118 5.418 10.118C 3.122 10.118 1.792 8.634 1.792 6.324C 1.792 3.846 3.262 2.432 5.474 2.432C 6.258 2.432 6.916 2.6 7.378 2.824L 7.672 1.83C 7.35 1.662 6.608 1.41 5.432 1.41C 2.506 1.41 0.504 3.412 0.504 6.366C 0.504 9.46 2.506 11.14 5.166 11.14C 6.314 11.14 7.21 10.916 7.658 10.692L 7.406 9.726ZM 13.9194 11C 13.8354 10.538 13.8074 9.964 13.8074 9.376L 13.8074 6.842C 13.8074 5.484 13.3034 4.07 11.2314 4.07C 10.3774 4.07 9.56539 4.308 9.00539 4.672L 9.28539 5.484C 9.76139 5.176 10.4194 4.98 11.0494 4.98C 12.4354 4.98 12.5894 5.988 12.5894 6.548L 12.5894 6.688C 9.97139 6.674 8.51539 7.57 8.51539 9.208C 8.51539 10.188 9.21539 11.154 10.5874 11.154C 11.5534 11.154 12.2814 10.678 12.6594 10.146L 12.7014 10.146L 12.7994 11L 13.9194 11ZM 12.6174 8.718C 12.6174 8.844 12.5894 8.984 12.5474 9.11C 12.3514 9.684 11.7914 10.244 10.9094 10.244C 10.2794 10.244 9.74739 9.866 9.74739 9.068C 9.74739 7.752 11.2734 7.514 12.6174 7.542L 12.6174 8.718ZM 15.8013 13.772L 17.0193 13.772L 17.0193 10.09L 17.0473 10.09C 17.4533 10.762 18.2373 11.154 19.1333 11.154C 20.7293 11.154 22.2133 9.95 22.2133 7.514C 22.2133 5.456 20.9813 4.07 19.3433 4.07C 18.2373 4.07 17.4393 4.56 16.9353 5.386L 16.9073 5.386L 16.8513 4.224L 15.7453 4.224C 15.7733 4.868 15.8013 5.568 15.8013 6.436L 15.8013 13.772ZM 17.0193 7.08C 17.0193 6.912 17.0613 6.73 17.1033 6.576C 17.3413 5.652 18.1253 5.05 18.9653 5.05C 20.2673 5.05 20.9813 6.212 20.9813 7.57C 20.9813 9.124 20.2253 10.188 18.9233 10.188C 18.0413 10.188 17.2993 9.6 17.0753 8.746C 17.0473 8.592 17.0193 8.424 17.0193 8.242L 17.0193 7.08ZM 28.644 11C 28.56 10.538 28.532 9.964 28.532 9.376L 28.532 6.842C 28.532 5.484 28.028 4.07 25.956 4.07C 25.102 4.07 24.29 4.308 23.73 4.672L 24.01 5.484C 24.486 5.176 25.144 4.98 25.774 4.98C 27.16 4.98 27.314 5.988 27.314 6.548L 27.314 6.688C 24.696 6.674 23.24 7.57 23.24 9.208C 23.24 10.188 23.94 11.154 25.312 11.154C 26.278 11.154 27.006 10.678 27.384 10.146L 27.426 10.146L 27.524 11L 28.644 11ZM 27.342 8.718C 27.342 8.844 27.314 8.984 27.272 9.11C 27.076 9.684 26.516 10.244 25.634 10.244C 25.004 10.244 24.472 9.866 24.472 9.068C 24.472 7.752 25.998 7.514 27.342 7.542L 27.342 8.718ZM 35.1459 9.824C 34.7959 9.978 34.3339 10.16 33.6339 10.16C 32.2899 10.16 31.2819 9.194 31.2819 7.626C 31.2819 6.212 32.1219 5.064 33.6759 5.064C 34.3479 5.064 34.8099 5.218 35.1039 5.386L 35.3839 4.434C 35.0479 4.266 34.4039 4.084 33.6759 4.084C 31.4639 4.084 30.0359 5.596 30.0359 7.682C 30.0359 9.754 31.3659 11.14 33.4099 11.14C 34.3199 11.14 35.0339 10.916 35.3559 10.748L 35.1459 9.824ZM 38.0333 11L 38.0333 4.224L 36.8013 4.224L 36.8013 11L 38.0333 11ZM 37.4173 1.55C 36.9693 1.55 36.6473 1.886 36.6473 2.32C 36.6473 2.74 36.9553 3.076 37.3893 3.076C 37.8793 3.076 38.1873 2.74 38.1733 2.32C 38.1733 1.886 37.8793 1.55 37.4173 1.55ZM 40.3625 2.6L 40.3625 4.224L 39.3125 4.224L 39.3125 5.162L 40.3625 5.162L 40.3625 8.858C 40.3625 9.656 40.4885 10.258 40.8385 10.622C 41.1325 10.958 41.5945 11.14 42.1685 11.14C 42.6445 11.14 43.0225 11.07 43.2605 10.972L 43.2045 10.048C 43.0505 10.09 42.8125 10.132 42.4905 10.132C 41.8045 10.132 41.5665 9.656 41.5665 8.816L 41.5665 5.162L 43.3305 5.162L 43.3305 4.224L 41.5665 4.224L 41.5665 2.278L 40.3625 2.6ZM 49.5893 11C 49.5053 10.538 49.4773 9.964 49.4773 9.376L 49.4773 6.842C 49.4773 5.484 48.9733 4.07 46.9013 4.07C 46.0473 4.07 45.2353 4.308 44.6753 4.672L 44.9553 5.484C 45.4313 5.176 46.0893 4.98 46.7193 4.98C 48.1053 4.98 48.2593 5.988 48.2593 6.548L 48.2593 6.688C 45.6413 6.674 44.1853 7.57 44.1853 9.208C 44.1853 10.188 44.8853 11.154 46.2573 11.154C 47.2233 11.154 47.9513 10.678 48.3293 10.146L 48.3713 10.146L 48.4693 11L 49.5893 11ZM 48.2873 8.718C 48.2873 8.844 48.2593 8.984 48.2173 9.11C 48.0213 9.684 47.4613 10.244 46.5793 10.244C 45.9493 10.244 45.4173 9.866 45.4173 9.068C 45.4173 7.752 46.9433 7.514 48.2873 7.542L 48.2873 8.718ZM 56.0912 9.824C 55.7552 9.978 55.2792 10.16 54.5792 10.16C 53.2352 10.16 52.2272 9.194 52.2272 7.626C 52.2272 6.212 53.0672 5.064 54.6212 5.064C 55.2932 5.064 55.7552 5.218 56.0492 5.386L 56.3292 4.434C 55.9932 4.266 55.3492 4.084 54.6212 4.084C 52.4092 4.084 50.9812 5.596 50.9812 7.682C 50.9812 9.558 52.0872 10.888 53.8092 11.098L 53.2212 12.176C 53.8792 12.246 54.2992 12.386 54.3132 12.764C 54.3132 13.1 54.0332 13.198 53.7112 13.198C 53.4312 13.198 53.1512 13.142 52.9412 13.016L 52.7312 13.646C 52.9972 13.8 53.3892 13.884 53.7112 13.884C 54.4672 13.884 55.1672 13.562 55.1672 12.722C 55.1672 12.148 54.6912 11.798 54.1872 11.7L 54.5372 11.14C 55.3772 11.126 56.0212 10.902 56.3152 10.748L 56.0912 9.824ZM 62.6049 11C 62.5209 10.538 62.4929 9.964 62.4929 9.376L 62.4929 6.842C 62.4929 5.484 61.9889 4.07 59.9169 4.07C 59.0629 4.07 58.2509 4.308 57.6909 4.672L 57.9709 5.484C 58.4469 5.176 59.1049 4.98 59.7349 4.98C 61.1209 4.98 61.2749 5.988 61.2749 6.548L 61.2749 6.688C 58.6569 6.674 57.2009 7.57 57.2009 9.208C 57.2009 10.188 57.9009 11.154 59.2729 11.154C 60.2389 11.154 60.9669 10.678 61.3449 10.146L 61.3869 10.146L 61.4849 11L 62.6049 11ZM 61.3029 8.718C 61.3029 8.844 61.2749 8.984 61.2329 9.11C 61.0369 9.684 60.4769 10.244 59.5949 10.244C 58.9649 10.244 58.4329 9.866 58.4329 9.068C 58.4329 7.752 59.9589 7.514 61.3029 7.542L 61.3029 8.718ZM 58.9929 3.062C 59.0209 2.67 59.1329 2.432 59.3569 2.432C 59.5249 2.432 59.6789 2.516 59.9589 2.684C 60.2529 2.838 60.5189 2.964 60.8129 2.964C 61.4709 2.964 61.7929 2.488 61.7649 1.55L 61.1209 1.55C 61.0789 2.026 60.9529 2.152 60.7289 2.152C 60.5609 2.152 60.3649 2.04 60.1409 1.914C 59.8189 1.732 59.5809 1.606 59.2729 1.606C 58.6709 1.606 58.2929 2.152 58.3209 3.062L 58.9929 3.062ZM 67.3568 4.07C 65.4808 4.07 63.9968 5.4 63.9968 7.668C 63.9968 9.81 65.4108 11.154 67.2448 11.154C 68.8828 11.154 70.6188 10.062 70.6188 7.556C 70.6188 5.484 69.3028 4.07 67.3568 4.07ZM 67.3288 4.994C 68.7848 4.994 69.3588 6.45 69.3588 7.598C 69.3588 9.124 68.4768 10.23 67.3008 10.23C 66.0968 10.23 65.2428 9.11 65.2428 7.626C 65.2428 6.338 65.8728 4.994 67.3288 4.994ZM 75.1372 13.772L 76.3552 13.772L 76.3552 10.09L 76.3832 10.09C 76.7892 10.762 77.5732 11.154 78.4692 11.154C 80.0652 11.154 81.5492 9.95 81.5492 7.514C 81.5492 5.456 80.3172 4.07 78.6792 4.07C 77.5732 4.07 76.7752 4.56 76.2712 5.386L 76.2432 5.386L 76.1872 4.224L 75.0812 4.224C 75.1092 4.868 75.1372 5.568 75.1372 6.436L 75.1372 13.772ZM 76.3552 7.08C 76.3552 6.912 76.3972 6.73 76.4392 6.576C 76.6772 5.652 77.4612 5.05 78.3012 5.05C 79.6032 5.05 80.3172 6.212 80.3172 7.57C 80.3172 9.124 79.5612 10.188 78.2592 10.188C 77.3772 10.188 76.6352 9.6 76.4112 8.746C 76.3832 8.592 76.3552 8.424 76.3552 8.242L 76.3552 7.08ZM 83.1079 11L 84.3259 11L 84.3259 7.388C 84.3259 7.178 84.3539 6.982 84.3819 6.814C 84.5499 5.89 85.1659 5.232 86.0339 5.232C 86.2019 5.232 86.3279 5.246 86.4539 5.274L 86.4539 4.112C 86.3419 4.084 86.2439 4.07 86.1039 4.07C 85.2779 4.07 84.5359 4.644 84.2279 5.554L 84.1719 5.554L 84.1299 4.224L 83.0519 4.224C 83.0939 4.854 83.1079 5.54 83.1079 6.338L 83.1079 11ZM 90.4213 4.07C 88.5453 4.07 87.0613 5.4 87.0613 7.668C 87.0613 9.81 88.4753 11.154 90.3093 11.154C 91.9473 11.154 93.6833 10.062 93.6833 7.556C 93.6833 5.484 92.3673 4.07 90.4213 4.07ZM 90.3933 4.994C 91.8493 4.994 92.4233 6.45 92.4233 7.598C 92.4233 9.124 91.5413 10.23 90.3653 10.23C 89.1613 10.23 88.3073 9.11 88.3073 7.626C 88.3073 6.338 88.9373 4.994 90.3933 4.994ZM 96.5789 11L 96.5789 5.162L 99.2949 5.162L 99.2949 11L 100.513 11L 100.513 4.224L 96.5789 4.224L 96.5789 3.888C 96.5789 2.81 96.9569 1.9 98.2589 1.9C 98.8609 1.9 99.3929 2.082 99.6869 2.292L 100.037 1.354C 99.6869 1.102 98.9449 0.906 98.3149 0.906C 96.4109 0.906 95.3609 2.068 95.3609 3.86L 95.3609 4.224L 94.4089 4.224L 94.4089 5.162L 95.3609 5.162L 95.3609 11L 96.5789 11ZM 102.087 10.678C 102.563 10.958 103.249 11.14 103.991 11.14C 105.601 11.14 106.525 10.3 106.525 9.11C 106.525 8.102 105.923 7.514 104.747 7.066C 103.865 6.73 103.459 6.478 103.459 5.918C 103.459 5.414 103.865 4.994 104.593 4.994C 105.223 4.994 105.713 5.218 105.979 5.386L 106.287 4.49C 105.909 4.266 105.307 4.07 104.621 4.07C 103.165 4.07 102.283 4.966 102.283 6.058C 102.283 6.87 102.857 7.542 104.075 7.976C 104.985 8.312 105.335 8.634 105.335 9.222C 105.335 9.782 104.915 10.23 104.019 10.23C 103.403 10.23 102.759 9.978 102.395 9.74L 102.087 10.678ZM 107.638 10.678C 108.114 10.958 108.8 11.14 109.542 11.14C 111.152 11.14 112.076 10.3 112.076 9.11C 112.076 8.102 111.474 7.514 110.298 7.066C 109.416 6.73 109.01 6.478 109.01 5.918C 109.01 5.414 109.416 4.994 110.144 4.994C 110.774 4.994 111.264 5.218 111.53 5.386L 111.838 4.49C 111.46 4.266 110.858 4.07 110.172 4.07C 108.716 4.07 107.834 4.966 107.834 6.058C 107.834 6.87 108.408 7.542 109.626 7.976C 110.536 8.312 110.886 8.634 110.886 9.222C 110.886 9.782 110.466 10.23 109.57 10.23C 108.954 10.23 108.31 9.978 107.946 9.74L 107.638 10.678ZM 114.897 11L 114.897 4.224L 113.665 4.224L 113.665 11L 114.897 11ZM 114.281 1.55C 113.833 1.55 113.511 1.886 113.511 2.32C 113.511 2.74 113.819 3.076 114.253 3.076C 114.743 3.076 115.051 2.74 115.037 2.32C 115.037 1.886 114.743 1.55 114.281 1.55ZM 119.816 4.07C 117.94 4.07 116.456 5.4 116.456 7.668C 116.456 9.81 117.87 11.154 119.704 11.154C 121.342 11.154 123.078 10.062 123.078 7.556C 123.078 5.484 121.762 4.07 119.816 4.07ZM 119.788 4.994C 121.244 4.994 121.818 6.45 121.818 7.598C 121.818 9.124 120.936 10.23 119.76 10.23C 118.556 10.23 117.702 9.11 117.702 7.626C 117.702 6.338 118.332 4.994 119.788 4.994ZM 124.629 11L 125.861 11L 125.861 6.926C 125.861 6.716 125.889 6.506 125.945 6.352C 126.155 5.666 126.785 5.092 127.597 5.092C 128.759 5.092 129.165 6.002 129.165 7.094L 129.165 11L 130.397 11L 130.397 6.954C 130.397 4.63 128.941 4.07 128.003 4.07C 126.883 4.07 126.099 4.7 125.763 5.344L 125.735 5.344L 125.665 4.224L 124.573 4.224C 124.615 4.784 124.629 5.358 124.629 6.058L 124.629 11ZM 137.267 11C 137.183 10.538 137.155 9.964 137.155 9.376L 137.155 6.842C 137.155 5.484 136.651 4.07 134.579 4.07C 133.725 4.07 132.913 4.308 132.353 4.672L 132.633 5.484C 133.109 5.176 133.767 4.98 134.397 4.98C 135.783 4.98 135.937 5.988 135.937 6.548L 135.937 6.688C 133.319 6.674 131.863 7.57 131.863 9.208C 131.863 10.188 132.563 11.154 133.935 11.154C 134.901 11.154 135.629 10.678 136.007 10.146L 136.049 10.146L 136.147 11L 137.267 11ZM 135.965 8.718C 135.965 8.844 135.937 8.984 135.895 9.11C 135.699 9.684 135.139 10.244 134.257 10.244C 133.627 10.244 133.095 9.866 133.095 9.068C 133.095 7.752 134.621 7.514 135.965 7.542L 135.965 8.718ZM 139.149 11L 140.381 11L 140.381 1.06L 139.149 1.06L 139.149 11ZM 150.87 7.836C 150.884 7.71 150.912 7.514 150.912 7.262C 150.912 6.016 150.324 4.07 148.112 4.07C 146.138 4.07 144.934 5.68 144.934 7.724C 144.934 9.768 146.18 11.14 148.266 11.14C 149.344 11.14 150.086 10.916 150.52 10.72L 150.31 9.838C 149.848 10.034 149.316 10.188 148.434 10.188C 147.202 10.188 146.138 9.502 146.11 7.836L 150.87 7.836ZM 146.124 6.954C 146.222 6.1 146.768 4.952 148.014 4.952C 149.4 4.952 149.736 6.17 149.722 6.954L 146.124 6.954ZM 152.438 11L 153.642 11L 153.642 6.912C 153.642 6.702 153.67 6.492 153.74 6.31C 153.936 5.694 154.496 5.078 155.266 5.078C 156.204 5.078 156.68 5.862 156.68 6.94L 156.68 11L 157.884 11L 157.884 6.814C 157.884 6.59 157.926 6.366 157.982 6.198C 158.192 5.596 158.738 5.078 159.438 5.078C 160.432 5.078 160.908 5.862 160.908 7.164L 160.908 11L 162.112 11L 162.112 7.01C 162.112 4.658 160.782 4.07 159.886 4.07C 159.242 4.07 158.794 4.238 158.388 4.546C 158.108 4.756 157.842 5.05 157.632 5.428L 157.604 5.428C 157.31 4.63 156.61 4.07 155.686 4.07C 154.566 4.07 153.936 4.672 153.558 5.316L 153.516 5.316L 153.46 4.224L 152.382 4.224C 152.424 4.784 152.438 5.358 152.438 6.058L 152.438 11ZM 167.081 13.772L 168.299 13.772L 168.299 10.09L 168.327 10.09C 168.733 10.762 169.517 11.154 170.413 11.154C 172.009 11.154 173.493 9.95 173.493 7.514C 173.493 5.456 172.261 4.07 170.623 4.07C 169.517 4.07 168.719 4.56 168.215 5.386L 168.187 5.386L 168.131 4.224L 167.025 4.224C 167.053 4.868 167.081 5.568 167.081 6.436L 167.081 13.772ZM 168.299 7.08C 168.299 6.912 168.341 6.73 168.383 6.576C 168.621 5.652 169.405 5.05 170.245 5.05C 171.547 5.05 172.261 6.212 172.261 7.57C 172.261 9.124 171.505 10.188 170.203 10.188C 169.321 10.188 168.579 9.6 168.355 8.746C 168.327 8.592 168.299 8.424 168.299 8.242L 168.299 7.08ZM 175.051 11L 176.269 11L 176.269 7.388C 176.269 7.178 176.297 6.982 176.325 6.814C 176.493 5.89 177.109 5.232 177.977 5.232C 178.145 5.232 178.271 5.246 178.397 5.274L 178.397 4.112C 178.285 4.084 178.187 4.07 178.047 4.07C 177.221 4.07 176.479 4.644 176.171 5.554L 176.115 5.554L 176.073 4.224L 174.995 4.224C 175.037 4.854 175.051 5.54 175.051 6.338L 175.051 11ZM 182.365 4.07C 180.489 4.07 179.005 5.4 179.005 7.668C 179.005 9.81 180.419 11.154 182.253 11.154C 183.891 11.154 185.627 10.062 185.627 7.556C 185.627 5.484 184.311 4.07 182.365 4.07ZM 182.337 4.994C 183.793 4.994 184.367 6.45 184.367 7.598C 184.367 9.124 183.485 10.23 182.309 10.23C 181.105 10.23 180.251 9.11 180.251 7.626C 180.251 6.338 180.881 4.994 182.337 4.994ZM 185.652 13.926C 186.31 13.926 187.206 13.702 187.752 13.156C 188.354 12.54 188.564 11.686 188.564 10.37L 188.564 4.224L 187.332 4.224L 187.332 9.894C 187.332 11.518 187.206 12.05 186.87 12.442C 186.576 12.764 186.086 12.918 185.526 12.96L 185.652 13.926ZM 187.962 1.55C 187.5 1.55 187.178 1.886 187.178 2.32C 187.178 2.726 187.472 3.076 187.934 3.076C 188.424 3.076 188.718 2.726 188.704 2.32C 188.704 1.886 188.41 1.55 187.962 1.55ZM 196.029 7.836C 196.043 7.71 196.071 7.514 196.071 7.262C 196.071 6.016 195.483 4.07 193.271 4.07C 191.297 4.07 190.093 5.68 190.093 7.724C 190.093 9.768 191.339 11.14 193.425 11.14C 194.503 11.14 195.245 10.916 195.679 10.72L 195.469 9.838C 195.007 10.034 194.475 10.188 193.593 10.188C 192.361 10.188 191.297 9.502 191.269 7.836L 196.029 7.836ZM 191.283 6.954C 191.381 6.1 191.927 4.952 193.173 4.952C 194.559 4.952 194.895 6.17 194.881 6.954L 191.283 6.954ZM 197.876 2.6L 197.876 4.224L 196.826 4.224L 196.826 5.162L 197.876 5.162L 197.876 8.858C 197.876 9.656 198.002 10.258 198.352 10.622C 198.646 10.958 199.108 11.14 199.682 11.14C 200.158 11.14 200.536 11.07 200.774 10.972L 200.718 10.048C 200.564 10.09 200.326 10.132 200.004 10.132C 199.318 10.132 199.08 9.656 199.08 8.816L 199.08 5.162L 200.844 5.162L 200.844 4.224L 199.08 4.224L 199.08 2.278L 197.876 2.6ZM 205.019 4.07C 203.143 4.07 201.659 5.4 201.659 7.668C 201.659 9.81 203.073 11.154 204.907 11.154C 206.545 11.154 208.281 10.062 208.281 7.556C 208.281 5.484 206.965 4.07 205.019 4.07ZM 204.991 4.994C 206.447 4.994 207.021 6.45 207.021 7.598C 207.021 9.124 206.139 10.23 204.963 10.23C 203.759 10.23 202.905 9.11 202.905 7.626C 202.905 6.338 203.535 4.994 204.991 4.994ZM 209.357 10.678C 209.833 10.958 210.519 11.14 211.261 11.14C 212.871 11.14 213.795 10.3 213.795 9.11C 213.795 8.102 213.193 7.514 212.017 7.066C 211.135 6.73 210.729 6.478 210.729 5.918C 210.729 5.414 211.135 4.994 211.863 4.994C 212.493 4.994 212.983 5.218 213.249 5.386L 213.557 4.49C 213.179 4.266 212.577 4.07 211.891 4.07C 210.435 4.07 209.553 4.966 209.553 6.058C 209.553 6.87 210.127 7.542 211.345 7.976C 212.255 8.312 212.605 8.634 212.605 9.222C 212.605 9.782 212.185 10.23 211.289 10.23C 210.673 10.23 210.029 9.978 209.665 9.74L 209.357 10.678ZM 222.97 1.06L 222.97 5.106L 222.942 5.106C 222.634 4.56 221.934 4.07 220.898 4.07C 219.246 4.07 217.846 5.456 217.86 7.71C 217.86 9.768 219.12 11.154 220.758 11.154C 221.864 11.154 222.69 10.58 223.068 9.824L 223.096 9.824L 223.152 11L 224.258 11C 224.216 10.538 224.202 9.852 224.202 9.25L 224.202 1.06L 222.97 1.06ZM 222.97 8.158C 222.97 8.354 222.956 8.522 222.914 8.69C 222.69 9.614 221.934 10.16 221.108 10.16C 219.778 10.16 219.106 9.026 219.106 7.654C 219.106 6.156 219.862 5.036 221.136 5.036C 222.06 5.036 222.732 5.68 222.914 6.464C 222.956 6.618 222.97 6.828 222.97 6.982L 222.97 8.158ZM 231.698 7.836C 231.712 7.71 231.74 7.514 231.74 7.262C 231.74 6.016 231.152 4.07 228.94 4.07C 226.966 4.07 225.762 5.68 225.762 7.724C 225.762 9.768 227.008 11.14 229.094 11.14C 230.172 11.14 230.914 10.916 231.348 10.72L 231.138 9.838C 230.676 10.034 230.144 10.188 229.262 10.188C 228.03 10.188 226.966 9.502 226.938 7.836L 231.698 7.836ZM 226.952 6.954C 227.05 6.1 227.596 4.952 228.842 4.952C 230.228 4.952 230.564 6.17 230.55 6.954L 226.952 6.954ZM 241.679 7.836C 241.693 7.71 241.721 7.514 241.721 7.262C 241.721 6.016 241.133 4.07 238.921 4.07C 236.947 4.07 235.743 5.68 235.743 7.724C 235.743 9.768 236.989 11.14 239.075 11.14C 240.153 11.14 240.895 10.916 241.329 10.72L 241.119 9.838C 240.657 10.034 240.125 10.188 239.243 10.188C 238.011 10.188 236.947 9.502 236.919 7.836L 241.679 7.836ZM 236.933 6.954C 237.031 6.1 237.577 4.952 238.823 4.952C 240.209 4.952 240.545 6.17 240.531 6.954L 236.933 6.954ZM 247.867 1.06L 247.867 5.106L 247.839 5.106C 247.531 4.56 246.831 4.07 245.795 4.07C 244.143 4.07 242.743 5.456 242.757 7.71C 242.757 9.768 244.017 11.154 245.655 11.154C 246.761 11.154 247.587 10.58 247.965 9.824L 247.993 9.824L 248.049 11L 249.155 11C 249.113 10.538 249.099 9.852 249.099 9.25L 249.099 1.06L 247.867 1.06ZM 247.867 8.158C 247.867 8.354 247.853 8.522 247.811 8.69C 247.587 9.614 246.831 10.16 246.005 10.16C 244.675 10.16 244.003 9.026 244.003 7.654C 244.003 6.156 244.759 5.036 246.033 5.036C 246.957 5.036 247.629 5.68 247.811 6.464C 247.853 6.618 247.867 6.828 247.867 6.982L 247.867 8.158ZM 252.381 11L 252.381 4.224L 251.149 4.224L 251.149 11L 252.381 11ZM 251.765 1.55C 251.317 1.55 250.995 1.886 250.995 2.32C 250.995 2.74 251.303 3.076 251.737 3.076C 252.227 3.076 252.535 2.74 252.521 2.32C 252.521 1.886 252.227 1.55 251.765 1.55ZM 255.774 11L 255.774 5.162L 258.49 5.162L 258.49 11L 259.708 11L 259.708 4.224L 255.774 4.224L 255.774 3.888C 255.774 2.81 256.152 1.9 257.454 1.9C 258.056 1.9 258.588 2.082 258.882 2.292L 259.232 1.354C 258.882 1.102 258.14 0.906 257.51 0.906C 255.606 0.906 254.556 2.068 254.556 3.86L 254.556 4.224L 253.604 4.224L 253.604 5.162L 254.556 5.162L 254.556 11L 255.774 11ZM 266.378 9.824C 266.028 9.978 265.566 10.16 264.866 10.16C 263.522 10.16 262.514 9.194 262.514 7.626C 262.514 6.212 263.354 5.064 264.908 5.064C 265.58 5.064 266.042 5.218 266.336 5.386L 266.616 4.434C 266.28 4.266 265.636 4.084 264.908 4.084C 262.696 4.084 261.268 5.596 261.268 7.682C 261.268 9.754 262.598 11.14 264.642 11.14C 265.552 11.14 266.266 10.916 266.588 10.748L 266.378 9.824ZM 272.906 11C 272.822 10.538 272.794 9.964 272.794 9.376L 272.794 6.842C 272.794 5.484 272.29 4.07 270.218 4.07C 269.364 4.07 268.552 4.308 267.992 4.672L 268.272 5.484C 268.748 5.176 269.406 4.98 270.036 4.98C 271.422 4.98 271.576 5.988 271.576 6.548L 271.576 6.688C 268.958 6.674 267.502 7.57 267.502 9.208C 267.502 10.188 268.202 11.154 269.574 11.154C 270.54 11.154 271.268 10.678 271.646 10.146L 271.688 10.146L 271.786 11L 272.906 11ZM 271.604 8.718C 271.604 8.844 271.576 8.984 271.534 9.11C 271.338 9.684 270.778 10.244 269.896 10.244C 269.266 10.244 268.734 9.866 268.734 9.068C 268.734 7.752 270.26 7.514 271.604 7.542L 271.604 8.718ZM 279.408 9.824C 279.072 9.978 278.596 10.16 277.896 10.16C 276.552 10.16 275.544 9.194 275.544 7.626C 275.544 6.212 276.384 5.064 277.938 5.064C 278.61 5.064 279.072 5.218 279.366 5.386L 279.646 4.434C 279.31 4.266 278.666 4.084 277.938 4.084C 275.726 4.084 274.298 5.596 274.298 7.682C 274.298 9.558 275.404 10.888 277.126 11.098L 276.538 12.176C 277.196 12.246 277.616 12.386 277.63 12.764C 277.63 13.1 277.35 13.198 277.028 13.198C 276.748 13.198 276.468 13.142 276.258 13.016L 276.048 13.646C 276.314 13.8 276.706 13.884 277.028 13.884C 277.784 13.884 278.484 13.562 278.484 12.722C 278.484 12.148 278.008 11.798 277.504 11.7L 277.854 11.14C 278.694 11.126 279.338 10.902 279.632 10.748L 279.408 9.824ZM 283.837 4.07C 281.961 4.07 280.477 5.4 280.477 7.668C 280.477 9.81 281.891 11.154 283.725 11.154C 285.363 11.154 287.099 10.062 287.099 7.556C 287.099 5.484 285.783 4.07 283.837 4.07ZM 283.809 4.994C 285.265 4.994 285.839 6.45 285.839 7.598C 285.839 9.124 284.957 10.23 283.781 10.23C 282.577 10.23 281.723 9.11 281.723 7.626C 281.723 6.338 282.353 4.994 283.809 4.994ZM 282.731 3.062C 282.759 2.67 282.871 2.432 283.095 2.432C 283.263 2.432 283.417 2.516 283.697 2.684C 283.991 2.838 284.257 2.964 284.551 2.964C 285.209 2.964 285.531 2.488 285.517 1.55L 284.859 1.55C 284.831 2.026 284.691 2.152 284.467 2.152C 284.299 2.152 284.103 2.04 283.879 1.914C 283.557 1.732 283.319 1.606 283.011 1.606C 282.409 1.606 282.031 2.152 282.059 3.062L 282.731 3.062ZM 294.097 7.836C 294.111 7.71 294.139 7.514 294.139 7.262C 294.139 6.016 293.551 4.07 291.339 4.07C 289.365 4.07 288.161 5.68 288.161 7.724C 288.161 9.768 289.407 11.14 291.493 11.14C 292.571 11.14 293.313 10.916 293.747 10.72L 293.537 9.838C 293.075 10.034 292.543 10.188 291.661 10.188C 290.429 10.188 289.365 9.502 289.337 7.836L 294.097 7.836ZM 289.351 6.954C 289.449 6.1 289.995 4.952 291.241 4.952C 292.627 4.952 292.963 6.17 292.949 6.954L 289.351 6.954ZM 295.189 10.678C 295.665 10.958 296.351 11.14 297.093 11.14C 298.703 11.14 299.627 10.3 299.627 9.11C 299.627 8.102 299.025 7.514 297.849 7.066C 296.967 6.73 296.561 6.478 296.561 5.918C 296.561 5.414 296.967 4.994 297.695 4.994C 298.325 4.994 298.815 5.218 299.081 5.386L 299.389 4.49C 299.011 4.266 298.409 4.07 297.723 4.07C 296.267 4.07 295.385 4.966 295.385 6.058C 295.385 6.87 295.959 7.542 297.177 7.976C 298.087 8.312 298.437 8.634 298.437 9.222C 298.437 9.782 298.017 10.23 297.121 10.23C 296.505 10.23 295.861 9.978 295.497 9.74L 295.189 10.678Z" transform="translate(145 5)" fill="#363F44"/>
</g>
<g id="AltoQi Lab">
<path d="M 11.2017 14.488L 13.0737 20L 15.4917 20L 9.51173 2.476L 6.78173 2.476L 0.827734 20L 3.16773 20L 4.98773 14.488L 11.2017 14.488ZM 5.45573 12.72L 7.17173 7.65C 7.50973 6.584 7.79573 5.518 8.05573 4.478L 8.10773 4.478C 8.36773 5.492 8.62773 6.532 9.01773 7.676L 10.7337 12.72L 5.45573 12.72ZM 17.9195 20L 20.2075 20L 20.2075 1.54L 17.9195 1.54L 17.9195 20ZM 24.584 4.4L 24.584 7.416L 22.634 7.416L 22.634 9.158L 24.584 9.158L 24.584 16.022C 24.584 17.504 24.818 18.622 25.468 19.298C 26.014 19.922 26.872 20.26 27.938 20.26C 28.822 20.26 29.524 20.13 29.966 19.948L 29.862 18.232C 29.576 18.31 29.134 18.388 28.536 18.388C 27.262 18.388 26.82 17.504 26.82 15.944L 26.82 9.158L 30.096 9.158L 30.096 7.416L 26.82 7.416L 26.82 3.802L 24.584 4.4ZM 37.8491 7.13C 34.3651 7.13 31.6091 9.6 31.6091 13.812C 31.6091 17.79 34.2351 20.286 37.6411 20.286C 40.6831 20.286 43.9071 18.258 43.9071 13.604C 43.9071 9.756 41.4631 7.13 37.8491 7.13ZM 37.7971 8.846C 40.5011 8.846 41.5671 11.55 41.5671 13.682C 41.5671 16.516 39.9291 18.57 37.7451 18.57C 35.5091 18.57 33.9231 16.49 33.9231 13.734C 33.9231 11.342 35.0931 8.846 37.7971 8.846ZM 61.9726 20.676C 60.4906 20.416 58.5926 20 56.8506 19.558L 56.8506 19.454C 59.7626 18.44 61.8426 15.554 61.8426 11.056C 61.8426 5.882 58.7486 2.19 53.9906 2.19C 49.2586 2.19 45.8266 5.804 45.8266 11.42C 45.8266 17.062 49.3886 20.13 53.5486 20.286C 53.8866 20.286 54.2506 20.416 54.6146 20.546C 56.6426 21.248 58.9566 21.95 61.3226 22.574L 61.9726 20.676ZM 53.8086 18.44C 50.2726 18.44 48.2186 15.086 48.2446 11.368C 48.2186 7.572 50.0906 4.036 53.9126 4.036C 57.6306 4.036 59.4506 7.65 59.4506 11.16C 59.4506 15.164 57.4226 18.44 53.8086 18.44ZM 67.0024 20L 67.0024 7.416L 64.7144 7.416L 64.7144 20L 67.0024 20ZM 65.8584 2.45C 65.0264 2.45 64.4284 3.074 64.4284 3.88C 64.4284 4.66 65.0004 5.284 65.8064 5.284C 66.7164 5.284 67.2884 4.66 67.2624 3.88C 67.2624 3.074 66.7164 2.45 65.8584 2.45ZM 75.882 20L 86.828 20L 86.828 16.672L 79.86 16.672L 79.86 2.476L 75.882 2.476L 75.882 20ZM 99.9229 20C 99.7929 19.298 99.7409 18.128 99.7409 16.906L 99.7409 12.486C 99.7409 9.496 98.3889 7 94.1509 7C 91.8369 7 90.0949 7.624 89.2109 8.118L 89.9389 10.666C 90.7709 10.146 92.1489 9.704 93.4489 9.704C 95.3989 9.704 95.7629 10.666 95.7629 11.342L 95.7629 11.524C 91.2649 11.498 88.3009 13.084 88.3009 16.386C 88.3009 18.414 89.8349 20.286 92.4089 20.286C 93.9169 20.286 95.2169 19.74 96.0489 18.726L 96.1269 18.726L 96.3609 20L 99.9229 20ZM 95.8929 15.372C 95.8929 15.606 95.8669 15.84 95.8149 16.048C 95.5549 16.854 94.7489 17.504 93.7609 17.504C 92.8769 17.504 92.2009 17.01 92.2009 15.996C 92.2009 14.462 93.8129 13.968 95.8929 13.994L 95.8929 15.372ZM 106.119 20L 106.275 18.232L 106.327 18.232C 107.237 19.74 108.667 20.286 110.149 20.286C 113.061 20.286 115.973 17.998 115.973 13.422C 115.999 9.522 113.763 7 110.721 7C 108.953 7 107.627 7.702 106.873 8.794L 106.821 8.794L 106.821 1.54L 102.869 1.54L 102.869 16.204C 102.869 17.634 102.817 19.168 102.765 20L 106.119 20ZM 106.821 12.72C 106.821 12.46 106.847 12.226 106.899 11.992C 107.159 10.848 108.147 10.042 109.213 10.042C 111.059 10.042 111.943 11.602 111.943 13.578C 111.943 15.866 110.903 17.166 109.213 17.166C 108.069 17.166 107.159 16.36 106.899 15.294C 106.847 15.086 106.821 14.852 106.821 14.592L 106.821 12.72Z" fill="#363F44"/>
</g>
<g id="Line">
<line y1="-0.5" x2="23" y2="-0.5" transform="matrix(0 1 -1 0 130 0)" stroke="#363F44"/>
</g>
</g>
</g>
</svg>

