<?xml version="1.0" encoding="utf-8"?>
<!-- Generator: Adobe Illustrator 16.0.0, SVG Export Plug-In . SVG Version: 6.00 Build 0)  -->
<!DOCTYPE svg PUBLIC "-//W3C//DTD SVG 1.1//EN" "http://www.w3.org/Graphics/SVG/1.1/DTD/svg11.dtd">
<svg version="1.1" id="Camada_1" xmlns="http://www.w3.org/2000/svg" xmlns:xlink="http://www.w3.org/1999/xlink" x="0px" y="0px"
	 width="130px" height="115px" viewBox="0 0 130 115" enable-background="new 0 0 130 115" xml:space="preserve">
<path fill="#363F44" d="M38.124,85.198l-1.188-14.241c0,0,27.45,17.566,28.372,18.145s1.797,0.531,2.641-0.02
	s27.775-18.125,27.775-18.125l-1.188,14.241c0,0-25.59,16.361-26.588,16.958s-1.686,0.616-2.64,0.021
	C64.355,101.581,38.124,85.198,38.124,85.198z"/>
<path fill="#363F44" d="M24.592,58.683c1.036-0.644,34.767-21.597,41.258-25.628c0.691-0.43,1.468-0.417,2.178,0.037
	c6.452,4.119,39.054,24.933,40.091,25.595c1.151,0.735,1.151,1.25,0.005,1.967c-1.32,0.825-2.246,1.403-2.246,1.403v16.021
	l-2.73,2.227V63.836L68.032,85.695c-0.685,0.364-1.491,0.457-2.183,0.036c-6.494-3.949-40.256-24.479-41.265-25.075
	C23.468,59.996,23.446,59.395,24.592,58.683z"/>
</svg>
