<?xml version="1.0" encoding="utf-8"?>
<!-- Generator: Adobe Illustrator 16.0.0, SVG Export Plug-In . SVG Version: 6.00 Build 0)  -->
<!DOCTYPE svg PUBLIC "-//W3C//DTD SVG 1.1//EN" "http://www.w3.org/Graphics/SVG/1.1/DTD/svg11.dtd">
<svg version="1.1" id="Camada_1" xmlns="http://www.w3.org/2000/svg" xmlns:xlink="http://www.w3.org/1999/xlink" x="0px" y="0px"
	 width="130px" height="115px" viewBox="0 0 130 115" enable-background="new 0 0 130 115" xml:space="preserve">
<g>
	<polygon fill="#929191" points="20.314,65.24 56.659,65.24 83.339,105.254 47.035,105.254 47.029,105.271 	"/>
	<polygon fill="#C6C6C5" points="83.407,25.203 47.065,25.203 20.386,65.223 56.686,65.223 56.695,65.234 	"/>
	<polygon fill="#4A4A49" points="110.113,65.24 73.766,65.24 47.089,105.254 83.386,105.254 83.398,105.271 	"/>
	<polygon fill="#636362" points="47.018,25.203 83.362,25.203 110.042,65.223 73.745,65.223 73.73,65.234 	"/>
	<g>
		<polygon fill="#4A4A49" points="58.529,75.243 65.211,65.252 56.226,65.252 49.547,75.243 		"/>
		<polygon fill="#4A4A49" points="58.512,55.225 65.211,65.252 56.231,65.252 49.547,55.225 		"/>
	</g>
	<g>
		<polygon fill="#636362" points="44.865,72.252 49.547,65.252 43.26,65.252 38.578,72.252 		"/>
		<polygon fill="#636362" points="44.852,58.235 49.541,65.252 43.26,65.252 38.585,58.235 		"/>
	</g>
</g>
</svg>
