<?xml version="1.0" encoding="utf-8"?>
<!-- Generator: Adobe Illustrator 16.0.0, SVG Export Plug-In . SVG Version: 6.00 Build 0)  -->
<!DOCTYPE svg PUBLIC "-//W3C//DTD SVG 1.1//EN" "http://www.w3.org/Graphics/SVG/1.1/DTD/svg11.dtd">
<svg version="1.1" id="Layer_1" xmlns="http://www.w3.org/2000/svg" xmlns:xlink="http://www.w3.org/1999/xlink" x="0px" y="0px"
	 width="512px" height="318.15px" viewBox="0 0 512 318.15" enable-background="new 0 0 512 318.15" xml:space="preserve">
<g>
	<g>
		<path fill="#050013" stroke="#231F20" stroke-width="0.5005" stroke-miterlimit="22.9256" d="M256,4.859
			c85.014,0,153.934,68.918,153.934,153.934S341.014,312.727,256,312.727c-85.016,0-153.933-68.919-153.933-153.935
			S170.984,4.859,256,4.859L256,4.859z"/>
		<path fill="#FFFFFF" d="M189.86,117.538c22.298,0,40.99,15.428,45.99,36.193l-19.067,8.337l-0.004-0.041l-19.506,8.57
			l-46.792,20.46c-5.006-7.506-7.926-16.521-7.926-26.216C142.554,138.717,163.733,117.538,189.86,117.538L189.86,117.538z
			 M210.164,146.951l-47.255,20.363c-0.073-0.813-0.113-1.638-0.113-2.473c0-14.946,12.117-27.064,27.064-27.064
			C197.948,137.778,205.205,141.327,210.164,146.951L210.164,146.951z"/>
		<path fill="#FFFFFF" d="M222.916,198.683c-16.938,16.075-39.345,17.652-59.034,5.699l11.125-16.912
			c11.204,6.695,22.458,5.609,33.765-3.268L222.916,198.683L222.916,198.683z"/>
		<path fill="#FFFFFF" d="M242.177,186.974l-0.12-89.458h16.948v87.04c0,0.837,0.104,1.571,1.2,1.997l14.743,5.733l-6.642,17.271
			l-17.273-7.308C244.485,199.48,242.188,195.465,242.177,186.974L242.177,186.974z"/>
	</g>
	<g>
		<path fill="#009DD7" d="M305.991,185.468c-6.352-4.938-10.442-12.647-10.442-21.317c0-7.708,3.236-14.658,8.416-19.576
			l-10.947-17.74c-11.002,8.718-18.068,22.188-18.068,37.316c0,16.306,8.205,30.691,20.706,39.269L305.991,185.468z"/>
		<path fill="#FFF200" d="M313.412,138.74c2.853-1.025,5.929-1.588,9.135-1.588c11.561,0,21.416,7.269,25.267,17.48l20.978-1.753
			c-5.063-20.846-23.841-36.327-46.243-36.327c-6.33,0-12.365,1.246-17.892,3.488L313.412,138.74z"/>
		<path fill="#E33206" d="M349.511,165.457c-0.683,14.303-12.493,25.688-26.964,25.688c-2.269,0-4.47-0.281-6.574-0.811
			l-8.229,19.052c4.661,1.522,9.634,2.358,14.804,2.358c25.631,0,46.52-20.262,47.547-45.642L349.511,165.457z"/>
	</g>
</g>
<path fill="#050013" stroke="#231F20" stroke-width="0.5005" stroke-miterlimit="22.9256" d="M210.143,146.607l-47.255,20.364
	c-0.073-0.813-0.113-1.637-0.113-2.473c0-14.946,12.117-27.065,27.063-27.065C197.927,137.435,205.184,140.984,210.143,146.607
	L210.143,146.607z"/>
</svg>
