<?xml version="1.0" encoding="utf-8"?>
<!-- Generator: Adobe Illustrator 16.0.0, SVG Export Plug-In . SVG Version: 6.00 Build 0)  -->
<!DOCTYPE svg PUBLIC "-//W3C//DTD SVG 1.1//EN" "http://www.w3.org/Graphics/SVG/1.1/DTD/svg11.dtd">
<svg version="1.1" id="Layer_1" xmlns="http://www.w3.org/2000/svg" xmlns:xlink="http://www.w3.org/1999/xlink" x="0px" y="0px"
	 width="512px" height="318.15px" viewBox="0 0 512 318.15" enable-background="new 0 0 512 318.15" xml:space="preserve">
<g>
	<g>
		<path fill="#E5E6E7" d="M482.722,5c13.854,0,25.126,11.271,25.126,25.126v257.899c0,13.854-11.271,25.125-25.126,25.125H30.99
			c-13.854,0-25.126-11.271-25.126-25.125V30.126C5.864,16.272,17.135,5,30.99,5H482.722 M482.722,0H30.99
			C14.352,0,0.864,13.488,0.864,30.126v257.899c0,16.64,13.488,30.125,30.126,30.125h451.73c16.641,0,30.126-13.485,30.126-30.125
			V30.126C512.848,13.488,499.36,0,482.722,0L482.722,0z"/>
	</g>
	<g>
		<polygon fill="#005098" points="190.88,222.906 212.529,95.823 247.182,95.823 225.494,222.906 		"/>
		<path fill="#005098" d="M351.141,98.953c-6.858-2.576-17.615-5.339-31.049-5.339c-34.226,0-58.336,17.234-58.549,41.94
			c-0.193,18.256,17.21,28.451,30.352,34.527c13.488,6.229,18.022,10.203,17.967,15.767c-0.099,8.518-10.775,12.403-20.737,12.403
			c-13.856,0-21.224-1.918-32.601-6.667l-4.458-2.017l-4.864,28.451c8.082,3.547,23.043,6.618,38.587,6.772
			c36.417,0,60.042-17.035,60.313-43.424c0.138-14.446-9.089-25.445-29.069-34.521c-12.113-5.882-19.535-9.802-19.46-15.757
			c0-5.281,6.279-10.931,19.848-10.931c11.318-0.179,19.536,2.292,25.912,4.869l3.121,1.469L351.141,98.953L351.141,98.953z"/>
		<path fill="#005098" d="M439.964,95.946h-26.766c-8.295,0-14.496,2.263-18.142,10.538l-51.438,116.47h36.378
			c0,0,5.931-15.659,7.287-19.101c3.974,0,39.305,0.06,44.361,0.06c1.027,4.447,4.207,19.041,4.207,19.041h32.151L439.964,95.946
			L439.964,95.946z M397.248,177.865c2.868-7.325,13.8-35.529,13.8-35.529c-0.193,0.339,2.85-7.36,4.593-12.133l2.348,10.959
			c0,0,6.628,30.337,8.021,36.704L397.248,177.865L397.248,177.865z"/>
		<path fill="#005098" d="M161.828,95.916l-33.917,86.667l-3.624-17.607c-6.299-20.312-25.971-42.309-47.968-53.317l31.009,111.149
			l36.649-0.048l54.538-126.844H161.828L161.828,95.916z"/>
		<path fill="#F6A500" d="M96.456,95.839H40.581l-0.426,2.641c43.452,10.523,72.213,35.946,84.133,66.496l-12.133-58.41
			C110.062,98.518,103.976,96.119,96.456,95.839L96.456,95.839z"/>
	</g>
</g>
</svg>
