<?xml version="1.0" encoding="utf-8"?>
<!-- Generator: Adobe Illustrator 16.0.0, SVG Export Plug-In . SVG Version: 6.00 Build 0)  -->
<!DOCTYPE svg PUBLIC "-//W3C//DTD SVG 1.1//EN" "http://www.w3.org/Graphics/SVG/1.1/DTD/svg11.dtd">
<svg version="1.1" id="Layer_1" xmlns="http://www.w3.org/2000/svg" xmlns:xlink="http://www.w3.org/1999/xlink" x="0px" y="0px"
	 width="512px" height="318.15px" viewBox="0 0 512 318.15" enable-background="new 0 0 512 318.15" xml:space="preserve">
<g>
	<g>
		<path fill="#E5E6E7" d="M482.722,5c13.854,0,25.126,11.271,25.126,25.126v257.899c0,13.854-11.271,25.125-25.126,25.125H30.99
			c-13.854,0-25.126-11.271-25.126-25.125V30.126C5.864,16.272,17.135,5,30.99,5H482.722 M482.722,0H30.99
			C14.352,0,0.864,13.488,0.864,30.126v257.899c0,16.64,13.488,30.125,30.126,30.125h451.73c16.641,0,30.126-13.485,30.126-30.125
			V30.126C512.848,13.488,499.36,0,482.722,0L482.722,0z"/>
	</g>
</g>
<g>
	<g>
		<g>
			<g>
				<path fill="#ED1C2E" d="M179.151,48.012c63.933,0,115.758,51.822,115.758,115.754c0,63.928-51.826,115.758-115.758,115.758
					c-63.927,0-115.754-51.83-115.754-115.758C63.397,99.834,115.224,48.012,179.151,48.012z"/>
				<g>
					<path fill="#FCB131" d="M334.562,48.003c-29.926,0-57.169,11.35-77.714,29.968c-4.177,3.792-8.083,7.892-11.682,12.252h23.385
						c3.197,3.887,6.141,7.977,8.827,12.261h-41.039c-2.456,3.936-4.69,8.03-6.669,12.261h54.372
						c1.856,3.973,3.496,8.059,4.903,12.248h-64.178c-1.341,3.996-2.465,8.086-3.363,12.262h70.898
						c1.705,7.896,2.604,16.096,2.604,24.514c0,12.852-2.097,25.221-5.96,36.77h-64.178c1.407,4.203,3.042,8.294,4.898,12.261
						h54.376c-1.982,4.231-4.208,8.321-6.673,12.258h-41.03c2.673,4.275,5.625,8.365,8.827,12.252h23.38
						c-3.595,4.359-7.501,8.465-11.693,12.258c20.545,18.613,47.794,29.953,77.708,29.953c63.929,0,115.756-51.826,115.756-115.754
						C450.315,99.844,398.488,48.003,334.562,48.003z"/>
				</g>
			</g>
			<path fill="#FCB131" d="M434.889,228.287c0-2.063,1.683-3.727,3.737-3.727c2.068,0,3.736,1.674,3.736,3.727
				c0,2.07-1.678,3.74-3.736,3.74S434.889,230.359,434.889,228.287z M438.626,231.134c1.563,0,2.837-1.277,2.837-2.847
				c0-1.577-1.273-2.838-2.837-2.838c-1.573,0-2.844,1.261-2.844,2.838C435.782,229.857,437.053,231.134,438.626,231.134z
				 M438.119,229.933h-0.765v-3.283h1.39c0.292,0,0.584,0,0.845,0.156c0.26,0.186,0.411,0.5,0.411,0.826
				c0,0.373-0.212,0.713-0.571,0.852l0.608,1.449h-0.849l-0.502-1.299h-0.559v1.299H438.119z M438.119,228.068h0.427
				c0.159,0,0.32,0.01,0.472-0.063c0.123-0.084,0.197-0.234,0.197-0.377c0-0.123-0.094-0.273-0.188-0.336
				c-0.134-0.08-0.351-0.066-0.501-0.066h-0.407V228.068L438.119,228.068z"/>
		</g>
		<g>
			<g>
				<path fill="#003473" d="M152.12,176.439c-1.313-0.152-1.897-0.197-2.8-0.197c-7.127,0-10.726,2.445-10.726,7.271
					c0,2.973,1.757,4.861,4.501,4.861C148.215,188.374,151.903,183.503,152.12,176.439z M161.26,197.712c-1.672,0-10.411,0-10.411,0
					l0.237-4.937c-3.174,3.916-7.416,5.769-13.168,5.769c-6.811,0-11.481-5.324-11.481-13.037c0-11.629,8.118-18.42,22.061-18.42
					c1.427,0,3.25,0.131,5.125,0.366c0.392-1.571,0.49-2.247,0.49-3.098c0-3.16-2.188-4.34-8.057-4.34
					c-6.154-0.066-11.218,1.469-13.306,2.15c0.132-0.798,1.744-10.738,1.744-10.738c6.258-1.841,10.386-2.531,15.033-2.531
					c10.792,0,16.512,4.841,16.498,14.003c0.024,2.457-0.382,5.479-1.015,9.471C163.924,179.273,161.576,194.103,161.26,197.712z"/>
				<polygon fill="#003473" points="121.18,197.712 108.606,197.712 115.81,152.582 99.736,197.712 91.173,197.712 90.111,152.832 
					82.544,197.712 70.784,197.712 80.608,138.999 98.678,138.999 99.774,171.863 110.798,138.999 130.899,138.999 				"/>
				<path fill="#003473" d="M350.082,176.439c-1.313-0.152-1.9-0.197-2.792-0.197c-7.126,0-10.727,2.445-10.727,7.271
					c0,2.973,1.742,4.861,4.501,4.861C346.188,188.374,349.873,183.503,350.082,176.439z M359.233,197.712
					c-1.681,0-10.408,0-10.408,0l0.234-4.937c-3.169,3.916-7.409,5.769-13.168,5.769c-6.82,0-11.48-5.324-11.48-13.037
					c0-11.629,8.128-18.42,22.066-18.42c1.431,0,3.248,0.131,5.123,0.366c0.39-1.571,0.491-2.247,0.491-3.098
					c0-3.16-2.181-4.34-8.048-4.34c-6.15-0.066-11.222,1.469-13.311,2.15c0.128-0.798,1.743-10.738,1.743-10.738
					c6.267-1.841,10.391-2.531,15.027-2.531c10.792,0,16.513,4.841,16.503,14.003c0.021,2.457-0.382,5.479-1.023,9.471
					C361.893,179.273,359.547,194.103,359.233,197.712z"/>
				<path fill="#003473" d="M217.111,196.99c-3.443,1.08-6.126,1.543-9.031,1.543c-6.423,0-9.933-3.69-9.933-10.483
					c-0.09-2.121,0.926-7.66,1.724-12.738c0.728-4.459,5.451-32.58,5.451-32.58h12.492l-1.455,7.228h7.547l-1.704,11.477h-7.572
					c-1.451,9.074-3.519,20.391-3.538,21.891c0,2.463,1.308,3.533,4.303,3.533c1.436,0,2.541-0.141,3.387-0.453L217.111,196.99z"/>
				<path fill="#003473" d="M255.411,196.603c-4.299,1.307-8.432,1.951-12.819,1.93c-13.985-0.008-21.273-7.319-21.273-21.295
					c0-16.324,9.267-28.339,21.863-28.339c10.297,0,16.876,6.727,16.876,17.277c0,3.508-0.455,6.92-1.541,11.742h-24.876
					c-0.845,6.93,3.585,9.813,10.859,9.813c4.467,0,8.506-0.92,12.988-2.998L255.411,196.603z M248.388,168.296
					c0.07-1.002,1.318-8.525-5.814-8.525c-3.977,0-6.825,3.031-7.972,8.525H248.388z"/>
				<path fill="#003473" d="M168.798,165.06c0,6.043,2.929,10.203,9.57,13.336c5.091,2.389,5.875,3.103,5.875,5.269
					c0,2.977-2.238,4.321-7.212,4.321c-3.755,0-7.24-0.578-11.265-1.889c0,0-1.648,10.527-1.729,11.029
					c2.853,0.623,5.403,1.198,13.083,1.418c13.258,0,19.384-5.056,19.384-15.966c0-6.557-2.56-10.405-8.861-13.313
					c-5.271-2.404-5.875-2.953-5.875-5.187c0-2.575,2.092-3.897,6.149-3.897c2.466,0,5.838,0.262,9.031,0.715l1.785-11.076
					c-3.249-0.521-8.185-0.931-11.062-0.931C173.62,148.898,168.755,156.239,168.798,165.06z"/>
				<path fill="#003473" d="M316.527,150.155c3.496,0,6.754,0.911,11.231,3.169l2.055-12.744c-1.848-0.723-8.321-4.963-13.806-4.963
					c-8.401,0-15.528,4.17-20.525,11.057c-7.293-2.417-10.297,2.471-13.973,7.336l-3.264,0.754c0.251-1.596,0.479-3.192,0.4-4.798
					H267.1c-1.572,14.779-4.363,29.747-6.551,44.534l-0.574,3.213h12.586c2.103-13.631,3.24-22.361,3.935-28.283l4.737-2.625
					c0.703-2.637,2.925-3.521,7.354-3.41c-0.576,3.117-0.894,6.391-0.894,9.785c0,15.615,8.44,25.346,21.964,25.346
					c3.49,0,6.475-0.465,11.113-1.711l2.198-13.395c-4.164,2.059-7.573,3.014-10.672,3.014c-7.303,0-11.724-5.383-11.724-14.301
					C300.573,159.214,307.139,150.155,316.527,150.155z"/>
				<path fill="#003473" d="M422.921,138.999l-2.792,16.961c-3.428-4.517-7.122-7.79-11.986-7.79
					c-6.348,0-12.115,4.809-15.889,11.884c-5.271-1.09-10.703-2.948-10.703-2.948l-0.009,0.048c0.425-3.957,0.604-6.365,0.553-7.188
					h-11.548c-1.563,14.784-4.36,29.751-6.551,44.534l-0.567,3.213h12.574c1.708-11.011,2.994-20.179,3.946-27.435
					c4.298-3.885,6.453-7.258,10.778-7.041c-1.912,4.652-3.047,9.998-3.047,15.486c0,11.941,6.036,19.82,15.177,19.82
					c4.608,0,8.146-1.599,11.591-5.273l-0.596,4.441h11.894l9.568-58.713L422.921,138.999L422.921,138.999z M407.207,186.683
					c-4.277,0-6.442-3.17-6.442-9.412c0-9.381,4.05-16.035,9.754-16.035c4.321,0,6.659,3.287,6.659,9.353
					C417.167,180.048,413.055,186.683,407.207,186.683z"/>
			</g>
			<g>
				<polygon fill="#FFFFFF" points="124.788,194.232 112.225,194.232 119.428,149.097 103.35,194.232 94.791,194.232 
					93.729,149.361 86.167,194.232 74.402,194.232 84.226,135.517 102.296,135.517 102.797,171.863 114.992,135.517 
					134.513,135.517 				"/>
				<path fill="#FFFFFF" d="M155.738,172.951c-1.317-0.145-1.898-0.188-2.8-0.188c-7.127,0-10.731,2.441-10.731,7.264
					c0,2.965,1.762,4.869,4.506,4.869C151.833,184.898,155.521,180.019,155.738,172.951z M164.878,194.232
					c-1.677,0-10.414,0-10.414,0l0.235-4.945c-3.169,3.914-7.415,5.771-13.168,5.771c-6.81,0-11.482-5.316-11.482-13.043
					c0-11.621,8.12-18.408,22.063-18.408c1.421,0,3.254,0.135,5.124,0.375c0.388-1.578,0.487-2.25,0.487-3.113
					c0-3.154-2.187-4.331-8.059-4.331c-6.153-0.069-11.217,1.46-13.305,2.145c0.138-0.792,1.748-10.735,1.748-10.735
					c6.258-1.833,10.386-2.531,15.039-2.531c10.792,0,16.507,4.851,16.498,14.001c0.023,2.454-0.383,5.485-1.016,9.469
					C167.542,175.785,165.199,190.628,164.878,194.232z"/>
				<path fill="#FFFFFF" d="M333.431,137.1l-2.059,12.744c-4.491-2.259-7.741-3.17-11.227-3.17c-9.381,0-15.964,9.068-15.964,22.002
					c0,8.906,4.426,14.291,11.731,14.291c3.099,0,6.518-0.953,10.674-3.015l-2.21,13.396c-4.629,1.256-7.618,1.709-11.104,1.709
					c-13.532,0-21.959-9.729-21.959-25.344c0-20.984,11.653-35.664,28.303-35.664C325.106,134.049,331.591,136.377,333.431,137.1z"
					/>
				<path fill="#FFFFFF" d="M353.699,172.951c-1.314-0.145-1.898-0.188-2.796-0.188c-7.123,0-10.731,2.441-10.731,7.264
					c0,2.965,1.757,4.869,4.512,4.869C349.799,184.898,353.49,180.019,353.699,172.951z M362.847,194.232
					c-1.675,0-10.402,0-10.402,0l0.235-4.945c-3.17,3.914-7.412,5.771-13.174,5.771c-6.815,0-11.478-5.316-11.478-13.043
					c0-11.621,8.119-18.408,22.063-18.408c1.43,0,3.254,0.135,5.124,0.375c0.388-1.578,0.497-2.25,0.497-3.113
					c0-3.154-2.183-4.331-8.058-4.331c-6.15-0.069-11.209,1.46-13.303,2.145c0.13-0.792,1.738-10.735,1.738-10.735
					c6.263-1.833,10.387-2.531,15.039-2.531c10.787,0,16.508,4.851,16.483,14.001c0.037,2.454-0.372,5.485-1.012,9.469
					C365.512,175.785,363.165,190.628,362.847,194.232z"/>
				<path fill="#FFFFFF" d="M220.729,193.499c-3.443,1.084-6.116,1.553-9.025,1.553c-6.423,0-9.938-3.697-9.938-10.488
					c-0.089-2.117,0.926-7.662,1.724-12.729c0.728-4.468,5.45-32.589,5.45-32.589h12.493l-1.459,7.229h6.409l-1.71,11.473h-6.433
					c-1.449,9.087-3.519,20.4-3.542,21.898c0,2.465,1.312,3.527,4.302,3.527c1.431,0,2.541-0.144,3.387-0.449L220.729,193.499z"/>
				<path fill="#FFFFFF" d="M259.029,193.119c-4.289,1.31-8.437,1.933-12.819,1.933c-13.985-0.012-21.273-7.32-21.273-21.297
					c0-16.327,9.277-28.344,21.859-28.344c10.306,0,16.886,6.728,16.886,17.287c0,3.5-0.459,6.92-1.539,11.742H237.27
					c-0.846,6.93,3.585,9.818,10.849,9.818c4.473,0,8.507-0.924,12.992-3.012L259.029,193.119z M252.011,164.81
					c0.065-0.996,1.322-8.52-5.82-8.52c-3.976,0-6.824,3.037-7.981,8.52H252.011z"/>
				<path fill="#FFFFFF" d="M172.416,161.574c0,6.045,2.929,10.201,9.57,13.343c5.091,2.387,5.875,3.104,5.875,5.262
					c0,2.975-2.248,4.332-7.217,4.332c-3.75,0-7.24-0.588-11.265-1.887c0,0-1.648,10.53-1.724,11.016
					c2.854,0.623,5.403,1.201,13.079,1.416c13.263,0,19.388-5.047,19.388-15.957c0-6.563-2.564-10.406-8.86-13.301
					c-5.271-2.429-5.875-2.957-5.875-5.188c0-2.587,2.087-3.915,6.149-3.915c2.462,0,5.838,0.273,9.031,0.723l1.785-11.071
					c-3.249-0.514-8.185-0.937-11.062-0.937C177.239,145.411,172.373,152.752,172.416,161.574z"/>
				<path fill="#FFFFFF" d="M429.363,194.232h-11.889l0.585-4.445c-3.446,3.685-6.977,5.271-11.585,5.271
					c-9.139,0-15.181-7.867-15.181-19.813c0-15.885,9.37-29.269,20.452-29.269c4.878,0,8.562,1.989,11.995,6.513l2.788-16.97h12.393
					L429.363,194.232z M410.821,183.201c5.855,0,9.965-6.631,9.965-16.098c0-6.059-2.328-9.36-6.66-9.36
					c-5.7,0-9.742,6.655-9.742,16.047C404.384,180.035,406.552,183.201,410.821,183.201z"/>
				<path fill="#FFFFFF" d="M374.168,146.485c-1.566,14.78-4.363,29.747-6.555,44.534l-0.572,3.213h12.568
					c4.507-29.203,5.579-34.899,12.635-34.188c1.12-5.975,3.212-11.208,4.767-13.849c-5.263-1.097-8.199,1.88-12.053,7.528
					c0.302-2.441,0.862-4.817,0.755-7.24L374.168,146.485L374.168,146.485z"/>
				<path fill="#FFFFFF" d="M270.725,146.485c-1.578,14.78-4.38,29.747-6.562,44.534l-0.571,3.213h12.583
					c4.496-29.203,5.573-34.899,12.61-34.188c1.129-5.975,3.229-11.208,4.779-13.849c-5.262-1.097-8.199,1.88-12.055,7.528
					c0.307-2.441,0.869-4.817,0.751-7.24L270.725,146.485L270.725,146.485z"/>
				<g>
					<path fill="#FFFFFF" d="M434.88,190.494c0-2.077,1.69-3.745,3.736-3.745c2.068,0,3.734,1.678,3.734,3.745
						c0,2.056-1.676,3.728-3.734,3.728C436.562,194.232,434.88,192.55,434.88,190.494z M438.616,193.333
						c1.572,0,2.844-1.279,2.844-2.839c0-1.571-1.271-2.854-2.844-2.854c-1.567,0-2.838,1.281-2.838,2.854
						C435.778,192.062,437.049,193.333,438.616,193.333z M438.11,192.124h-0.767v-3.283h1.399c0.292,0,0.575,0.012,0.835,0.166
						c0.273,0.174,0.421,0.5,0.421,0.828c0,0.356-0.212,0.705-0.567,0.848l0.604,1.438h-0.85l-0.506-1.301h-0.554v1.306
						L438.11,192.124L438.11,192.124z M438.11,190.267h0.425c0.161,0,0.331,0.01,0.478-0.074c0.118-0.076,0.189-0.235,0.189-0.373
						c0-0.117-0.081-0.27-0.186-0.334c-0.123-0.082-0.345-0.059-0.49-0.059h-0.416V190.267z"/>
				</g>
			</g>
		</g>
	</g>
</g>
</svg>
