<?xml version="1.0" encoding="utf-8"?>
<!-- Generator: Adobe Illustrator 16.0.0, SVG Export Plug-In . SVG Version: 6.00 Build 0)  -->
<!DOCTYPE svg PUBLIC "-//W3C//DTD SVG 1.1//EN" "http://www.w3.org/Graphics/SVG/1.1/DTD/svg11.dtd">
<svg version="1.1" id="Layer_1" xmlns="http://www.w3.org/2000/svg" xmlns:xlink="http://www.w3.org/1999/xlink" x="0px" y="0px"
	 width="512px" height="318.15px" viewBox="0 0 512 318.15" enable-background="new 0 0 512 318.15" xml:space="preserve">
<g>
	<g>
		<path fill="#E5E6E7" d="M482.722,5c13.854,0,25.126,11.271,25.126,25.126v257.899c0,13.854-11.271,25.125-25.126,25.125H30.99
			c-13.854,0-25.126-11.271-25.126-25.125V30.126C5.864,16.272,17.135,5,30.99,5H482.722 M482.722,0H30.99
			C14.352,0,0.864,13.488,0.864,30.126v257.899c0,16.64,13.488,30.125,30.126,30.125h451.73c16.641,0,30.126-13.485,30.126-30.125
			V30.126C512.848,13.488,499.36,0,482.722,0L482.722,0z"/>
	</g>
</g>
<g>
	<g>
		<polygon fill="#231F20" points="97.666,79.852 115.922,79.852 115.922,250.768 97.666,250.768 		"/>
		<polygon fill="#231F20" points="121.673,79.852 127.335,79.852 127.335,250.768 121.673,250.768 		"/>
		<polygon fill="#231F20" points="132.257,79.852 142.387,79.852 142.387,250.768 132.257,250.768 		"/>
		<polygon fill="#231F20" points="152.148,79.852 157.805,79.852 157.805,250.768 152.148,250.768 		"/>
		<polygon fill="#231F20" points="160.262,79.852 164.624,79.852 164.624,250.768 160.262,250.768 		"/>
		<polygon fill="#231F20" points="83.787,79.852 89.444,79.852 89.444,250.768 83.787,250.768 		"/>
		<polygon fill="#231F20" points="71.313,79.852 81.436,79.852 81.436,250.768 71.313,250.768 		"/>
		<polygon fill="#231F20" points="194.855,79.852 213.104,79.852 213.104,250.768 194.855,250.768 		"/>
		<polygon fill="#231F20" points="218.862,79.852 224.513,79.852 224.513,250.768 218.862,250.768 		"/>
		<polygon fill="#231F20" points="229.441,79.852 239.57,79.852 239.57,250.768 229.441,250.768 		"/>
		<polygon fill="#231F20" points="249.33,79.852 254.989,79.852 254.989,250.768 249.33,250.768 		"/>
		<polygon fill="#231F20" points="257.446,79.852 261.813,79.852 261.813,250.768 257.446,250.768 		"/>
		<polygon fill="#231F20" points="180.971,79.852 186.628,79.852 186.628,250.768 180.971,250.768 		"/>
		<polygon fill="#231F20" points="168.496,79.852 178.62,79.852 178.62,250.768 168.496,250.768 		"/>
		<polygon fill="#231F20" points="268.979,79.852 279.104,79.852 279.104,250.768 268.979,250.768 		"/>
		<polygon fill="#231F20" points="288.87,79.852 294.508,79.852 294.508,250.768 288.87,250.768 		"/>
		<polygon fill="#231F20" points="296.984,79.852 301.354,79.852 301.354,250.768 296.984,250.768 		"/>
		<polygon fill="#231F20" points="317.699,79.852 323.35,79.852 323.35,250.768 317.699,250.768 		"/>
		<polygon fill="#231F20" points="305.218,79.852 315.347,79.852 315.347,250.768 305.218,250.768 		"/>
		<polygon fill="#231F20" points="330.872,79.852 336.522,79.852 336.522,250.768 330.872,250.768 		"/>
		<polygon fill="#231F20" points="338.986,79.852 343.346,79.852 343.346,250.768 338.986,250.768 		"/>
		<polygon fill="#231F20" points="359.699,79.852 365.351,79.852 365.351,250.768 359.699,250.768 		"/>
		<polygon fill="#231F20" points="347.219,79.852 357.35,79.852 357.35,250.768 347.219,250.768 		"/>
		<polygon fill="#231F20" points="370.291,79.852 388.535,79.852 388.535,250.768 370.291,250.768 		"/>
		<polygon fill="#231F20" points="394.279,79.852 399.943,79.852 399.943,250.768 394.279,250.768 		"/>
		<polygon fill="#231F20" points="404.872,79.852 415.001,79.852 415.001,250.768 404.872,250.768 		"/>
		<polygon fill="#231F20" points="424.761,79.852 430.418,79.852 430.418,250.768 424.761,250.768 		"/>
		<polygon fill="#231F20" points="432.875,79.852 437.234,79.852 437.234,250.768 432.875,250.768 		"/>
		<polygon fill="#231F20" points="444.415,79.852 454.532,79.852 454.532,250.768 444.415,250.768 		"/>
		<polygon fill="#FFFFFF" points="91.958,260.056 441.834,260.056 441.834,155.361 91.958,155.361 		"/>
		<path fill="#231F20" d="M98.557,247.482v-86.664h32.521c6.624,0,11.925,0.861,15.942,2.614c3.993,1.76,7.117,4.46,9.381,8.115
			c2.284,3.624,3.405,7.446,3.405,11.438c0,3.699-1.004,7.179-3.006,10.455c-1.996,3.261-5.014,5.912-9.075,7.927
			c5.246,1.534,9.281,4.153,12.081,7.859c2.826,3.692,4.243,8.071,4.243,13.11c0,4.077-0.868,7.854-2.583,11.341
			c-1.722,3.492-3.83,6.173-6.355,8.069c-2.526,1.869-5.695,3.318-9.481,4.278c-3.811,0.968-8.476,1.46-14.001,1.46H98.557V247.482z
			 M110.059,197.242h18.737c5.076,0,8.738-0.342,10.933-1.003c2.926-0.873,5.122-2.32,6.593-4.342
			c1.472-2.021,2.221-4.541,2.221-7.583c0-2.882-0.686-5.429-2.083-7.604c-1.366-2.188-3.344-3.704-5.907-4.521
			c-2.563-0.806-6.96-1.198-13.179-1.198h-17.328v26.252L110.059,197.242L110.059,197.242z M110.059,237.306h21.581
			c3.718,0,6.313-0.136,7.828-0.422c2.626-0.462,4.846-1.25,6.624-2.36c1.777-1.108,3.225-2.719,4.372-4.846
			c1.154-2.115,1.722-4.561,1.722-7.314c0-3.258-0.823-6.051-2.507-8.46c-1.653-2.395-3.954-4.078-6.899-5.038
			c-2.919-0.969-7.16-1.461-12.667-1.461H110.06L110.059,237.306L110.059,237.306z"/>
		<path fill="#231F20" d="M174.452,216.07c0-11.596,3.218-20.195,9.706-25.778c5.383-4.643,11.981-6.968,19.747-6.968
			c8.62,0,15.674,2.825,21.163,8.477c5.471,5.627,8.214,13.435,8.214,23.378c0,8.07-1.209,14.408-3.629,19.021
			c-2.42,4.628-5.95,8.217-10.591,10.781c-4.623,2.556-9.681,3.834-15.151,3.834c-8.794,0-15.899-2.8-21.325-8.428
			C177.147,234.75,174.452,226.635,174.452,216.07L174.452,216.07z M185.343,216.086c0,8.026,1.752,14.042,5.265,18.016
			c3.529,3.998,7.952,5.992,13.297,5.992c5.283,0,9.681-1.994,13.216-6.021c3.505-4.001,5.259-10.129,5.259-18.336
			c0-7.747-1.772-13.609-5.302-17.589c-3.53-3.993-7.928-5.995-13.179-5.995c-5.345,0-9.762,1.978-13.297,5.956
			C187.095,202.091,185.343,208.078,185.343,216.086L185.343,216.086z"/>
		<polygon fill="#231F20" points="245.52,247.482 245.52,160.818 256.173,160.818 256.173,247.482 		"/>
		<path fill="#231F20" d="M315.504,227.139l11.014,1.455c-1.722,6.394-4.928,11.375-9.599,14.914
			c-4.672,3.529-10.653,5.301-17.945,5.301c-9.161,0-16.409-2.819-21.78-8.478c-5.362-5.625-8.045-13.556-8.045-23.739
			c0-10.521,2.694-18.729,8.127-24.53c5.433-5.832,12.462-8.738,21.112-8.738c8.383,0,15.22,2.851,20.521,8.559
			c5.301,5.708,7.971,13.732,7.971,24.081c0,0.637-0.023,1.571-0.068,2.824H280.04c0.403,6.887,2.344,12.163,5.849,15.827
			c3.494,3.641,7.873,5.485,13.099,5.485c3.893,0,7.224-1.035,9.969-3.087C311.711,234.948,313.882,231.655,315.504,227.139
			L315.504,227.139z M280.646,210.073h34.974c-0.454-5.275-1.809-9.236-4.009-11.876c-3.369-4.091-7.767-6.148-13.162-6.148
			c-4.878,0-8.971,1.635-12.305,4.896C282.843,200.208,281.005,204.586,280.646,210.073L280.646,210.073z"/>
		<path fill="#231F20" d="M363.093,237.982l1.46,9.394c-2.994,0.637-5.663,0.946-8.003,0.946c-3.859,0-6.843-0.597-8.98-1.834
			c-2.113-1.221-3.611-2.812-4.484-4.813c-0.861-1.997-1.286-6.198-1.286-12.596v-36.192h-7.864v-8.229h7.864v-15.536l10.653-6.394
			v21.93h10.652v8.229h-10.652v36.793c0,3.052,0.176,5.009,0.563,5.874c0.369,0.87,0.969,1.555,1.822,2.079
			c0.835,0.507,2.052,0.768,3.629,0.768C359.626,238.399,361.178,238.254,363.093,237.982L363.093,237.982z"/>
		<path fill="#231F20" d="M369.61,216.07c0-11.596,3.23-20.195,9.712-25.778c5.39-4.643,11.976-6.968,19.747-6.968
			c8.614,0,15.669,2.825,21.163,8.477c5.471,5.627,8.209,13.435,8.209,23.378c0,8.07-1.204,14.408-3.624,19.021
			c-2.42,4.628-5.949,8.217-10.592,10.781c-4.628,2.556-9.691,3.834-15.145,3.834c-8.806,0-15.897-2.8-21.331-8.428
			C372.317,234.75,369.61,226.635,369.61,216.07L369.61,216.07z M380.502,216.086c0,8.026,1.752,14.042,5.271,18.016
			c3.53,3.998,7.934,5.992,13.297,5.992c5.277,0,9.681-1.994,13.205-6.021c3.512-4.001,5.271-10.129,5.271-18.336
			c0-7.747-1.784-13.609-5.309-17.589c-3.542-3.993-7.934-5.995-13.18-5.995c-5.352,0-9.762,1.978-13.298,5.956
			C382.267,202.091,380.502,208.078,380.502,216.086L380.502,216.086z"/>
	</g>
</g>
</svg>
