<?xml version="1.0" encoding="utf-8"?>
<!-- Generator: Adobe Illustrator 16.0.0, SVG Export Plug-In . SVG Version: 6.00 Build 0)  -->
<!DOCTYPE svg PUBLIC "-//W3C//DTD SVG 1.1//EN" "http://www.w3.org/Graphics/SVG/1.1/DTD/svg11.dtd">
<svg version="1.1" id="Camada_1" xmlns="http://www.w3.org/2000/svg" xmlns:xlink="http://www.w3.org/1999/xlink" x="0px" y="0px"
	 width="28.334px" height="24px" viewBox="0 0 28.334 24" enable-background="new 0 0 28.334 24" xml:space="preserve">
<path fill="none" d="M0,0h24v24H0V0z"/>
<g>
	<g>
		<g>
			<path fill="#333333" d="M20.021,16.952c-0.381,0-0.637-0.319-0.828-0.575c-0.096-0.127-0.224-0.255-0.286-0.286
				c-0.032,0-0.064-0.032-0.159-0.032c-0.098,0-0.189,0-0.287,0.032c-0.127,0-0.255,0.031-0.352,0.031c-0.096,0-0.414,0-0.604-0.224
				c-0.256-0.254-0.224-0.638-0.19-0.955c0-0.159,0.031-0.352,0-0.446c-0.032-0.063-0.191-0.19-0.287-0.288
				c-0.256-0.191-0.573-0.445-0.573-0.828s0.317-0.637,0.573-0.828c0.127-0.097,0.255-0.224,0.287-0.287
				c0.031-0.096,0-0.287,0-0.447c-0.032-0.318-0.064-0.702,0.19-0.957c0.224-0.223,0.511-0.223,0.604-0.223
				c0.096,0,0.225,0,0.352,0.031c0.098,0,0.189,0.032,0.287,0.032c0.095,0,0.127,0,0.159-0.032c0.063-0.031,0.19-0.191,0.286-0.286
				c0.191-0.256,0.447-0.575,0.828-0.575c0.383,0,0.639,0.319,0.83,0.575c0.096,0.127,0.223,0.255,0.287,0.286
				c0.031,0,0.063,0.032,0.158,0.032c0.098,0,0.191,0,0.288-0.032c0.126,0,0.254-0.031,0.351-0.031c0.096,0,0.414,0,0.605,0.223
				c0.254,0.255,0.223,0.638,0.191,0.957c0,0.16-0.033,0.351,0,0.447c0.031,0.063,0.189,0.19,0.285,0.287
				c0.256,0.191,0.574,0.445,0.574,0.828s-0.318,0.637-0.574,0.828c-0.127,0.098-0.254,0.225-0.285,0.288
				c-0.033,0.096,0,0.287,0,0.446c0.031,0.317,0.063,0.701-0.191,0.955c-0.225,0.224-0.512,0.224-0.605,0.224
				c-0.096,0-0.225,0-0.351-0.031c-0.097,0-0.19-0.032-0.288-0.032c-0.096,0-0.127,0-0.158,0.032
				c-0.064,0.031-0.191,0.191-0.287,0.286C20.659,16.633,20.403,16.952,20.021,16.952z M18.747,15.453
				c0.159,0,0.286,0.031,0.383,0.063c0.223,0.097,0.383,0.287,0.541,0.479c0.096,0.128,0.255,0.318,0.352,0.318
				c0.063,0,0.256-0.223,0.352-0.318c0.159-0.19,0.316-0.382,0.541-0.479c0.191-0.063,0.447-0.063,0.768-0.031
				c0.094,0,0.189,0.031,0.284,0.031c0.128,0,0.16-0.031,0.16-0.031c0.032-0.031,0.032-0.318,0-0.446
				c-0.032-0.254-0.063-0.511,0.032-0.765c0.096-0.225,0.287-0.383,0.479-0.541c0.127-0.098,0.318-0.256,0.318-0.353
				c0-0.063-0.223-0.255-0.318-0.351c-0.19-0.159-0.383-0.318-0.479-0.542c-0.096-0.223-0.064-0.51-0.032-0.765
				c0-0.128,0.032-0.415,0-0.447c0,0-0.032-0.032-0.16-0.032c-0.095,0-0.19,0-0.284,0.032c-0.287,0.032-0.576,0.032-0.768-0.032
				c-0.225-0.095-0.382-0.286-0.541-0.478c-0.096-0.127-0.255-0.319-0.352-0.319c-0.063,0-0.256,0.223-0.352,0.319
				c-0.158,0.191-0.318,0.382-0.541,0.478c-0.191,0.064-0.447,0.064-0.766,0.032c-0.096,0-0.191-0.032-0.286-0.032
				c-0.129,0-0.16,0.032-0.16,0.032c-0.032,0.032-0.032,0.318,0,0.447c0.031,0.255,0.063,0.509-0.032,0.765
				c-0.096,0.224-0.287,0.383-0.478,0.542c-0.128,0.096-0.319,0.255-0.319,0.351c0,0.063,0.225,0.255,0.319,0.353
				c0.19,0.158,0.382,0.316,0.478,0.541c0.096,0.224,0.063,0.511,0.032,0.765c0,0.128-0.032,0.415,0,0.446
				c0,0,0.031,0.031,0.16,0.031c0.095,0,0.19,0,0.286-0.031C18.524,15.453,18.649,15.453,18.747,15.453z"/>
		</g>
		<g>
			<path fill="#333333" d="M19.192,20.234c-0.096,0-0.19-0.031-0.256-0.097l-0.572-0.382l-0.701,0.096
				c-0.159,0.032-0.287-0.031-0.415-0.127c-0.095-0.129-0.159-0.256-0.095-0.414l0.604-2.552c0.032-0.159,0.225-0.286,0.383-0.223
				c0.16,0.032,0.288,0.223,0.225,0.383l-0.542,2.295l0.511-0.063c0.127-0.031,0.225,0,0.316,0.063l0.416,0.287l0.479-2.009
				c0.032-0.159,0.223-0.287,0.382-0.223c0.16,0.031,0.287,0.223,0.224,0.381l-0.508,2.232c-0.035,0.159-0.129,0.254-0.289,0.318
				C19.319,20.234,19.257,20.234,19.192,20.234z"/>
		</g>
		<g>
			<path fill="#333333" d="M20.755,21.128c-0.063,0-0.128,0-0.158-0.032c-0.128-0.063-0.256-0.19-0.287-0.318l-0.732-3.125
				c-0.032-0.158,0.064-0.35,0.223-0.381c0.159-0.032,0.352,0.063,0.383,0.223l0.67,2.869l0.414-0.286
				c0.096-0.064,0.224-0.097,0.319-0.064l0.509,0.064l-0.637-2.742c-0.032-0.159,0.063-0.351,0.225-0.382
				c0.157-0.032,0.35,0.063,0.381,0.223l0.701,2.996c0.031,0.159,0,0.319-0.096,0.415c-0.095,0.095-0.255,0.159-0.414,0.127
				l-0.701-0.096l-0.574,0.415C20.914,21.096,20.817,21.128,20.755,21.128z"/>
		</g>
	</g>
	<g>
		<polygon fill="#333333" points="26.334,17.621 24.74,17.621 24.74,16.984 25.697,16.984 25.697,2.638 2.106,2.638 2.106,16.984 
			16.133,16.984 16.133,17.621 1.468,17.621 1.468,2 26.334,2 		"/>
	</g>
	<g>
		<rect x="5.294" y="6.145" fill="#333333" width="17.215" height="0.637"/>
	</g>
	<g>
		<rect x="5.294" y="8.057" fill="#333333" width="17.215" height="0.637"/>
	</g>
	<g>
		<rect x="5.294" y="9.971" fill="#333333" width="9.563" height="0.637"/>
	</g>
</g>
</svg>
