<?xml version="1.0" encoding="utf-8"?>
<!-- Generator: Adobe Illustrator 16.0.0, SVG Export Plug-In . SVG Version: 6.00 Build 0)  -->
<!DOCTYPE svg PUBLIC "-//W3C//DTD SVG 1.1//EN" "http://www.w3.org/Graphics/SVG/1.1/DTD/svg11.dtd">
<svg version="1.1" id="Camada_1" xmlns="http://www.w3.org/2000/svg" xmlns:xlink="http://www.w3.org/1999/xlink" x="0px" y="0px"
	 width="28.334px" height="24px" viewBox="0 0 28.334 24" enable-background="new 0 0 28.334 24" xml:space="preserve">
<path fill="none" d="M0,0h24v24H0V0z"/>
<g>
	<g>
		<g>
			<path fill="#333333" d="M8.662,10.187c-1.475,0-2.674-1.2-2.674-2.674s1.199-2.674,2.674-2.674s2.674,1.2,2.674,2.674
				C11.336,8.987,10.136,10.187,8.662,10.187z M8.662,5.907c-0.886,0-1.606,0.72-1.606,1.605c0,0.885,0.72,1.605,1.606,1.605
				c0.886,0,1.606-0.72,1.606-1.605C10.268,6.627,9.547,5.907,8.662,5.907z"/>
		</g>
		<path fill="#333333" d="M27.085,17.662h-0.699V2.356c0-0.295-0.238-0.534-0.533-0.534H3.35c-0.294,0-0.533,0.239-0.533,0.534
			v15.306H2.119c-0.295,0-0.534,0.238-0.534,0.535v1.521c0,0.295,0.239,0.535,0.534,0.535h2.657v0.569
			c0,0.296,0.238,0.533,0.534,0.533h6.535c0.295,0,0.534-0.237,0.534-0.533v-0.569h14.706c0.294,0,0.532-0.24,0.532-0.535v-1.521
			C27.617,17.9,27.379,17.662,27.085,17.662z M4.776,19.186H2.652V18.73h2.124V19.186z M4.776,12.01v5.652H3.884V2.89h21.434v14.772
			H12.379v-2.741l2.064,1.821c0.179,0.14,0.333,0.135,0.363,0.135c0.146-0.002,0.282-0.064,0.383-0.17l4.264-4.582
			c0.244-0.26,0.369-0.598,0.354-0.952c-0.013-0.289-0.121-0.561-0.307-0.781l3.13-3.358c0.2-0.215,0.188-0.554-0.026-0.754
			c-0.217-0.201-0.554-0.189-0.754,0.027l-3.127,3.354c-0.223-0.164-0.488-0.252-0.771-0.246c-0.354,0.006-0.696,0.158-0.938,0.415
			l-2.348,2.516c0,0-1.796-1.681-1.816-1.695c-0.304-0.238-0.681-0.369-1.067-0.369H6.505C5.551,10.282,4.776,11.058,4.776,12.01z
			 M18.642,11.037c0.004,0.003,0.008,0.006,0.012,0.01c0.066,0.06,0.084,0.128,0.086,0.174c0.003,0.063-0.021,0.125-0.067,0.175
			l-0.416,0.449l-0.89-0.833l0.424-0.45c0.063-0.067,0.139-0.079,0.178-0.079c0.033,0,0.096,0.006,0.145,0.055
			c0.005,0.003,0.009,0.008,0.012,0.011L18.642,11.037z M12.198,13.336c-0.157-0.139-0.381-0.173-0.573-0.086
			c-0.191,0.085-0.314,0.275-0.314,0.484v6.554H5.844V12.01c0-0.364,0.296-0.661,0.661-0.661h5.276c0.196,0,0.337,0.083,0.42,0.151
			c0,0,0,0,0.001,0l2.124,1.992c0.104,0.097,0.243,0.15,0.385,0.144c0.142-0.005,0.274-0.067,0.372-0.17l1.553-1.675l0.893,0.836
			L14.761,15.6L12.198,13.336z M26.55,19.186H12.379V18.73H26.55V19.186L26.55,19.186z"/>
	</g>
</g>
</svg>
