<?xml version="1.0" encoding="iso-8859-1"?>
<!-- Generator: Adobe Illustrator 16.0.0, SVG Export Plug-In . SVG Version: 6.00 Build 0)  -->
<!DOCTYPE svg PUBLIC "-//W3C//DTD SVG 1.1//EN" "http://www.w3.org/Graphics/SVG/1.1/DTD/svg11.dtd">
<svg version="1.1" id="Camada_1" xmlns="http://www.w3.org/2000/svg" xmlns:xlink="http://www.w3.org/1999/xlink" x="0px" y="0px"
	 width="317px" height="38.5px" viewBox="0 0 317 38.5" style="enable-background:new 0 0 317 38.5;" xml:space="preserve">
<path style="fill:#FFFFFF;" d="M125.178,26.214c0.062,0,0.116,0.025,0.162,0.074l0.455,0.494c-0.287,0.345-0.639,0.612-1.058,0.799
	c-0.417,0.188-0.915,0.282-1.497,0.282c-0.515,0-0.98-0.09-1.396-0.269c-0.416-0.178-0.771-0.426-1.063-0.741
	c-0.294-0.319-0.521-0.698-0.678-1.14c-0.157-0.44-0.237-0.926-0.237-1.453c0-0.526,0.083-1.014,0.252-1.454
	c0.168-0.44,0.404-0.822,0.709-1.14c0.305-0.317,0.671-0.565,1.095-0.742c0.426-0.176,0.895-0.264,1.407-0.264
	c0.509,0,0.958,0.082,1.347,0.248c0.39,0.161,0.728,0.383,1.015,0.655l-0.376,0.533c-0.026,0.036-0.058,0.065-0.093,0.092
	c-0.036,0.026-0.085,0.041-0.146,0.041c-0.065,0-0.14-0.028-0.222-0.092c-0.084-0.061-0.19-0.127-0.319-0.199
	c-0.128-0.072-0.289-0.142-0.484-0.2c-0.193-0.062-0.435-0.093-0.726-0.093c-0.335,0-0.643,0.061-0.924,0.18
	c-0.28,0.115-0.521,0.287-0.724,0.512c-0.202,0.227-0.359,0.5-0.472,0.822c-0.112,0.322-0.168,0.688-0.168,1.101
	c0,0.414,0.058,0.783,0.175,1.108c0.117,0.324,0.279,0.599,0.484,0.82c0.206,0.226,0.447,0.394,0.725,0.512
	c0.277,0.117,0.575,0.177,0.895,0.177c0.196,0,0.37-0.01,0.526-0.033c0.155-0.02,0.298-0.055,0.428-0.102
	c0.131-0.048,0.254-0.107,0.37-0.179c0.115-0.071,0.23-0.159,0.346-0.267C125.047,26.244,125.112,26.214,125.178,26.214z
	 M130.97,22.796v4.988h-0.636c-0.14,0-0.23-0.066-0.27-0.2l-0.078-0.464c-0.104,0.11-0.213,0.211-0.33,0.303
	c-0.116,0.091-0.239,0.17-0.37,0.235c-0.13,0.064-0.269,0.113-0.417,0.15c-0.149,0.035-0.308,0.055-0.478,0.055
	c-0.273,0-0.515-0.049-0.723-0.139c-0.209-0.092-0.384-0.222-0.526-0.388c-0.143-0.165-0.248-0.362-0.32-0.598
	c-0.073-0.233-0.109-0.491-0.109-0.771v-3.175h1.052v3.175c0,0.337,0.078,0.599,0.232,0.782c0.156,0.188,0.391,0.279,0.707,0.279
	c0.231,0,0.448-0.055,0.648-0.16c0.201-0.104,0.389-0.252,0.565-0.438v-3.64h1.053V22.796L130.97,22.796z M133.488,23.72
	c0.157-0.314,0.346-0.563,0.568-0.745c0.221-0.182,0.487-0.271,0.796-0.271c0.108,0,0.209,0.012,0.304,0.036
	c0.094,0.023,0.18,0.062,0.254,0.109l-0.074,0.793c-0.012,0.058-0.033,0.094-0.062,0.114c-0.027,0.021-0.063,0.031-0.109,0.031
	c-0.049,0-0.119-0.008-0.21-0.027c-0.092-0.018-0.188-0.024-0.289-0.024c-0.146,0-0.276,0.021-0.389,0.063
	c-0.113,0.043-0.214,0.104-0.303,0.188c-0.09,0.08-0.169,0.181-0.237,0.298c-0.068,0.118-0.131,0.252-0.191,0.401v3.101h-1.051V22.8
	h0.611c0.112,0,0.188,0.021,0.23,0.062c0.043,0.041,0.072,0.111,0.088,0.214L133.488,23.72z M139.305,23.7
	c-0.026,0.047-0.056,0.077-0.088,0.098c-0.032,0.021-0.073,0.03-0.122,0.03c-0.056,0-0.116-0.018-0.181-0.053
	c-0.066-0.033-0.142-0.071-0.23-0.114c-0.088-0.041-0.191-0.08-0.311-0.114c-0.12-0.033-0.257-0.051-0.417-0.051
	c-0.131,0-0.25,0.014-0.356,0.046c-0.105,0.031-0.195,0.074-0.269,0.133c-0.074,0.056-0.13,0.123-0.169,0.199
	c-0.04,0.077-0.059,0.158-0.059,0.247c0,0.117,0.037,0.216,0.107,0.294c0.072,0.078,0.167,0.146,0.284,0.202
	c0.118,0.058,0.251,0.109,0.401,0.154c0.151,0.045,0.304,0.095,0.46,0.146c0.156,0.054,0.31,0.112,0.46,0.183
	c0.151,0.068,0.285,0.151,0.401,0.252c0.118,0.101,0.212,0.219,0.284,0.361c0.071,0.141,0.107,0.313,0.107,0.516
	c0,0.235-0.042,0.451-0.126,0.65c-0.086,0.199-0.208,0.373-0.372,0.52c-0.163,0.146-0.366,0.263-0.609,0.344
	s-0.521,0.122-0.834,0.122c-0.173,0-0.339-0.017-0.501-0.05c-0.161-0.027-0.315-0.069-0.459-0.125
	c-0.146-0.056-0.281-0.119-0.406-0.191c-0.126-0.075-0.237-0.158-0.335-0.244l0.245-0.4c0.029-0.051,0.066-0.086,0.109-0.115
	c0.043-0.027,0.098-0.041,0.164-0.041c0.067,0,0.136,0.021,0.203,0.064c0.067,0.045,0.146,0.094,0.235,0.145
	c0.09,0.053,0.197,0.101,0.325,0.145c0.127,0.045,0.287,0.066,0.475,0.066c0.157,0,0.291-0.02,0.406-0.057
	c0.113-0.037,0.208-0.09,0.283-0.154c0.075-0.064,0.13-0.139,0.166-0.223c0.036-0.082,0.054-0.172,0.054-0.268
	c0-0.127-0.036-0.229-0.108-0.313c-0.072-0.082-0.167-0.15-0.286-0.211c-0.119-0.06-0.254-0.11-0.406-0.156
	c-0.151-0.045-0.305-0.094-0.462-0.146c-0.156-0.051-0.31-0.111-0.462-0.181c-0.151-0.068-0.287-0.155-0.405-0.263
	c-0.119-0.104-0.215-0.233-0.287-0.387c-0.072-0.15-0.108-0.337-0.108-0.556c0-0.198,0.041-0.39,0.121-0.567
	c0.079-0.179,0.198-0.338,0.352-0.475c0.155-0.139,0.345-0.245,0.572-0.325s0.489-0.12,0.785-0.12c0.336,0,0.641,0.055,0.915,0.161
	c0.273,0.108,0.503,0.256,0.689,0.44L139.305,23.7z M142.999,22.717c0.368,0,0.701,0.061,0.999,0.182
	c0.299,0.121,0.553,0.293,0.764,0.516c0.21,0.221,0.372,0.488,0.487,0.809c0.114,0.313,0.172,0.672,0.172,1.064
	s-0.058,0.751-0.172,1.066c-0.115,0.315-0.277,0.586-0.487,0.81c-0.21,0.224-0.464,0.396-0.764,0.515
	c-0.298,0.122-0.631,0.184-0.999,0.184c-0.373,0-0.708-0.062-1.005-0.184c-0.298-0.117-0.554-0.291-0.766-0.515
	s-0.375-0.492-0.489-0.81c-0.116-0.315-0.172-0.674-0.172-1.066c0-0.396,0.056-0.751,0.172-1.064
	c0.114-0.318,0.277-0.588,0.489-0.809c0.212-0.223,0.467-0.395,0.766-0.516C142.291,22.777,142.625,22.717,142.999,22.717z
	 M142.999,27.036c0.449,0,0.785-0.15,1.004-0.452c0.221-0.301,0.33-0.732,0.33-1.293c0-0.563-0.109-0.995-0.33-1.299
	c-0.22-0.307-0.555-0.459-1.004-0.459c-0.457,0-0.796,0.152-1.019,0.459c-0.222,0.304-0.333,0.736-0.333,1.299
	c0,0.561,0.111,0.992,0.333,1.293C142.203,26.886,142.542,27.036,142.999,27.036z M149.65,23.7
	c-0.026,0.047-0.056,0.077-0.088,0.098c-0.032,0.021-0.073,0.03-0.123,0.03c-0.056,0-0.115-0.018-0.181-0.053
	c-0.066-0.033-0.142-0.071-0.23-0.114c-0.088-0.041-0.19-0.08-0.311-0.114c-0.119-0.033-0.258-0.051-0.417-0.051
	c-0.131,0-0.249,0.014-0.355,0.046c-0.105,0.031-0.195,0.074-0.268,0.133c-0.073,0.056-0.13,0.123-0.169,0.199
	c-0.039,0.077-0.059,0.158-0.059,0.247c0,0.117,0.037,0.216,0.108,0.294c0.071,0.078,0.166,0.146,0.283,0.202
	c0.118,0.058,0.251,0.109,0.402,0.154c0.15,0.045,0.303,0.095,0.459,0.146c0.157,0.054,0.31,0.112,0.46,0.183
	c0.15,0.068,0.284,0.151,0.401,0.252s0.212,0.219,0.283,0.361c0.071,0.141,0.107,0.313,0.107,0.516c0,0.235-0.042,0.451-0.125,0.65
	c-0.086,0.199-0.21,0.373-0.372,0.52c-0.163,0.146-0.366,0.263-0.609,0.344c-0.242,0.081-0.521,0.122-0.834,0.122
	c-0.173,0-0.339-0.017-0.501-0.05c-0.161-0.027-0.314-0.069-0.46-0.125s-0.281-0.119-0.406-0.191
	c-0.126-0.075-0.237-0.158-0.334-0.244l0.245-0.4c0.029-0.051,0.066-0.086,0.109-0.115c0.044-0.027,0.099-0.041,0.164-0.041
	c0.068,0,0.136,0.021,0.204,0.064c0.066,0.045,0.146,0.094,0.234,0.145c0.09,0.053,0.198,0.101,0.326,0.145
	c0.126,0.045,0.285,0.066,0.475,0.066c0.156,0,0.292-0.02,0.406-0.057c0.114-0.037,0.208-0.09,0.284-0.154
	c0.075-0.064,0.131-0.139,0.167-0.223c0.036-0.082,0.052-0.172,0.052-0.268c0-0.127-0.035-0.229-0.107-0.313
	c-0.071-0.082-0.166-0.15-0.285-0.211c-0.12-0.06-0.255-0.11-0.406-0.156c-0.153-0.045-0.306-0.094-0.463-0.146
	c-0.157-0.051-0.311-0.111-0.463-0.181c-0.151-0.068-0.287-0.155-0.406-0.263c-0.119-0.104-0.214-0.233-0.285-0.387
	c-0.072-0.15-0.108-0.337-0.108-0.556c0-0.198,0.041-0.39,0.121-0.567c0.08-0.179,0.197-0.338,0.352-0.475
	c0.154-0.139,0.346-0.245,0.572-0.325c0.228-0.08,0.489-0.12,0.785-0.12c0.338,0,0.642,0.055,0.915,0.161
	c0.273,0.108,0.504,0.256,0.689,0.44L149.65,23.7z M153.745,23.489c0.563-0.525,1.236-0.787,2.015-0.787
	c0.287,0,0.542,0.047,0.766,0.141c0.222,0.093,0.411,0.224,0.562,0.394c0.151,0.171,0.267,0.371,0.347,0.604
	c0.081,0.234,0.12,0.493,0.12,0.775v3.17h-0.47c-0.101,0-0.177-0.017-0.229-0.045c-0.051-0.032-0.095-0.095-0.131-0.189
	l-0.103-0.405c-0.129,0.113-0.253,0.217-0.377,0.308c-0.125,0.09-0.25,0.165-0.384,0.226c-0.133,0.063-0.274,0.11-0.427,0.141
	c-0.151,0.031-0.319,0.049-0.501,0.049c-0.203,0-0.391-0.028-0.564-0.083c-0.175-0.056-0.325-0.14-0.453-0.253
	c-0.127-0.112-0.228-0.251-0.301-0.419c-0.074-0.164-0.11-0.361-0.11-0.587c0-0.191,0.052-0.379,0.154-0.563
	c0.103-0.182,0.272-0.347,0.509-0.49c0.236-0.146,0.548-0.266,0.935-0.359c0.386-0.094,0.863-0.148,1.43-0.16v-0.334
	c0-0.357-0.078-0.624-0.229-0.803c-0.155-0.176-0.379-0.264-0.676-0.264c-0.202,0-0.37,0.024-0.508,0.075
	c-0.138,0.05-0.254,0.104-0.357,0.163c-0.102,0.061-0.191,0.112-0.27,0.164c-0.078,0.05-0.161,0.076-0.25,0.076
	c-0.072,0-0.133-0.021-0.184-0.059c-0.051-0.037-0.091-0.084-0.124-0.14L153.745,23.489z M156.533,25.604
	c-0.375,0.015-0.691,0.043-0.949,0.09c-0.258,0.049-0.465,0.107-0.625,0.183c-0.161,0.074-0.275,0.162-0.345,0.265
	c-0.071,0.101-0.105,0.213-0.105,0.332c0,0.114,0.019,0.217,0.057,0.301c0.036,0.084,0.089,0.15,0.155,0.205
	c0.067,0.054,0.146,0.092,0.235,0.116c0.09,0.024,0.188,0.037,0.295,0.037c0.275,0,0.509-0.052,0.708-0.153
	c0.197-0.104,0.388-0.252,0.574-0.446V25.604z M160.025,23.52c0.207-0.244,0.445-0.439,0.713-0.59
	c0.265-0.152,0.574-0.228,0.925-0.228c0.282,0,0.536,0.057,0.764,0.169c0.229,0.111,0.425,0.275,0.587,0.49
	c0.163,0.217,0.289,0.481,0.379,0.802c0.09,0.319,0.137,0.682,0.137,1.093c0,0.368-0.049,0.712-0.148,1.03
	c-0.098,0.317-0.24,0.592-0.43,0.825c-0.186,0.233-0.409,0.416-0.676,0.549c-0.264,0.132-0.563,0.197-0.896,0.197
	c-0.293,0-0.542-0.047-0.745-0.143c-0.203-0.095-0.389-0.226-0.556-0.393v2.117h-1.052v-6.646h0.637c0.145,0,0.234,0.063,0.273,0.2
	L160.025,23.52z M160.079,26.532c0.147,0.188,0.308,0.321,0.479,0.399c0.176,0.074,0.367,0.112,0.582,0.112
	c0.409,0,0.73-0.147,0.961-0.45c0.229-0.299,0.344-0.746,0.344-1.34c0-0.309-0.024-0.568-0.076-0.784
	c-0.055-0.219-0.128-0.395-0.225-0.53c-0.101-0.138-0.22-0.235-0.358-0.299c-0.142-0.063-0.3-0.094-0.474-0.094
	c-0.269,0-0.5,0.059-0.693,0.176c-0.193,0.114-0.373,0.278-0.54,0.495V26.532z M165.866,20.546v7.238h-1.052v-7.238H165.866z
	 M168.682,21.289c0,0.094-0.019,0.186-0.056,0.27c-0.035,0.086-0.089,0.159-0.153,0.224c-0.063,0.063-0.141,0.112-0.228,0.151
	c-0.086,0.036-0.179,0.058-0.276,0.058c-0.095,0-0.184-0.021-0.265-0.058c-0.084-0.039-0.156-0.089-0.22-0.151
	c-0.063-0.063-0.112-0.138-0.147-0.224c-0.039-0.084-0.058-0.176-0.058-0.27c0-0.098,0.019-0.189,0.058-0.273
	c0.035-0.084,0.087-0.16,0.147-0.224c0.063-0.063,0.136-0.112,0.22-0.151c0.081-0.037,0.17-0.057,0.265-0.057
	c0.098,0,0.19,0.02,0.276,0.057c0.087,0.039,0.163,0.09,0.228,0.151c0.065,0.062,0.118,0.14,0.153,0.224
	C168.663,21.1,168.682,21.191,168.682,21.289z M168.507,22.796v4.988h-1.052v-4.988H168.507z M173.604,23.771
	c-0.033,0.043-0.063,0.078-0.094,0.1c-0.029,0.021-0.07,0.036-0.127,0.036c-0.056,0-0.111-0.021-0.174-0.063
	c-0.059-0.038-0.131-0.081-0.214-0.13c-0.084-0.046-0.185-0.091-0.302-0.13c-0.116-0.038-0.264-0.06-0.44-0.06
	c-0.229,0-0.426,0.041-0.599,0.123c-0.172,0.082-0.315,0.199-0.432,0.351c-0.115,0.151-0.205,0.336-0.262,0.553
	c-0.057,0.22-0.085,0.462-0.085,0.731c0,0.279,0.033,0.529,0.095,0.748c0.063,0.22,0.15,0.402,0.268,0.552s0.254,0.269,0.423,0.344
	c0.162,0.078,0.347,0.117,0.553,0.117c0.201,0,0.367-0.022,0.494-0.071c0.127-0.052,0.231-0.104,0.317-0.162
	c0.086-0.06,0.158-0.112,0.219-0.16c0.061-0.051,0.124-0.073,0.193-0.073c0.084,0,0.149,0.032,0.193,0.098l0.301,0.386
	c-0.121,0.147-0.256,0.271-0.402,0.373s-0.303,0.185-0.465,0.248c-0.164,0.063-0.332,0.107-0.508,0.135
	c-0.179,0.028-0.355,0.043-0.533,0.043c-0.313,0-0.602-0.059-0.869-0.174c-0.271-0.115-0.504-0.283-0.704-0.504
	c-0.202-0.222-0.357-0.49-0.476-0.809c-0.115-0.316-0.173-0.68-0.173-1.088c0-0.368,0.052-0.711,0.156-1.024
	c0.104-0.315,0.257-0.586,0.457-0.813c0.201-0.229,0.446-0.407,0.745-0.537c0.297-0.127,0.64-0.192,1.025-0.192
	c0.362,0,0.685,0.059,0.957,0.178c0.274,0.117,0.521,0.283,0.735,0.498L173.604,23.771z M174.895,23.489
	c0.565-0.525,1.236-0.787,2.02-0.787c0.286,0,0.54,0.047,0.766,0.141c0.225,0.093,0.408,0.224,0.563,0.394
	c0.15,0.171,0.266,0.371,0.349,0.604c0.077,0.234,0.119,0.493,0.119,0.775v3.17h-0.472c-0.1,0-0.178-0.017-0.229-0.045
	c-0.053-0.032-0.098-0.095-0.131-0.189l-0.106-0.405c-0.125,0.113-0.25,0.217-0.373,0.308c-0.125,0.09-0.254,0.165-0.385,0.226
	c-0.133,0.063-0.272,0.11-0.426,0.141c-0.152,0.031-0.318,0.049-0.501,0.049c-0.2,0-0.392-0.028-0.567-0.083
	c-0.172-0.056-0.324-0.14-0.451-0.253c-0.125-0.112-0.226-0.251-0.301-0.419c-0.072-0.164-0.108-0.361-0.108-0.587
	c0-0.191,0.05-0.379,0.153-0.563c0.103-0.182,0.271-0.347,0.508-0.49c0.236-0.146,0.551-0.266,0.935-0.359
	c0.39-0.094,0.866-0.148,1.435-0.16v-0.334c0-0.357-0.076-0.624-0.229-0.803c-0.151-0.176-0.378-0.264-0.676-0.264
	c-0.201,0-0.369,0.024-0.509,0.075c-0.137,0.05-0.256,0.104-0.357,0.163c-0.1,0.061-0.189,0.112-0.268,0.164
	c-0.08,0.05-0.162,0.076-0.25,0.076c-0.072,0-0.133-0.021-0.187-0.059c-0.05-0.037-0.091-0.084-0.124-0.14L174.895,23.489z
	 M177.686,25.604c-0.377,0.015-0.69,0.043-0.949,0.09c-0.26,0.049-0.469,0.107-0.629,0.183c-0.155,0.074-0.272,0.162-0.344,0.265
	c-0.068,0.101-0.104,0.213-0.104,0.332c0,0.114,0.02,0.217,0.056,0.301c0.037,0.084,0.091,0.15,0.156,0.205
	c0.067,0.054,0.146,0.092,0.233,0.116c0.09,0.024,0.188,0.037,0.295,0.037c0.275,0,0.515-0.052,0.709-0.153
	c0.197-0.104,0.389-0.252,0.574-0.446v-0.927h0.002V25.604z M184.415,20.546v7.238h-0.638c-0.139,0-0.229-0.066-0.27-0.2
	l-0.094-0.542c-0.21,0.244-0.443,0.44-0.712,0.592c-0.267,0.149-0.574,0.226-0.929,0.226c-0.278,0-0.535-0.057-0.762-0.17
	c-0.229-0.11-0.425-0.274-0.589-0.489c-0.161-0.218-0.289-0.482-0.378-0.802c-0.09-0.316-0.135-0.683-0.135-1.094
	c0-0.371,0.05-0.715,0.148-1.031c0.101-0.315,0.24-0.592,0.428-0.823c0.186-0.232,0.414-0.416,0.678-0.55
	c0.268-0.131,0.563-0.196,0.895-0.196c0.293,0,0.541,0.047,0.748,0.141c0.205,0.093,0.389,0.224,0.553,0.39v-2.687L184.415,20.546
	L184.415,20.546z M183.361,24.021c-0.146-0.188-0.307-0.32-0.483-0.396c-0.174-0.074-0.366-0.109-0.573-0.109
	c-0.41,0-0.729,0.148-0.962,0.451c-0.229,0.303-0.347,0.748-0.347,1.338c0,0.307,0.023,0.568,0.079,0.785
	c0.052,0.219,0.124,0.395,0.222,0.529c0.1,0.138,0.219,0.234,0.357,0.299c0.142,0.063,0.302,0.093,0.476,0.093
	c0.267,0,0.499-0.058,0.692-0.173s0.375-0.277,0.539-0.49V24.021L183.361,24.021z M188.098,22.717c0.369,0,0.701,0.061,1,0.182
	c0.301,0.121,0.553,0.293,0.767,0.516c0.21,0.221,0.37,0.488,0.483,0.809c0.113,0.313,0.172,0.672,0.172,1.064
	s-0.059,0.751-0.172,1.066s-0.273,0.586-0.483,0.81c-0.214,0.224-0.466,0.396-0.767,0.515c-0.299,0.122-0.631,0.184-1,0.184
	c-0.373,0-0.705-0.062-1.007-0.184c-0.297-0.117-0.552-0.291-0.764-0.515s-0.374-0.492-0.488-0.81
	c-0.116-0.315-0.173-0.674-0.173-1.066c0-0.396,0.057-0.751,0.173-1.064c0.114-0.318,0.276-0.588,0.488-0.809
	c0.212-0.223,0.467-0.395,0.764-0.516C187.393,22.777,187.725,22.717,188.098,22.717z M188.098,27.036
	c0.45,0,0.784-0.15,1.006-0.452c0.221-0.301,0.33-0.732,0.33-1.293c0-0.563-0.109-0.995-0.33-1.299
	c-0.222-0.307-0.556-0.459-1.006-0.459c-0.457,0-0.795,0.152-1.019,0.459c-0.224,0.304-0.333,0.736-0.333,1.299
	c0,0.561,0.109,0.992,0.333,1.293C187.303,26.886,187.641,27.036,188.098,27.036z M194.751,23.7
	c-0.026,0.047-0.056,0.077-0.089,0.098c-0.031,0.021-0.073,0.03-0.123,0.03c-0.057,0-0.114-0.018-0.182-0.053
	c-0.063-0.033-0.143-0.071-0.229-0.114c-0.088-0.041-0.188-0.08-0.31-0.114c-0.118-0.033-0.258-0.051-0.42-0.051
	c-0.127,0-0.25,0.014-0.354,0.046c-0.104,0.031-0.194,0.074-0.269,0.133c-0.074,0.056-0.131,0.123-0.168,0.199
	c-0.041,0.077-0.062,0.158-0.062,0.247c0,0.117,0.035,0.216,0.106,0.294c0.07,0.078,0.166,0.146,0.283,0.202
	c0.117,0.058,0.25,0.109,0.402,0.154c0.148,0.045,0.301,0.095,0.459,0.146c0.157,0.054,0.311,0.112,0.459,0.183
	c0.151,0.068,0.284,0.151,0.401,0.252c0.118,0.101,0.209,0.219,0.284,0.361c0.072,0.141,0.104,0.313,0.104,0.516
	c0,0.235-0.039,0.451-0.124,0.65s-0.21,0.373-0.372,0.52s-0.363,0.263-0.609,0.344c-0.242,0.081-0.521,0.122-0.834,0.122
	c-0.174,0-0.34-0.017-0.502-0.05c-0.16-0.027-0.315-0.069-0.459-0.125c-0.146-0.056-0.281-0.119-0.404-0.191
	c-0.127-0.075-0.239-0.158-0.336-0.244l0.244-0.4c0.028-0.051,0.064-0.086,0.108-0.115c0.048-0.027,0.099-0.041,0.166-0.041
	c0.065,0,0.134,0.021,0.201,0.064c0.067,0.045,0.146,0.094,0.233,0.145c0.09,0.053,0.197,0.101,0.324,0.145
	c0.127,0.045,0.287,0.066,0.478,0.066c0.155,0,0.291-0.02,0.403-0.057c0.115-0.037,0.211-0.09,0.285-0.154s0.131-0.139,0.166-0.223
	c0.034-0.082,0.055-0.172,0.055-0.268c0-0.127-0.037-0.229-0.107-0.313c-0.072-0.082-0.168-0.15-0.287-0.211
	c-0.117-0.06-0.253-0.11-0.402-0.156c-0.152-0.045-0.308-0.094-0.465-0.146c-0.154-0.051-0.313-0.111-0.461-0.181
	c-0.15-0.068-0.289-0.155-0.406-0.263c-0.117-0.104-0.215-0.233-0.285-0.387c-0.072-0.15-0.109-0.337-0.109-0.556
	c0-0.198,0.041-0.39,0.122-0.567c0.079-0.179,0.194-0.338,0.353-0.475c0.152-0.139,0.346-0.245,0.572-0.325s0.488-0.12,0.785-0.12
	c0.335,0,0.641,0.055,0.914,0.161c0.271,0.108,0.503,0.256,0.688,0.44L194.751,23.7z M198.844,23.489
	c0.563-0.525,1.236-0.787,2.016-0.787c0.289,0,0.543,0.047,0.768,0.141c0.225,0.093,0.409,0.224,0.563,0.394
	c0.15,0.171,0.269,0.371,0.348,0.604c0.079,0.234,0.12,0.493,0.12,0.775v3.17h-0.472c-0.102,0-0.178-0.017-0.229-0.045
	c-0.057-0.032-0.1-0.095-0.134-0.189l-0.103-0.405c-0.128,0.113-0.257,0.217-0.379,0.308c-0.123,0.09-0.251,0.165-0.382,0.226
	c-0.134,0.063-0.274,0.11-0.429,0.141c-0.149,0.031-0.315,0.049-0.5,0.049c-0.202,0-0.389-0.028-0.563-0.083
	c-0.174-0.056-0.325-0.14-0.452-0.253c-0.13-0.112-0.229-0.251-0.302-0.419c-0.073-0.164-0.11-0.361-0.11-0.587
	c0-0.191,0.051-0.379,0.154-0.563c0.102-0.182,0.271-0.347,0.51-0.49c0.235-0.146,0.547-0.266,0.934-0.359
	c0.389-0.094,0.863-0.148,1.432-0.16v-0.334c0-0.357-0.074-0.624-0.229-0.803c-0.153-0.176-0.381-0.264-0.676-0.264
	c-0.203,0-0.371,0.024-0.512,0.075c-0.135,0.05-0.254,0.104-0.354,0.163c-0.104,0.061-0.191,0.112-0.27,0.164
	c-0.078,0.05-0.16,0.076-0.252,0.076c-0.068,0-0.131-0.021-0.183-0.059s-0.095-0.084-0.124-0.14L198.844,23.489z M200.287,20.663
	c0.121,0,0.21,0.021,0.27,0.058c0.061,0.039,0.108,0.103,0.154,0.182l0.715,1.186h-0.596c-0.084,0-0.148-0.012-0.198-0.033
	c-0.052-0.021-0.103-0.063-0.155-0.121l-1.178-1.269L200.287,20.663L200.287,20.663z M201.632,25.604
	c-0.374,0.015-0.69,0.043-0.95,0.09c-0.257,0.049-0.465,0.107-0.625,0.183s-0.272,0.162-0.345,0.265
	c-0.067,0.101-0.104,0.213-0.104,0.332c0,0.114,0.021,0.217,0.059,0.301s0.087,0.15,0.152,0.205
	c0.068,0.054,0.147,0.092,0.236,0.116c0.092,0.024,0.189,0.037,0.295,0.037c0.274,0,0.51-0.052,0.709-0.153
	c0.197-0.104,0.387-0.252,0.573-0.446V25.604L201.632,25.604z M207.568,25.374c0.016,0.283,0.059,0.528,0.134,0.735
	c0.073,0.207,0.177,0.38,0.301,0.517c0.127,0.136,0.276,0.238,0.449,0.306c0.177,0.066,0.368,0.103,0.586,0.103
	c0.205,0,0.382-0.024,0.53-0.072c0.152-0.046,0.283-0.101,0.396-0.155c0.11-0.058,0.204-0.109,0.281-0.156
	c0.078-0.047,0.149-0.069,0.216-0.069c0.085,0,0.148,0.032,0.195,0.099l0.299,0.385c-0.124,0.147-0.264,0.271-0.422,0.373
	c-0.155,0.102-0.321,0.185-0.498,0.248c-0.176,0.063-0.357,0.107-0.543,0.135c-0.188,0.029-0.365,0.044-0.542,0.044
	c-0.345,0-0.667-0.06-0.962-0.175c-0.295-0.114-0.553-0.287-0.771-0.512c-0.216-0.226-0.384-0.505-0.507-0.836
	c-0.122-0.334-0.186-0.716-0.186-1.148c0-0.348,0.057-0.67,0.164-0.969c0.107-0.302,0.265-0.563,0.471-0.783
	c0.205-0.224,0.449-0.396,0.744-0.526c0.289-0.127,0.621-0.192,0.986-0.192c0.31,0,0.592,0.053,0.854,0.149
	c0.26,0.101,0.483,0.246,0.673,0.438c0.189,0.191,0.337,0.428,0.445,0.707c0.104,0.278,0.156,0.598,0.156,0.95
	c0,0.163-0.02,0.273-0.055,0.329c-0.035,0.057-0.102,0.083-0.193,0.083h-3.205v-0.006H207.568z M210.078,24.729
	c0-0.179-0.023-0.34-0.076-0.492c-0.048-0.151-0.123-0.282-0.223-0.396c-0.096-0.11-0.219-0.198-0.363-0.264
	c-0.145-0.063-0.313-0.097-0.501-0.097c-0.382,0-0.685,0.108-0.899,0.328c-0.221,0.219-0.355,0.524-0.416,0.92H210.078z
	 M213.23,23.456c0.104-0.111,0.22-0.211,0.334-0.301c0.112-0.091,0.237-0.167,0.367-0.233c0.131-0.064,0.271-0.113,0.418-0.15
	c0.146-0.035,0.308-0.055,0.479-0.055c0.271,0,0.513,0.047,0.721,0.137c0.205,0.095,0.383,0.224,0.521,0.389
	c0.146,0.167,0.252,0.365,0.322,0.599c0.071,0.234,0.106,0.49,0.106,0.771v3.175h-1.045v-3.177c0-0.336-0.079-0.598-0.233-0.78
	c-0.156-0.188-0.39-0.279-0.707-0.279c-0.231,0-0.451,0.056-0.652,0.161c-0.2,0.107-0.387,0.255-0.565,0.439v3.635h-1.052v-4.988
	h0.638c0.144,0,0.233,0.064,0.274,0.2L213.23,23.456z M222.279,22.977v0.392c0,0.131-0.079,0.212-0.236,0.241l-0.497,0.08
	c0.083,0.19,0.127,0.401,0.127,0.634c0,0.243-0.05,0.467-0.146,0.666c-0.096,0.196-0.229,0.368-0.398,0.508
	c-0.169,0.142-0.372,0.249-0.605,0.323c-0.234,0.074-0.487,0.111-0.764,0.111c-0.104,0-0.205-0.006-0.308-0.018
	c-0.099-0.012-0.195-0.025-0.289-0.047c-0.093,0.056-0.166,0.113-0.212,0.177c-0.043,0.062-0.066,0.125-0.066,0.188
	c0,0.106,0.047,0.188,0.143,0.24c0.095,0.053,0.221,0.09,0.373,0.11c0.154,0.022,0.332,0.039,0.529,0.045
	c0.202,0.008,0.401,0.021,0.609,0.035c0.205,0.017,0.406,0.043,0.605,0.08c0.194,0.037,0.375,0.1,0.528,0.188
	c0.156,0.086,0.28,0.2,0.374,0.349c0.096,0.146,0.143,0.338,0.143,0.571c0,0.217-0.056,0.428-0.16,0.633
	c-0.109,0.205-0.264,0.388-0.467,0.549c-0.203,0.16-0.453,0.287-0.748,0.383c-0.293,0.096-0.627,0.145-1.002,0.145
	c-0.371,0-0.695-0.035-0.971-0.105c-0.275-0.071-0.507-0.169-0.691-0.292c-0.184-0.122-0.318-0.265-0.408-0.423
	c-0.09-0.16-0.135-0.326-0.135-0.499c0-0.234,0.074-0.437,0.223-0.603s0.35-0.296,0.604-0.393c-0.138-0.063-0.248-0.154-0.33-0.27
	c-0.084-0.112-0.125-0.264-0.125-0.449c0-0.146,0.056-0.301,0.16-0.461c0.109-0.159,0.271-0.295,0.483-0.403
	c-0.245-0.14-0.44-0.32-0.586-0.546c-0.142-0.229-0.216-0.493-0.216-0.797c0-0.247,0.048-0.471,0.146-0.67
	c0.099-0.196,0.229-0.368,0.403-0.508c0.174-0.142,0.378-0.248,0.615-0.324c0.232-0.073,0.494-0.11,0.772-0.11
	c0.431,0,0.808,0.09,1.126,0.269H222.279z M221.223,28.03c0-0.111-0.031-0.2-0.096-0.27c-0.063-0.065-0.146-0.118-0.258-0.155
	c-0.105-0.037-0.232-0.063-0.376-0.084c-0.144-0.019-0.298-0.03-0.457-0.039c-0.162-0.008-0.324-0.018-0.492-0.022
	c-0.171-0.008-0.333-0.022-0.487-0.047c-0.158,0.08-0.285,0.18-0.386,0.294c-0.101,0.113-0.149,0.246-0.149,0.396
	c0,0.097,0.027,0.188,0.078,0.271c0.049,0.084,0.125,0.157,0.233,0.22c0.106,0.063,0.241,0.111,0.405,0.146
	c0.166,0.036,0.363,0.057,0.594,0.057c0.466,0,0.811-0.071,1.043-0.217C221.107,28.439,221.223,28.254,221.223,28.03z
	 M219.76,25.245c0.324,0,0.569-0.083,0.733-0.248c0.164-0.166,0.243-0.384,0.243-0.651c0-0.271-0.079-0.488-0.243-0.65
	c-0.164-0.157-0.409-0.237-0.733-0.237c-0.322,0-0.566,0.08-0.73,0.237c-0.163,0.162-0.246,0.38-0.246,0.65
	c0,0.131,0.021,0.252,0.063,0.363c0.041,0.109,0.104,0.206,0.188,0.285c0.08,0.08,0.181,0.141,0.304,0.188
	C219.458,25.227,219.6,25.245,219.76,25.245z M224.035,25.374c0.015,0.283,0.058,0.528,0.131,0.735
	c0.077,0.207,0.177,0.38,0.301,0.517c0.127,0.136,0.276,0.238,0.451,0.306c0.175,0.066,0.37,0.103,0.584,0.103
	c0.205,0,0.382-0.024,0.533-0.072c0.15-0.046,0.281-0.101,0.391-0.155c0.112-0.058,0.206-0.109,0.285-0.156
	c0.077-0.047,0.15-0.069,0.217-0.069c0.084,0,0.148,0.032,0.194,0.099l0.297,0.385c-0.124,0.147-0.265,0.271-0.419,0.373
	c-0.156,0.102-0.324,0.185-0.501,0.248c-0.175,0.063-0.354,0.107-0.542,0.135c-0.186,0.029-0.366,0.044-0.543,0.044
	c-0.348,0-0.664-0.06-0.962-0.175c-0.295-0.114-0.55-0.287-0.767-0.512c-0.22-0.226-0.39-0.505-0.513-0.836
	c-0.118-0.334-0.181-0.716-0.181-1.148c0-0.348,0.054-0.67,0.16-0.969c0.111-0.302,0.268-0.563,0.474-0.783
	c0.203-0.224,0.451-0.396,0.741-0.526c0.293-0.127,0.619-0.192,0.99-0.192c0.309,0,0.59,0.053,0.851,0.149
	c0.263,0.101,0.487,0.246,0.678,0.438c0.188,0.191,0.339,0.428,0.442,0.707c0.104,0.278,0.156,0.598,0.156,0.95
	c0,0.163-0.018,0.273-0.055,0.329c-0.035,0.057-0.1,0.083-0.193,0.083h-3.202L224.035,25.374L224.035,25.374z M226.545,24.729
	c0-0.179-0.027-0.34-0.077-0.492c-0.05-0.151-0.125-0.282-0.223-0.396c-0.099-0.11-0.218-0.198-0.363-0.264
	c-0.146-0.063-0.313-0.097-0.503-0.097c-0.378,0-0.679,0.108-0.898,0.328c-0.219,0.219-0.354,0.524-0.416,0.92H226.545z
	 M229.693,23.456c0.106-0.111,0.221-0.211,0.334-0.301c0.117-0.091,0.242-0.167,0.371-0.233c0.133-0.064,0.27-0.113,0.416-0.15
	c0.146-0.035,0.307-0.055,0.479-0.055c0.273,0,0.516,0.047,0.723,0.137c0.207,0.095,0.381,0.224,0.521,0.389
	c0.145,0.167,0.249,0.365,0.318,0.599c0.074,0.234,0.107,0.49,0.107,0.771v3.175h-1.047v-3.177c0-0.336-0.075-0.598-0.23-0.78
	c-0.154-0.188-0.391-0.279-0.707-0.279c-0.234,0-0.451,0.056-0.651,0.161c-0.2,0.107-0.39,0.255-0.563,0.439v3.635h-1.055v-4.988
	h0.639c0.143,0,0.232,0.064,0.271,0.2L229.693,23.456z M235.494,23.389c0.208-0.203,0.433-0.365,0.678-0.488
	c0.243-0.12,0.529-0.184,0.855-0.184c0.272,0,0.514,0.047,0.721,0.137c0.208,0.095,0.381,0.224,0.523,0.389
	c0.142,0.167,0.248,0.365,0.32,0.599c0.07,0.234,0.105,0.49,0.105,0.771v3.175h-1.049v-3.177c0-0.336-0.078-0.598-0.23-0.78
	c-0.154-0.188-0.393-0.279-0.706-0.279c-0.233,0-0.453,0.056-0.651,0.161c-0.201,0.107-0.392,0.255-0.566,0.439v3.635h-1.051v-7.238
	h1.051V23.389z M240.055,23.489c0.563-0.525,1.236-0.787,2.016-0.787c0.287,0,0.546,0.047,0.768,0.141
	c0.225,0.093,0.411,0.224,0.563,0.394c0.15,0.171,0.269,0.371,0.35,0.604c0.079,0.234,0.118,0.493,0.118,0.775v3.17H243.4
	c-0.104,0-0.178-0.017-0.232-0.045c-0.05-0.032-0.094-0.095-0.131-0.189l-0.102-0.405c-0.129,0.113-0.254,0.217-0.379,0.308
	c-0.125,0.09-0.25,0.165-0.386,0.226c-0.131,0.063-0.271,0.11-0.424,0.141c-0.153,0.031-0.319,0.049-0.502,0.049
	c-0.202,0-0.392-0.028-0.563-0.083c-0.178-0.056-0.326-0.14-0.455-0.253c-0.127-0.112-0.228-0.251-0.3-0.419
	c-0.075-0.164-0.112-0.361-0.112-0.587c0-0.191,0.056-0.379,0.156-0.563c0.103-0.182,0.271-0.347,0.51-0.49
	c0.235-0.146,0.545-0.266,0.936-0.359c0.385-0.094,0.861-0.148,1.43-0.16v-0.334c0-0.357-0.076-0.624-0.229-0.803
	c-0.156-0.176-0.383-0.264-0.678-0.264c-0.201,0-0.371,0.024-0.508,0.075c-0.138,0.05-0.257,0.104-0.356,0.163
	c-0.103,0.061-0.191,0.112-0.271,0.164c-0.078,0.05-0.16,0.076-0.25,0.076c-0.07,0-0.134-0.021-0.184-0.059
	c-0.053-0.037-0.092-0.084-0.122-0.14L240.055,23.489z M242.843,25.604c-0.374,0.015-0.692,0.043-0.95,0.09
	c-0.256,0.049-0.465,0.107-0.625,0.183s-0.272,0.162-0.345,0.265c-0.069,0.101-0.104,0.213-0.104,0.332
	c0,0.114,0.021,0.217,0.058,0.301s0.09,0.15,0.156,0.205c0.065,0.054,0.146,0.092,0.233,0.116c0.092,0.024,0.188,0.037,0.297,0.037
	c0.271,0,0.506-0.052,0.705-0.153c0.198-0.104,0.391-0.252,0.574-0.446L242.843,25.604L242.843,25.604z M246.33,23.72
	c0.158-0.314,0.346-0.563,0.566-0.745c0.224-0.182,0.485-0.271,0.799-0.271c0.104,0,0.207,0.012,0.304,0.036
	c0.093,0.023,0.181,0.062,0.253,0.109l-0.072,0.793c-0.013,0.058-0.033,0.094-0.063,0.114c-0.027,0.021-0.064,0.031-0.11,0.031
	c-0.048,0-0.118-0.008-0.208-0.027c-0.091-0.018-0.188-0.024-0.29-0.024c-0.146,0-0.274,0.021-0.387,0.063
	c-0.112,0.043-0.214,0.104-0.306,0.188c-0.09,0.08-0.168,0.181-0.236,0.298c-0.068,0.118-0.131,0.252-0.191,0.401v3.101h-1.051V22.8
	h0.61c0.112,0,0.187,0.021,0.229,0.062c0.041,0.041,0.069,0.111,0.088,0.214L246.33,23.72z M250.465,21.289
	c0,0.094-0.02,0.186-0.057,0.27c-0.039,0.086-0.092,0.159-0.155,0.224c-0.063,0.063-0.142,0.112-0.228,0.151
	c-0.086,0.036-0.178,0.058-0.275,0.058c-0.096,0-0.186-0.021-0.266-0.058c-0.084-0.039-0.156-0.089-0.221-0.151
	c-0.063-0.063-0.111-0.138-0.147-0.224c-0.039-0.084-0.058-0.176-0.058-0.27c0-0.098,0.019-0.189,0.058-0.273
	c0.036-0.084,0.087-0.16,0.147-0.224c0.063-0.063,0.137-0.112,0.221-0.151c0.08-0.037,0.17-0.057,0.266-0.057
	c0.098,0,0.189,0.02,0.275,0.057c0.086,0.039,0.162,0.09,0.228,0.151s0.116,0.14,0.155,0.224
	C250.445,21.1,250.465,21.191,250.465,21.289z M250.288,22.796v4.988h-1.054v-4.988H250.288z M251.736,23.489
	c0.563-0.525,1.234-0.787,2.015-0.787c0.287,0,0.54,0.047,0.765,0.141c0.227,0.093,0.411,0.224,0.565,0.394
	c0.149,0.171,0.267,0.371,0.345,0.604c0.081,0.234,0.12,0.493,0.12,0.775v3.17h-0.47c-0.1,0-0.178-0.017-0.229-0.045
	c-0.056-0.032-0.1-0.095-0.135-0.189l-0.104-0.405c-0.125,0.113-0.254,0.217-0.375,0.308c-0.125,0.09-0.252,0.165-0.383,0.226
	c-0.135,0.063-0.273,0.11-0.43,0.141c-0.148,0.031-0.316,0.049-0.5,0.049c-0.204,0-0.395-0.028-0.564-0.083
	c-0.172-0.056-0.323-0.14-0.453-0.253c-0.127-0.112-0.228-0.251-0.301-0.419c-0.072-0.164-0.107-0.361-0.107-0.587
	c0-0.191,0.05-0.379,0.152-0.563c0.104-0.182,0.271-0.347,0.509-0.49c0.235-0.146,0.55-0.266,0.935-0.359
	c0.389-0.094,0.862-0.148,1.432-0.16v-0.334c0-0.357-0.073-0.624-0.229-0.803c-0.149-0.176-0.378-0.264-0.673-0.264
	c-0.203,0-0.372,0.024-0.512,0.075c-0.135,0.05-0.256,0.104-0.356,0.163c-0.101,0.061-0.188,0.112-0.269,0.164
	c-0.08,0.05-0.159,0.076-0.25,0.076c-0.069,0-0.131-0.021-0.184-0.059c-0.052-0.037-0.094-0.084-0.127-0.14L251.736,23.489z
	 M254.523,25.604c-0.373,0.015-0.691,0.043-0.949,0.09c-0.258,0.049-0.465,0.107-0.625,0.183s-0.276,0.162-0.346,0.265
	c-0.072,0.101-0.105,0.213-0.105,0.332c0,0.114,0.02,0.217,0.057,0.301s0.09,0.15,0.155,0.205c0.067,0.054,0.147,0.092,0.237,0.116
	c0.089,0.024,0.189,0.037,0.295,0.037c0.273,0,0.509-0.052,0.703-0.153c0.203-0.104,0.392-0.252,0.578-0.446V25.604L254.523,25.604z
	 M260.461,25.374c0.014,0.283,0.059,0.528,0.135,0.735c0.073,0.207,0.174,0.38,0.299,0.517c0.129,0.136,0.277,0.238,0.453,0.306
	c0.172,0.066,0.366,0.103,0.582,0.103c0.204,0,0.383-0.024,0.532-0.072c0.151-0.046,0.282-0.101,0.394-0.155
	c0.11-0.057,0.205-0.109,0.281-0.156c0.077-0.047,0.15-0.069,0.215-0.069c0.086,0,0.151,0.032,0.197,0.099l0.297,0.385
	c-0.123,0.147-0.264,0.271-0.42,0.373c-0.158,0.102-0.322,0.185-0.498,0.248c-0.177,0.063-0.359,0.107-0.545,0.135
	c-0.185,0.029-0.365,0.044-0.542,0.044c-0.345,0-0.667-0.06-0.96-0.175c-0.297-0.114-0.553-0.287-0.77-0.512
	c-0.215-0.226-0.387-0.505-0.506-0.836c-0.125-0.334-0.187-0.716-0.187-1.148c0-0.348,0.056-0.67,0.164-0.969
	c0.106-0.302,0.265-0.563,0.472-0.783c0.201-0.224,0.448-0.396,0.741-0.526c0.291-0.127,0.621-0.192,0.989-0.192
	c0.309,0,0.59,0.053,0.854,0.149c0.262,0.101,0.484,0.246,0.674,0.438c0.188,0.191,0.338,0.428,0.441,0.707
	c0.105,0.278,0.16,0.598,0.16,0.95c0,0.163-0.02,0.273-0.055,0.329c-0.036,0.057-0.104,0.083-0.194,0.083h-3.205L260.461,25.374
	L260.461,25.374z M262.971,24.729c0-0.179-0.022-0.34-0.076-0.492c-0.049-0.151-0.123-0.282-0.223-0.396
	c-0.096-0.11-0.216-0.198-0.365-0.264c-0.144-0.063-0.31-0.097-0.5-0.097c-0.381,0-0.681,0.108-0.896,0.328
	c-0.223,0.219-0.359,0.524-0.418,0.92H262.971z M267.695,23.489c0.563-0.525,1.236-0.787,2.015-0.787
	c0.287,0,0.543,0.047,0.767,0.141c0.227,0.093,0.41,0.224,0.563,0.394c0.151,0.171,0.269,0.371,0.347,0.604
	c0.081,0.234,0.118,0.493,0.118,0.775v3.17h-0.467c-0.101,0-0.179-0.017-0.229-0.045c-0.054-0.032-0.097-0.095-0.132-0.189
	l-0.104-0.405c-0.13,0.113-0.253,0.217-0.375,0.308c-0.125,0.09-0.255,0.165-0.388,0.226c-0.129,0.063-0.271,0.11-0.424,0.141
	c-0.154,0.031-0.32,0.049-0.501,0.049c-0.202,0-0.391-0.028-0.565-0.083c-0.174-0.056-0.324-0.14-0.451-0.253
	c-0.126-0.112-0.227-0.251-0.303-0.419c-0.073-0.164-0.108-0.361-0.108-0.587c0-0.191,0.052-0.379,0.153-0.563
	c0.104-0.182,0.272-0.347,0.51-0.49c0.234-0.146,0.548-0.266,0.936-0.359c0.387-0.094,0.861-0.148,1.43-0.16v-0.334
	c0-0.357-0.074-0.624-0.229-0.803c-0.153-0.176-0.378-0.264-0.676-0.264c-0.201,0-0.371,0.024-0.511,0.075
	c-0.135,0.05-0.256,0.104-0.355,0.163c-0.102,0.061-0.188,0.112-0.27,0.164c-0.075,0.05-0.16,0.076-0.248,0.076
	c-0.072,0-0.137-0.021-0.184-0.059c-0.053-0.037-0.094-0.084-0.127-0.14L267.695,23.489z M270.482,25.604
	c-0.373,0.015-0.691,0.043-0.946,0.09c-0.259,0.049-0.468,0.107-0.628,0.183s-0.271,0.162-0.346,0.265
	c-0.067,0.101-0.104,0.213-0.104,0.332c0,0.114,0.021,0.217,0.058,0.301c0.035,0.084,0.09,0.15,0.156,0.205
	c0.066,0.054,0.145,0.092,0.23,0.116c0.094,0.024,0.188,0.037,0.299,0.037c0.271,0,0.51-0.052,0.707-0.153
	c0.197-0.104,0.386-0.252,0.572-0.446v-0.929H270.482z M273.975,23.72c0.154-0.314,0.342-0.563,0.565-0.745
	c0.222-0.182,0.485-0.271,0.798-0.271c0.105,0,0.208,0.012,0.303,0.036c0.092,0.023,0.18,0.062,0.252,0.109l-0.068,0.793
	c-0.018,0.058-0.035,0.094-0.063,0.114s-0.064,0.031-0.111,0.031s-0.119-0.008-0.207-0.027c-0.092-0.018-0.188-0.024-0.291-0.024
	c-0.146,0-0.274,0.021-0.387,0.063c-0.115,0.043-0.215,0.104-0.308,0.188c-0.087,0.08-0.168,0.181-0.235,0.298
	c-0.068,0.118-0.132,0.252-0.19,0.401v3.101h-1.052V22.8h0.611c0.112,0,0.188,0.021,0.23,0.062c0.04,0.041,0.07,0.111,0.086,0.214
	L273.975,23.72z M280.908,22.796v6.647h-1.053v-2.338c-0.205,0.225-0.437,0.403-0.69,0.543c-0.258,0.141-0.556,0.209-0.894,0.209
	c-0.28,0-0.537-0.057-0.765-0.168c-0.229-0.112-0.426-0.276-0.588-0.491c-0.164-0.216-0.288-0.482-0.38-0.802
	c-0.089-0.316-0.135-0.683-0.135-1.092c0-0.373,0.052-0.717,0.147-1.033c0.101-0.315,0.245-0.592,0.429-0.823
	c0.188-0.232,0.412-0.416,0.681-0.548c0.266-0.133,0.563-0.198,0.895-0.198c0.156,0,0.304,0.015,0.437,0.043
	c0.133,0.026,0.254,0.065,0.367,0.121c0.115,0.055,0.217,0.118,0.311,0.194c0.094,0.078,0.186,0.164,0.27,0.264l0.064-0.328
	c0.04-0.135,0.127-0.2,0.27-0.2H280.908z M279.855,24.021c-0.146-0.187-0.309-0.315-0.482-0.394
	c-0.178-0.076-0.368-0.114-0.574-0.114c-0.408,0-0.73,0.149-0.964,0.452c-0.229,0.302-0.345,0.748-0.345,1.339
	c0,0.307,0.025,0.567,0.074,0.784c0.055,0.218,0.131,0.394,0.228,0.529c0.099,0.138,0.218,0.235,0.356,0.299
	c0.142,0.063,0.3,0.093,0.477,0.093c0.266,0,0.496-0.058,0.691-0.173c0.191-0.117,0.373-0.278,0.539-0.492V24.021L279.855,24.021z
	 M286.643,22.796v4.988h-0.639c-0.139,0-0.229-0.066-0.268-0.2l-0.079-0.464c-0.103,0.11-0.214,0.211-0.328,0.303
	c-0.119,0.091-0.239,0.17-0.37,0.235c-0.131,0.064-0.271,0.113-0.42,0.15c-0.148,0.035-0.309,0.055-0.477,0.055
	c-0.273,0-0.519-0.049-0.726-0.139c-0.208-0.092-0.385-0.222-0.524-0.388c-0.143-0.165-0.248-0.362-0.322-0.598
	c-0.07-0.233-0.104-0.491-0.104-0.771v-3.175h1.054v3.175c0,0.337,0.076,0.599,0.229,0.782s0.393,0.279,0.706,0.279
	c0.231,0,0.449-0.055,0.649-0.16c0.201-0.104,0.39-0.252,0.564-0.438v-3.64h1.053v0.004H286.643z M289.439,21.289
	c0,0.094-0.021,0.186-0.06,0.27c-0.034,0.086-0.087,0.159-0.149,0.224c-0.066,0.063-0.146,0.112-0.23,0.151
	c-0.086,0.036-0.177,0.058-0.275,0.058c-0.095,0-0.182-0.021-0.265-0.058c-0.086-0.039-0.158-0.089-0.222-0.151
	c-0.062-0.063-0.109-0.138-0.148-0.224c-0.035-0.084-0.057-0.176-0.057-0.27c0-0.098,0.021-0.189,0.057-0.273
	c0.039-0.084,0.09-0.16,0.148-0.224c0.063-0.063,0.136-0.112,0.222-0.151c0.083-0.037,0.17-0.057,0.265-0.057
	c0.101,0,0.189,0.02,0.275,0.057c0.087,0.039,0.164,0.09,0.23,0.151c0.063,0.063,0.115,0.14,0.149,0.224
	C289.419,21.1,289.439,21.191,289.439,21.289z M289.262,22.796v4.988h-1.052v-4.988H289.262z M292.432,27.863
	c-0.412,0-0.731-0.117-0.955-0.353c-0.225-0.23-0.334-0.561-0.334-0.983v-2.905h-0.55c-0.058,0-0.106-0.019-0.151-0.058
	c-0.041-0.037-0.063-0.095-0.063-0.168V22.97l0.813-0.116l0.229-1.442c0.016-0.056,0.041-0.103,0.083-0.136
	c0.037-0.033,0.091-0.051,0.155-0.051h0.537v1.64h1.385v0.758h-1.385v2.832c0,0.18,0.045,0.317,0.132,0.412
	c0.092,0.094,0.206,0.141,0.354,0.141c0.082,0,0.149-0.01,0.209-0.03c0.062-0.021,0.107-0.045,0.152-0.068
	c0.042-0.024,0.077-0.049,0.107-0.067c0.033-0.021,0.062-0.032,0.093-0.032c0.058,0,0.104,0.032,0.142,0.099l0.313,0.516
	c-0.163,0.144-0.355,0.252-0.576,0.329C292.895,27.824,292.669,27.863,292.432,27.863z M295.382,25.374
	c0.015,0.283,0.058,0.528,0.132,0.735c0.076,0.207,0.176,0.38,0.301,0.517c0.127,0.136,0.277,0.238,0.451,0.306
	c0.174,0.066,0.369,0.103,0.584,0.103c0.202,0,0.381-0.024,0.532-0.072c0.15-0.046,0.283-0.101,0.394-0.155
	c0.109-0.058,0.205-0.109,0.282-0.156c0.079-0.047,0.149-0.069,0.216-0.069c0.085,0,0.147,0.032,0.195,0.099l0.297,0.385
	c-0.122,0.147-0.262,0.271-0.419,0.373c-0.156,0.102-0.322,0.185-0.499,0.248s-0.355,0.107-0.543,0.135
	c-0.187,0.029-0.367,0.044-0.543,0.044c-0.348,0-0.668-0.06-0.963-0.175c-0.293-0.114-0.55-0.287-0.767-0.512
	c-0.218-0.226-0.386-0.505-0.509-0.836c-0.123-0.334-0.185-0.716-0.185-1.148c0-0.348,0.058-0.67,0.162-0.969
	c0.108-0.302,0.267-0.563,0.474-0.783c0.199-0.224,0.449-0.396,0.739-0.526c0.293-0.127,0.624-0.192,0.993-0.192
	c0.307,0,0.588,0.053,0.852,0.149c0.26,0.101,0.484,0.246,0.676,0.438c0.187,0.191,0.336,0.428,0.44,0.707
	c0.105,0.278,0.16,0.598,0.16,0.95c0,0.163-0.02,0.273-0.055,0.329c-0.037,0.057-0.104,0.083-0.197,0.083h-3.202L295.382,25.374
	L295.382,25.374z M297.893,24.729c0-0.179-0.024-0.34-0.078-0.492c-0.049-0.151-0.123-0.282-0.223-0.396
	c-0.098-0.11-0.218-0.198-0.363-0.264c-0.146-0.063-0.313-0.097-0.502-0.097c-0.381,0-0.68,0.108-0.898,0.328
	c-0.219,0.219-0.355,0.524-0.415,0.92H297.893z M301.614,27.863c-0.413,0-0.733-0.117-0.958-0.353
	c-0.227-0.23-0.334-0.561-0.334-0.983v-2.905h-0.549c-0.061,0-0.108-0.019-0.151-0.058c-0.042-0.037-0.064-0.095-0.064-0.168V22.97
	l0.812-0.116l0.229-1.442c0.019-0.056,0.044-0.103,0.084-0.136c0.039-0.033,0.095-0.051,0.155-0.051h0.538v1.64h1.386v0.758h-1.386
	v2.832c0,0.18,0.046,0.317,0.133,0.412c0.09,0.094,0.206,0.141,0.354,0.141c0.083,0,0.151-0.01,0.212-0.03
	c0.058-0.021,0.105-0.045,0.149-0.068c0.042-0.024,0.079-0.049,0.11-0.067c0.029-0.021,0.06-0.032,0.089-0.032
	c0.063,0,0.106,0.032,0.142,0.099l0.315,0.516c-0.164,0.144-0.356,0.252-0.579,0.329C302.077,27.824,301.847,27.863,301.614,27.863z
	 M308.042,22.796v4.988h-0.636c-0.144,0-0.23-0.066-0.271-0.2l-0.076-0.464c-0.104,0.11-0.217,0.211-0.333,0.303
	c-0.112,0.091-0.234,0.17-0.365,0.235c-0.133,0.064-0.271,0.113-0.42,0.15c-0.147,0.035-0.31,0.055-0.479,0.055
	c-0.271,0-0.514-0.049-0.724-0.139c-0.207-0.092-0.382-0.222-0.525-0.388c-0.141-0.165-0.249-0.362-0.32-0.598
	c-0.07-0.233-0.105-0.491-0.105-0.771v-3.175h1.051v3.175c0,0.337,0.079,0.599,0.233,0.782c0.153,0.188,0.391,0.279,0.708,0.279
	c0.229,0,0.444-0.055,0.646-0.16c0.199-0.104,0.393-0.252,0.563-0.438v-3.64h1.056L308.042,22.796L308.042,22.796z M310.56,23.72
	c0.158-0.314,0.349-0.563,0.567-0.745c0.223-0.182,0.488-0.271,0.798-0.271c0.107,0,0.208,0.012,0.303,0.036
	c0.096,0.023,0.181,0.062,0.256,0.109l-0.073,0.793c-0.012,0.058-0.033,0.094-0.062,0.114c-0.025,0.021-0.063,0.031-0.108,0.031
	c-0.05,0-0.118-0.008-0.212-0.027c-0.089-0.018-0.188-0.024-0.287-0.024c-0.147,0-0.276,0.021-0.392,0.063
	c-0.11,0.043-0.212,0.104-0.304,0.188c-0.09,0.08-0.168,0.181-0.237,0.298c-0.066,0.118-0.133,0.252-0.188,0.401v3.101h-1.052V22.8
	h0.609c0.112,0,0.188,0.021,0.23,0.062c0.043,0.041,0.068,0.111,0.089,0.214L310.56,23.72z M313.225,23.489
	c0.565-0.525,1.238-0.787,2.018-0.787c0.289,0,0.544,0.047,0.769,0.141c0.225,0.093,0.409,0.224,0.561,0.394
	c0.15,0.171,0.271,0.371,0.35,0.604c0.079,0.234,0.118,0.493,0.118,0.775v3.17h-0.468c-0.104,0-0.181-0.017-0.23-0.045
	c-0.052-0.032-0.096-0.095-0.133-0.189l-0.102-0.405c-0.131,0.113-0.256,0.217-0.377,0.308c-0.125,0.09-0.253,0.165-0.386,0.226
	c-0.133,0.063-0.272,0.11-0.426,0.141c-0.151,0.031-0.319,0.049-0.501,0.049c-0.203,0-0.39-0.028-0.566-0.083
	c-0.173-0.056-0.322-0.14-0.449-0.253c-0.127-0.112-0.229-0.251-0.306-0.419c-0.07-0.164-0.105-0.361-0.105-0.587
	c0-0.191,0.052-0.379,0.151-0.563c0.104-0.182,0.272-0.347,0.511-0.49c0.235-0.146,0.547-0.266,0.936-0.359
	c0.386-0.094,0.862-0.148,1.429-0.16v-0.334c0-0.357-0.072-0.624-0.229-0.803c-0.153-0.176-0.378-0.264-0.675-0.264
	c-0.201,0-0.372,0.024-0.509,0.075c-0.14,0.05-0.258,0.104-0.357,0.163c-0.1,0.061-0.189,0.112-0.27,0.164
	c-0.077,0.05-0.163,0.076-0.248,0.076c-0.072,0-0.137-0.021-0.187-0.059s-0.092-0.084-0.123-0.14L313.225,23.489z M316.013,25.604
	c-0.374,0.015-0.689,0.043-0.945,0.09c-0.259,0.049-0.469,0.107-0.627,0.183c-0.16,0.074-0.274,0.162-0.347,0.265
	c-0.066,0.101-0.104,0.213-0.104,0.332c0,0.114,0.017,0.217,0.057,0.301c0.037,0.084,0.089,0.15,0.155,0.205
	c0.064,0.054,0.146,0.092,0.233,0.116c0.093,0.024,0.188,0.037,0.299,0.037c0.272,0,0.509-0.052,0.706-0.153
	c0.195-0.104,0.389-0.252,0.571-0.446L316.013,25.604L316.013,25.604z M106.748,8.504h0.754V36.85h-0.754V8.504z M54.642,34.436
	c-2.169-0.599-4.106-1.269-6.068-2.008c-0.323-0.137-0.668-0.207-1.016-0.229c-3.6-0.185-6.807-2.839-6.807-7.892
	c0-4.8,2.976-8.167,7.429-8.167c4.501,0,7.176,3.461,7.176,7.842c0,3.738-1.73,6.257-4.014,7.179v0.091
	c1.339,0.371,2.836,0.691,4.108,0.923L54.642,34.436z M48.065,29.914c2.724,0,4.292-2.537,4.292-5.792c0-2.955-1.454-5.7-4.27-5.7
	c-2.839,0-4.338,2.701-4.338,5.816c0,3.113,1.593,5.676,4.292,5.676H48.065L48.065,29.914z M58.683,19.092
	c-0.945,0-1.568-0.694-1.568-1.521c0-0.877,0.645-1.548,1.593-1.548c0.968,0,1.568,0.669,1.592,1.548
	c0,0.828-0.623,1.521-1.592,1.521H58.683z M57.274,20.707h2.837v11.236h-2.837V20.707z M62.84,28.852
	c0.899,0.529,2.304,0.992,3.761,0.992c1.799,0,2.814-0.854,2.814-2.123c0-1.176-0.784-1.869-2.744-2.584
	c-2.586-0.9-4.224-2.283-4.224-4.5c0-2.562,2.122-4.477,5.515-4.477c1.685,0,2.908,0.369,3.715,0.761l-0.668,2.307
	c-0.577-0.299-1.661-0.737-3.115-0.737c-1.8,0-2.561,0.947-2.561,1.868c0,1.203,0.899,1.756,2.977,2.539
	c2.698,1.039,3.991,2.399,3.991,4.611c0,2.518-1.891,4.661-5.884,4.661c-1.661,0-3.37-0.461-4.223-0.969L62.84,28.852z
	 M83.189,29.244c0,1.015,0.046,2.006,0.185,2.699h-2.561l-0.208-1.248h-0.071c-0.667,0.879-1.844,1.5-3.321,1.5
	c-2.261,0-3.531-1.637-3.531-3.344c0-2.815,2.515-4.271,6.667-4.246V24.42c0-0.738-0.3-1.962-2.283-1.962
	c-1.106,0-2.261,0.347-3.022,0.829l-0.555-1.846c0.831-0.51,2.284-0.992,4.063-0.992c3.599,0,4.637,2.283,4.637,4.753V29.244z
	 M80.42,26.454c-2.007-0.022-3.923,0.391-3.923,2.098c0,1.109,0.715,1.617,1.615,1.617c1.154,0,1.961-0.739,2.237-1.547
	c0.07-0.207,0.07-0.415,0.07-0.625L80.42,26.454L80.42,26.454z M88.89,17.822v2.884h2.7v2.122h-2.7v4.939
	c0,1.383,0.37,2.074,1.454,2.074c0.507,0,0.785-0.021,1.108-0.113l0.046,2.146c-0.417,0.161-1.178,0.299-2.054,0.299
	c-1.062,0-1.916-0.346-2.445-0.923c-0.623-0.646-0.901-1.684-0.901-3.16v-5.262h-1.591v-2.122h1.591v-2.099L88.89,17.822z
	 M0.722,22.438h7.774l-1.554-2.306H9.25l1.556,2.306h2.646l-2.292-3.4h3.299l0.66,0.979l1.504-2.238L10.206,8.34l0,0L0.722,22.438z
	 M16.915,27.157l3.005-4.474l-3.007-4.478l-1.503,2.237l1.506,2.236l-1.508,2.231L16.915,27.157l3.005-4.474 M10.077,37.501
	c-0.091,0-0.169-0.05-0.211-0.125L0.069,22.814l-0.007-0.014c-0.006-0.011-0.011-0.021-0.015-0.033
	c-0.009-0.017-0.013-0.035-0.016-0.055L0.029,22.7l-0.001-0.017v-0.011l0.001-0.016l0.002-0.017
	c0.003-0.017,0.007-0.037,0.016-0.057c0.004-0.009,0.009-0.02,0.015-0.029l0.007-0.013L9.867,7.983
	c0.042-0.073,0.121-0.126,0.211-0.126c0,0,13.046,0.003,13.093,0.003c0.072,0,0.156,0.042,0.211,0.124
	c0.055,0.083,9.804,14.575,9.804,14.575s0.005,0.002,0.015,0.029c0.028,0.051,0.028,0.141,0,0.182
	c-0.015,0.032-0.015,0.032-0.015,0.032s-9.752,14.515-9.802,14.576c-0.05,0.062-0.095,0.124-0.212,0.124
	C23.055,37.502,10.077,37.501,10.077,37.501 M13.451,22.921h-2.644L9.25,25.23H6.942l1.556-2.311H0.722l9.484,14.102l0,0l6.42-9.436
	l-1.508-2.244l-0.658,0.975h-3.3L13.451,22.921z"/>
</svg>
