<?xml version="1.0" encoding="iso-8859-1"?>
<!-- Generator: Adobe Illustrator 16.0.0, SVG Export Plug-In . SVG Version: 6.00 Build 0)  -->
<!DOCTYPE svg PUBLIC "-//W3C//DTD SVG 1.1//EN" "http://www.w3.org/Graphics/SVG/1.1/DTD/svg11.dtd">
<svg version="1.1" id="Layer_1" xmlns="http://www.w3.org/2000/svg" xmlns:xlink="http://www.w3.org/1999/xlink" x="0px" y="0px"
	 width="116px" height="22px" viewBox="0 0 116 22" style="enable-background:new 0 0 116 22;" xml:space="preserve">
<g id="Canvas">
	<g id="AltoQi_Lab">
		<path style="fill:#363F44;" d="M11.202,13.488L13.074,19h2.418L9.512,1.476h-2.73L0.828,19h2.34l1.82-5.512H11.202z M5.456,11.72
			l1.716-5.07C7.51,5.584,7.796,4.518,8.056,3.478h0.052c0.26,1.014,0.52,2.054,0.91,3.198l1.716,5.044H5.456z M17.919,19h2.288
			V0.54h-2.288V19z M24.584,3.4v3.016h-1.95v1.742h1.95v6.863c0,1.482,0.234,2.601,0.884,3.276c0.546,0.624,1.404,0.962,2.47,0.962
			c0.884,0,1.586-0.13,2.028-0.312l-0.104-1.716c-0.286,0.078-0.728,0.156-1.326,0.156c-1.274,0-1.716-0.885-1.716-2.445V8.158
			h3.276V6.416H26.82V2.802L24.584,3.4z M37.849,6.13c-3.484,0-6.24,2.47-6.24,6.683c0,3.978,2.626,6.474,6.032,6.474
			c3.042,0,6.266-2.028,6.266-6.683C43.907,8.756,41.463,6.13,37.849,6.13z M37.797,7.846c2.704,0,3.77,2.704,3.77,4.835
			c0,2.834-1.638,4.889-3.822,4.889c-2.236,0-3.822-2.08-3.822-4.836C33.923,10.342,35.093,7.846,37.797,7.846z M61.973,19.676
			c-1.482-0.26-3.38-0.676-5.122-1.117v-0.104c2.912-1.015,4.992-3.899,4.992-8.398c0-5.174-3.095-8.866-7.852-8.866
			c-4.732,0-8.164,3.614-8.164,9.23c0,5.643,3.562,8.71,7.722,8.866c0.338,0,0.702,0.13,1.066,0.26
			c2.028,0.702,4.342,1.404,6.708,2.028L61.973,19.676z M53.809,17.439c-3.536,0-5.59-3.354-5.564-7.071
			c-0.026-3.796,1.846-7.332,5.668-7.332c3.718,0,5.539,3.614,5.539,7.124C59.451,14.164,57.422,17.439,53.809,17.439z M67.002,19
			V6.416h-2.287V19H67.002z M65.858,1.45c-0.832,0-1.431,0.624-1.431,1.43c0,0.78,0.572,1.404,1.379,1.404
			c0.91,0,1.482-0.624,1.455-1.404C67.262,2.074,66.717,1.45,65.858,1.45z M75.882,19h10.946v-3.328h-6.969V1.476h-3.978V19z
			 M99.923,19c-0.13-0.702-0.183-1.872-0.183-3.094v-4.42C99.74,8.496,98.389,6,94.15,6c-2.313,0-4.056,0.624-4.939,1.118
			l0.729,2.548c0.832-0.52,2.209-0.962,3.51-0.962c1.949,0,2.313,0.962,2.313,1.638v0.182c-4.497-0.026-7.462,1.56-7.462,4.862
			c0,2.028,1.534,3.9,4.107,3.9c1.509,0,2.809-0.546,3.641-1.56h0.078L96.361,19H99.923z M95.893,14.372
			c0,0.233-0.025,0.468-0.078,0.676c-0.26,0.806-1.065,1.456-2.054,1.456c-0.884,0-1.56-0.494-1.56-1.508
			c0-1.534,1.611-2.028,3.691-2.002V14.372z M106.119,19l0.156-1.768h0.052c0.909,1.508,2.34,2.054,3.821,2.054
			c2.912,0,5.824-2.288,5.824-6.864c0.026-3.9-2.209-6.422-5.252-6.422c-1.768,0-3.094,0.702-3.848,1.794h-0.053V0.54h-3.951v14.664
			c0,1.43-0.053,2.964-0.104,3.796H106.119z M106.82,11.72c0-0.26,0.027-0.494,0.078-0.728c0.261-1.144,1.248-1.95,2.314-1.95
			c1.846,0,2.73,1.56,2.73,3.536c0,2.288-1.041,3.588-2.73,3.588c-1.145,0-2.054-0.807-2.314-1.872
			c-0.051-0.208-0.078-0.442-0.078-0.702V11.72z"/>
	</g>
</g>
</svg>
