<?xml version="1.0" encoding="iso-8859-1"?>
<!-- Generator: Adobe Illustrator 16.0.0, SVG Export Plug-In . SVG Version: 6.00 Build 0)  -->
<!DOCTYPE svg PUBLIC "-//W3C//DTD SVG 1.1//EN" "http://www.w3.org/Graphics/SVG/1.1/DTD/svg11.dtd">
<svg version="1.1" id="Camada_1" xmlns="http://www.w3.org/2000/svg" xmlns:xlink="http://www.w3.org/1999/xlink" x="0px" y="0px"
	 width="117px" height="38.5px" viewBox="0 0 117 38.5" style="enable-background:new 0 0 117 38.5;" xml:space="preserve">
<path id="Logo_Branca_1_" style="fill:none;" d="M69.713,34.146c-2.764-0.763-5.232-1.615-7.732-2.559
	c-0.412-0.175-0.852-0.264-1.295-0.294c-4.587-0.233-8.674-3.616-8.674-10.056c0-6.117,3.792-10.409,9.467-10.409
	c5.736,0,9.146,4.41,9.146,9.996c0,4.764-2.205,7.973-5.115,9.147v0.114c1.707,0.474,3.615,0.883,5.236,1.177L69.713,34.146z
	 M61.332,28.386c3.471,0,5.469-3.233,5.469-7.382c0-3.766-1.852-7.265-5.441-7.265c-3.617,0-5.527,3.442-5.527,7.413
	c0,3.968,2.03,7.232,5.47,7.232L61.332,28.386L61.332,28.386z M74.863,14.594c-1.205,0-1.998-0.884-1.998-1.938
	c0-1.117,0.82-1.971,2.029-1.971c1.231,0,1.998,0.851,2.028,1.971c0,1.056-0.793,1.938-2.028,1.938H74.863z M73.066,16.652h3.617
	v14.319h-3.617V16.652z M80.16,27.031c1.146,0.675,2.938,1.265,4.793,1.265c2.293,0,3.588-1.088,3.588-2.706
	c0-1.498-1.002-2.382-3.498-3.293c-3.295-1.146-5.383-2.909-5.383-5.734c0-3.265,2.703-5.705,7.029-5.705
	c2.146,0,3.705,0.471,4.733,0.97l-0.853,2.94c-0.735-0.381-2.116-0.939-3.971-0.939c-2.295,0-3.264,1.206-3.264,2.381
	c0,1.533,1.145,2.237,3.793,3.235c3.438,1.325,5.086,3.06,5.086,5.878c0,3.207-2.41,5.94-7.496,5.94
	c-2.119,0-4.297-0.589-5.383-1.234L80.16,27.031z M106.094,27.531c0,1.293,0.059,2.557,0.236,3.439h-3.264L102.8,29.38h-0.09
	c-0.853,1.12-2.353,1.912-4.233,1.912c-2.879,0-4.498-2.086-4.498-4.262c0-3.589,3.203-5.441,8.496-5.411v-0.235
	c0-0.942-0.384-2.5-2.91-2.5c-1.408,0-2.881,0.44-3.851,1.058l-0.709-2.353c1.06-0.649,2.91-1.266,5.179-1.266
	c4.586,0,5.909,2.911,5.909,6.058L106.094,27.531L106.094,27.531z M102.564,23.977c-2.558-0.028-4.998,0.498-4.998,2.674
	c0,1.414,0.91,2.061,2.057,2.061c1.471,0,2.5-0.941,2.852-1.971c0.09-0.266,0.09-0.529,0.09-0.797V23.977L102.564,23.977z
	 M113.359,12.976v3.675h3.438v2.705h-3.438v6.294c0,1.763,0.471,2.646,1.854,2.646c0.645,0,0.998-0.028,1.412-0.146l0.057,2.733
	c-0.529,0.206-1.5,0.382-2.617,0.382c-1.354,0-2.44-0.44-3.114-1.177c-0.793-0.823-1.148-2.146-1.148-4.026v-6.706h-2.026V16.65
	h2.026v-2.674L113.359,12.976z M0.997,18.858h9.907l-1.98-2.938h2.941l1.982,2.938h3.372l-2.92-4.335h4.205l0.841,1.246l1.917-2.852
	L13.083,0.892l0,0L0.997,18.858z M21.634,24.872l3.829-5.701l-3.833-5.705l-1.916,2.853l1.92,2.849l-1.922,2.846L21.634,24.872
	l3.829-5.701 M12.919,38.055c-0.117,0-0.216-0.063-0.27-0.16L0.166,19.338l-0.009-0.017c-0.007-0.014-0.014-0.027-0.02-0.042
	c-0.011-0.021-0.016-0.045-0.02-0.07l-0.003-0.017l-0.001-0.021v-0.013l0.001-0.02l0.003-0.021c0.003-0.02,0.009-0.046,0.02-0.07
	c0.005-0.012,0.012-0.025,0.02-0.038l0.009-0.016L12.652,0.437c0.053-0.093,0.153-0.16,0.269-0.16c0,0,16.626,0.004,16.686,0.004
	c0.092,0,0.199,0.054,0.269,0.158C29.945,0.544,42.37,19.012,42.37,19.012s0.007,0.002,0.02,0.038c0.036,0.065,0.036,0.18,0,0.231
	c-0.02,0.041-0.02,0.041-0.02,0.041S29.941,37.818,29.878,37.898c-0.063,0.078-0.121,0.158-0.27,0.158S12.919,38.055,12.919,38.055
	 M17.22,19.474h-3.37l-1.985,2.943H8.924l1.982-2.943h-9.91l12.086,17.971l0,0l8.182-12.024l-1.922-2.86l-0.839,1.242h-4.205
	L17.22,19.474z"/>
</svg>
