<?xml version="1.0" encoding="iso-8859-1"?>
<!-- Generator: Adobe Illustrator 16.0.0, SVG Export Plug-In . SVG Version: 6.00 Build 0)  -->
<!DOCTYPE svg PUBLIC "-//W3C//DTD SVG 1.1//EN" "http://www.w3.org/Graphics/SVG/1.1/DTD/svg11.dtd">
<svg version="1.1" id="Layer_1" xmlns="http://www.w3.org/2000/svg" xmlns:xlink="http://www.w3.org/1999/xlink" x="0px" y="0px"
	 width="24px" height="24px" viewBox="0 0 24 24" style="enable-background:new 0 0 24 24;" xml:space="preserve">
<path style="fill:none;" d="M7,18c-1.1,0-1.99,0.9-1.99,2S5.9,22,7,22s2-0.9,2-2S8.1,18,7,18z M1,2v2h2l3.6,7.59l-1.35,2.45
	C5.09,14.32,5,14.65,5,15c0,1.1,0.9,2,2,2h12v-2H7.42c-0.14,0-0.25-0.109-0.25-0.25l0.03-0.12L8.1,13h7.45
	c0.75,0,1.41-0.41,1.75-1.03l3.58-6.49C20.96,5.34,21,5.17,21,5c0-0.55-0.45-1-1-1H5.21L4.27,2H1z M17,18c-1.1,0-1.99,0.9-1.99,2
	S15.9,22,17,22s2-0.9,2-2S18.1,18,17,18z M0,0h24v24H0V0z"/>
</svg>
