<?xml version="1.0" encoding="iso-8859-1"?>
<!-- Generator: Adobe Illustrator 16.0.0, SVG Export Plug-In . SVG Version: 6.00 Build 0)  -->
<!DOCTYPE svg PUBLIC "-//W3C//DTD SVG 1.1//EN" "http://www.w3.org/Graphics/SVG/1.1/DTD/svg11.dtd">
<svg version="1.1" id="Camada_1" xmlns="http://www.w3.org/2000/svg" xmlns:xlink="http://www.w3.org/1999/xlink" x="0px" y="0px"
	 width="28.334px" height="24px" viewBox="0 0 28.334 24" style="enable-background:new 0 0 28.334 24;" xml:space="preserve">
<path style="fill:none;" d="M0,0h24v24H0V0z M20.021,16.952c-0.381,0-0.637-0.319-0.828-0.575c-0.096-0.127-0.223-0.255-0.285-0.286
	c-0.032,0-0.064-0.032-0.159-0.032c-0.099,0-0.188,0-0.287,0.032c-0.127,0-0.255,0.031-0.353,0.031c-0.096,0-0.414,0-0.604-0.224
	c-0.256-0.254-0.225-0.639-0.189-0.955c0-0.159,0.031-0.353,0-0.446c-0.032-0.063-0.191-0.19-0.287-0.288
	c-0.256-0.191-0.573-0.445-0.573-0.828s0.317-0.637,0.573-0.828c0.127-0.097,0.255-0.224,0.287-0.287c0.031-0.096,0-0.287,0-0.447
	c-0.032-0.318-0.064-0.702,0.189-0.957c0.225-0.223,0.512-0.223,0.604-0.223c0.097,0,0.226,0,0.353,0.031
	c0.099,0,0.188,0.032,0.287,0.032c0.095,0,0.127,0,0.159-0.032c0.063-0.031,0.189-0.191,0.285-0.286
	c0.191-0.256,0.447-0.575,0.828-0.575c0.383,0,0.64,0.319,0.83,0.575c0.096,0.127,0.224,0.255,0.287,0.286
	c0.031,0,0.063,0.032,0.158,0.032c0.098,0,0.191,0,0.288-0.032c0.126,0,0.254-0.031,0.351-0.031c0.096,0,0.414,0,0.605,0.223
	c0.254,0.255,0.223,0.638,0.191,0.957c0,0.16-0.033,0.351,0,0.447c0.031,0.063,0.188,0.19,0.285,0.287
	c0.256,0.191,0.573,0.445,0.573,0.828s-0.317,0.637-0.573,0.828c-0.127,0.098-0.254,0.225-0.285,0.288c-0.033,0.096,0,0.287,0,0.446
	c0.031,0.316,0.063,0.701-0.191,0.955c-0.225,0.224-0.512,0.224-0.605,0.224c-0.096,0-0.225,0-0.351-0.031
	c-0.097,0-0.19-0.032-0.288-0.032c-0.096,0-0.127,0-0.158,0.032c-0.063,0.031-0.191,0.191-0.287,0.286
	C20.659,16.633,20.403,16.952,20.021,16.952z M18.747,15.453c0.158,0,0.286,0.031,0.383,0.063c0.223,0.098,0.383,0.287,0.541,0.479
	c0.096,0.128,0.255,0.317,0.352,0.317c0.063,0,0.256-0.223,0.353-0.317c0.159-0.19,0.315-0.382,0.541-0.479
	c0.19-0.063,0.446-0.063,0.769-0.031c0.094,0,0.188,0.031,0.283,0.031c0.129,0,0.16-0.031,0.16-0.031
	c0.032-0.03,0.032-0.317,0-0.445c-0.031-0.254-0.063-0.512,0.032-0.766c0.096-0.225,0.286-0.383,0.479-0.541
	c0.127-0.098,0.317-0.256,0.317-0.353c0-0.063-0.224-0.255-0.317-0.351c-0.19-0.159-0.384-0.318-0.479-0.542
	c-0.097-0.223-0.063-0.51-0.032-0.765c0-0.128,0.032-0.415,0-0.447c0,0-0.031-0.032-0.16-0.032c-0.095,0-0.189,0-0.283,0.032
	c-0.287,0.032-0.576,0.032-0.769-0.032c-0.226-0.095-0.382-0.286-0.541-0.478c-0.097-0.127-0.255-0.319-0.353-0.319
	c-0.063,0-0.256,0.223-0.352,0.319c-0.158,0.191-0.318,0.382-0.541,0.478c-0.191,0.064-0.447,0.064-0.766,0.032
	c-0.096,0-0.191-0.032-0.286-0.032c-0.129,0-0.16,0.032-0.16,0.032c-0.032,0.032-0.032,0.318,0,0.447
	c0.031,0.255,0.063,0.509-0.032,0.765c-0.096,0.224-0.287,0.383-0.478,0.542c-0.128,0.096-0.319,0.255-0.319,0.351
	c0,0.063,0.225,0.255,0.319,0.353c0.19,0.158,0.382,0.316,0.478,0.541s0.063,0.512,0.032,0.766c0,0.128-0.032,0.415,0,0.445
	c0,0,0.031,0.031,0.16,0.031c0.095,0,0.19,0,0.286-0.031C18.524,15.453,18.649,15.453,18.747,15.453z M19.192,20.234
	c-0.096,0-0.19-0.031-0.256-0.098l-0.572-0.382l-0.701,0.097c-0.159,0.031-0.287-0.031-0.415-0.127
	c-0.095-0.13-0.159-0.257-0.095-0.414l0.604-2.553c0.032-0.158,0.225-0.285,0.383-0.223c0.16,0.031,0.289,0.223,0.226,0.383
	l-0.542,2.295l0.511-0.063c0.127-0.031,0.226,0,0.315,0.063l0.416,0.287l0.479-2.009c0.032-0.159,0.224-0.287,0.382-0.224
	c0.16,0.031,0.287,0.224,0.225,0.381l-0.508,2.232c-0.035,0.159-0.129,0.254-0.289,0.318C19.319,20.234,19.257,20.234,19.192,20.234
	z M20.755,21.128c-0.063,0-0.128,0-0.158-0.032c-0.127-0.063-0.256-0.189-0.287-0.318l-0.731-3.125
	c-0.032-0.157,0.063-0.35,0.223-0.381s0.353,0.063,0.384,0.224l0.67,2.869l0.414-0.286c0.096-0.064,0.224-0.098,0.318-0.064
	l0.51,0.064l-0.638-2.742c-0.032-0.159,0.063-0.352,0.226-0.382c0.156-0.032,0.35,0.063,0.381,0.223l0.701,2.996
	c0.03,0.159,0,0.319-0.097,0.415c-0.095,0.096-0.255,0.159-0.414,0.127l-0.7-0.096l-0.574,0.415
	C20.914,21.096,20.817,21.128,20.755,21.128z M26.334,17.621H24.74v-0.637h0.956V2.638H2.106v14.346h14.027v0.637H1.468V2h24.866
	V17.621z M5.294,6.145h17.215v0.637H5.294V6.145z M5.294,8.057h17.215v0.637H5.294V8.057z M5.294,9.971h9.563v0.637H5.294V9.971z"/>
</svg>
