<?xml version="1.0" encoding="iso-8859-1"?>
<!-- Generator: Adobe Illustrator 16.0.0, SVG Export Plug-In . SVG Version: 6.00 Build 0)  -->
<!DOCTYPE svg PUBLIC "-//W3C//DTD SVG 1.1//EN" "http://www.w3.org/Graphics/SVG/1.1/DTD/svg11.dtd">
<svg version="1.1" id="Camada_1" xmlns="http://www.w3.org/2000/svg" xmlns:xlink="http://www.w3.org/1999/xlink" x="0px" y="0px"
	 width="130px" height="115px" viewBox="0 0 130 115" style="enable-background:new 0 0 130 115;" xml:space="preserve">
<path style="fill:#363F44;" d="M38.124,85.198l-1.188-14.241c0,0,27.45,17.566,28.372,18.145c0.922,0.58,1.797,0.531,2.641-0.02
	s27.775-18.125,27.775-18.125l-1.188,14.241c0,0-25.591,16.36-26.589,16.958c-0.997,0.597-1.686,0.615-2.639,0.021
	C64.355,101.581,38.124,85.198,38.124,85.198z M24.592,58.684c1.036-0.645,34.767-21.598,41.258-25.628
	c0.691-0.43,1.469-0.417,2.178,0.037c6.453,4.119,39.055,24.934,40.092,25.596c1.15,0.734,1.15,1.25,0.005,1.967
	c-1.319,0.824-2.246,1.402-2.246,1.402v16.021l-2.729,2.227V63.836L68.032,85.695c-0.685,0.363-1.491,0.457-2.183,0.035
	c-6.495-3.948-40.257-24.479-41.266-25.074C23.468,59.996,23.446,59.395,24.592,58.684z"/>
</svg>
