<?xml version="1.0" encoding="iso-8859-1"?>
<!-- Generator: Adobe Illustrator 16.0.0, SVG Export Plug-In . SVG Version: 6.00 Build 0)  -->
<!DOCTYPE svg PUBLIC "-//W3C//DTD SVG 1.1//EN" "http://www.w3.org/Graphics/SVG/1.1/DTD/svg11.dtd">
<svg version="1.1" id="Layer_1" xmlns="http://www.w3.org/2000/svg" xmlns:xlink="http://www.w3.org/1999/xlink" x="0px" y="0px"
	 width="24px" height="24px" viewBox="0 0 24 24" style="enable-background:new 0 0 24 24;" xml:space="preserve">
<path style="fill:none;" d="M0,0h24v24H0V0z M19,2H5C3.89,2,3,2.9,3,4v14c0,1.1,0.89,2,2,2h4l3,3l3-3h4c1.1,0,2-0.9,2-2V4
	C21,2.9,20.1,2,19,2z M13,18h-2v-2h2V18z M15.07,10.25l-0.9,0.92C13.45,11.9,13,12.5,13,14h-2v-0.5c0-1.1,0.45-2.1,1.17-2.83
	l1.24-1.26C13.779,9.05,14,8.55,14,8c0-1.1-0.9-2-2-2c-1.1,0-2,0.9-2,2H8c0-2.21,1.79-4,4-4s4,1.79,4,4
	C16,8.88,15.641,9.68,15.07,10.25z"/>
</svg>
