<?xml version="1.0" encoding="iso-8859-1"?>
<!-- Generator: Adobe Illustrator 16.0.0, SVG Export Plug-In . SVG Version: 6.00 Build 0)  -->
<!DOCTYPE svg PUBLIC "-//W3C//DTD SVG 1.1//EN" "http://www.w3.org/Graphics/SVG/1.1/DTD/svg11.dtd">
<svg version="1.1" id="Camada_1" xmlns="http://www.w3.org/2000/svg" xmlns:xlink="http://www.w3.org/1999/xlink" x="0px" y="0px"
	 width="15.764px" height="15.85px" viewBox="0 0 15.764 15.85" style="enable-background:new 0 0 15.764 15.85;"
	 xml:space="preserve">
<path style="fill:none;" d="M14.452,0.212H1.307c-0.628,0-1.138,0.498-1.138,1.112v13.199c0,0.614,0.511,1.112,1.138,1.112h13.145
	c0.629,0,1.141-0.498,1.141-1.112V1.324C15.594,0.71,15.081,0.212,14.452,0.212z M2.454,5.995h2.29v7.361h-2.29V5.995z M3.601,2.336
	c0.73,0,1.325,0.596,1.325,1.327c0,0.732-0.595,1.326-1.325,1.326c-0.735,0-1.328-0.595-1.328-1.327
	C2.273,2.93,2.866,2.336,3.601,2.336 M6.18,5.995h2.192v1.006h0.032c0.305-0.579,1.051-1.188,2.164-1.188
	c2.317,0,2.745,1.523,2.745,3.506v4.037h-2.287v-3.58c0-0.854-0.015-1.952-1.189-1.952c-1.189,0-1.372,0.931-1.372,1.89v3.642H6.18
	V5.995z"/>
</svg>
