<?xml version="1.0" encoding="iso-8859-1"?>
<!-- Generator: Adobe Illustrator 16.0.0, SVG Export Plug-In . SVG Version: 6.00 Build 0)  -->
<!DOCTYPE svg PUBLIC "-//W3C//DTD SVG 1.1//EN" "http://www.w3.org/Graphics/SVG/1.1/DTD/svg11.dtd">
<svg version="1.1" id="Layer_1" xmlns="http://www.w3.org/2000/svg" xmlns:xlink="http://www.w3.org/1999/xlink" x="0px" y="0px"
	 width="24.094px" height="24.094px" viewBox="0 0 24.094 24.094" style="enable-background:new 0 0 24.094 24.094;"
	 xml:space="preserve">
<path id="Canvas" style="fill:none;" d="M6.672,10.703c-1.484,0-2.688,1.203-2.688,2.688v6.719c0,1.483,1.203,2.688,2.688,2.688
	h10.75c1.482,0,2.688-1.204,2.688-2.688v-6.719c0-1.483-1.204-2.688-2.688-2.688h-2.688H9.359H6.672z M14.734,10.703h2.688H14.734z
	 M12.719,17.216v2.222c0,0.371-0.3,0.672-0.672,0.672s-0.672-0.301-0.672-0.672v-2.222c-0.394-0.233-0.672-0.646-0.672-1.138
	c0-0.743,0.601-1.344,1.344-1.344c0.742,0,1.344,0.601,1.344,1.344C13.391,16.568,13.112,16.982,12.719,17.216z M17.646,7.602v-0.93
	c0-2.963-2.411-5.375-5.375-5.375S6.896,3.709,6.896,6.672v4.031h2.688V6.672c0-1.482,1.206-2.688,2.688-2.688
	c1.482,0,2.688,1.205,2.688,2.688v0.93"/>
</svg>
