<?xml version="1.0" encoding="utf-8"?>
<!-- Generator: Adobe Illustrator 16.0.0, SVG Export Plug-In . SVG Version: 6.00 Build 0)  -->
<!DOCTYPE svg PUBLIC "-//W3C//DTD SVG 1.1//EN" "http://www.w3.org/Graphics/SVG/1.1/DTD/svg11.dtd">
<svg version="1.1" id="Layer_1" xmlns="http://www.w3.org/2000/svg" xmlns:xlink="http://www.w3.org/1999/xlink" x="0px" y="0px"
	 width="47.906px" height="47.906px" viewBox="0 0 47.906 47.906" enable-background="new 0 0 47.906 47.906" xml:space="preserve">
<path fill="#333333" d="M30.011,33.574l-1.425-0.527l-0.32-0.672c2.521-1.398,4.563-3.672,5.626-6.57
	c1.271-3.441,0.927-7.084-0.651-10.097c-0.011-0.02-0.04-0.077-0.03-0.058c0.041,0.078,5.162-7.659,5.162-7.659l5.106,3.421
	L41.29,0.146L30.021,2.335l5.099,3.455l-4.433,6.569c-0.025-0.023-0.05-0.046-0.074-0.068c-1.158-1.061-2.538-1.918-4.103-2.495
	c-6.459-2.377-13.62,0.934-16.001,7.392c-1.277,3.46-0.921,7.122,0.678,10.142c0.018,0.033,0.035,0.066,0.054,0.1L2.746,40.012
	l3.249,2.201l7.779-11.529c0.021,0.018,0.041,0.037,0.062,0.055c1.148,1.041,2.512,1.883,4.055,2.451
	c2.897,1.068,5.951,0.988,8.654-0.02l0.306,0.682l-0.524,1.42l5.685,12.293l3.671-1.691L30.011,33.574z M19.218,29.594
	c-1.249-0.461-2.327-1.178-3.196-2.07c-0.023-0.023-0.047-0.047-0.069-0.07l2.665-3.943l6.373,4.307l-1.062-5.441l-6.385-4.293
	l-3.717,5.508c-0.011-0.045-0.021-0.092-0.032-0.137c-0.369-1.586-0.293-3.296,0.313-4.943c1.651-4.478,6.603-6.763,11.079-5.106
	c1.272,0.468,2.368,1.203,3.246,2.118c0.023,0.025,0.047,0.05,0.07,0.075l-4.575,6.779l1.062,5.441l5.611-8.32
	c0.012,0.049,0.022,0.096,0.033,0.144c0.343,1.558,0.257,3.231-0.338,4.843C28.651,28.961,23.702,31.244,19.218,29.594z"/>
</svg>
