<?xml version="1.0" encoding="iso-8859-1"?>
<!-- Generator: Adobe Illustrator 16.0.0, SVG Export Plug-In . SVG Version: 6.00 Build 0)  -->
<!DOCTYPE svg PUBLIC "-//W3C//DTD SVG 1.1//EN" "http://www.w3.org/Graphics/SVG/1.1/DTD/svg11.dtd">
<svg version="1.1" id="Camada_1" xmlns="http://www.w3.org/2000/svg" xmlns:xlink="http://www.w3.org/1999/xlink" x="0px" y="0px"
	 width="97.613px" height="97.614px" viewBox="0 0 97.613 97.614" style="enable-background:new 0 0 97.613 97.614;"
	 xml:space="preserve">
<path style="fill:none;" d="M39.273,70.256l28.601-21.45l-28.601-21.45V70.256z M48.807,1.14C22.494,1.14,1.14,22.494,1.14,48.806
	c0,26.313,21.354,47.668,47.667,47.668c26.313,0,47.667-21.354,47.667-47.668C96.474,22.494,75.119,1.14,48.807,1.14z M48.807,86.94
	c-21.021,0-38.135-17.111-38.135-38.134c0-21.021,17.113-38.134,38.135-38.134c21.021,0,38.135,17.114,38.135,38.134
	C86.941,69.829,69.827,86.94,48.807,86.94z"/>
</svg>
