<?xml version="1.0" encoding="iso-8859-1"?>
<!-- Generator: Adobe Illustrator 16.0.0, SVG Export Plug-In . SVG Version: 6.00 Build 0)  -->
<!DOCTYPE svg PUBLIC "-//W3C//DTD SVG 1.1//EN" "http://www.w3.org/Graphics/SVG/1.1/DTD/svg11.dtd">
<svg version="1.1" id="Camada_1" xmlns="http://www.w3.org/2000/svg" xmlns:xlink="http://www.w3.org/1999/xlink" x="0px" y="0px"
	 width="42.417px" height="38.5px" viewBox="0 0 42.417 38.5" style="enable-background:new 0 0 42.417 38.5;" xml:space="preserve"
	>
<path id="Logo_Branca_1_" style="fill:none;" d="M0.997,18.858h9.907l-1.98-2.938h2.941l1.982,2.938h3.372l-2.92-4.335h4.205
	l0.841,1.246l1.917-2.852L13.083,0.892l0,0L0.997,18.858z M21.634,24.872l3.829-5.701l-3.833-5.705l-1.916,2.853l1.92,2.849
	l-1.922,2.846L21.634,24.872l3.829-5.701 M12.919,38.055c-0.117,0-0.216-0.063-0.27-0.16L0.166,19.338l-0.009-0.017
	c-0.007-0.014-0.014-0.027-0.02-0.042c-0.011-0.021-0.016-0.045-0.02-0.07l-0.003-0.017l-0.001-0.021v-0.013l0.001-0.02l0.003-0.021
	c0.003-0.02,0.009-0.046,0.02-0.07c0.005-0.012,0.012-0.025,0.02-0.038l0.009-0.016L12.652,0.437c0.053-0.093,0.153-0.16,0.269-0.16
	c0,0,16.625,0.004,16.686,0.004c0.092,0,0.199,0.054,0.27,0.158c0.068,0.105,12.494,18.573,12.494,18.573s0.006,0.002,0.02,0.038
	c0.035,0.065,0.035,0.18,0,0.231c-0.02,0.041-0.02,0.041-0.02,0.041s-12.43,18.496-12.492,18.576
	c-0.063,0.078-0.121,0.158-0.271,0.158S12.919,38.055,12.919,38.055 M17.22,19.474h-3.37l-1.985,2.943H8.924l1.982-2.943h-9.91
	l12.086,17.971l0,0l8.182-12.024l-1.922-2.86l-0.839,1.242h-4.205L17.22,19.474z"/>
</svg>
