<?xml version="1.0" encoding="iso-8859-1"?>
<!-- Generator: Adobe Illustrator 16.0.0, SVG Export Plug-In . SVG Version: 6.00 Build 0)  -->
<!DOCTYPE svg PUBLIC "-//W3C//DTD SVG 1.1//EN" "http://www.w3.org/Graphics/SVG/1.1/DTD/svg11.dtd">
<svg version="1.1" id="Layer_1" xmlns="http://www.w3.org/2000/svg" xmlns:xlink="http://www.w3.org/1999/xlink" x="0px" y="0px"
	 width="24px" height="24px" viewBox="0 0 24 24" style="enable-background:new 0 0 24 24;" xml:space="preserve">
<path style="fill:#FFFFFF;" d="M16.75,13.96c0.25,0.13,0.41,0.2,0.46,0.3c0.06,0.11,0.04,0.61-0.21,1.18
	c-0.2,0.561-1.24,1.101-1.7,1.121c-0.46,0.02-0.47,0.359-2.96-0.73c-2.49-1.09-3.99-3.75-4.11-3.92S7.27,10.53,7.31,9.3
	C7.36,8.08,8,7.5,8.26,7.26C8.5,7,8.77,6.97,8.94,7h0.47c0.15,0,0.36-0.06,0.55,0.45l0.69,1.87c0.06,0.13,0.1,0.28,0.01,0.44
	l-0.27,0.41L10,10.59c-0.12,0.12-0.26,0.25-0.12,0.5c0.12,0.26,0.62,1.09,1.32,1.78c0.91,0.88,1.71,1.17,1.95,1.3
	c0.24,0.141,0.39,0.12,0.539-0.04l0.811-0.94c0.189-0.25,0.35-0.189,0.58-0.109L16.75,13.96 M12,2c5.523,0,10,4.477,10,10
	c0,5.523-4.477,10-10,10c-1.97,0-3.8-0.57-5.35-1.55L2,22l1.55-4.65C2.57,15.8,2,13.97,2,12C2,6.477,6.477,2,12,2 M12,4
	c-4.418,0-8,3.582-8,8c0,1.72,0.54,3.311,1.46,4.609L4.5,19.5l2.89-0.96C8.69,19.46,10.28,20,12,20c4.418,0,8-3.582,8-8
	C20,7.582,16.418,4,12,4z"/>
</svg>
