<?xml version="1.0" encoding="utf-8"?>
<!-- Generator: Adobe Illustrator 17.0.0, SVG Export Plug-In . SVG Version: 6.00 Build 0)  -->
<!DOCTYPE svg PUBLIC "-//W3C//DTD SVG 1.1//EN" "http://www.w3.org/Graphics/SVG/1.1/DTD/svg11.dtd">
<svg version="1.1" id="Camada_1" xmlns="http://www.w3.org/2000/svg" xmlns:xlink="http://www.w3.org/1999/xlink" x="0px" y="0px"
	 width="15.763px" height="15.849px" viewBox="0 0 15.763 15.849" enable-background="new 0 0 15.763 15.849" xml:space="preserve">
<g>
	<path fill="#0074AE" d="M14.452,0.212H1.307c-0.628,0-1.137,0.498-1.137,1.112v13.199c0,0.614,0.51,1.113,1.137,1.113h13.145
		c0.629,0,1.141-0.499,1.141-1.113V1.324C15.594,0.71,15.081,0.212,14.452,0.212z"/>
	<path fill="#FFFFFF" d="M2.454,5.995h2.29v7.361h-2.29V5.995z M3.601,2.336c0.731,0,1.326,0.595,1.326,1.327
		S4.332,4.989,3.601,4.989c-0.735,0-1.328-0.595-1.328-1.327S2.866,2.336,3.601,2.336"/>
	<path fill="#FFFFFF" d="M6.18,5.995h2.193v1.006h0.032c0.305-0.579,1.051-1.189,2.164-1.189c2.317,0,2.745,1.524,2.745,3.506v4.037
		h-2.287v-3.58c0-0.854-0.015-1.952-1.189-1.952c-1.19,0-1.372,0.931-1.372,1.89v3.641H6.18V5.995z"/>
</g>
</svg>
