<?xml version="1.0" encoding="utf-8"?>
<!-- Generator: Adobe Illustrator 16.0.0, SVG Export Plug-In . SVG Version: 6.00 Build 0)  -->
<!DOCTYPE svg PUBLIC "-//W3C//DTD SVG 1.1//EN" "http://www.w3.org/Graphics/SVG/1.1/DTD/svg11.dtd">
<svg version="1.1" id="Camada_1" xmlns="http://www.w3.org/2000/svg" xmlns:xlink="http://www.w3.org/1999/xlink" x="0px" y="0px"
	 width="317px" height="38.5px" viewBox="0 0 317 38.5" enable-background="new 0 0 317 38.5" xml:space="preserve">
<g>
	<line fill="#005B94" stroke="#005B94" stroke-miterlimit="10" x1="130.093" y1="39.237" x2="130.093" y2="1.167"/>
	<g>
		<path fill="#005B94" d="M153.516,24.426c0,2.736-1.663,4.188-3.692,4.188c-2.1,0-3.574-1.628-3.574-4.034
			c0-2.524,1.568-4.175,3.692-4.175C152.112,20.404,153.516,22.067,153.516,24.426z M147.347,24.556c0,1.698,0.92,3.22,2.536,3.22
			c1.627,0,2.548-1.498,2.548-3.302c0-1.581-0.826-3.232-2.536-3.232C148.196,21.242,147.347,22.811,147.347,24.556z"/>
		<path fill="#005B94" d="M161.622,28.271c-0.271,0.142-0.873,0.331-1.639,0.331c-1.722,0-2.843-1.168-2.843-2.914
			c0-1.757,1.203-3.031,3.067-3.031c0.613,0,1.156,0.153,1.439,0.295l-0.236,0.802c-0.248-0.141-0.637-0.271-1.203-0.271
			c-1.31,0-2.017,0.967-2.017,2.158c0,1.321,0.849,2.135,1.981,2.135c0.59,0,0.979-0.153,1.274-0.283L161.622,28.271z"/>
		<path fill="#005B94" d="M166.118,28.484l-0.083-0.72H166c-0.319,0.448-0.932,0.85-1.746,0.85c-1.156,0-1.746-0.814-1.746-1.64
			c0-1.38,1.227-2.135,3.433-2.123v-0.118c0-0.472-0.13-1.321-1.297-1.321c-0.531,0-1.085,0.165-1.486,0.424l-0.236-0.684
			c0.472-0.307,1.156-0.507,1.875-0.507c1.746,0,2.17,1.191,2.17,2.335v2.135c0,0.495,0.023,0.979,0.094,1.368H166.118z
			 M165.965,25.571c-1.132-0.024-2.418,0.177-2.418,1.285c0,0.672,0.448,0.991,0.979,0.991c0.743,0,1.215-0.472,1.38-0.956
			c0.036-0.106,0.059-0.224,0.059-0.331V25.571z"/>
		<path fill="#005B94" d="M168.762,24.32c0-0.59-0.012-1.074-0.047-1.545h0.92l0.059,0.944h0.023
			c0.283-0.542,0.944-1.073,1.887-1.073c0.791,0,2.017,0.472,2.017,2.43v3.409h-1.038v-3.291c0-0.92-0.342-1.687-1.321-1.687
			c-0.685,0-1.215,0.483-1.392,1.062c-0.047,0.13-0.071,0.307-0.071,0.483v3.433h-1.038V24.32z"/>
		<path fill="#005B94" d="M178.589,28.484l-0.083-0.72h-0.035c-0.318,0.448-0.932,0.85-1.746,0.85c-1.156,0-1.746-0.814-1.746-1.64
			c0-1.38,1.227-2.135,3.433-2.123v-0.118c0-0.472-0.13-1.321-1.297-1.321c-0.531,0-1.085,0.165-1.486,0.424l-0.236-0.684
			c0.472-0.307,1.156-0.507,1.875-0.507c1.746,0,2.17,1.191,2.17,2.335v2.135c0,0.495,0.023,0.979,0.094,1.368H178.589z
			 M178.436,25.571c-1.132-0.024-2.418,0.177-2.418,1.285c0,0.672,0.448,0.991,0.979,0.991c0.743,0,1.215-0.472,1.38-0.956
			c0.036-0.106,0.059-0.224,0.059-0.331V25.571z"/>
		<path fill="#005B94" d="M181.233,20.109h1.038v8.375h-1.038V20.109z"/>
		<path fill="#005B94" d="M187.333,25.818c0.023,1.403,0.92,1.981,1.958,1.981c0.743,0,1.191-0.13,1.581-0.295l0.177,0.743
			c-0.366,0.165-0.991,0.354-1.899,0.354c-1.757,0-2.807-1.156-2.807-2.878c0-1.723,1.014-3.079,2.677-3.079
			c1.864,0,2.359,1.639,2.359,2.689c0,0.212-0.024,0.377-0.036,0.484H187.333z M190.376,25.075c0.012-0.661-0.271-1.687-1.439-1.687
			c-1.05,0-1.51,0.967-1.592,1.687H190.376z"/>
		<path fill="#005B94" d="M195.521,24.91v0.767h-2.913V24.91H195.521z"/>
		<path fill="#005B94" d="M196.855,20.109h1.038v8.375h-1.038V20.109z"/>
		<path fill="#005B94" d="M200.335,25.818c0.023,1.403,0.92,1.981,1.958,1.981c0.743,0,1.191-0.13,1.581-0.295l0.177,0.743
			c-0.366,0.165-0.991,0.354-1.899,0.354c-1.757,0-2.807-1.156-2.807-2.878c0-1.723,1.014-3.079,2.677-3.079
			c1.864,0,2.359,1.639,2.359,2.689c0,0.212-0.024,0.377-0.036,0.484H200.335z M203.378,25.075c0.012-0.661-0.271-1.687-1.439-1.687
			c-1.05,0-1.51,0.967-1.592,1.687H203.378z"/>
		<path fill="#005B94" d="M208.948,28.484l-0.083-0.72h-0.035c-0.318,0.448-0.932,0.85-1.746,0.85c-1.156,0-1.746-0.814-1.746-1.64
			c0-1.38,1.227-2.135,3.433-2.123v-0.118c0-0.472-0.13-1.321-1.297-1.321c-0.531,0-1.085,0.165-1.486,0.424l-0.236-0.684
			c0.472-0.307,1.156-0.507,1.875-0.507c1.746,0,2.17,1.191,2.17,2.335v2.135c0,0.495,0.023,0.979,0.094,1.368H208.948z
			 M208.794,25.571c-1.132-0.024-2.418,0.177-2.418,1.285c0,0.672,0.448,0.991,0.979,0.991c0.743,0,1.215-0.472,1.38-0.956
			c0.036-0.106,0.059-0.224,0.059-0.331V25.571z"/>
		<path fill="#005B94" d="M211.592,24.556c0-0.672-0.012-1.25-0.047-1.781h0.908l0.035,1.121h0.047
			c0.259-0.767,0.885-1.25,1.581-1.25c0.118,0,0.2,0.012,0.295,0.035v0.979c-0.106-0.023-0.212-0.035-0.354-0.035
			c-0.731,0-1.25,0.554-1.392,1.333c-0.024,0.142-0.047,0.307-0.047,0.484v3.043h-1.026V24.556z"/>
		<path fill="#005B94" d="M215.615,24.32c0-0.59-0.012-1.074-0.047-1.545h0.92l0.059,0.944h0.023
			c0.283-0.542,0.944-1.073,1.887-1.073c0.791,0,2.017,0.472,2.017,2.43v3.409h-1.038v-3.291c0-0.92-0.342-1.687-1.321-1.687
			c-0.685,0-1.215,0.483-1.392,1.062c-0.047,0.13-0.071,0.307-0.071,0.483v3.433h-1.038V24.32z"/>
		<path fill="#005B94" d="M223.438,21.171c0.012,0.354-0.248,0.637-0.661,0.637c-0.366,0-0.625-0.283-0.625-0.637
			c0-0.366,0.271-0.649,0.648-0.649C223.19,20.522,223.438,20.805,223.438,21.171z M222.282,28.484v-5.709h1.038v5.709H222.282z"/>
		<path fill="#005B94" d="M225.161,24.32c0-0.59-0.012-1.074-0.047-1.545h0.92l0.059,0.944h0.023
			c0.283-0.542,0.944-1.073,1.887-1.073c0.791,0,2.017,0.472,2.017,2.43v3.409h-1.038v-3.291c0-0.92-0.342-1.687-1.321-1.687
			c-0.685,0-1.215,0.483-1.392,1.062c-0.047,0.13-0.071,0.307-0.071,0.483v3.433h-1.038V24.32z"/>
		<path fill="#005B94" d="M236.746,22.775c-0.024,0.413-0.047,0.873-0.047,1.569v3.314c0,1.309-0.259,2.111-0.814,2.607
			c-0.554,0.519-1.356,0.684-2.076,0.684c-0.684,0-1.439-0.166-1.899-0.472l0.259-0.79c0.377,0.236,0.967,0.448,1.675,0.448
			c1.062,0,1.84-0.555,1.84-1.993v-0.637h-0.024c-0.318,0.531-0.932,0.956-1.816,0.956c-1.416,0-2.43-1.203-2.43-2.784
			c0-1.935,1.262-3.031,2.571-3.031c0.991,0,1.533,0.519,1.781,0.991h0.023l0.047-0.861H236.746z M235.672,25.028
			c0-0.177-0.012-0.33-0.059-0.472c-0.189-0.602-0.696-1.097-1.451-1.097c-0.991,0-1.698,0.837-1.698,2.158
			c0,1.121,0.566,2.052,1.687,2.052c0.637,0,1.215-0.401,1.439-1.062c0.059-0.177,0.083-0.377,0.083-0.554V25.028z"/>
		<path fill="#005B94" d="M246.09,20.109v6.9c0,0.507,0.012,1.085,0.047,1.475h-0.932l-0.047-0.991h-0.023
			c-0.318,0.637-1.014,1.121-1.946,1.121c-1.38,0-2.441-1.168-2.441-2.902c-0.012-1.899,1.167-3.066,2.56-3.066
			c0.873,0,1.462,0.413,1.722,0.873h0.023v-3.409H246.09z M245.052,25.099c0-0.129-0.012-0.307-0.047-0.436
			c-0.153-0.661-0.719-1.203-1.498-1.203c-1.073,0-1.71,0.943-1.71,2.206c0,1.156,0.566,2.111,1.687,2.111
			c0.696,0,1.333-0.46,1.521-1.238c0.036-0.142,0.047-0.283,0.047-0.448V25.099z"/>
		<path fill="#005B94" d="M251.094,28.484l-0.083-0.72h-0.035c-0.319,0.448-0.932,0.85-1.746,0.85c-1.156,0-1.746-0.814-1.746-1.64
			c0-1.38,1.227-2.135,3.433-2.123v-0.118c0-0.472-0.13-1.321-1.297-1.321c-0.531,0-1.085,0.165-1.486,0.424l-0.236-0.684
			c0.472-0.307,1.156-0.507,1.875-0.507c1.746,0,2.17,1.191,2.17,2.335v2.135c0,0.495,0.023,0.979,0.094,1.368H251.094z
			 M250.94,25.571c-1.132-0.024-2.418,0.177-2.418,1.285c0,0.672,0.448,0.991,0.979,0.991c0.743,0,1.215-0.472,1.38-0.956
			c0.036-0.106,0.059-0.224,0.059-0.331V25.571z"/>
		<path fill="#005B94" d="M256.935,25.818c0.023,1.403,0.92,1.981,1.958,1.981c0.743,0,1.191-0.13,1.581-0.295l0.177,0.743
			c-0.366,0.165-0.991,0.354-1.899,0.354c-1.757,0-2.807-1.156-2.807-2.878c0-1.723,1.014-3.079,2.677-3.079
			c1.864,0,2.359,1.639,2.359,2.689c0,0.212-0.024,0.377-0.036,0.484H256.935z M259.978,25.075c0.012-0.661-0.271-1.687-1.439-1.687
			c-1.05,0-1.51,0.967-1.592,1.687H259.978z"/>
		<path fill="#005B94" d="M262.386,24.32c0-0.59-0.012-1.074-0.047-1.545h0.92l0.059,0.944h0.023
			c0.283-0.542,0.944-1.073,1.887-1.073c0.791,0,2.017,0.472,2.017,2.43v3.409h-1.038v-3.291c0-0.92-0.342-1.687-1.321-1.687
			c-0.685,0-1.215,0.483-1.392,1.062c-0.047,0.13-0.071,0.307-0.071,0.483v3.433h-1.038V24.32z"/>
		<path fill="#005B94" d="M273.972,22.775c-0.024,0.413-0.047,0.873-0.047,1.569v3.314c0,1.309-0.259,2.111-0.814,2.607
			c-0.554,0.519-1.356,0.684-2.076,0.684c-0.684,0-1.439-0.166-1.899-0.472l0.259-0.79c0.377,0.236,0.967,0.448,1.675,0.448
			c1.062,0,1.84-0.555,1.84-1.993v-0.637h-0.024c-0.318,0.531-0.932,0.956-1.816,0.956c-1.416,0-2.43-1.203-2.43-2.784
			c0-1.935,1.262-3.031,2.571-3.031c0.991,0,1.533,0.519,1.781,0.991h0.023l0.047-0.861H273.972z M272.898,25.028
			c0-0.177-0.012-0.33-0.059-0.472c-0.189-0.602-0.696-1.097-1.451-1.097c-0.991,0-1.698,0.837-1.698,2.158
			c0,1.121,0.566,2.052,1.687,2.052c0.637,0,1.215-0.401,1.439-1.062c0.059-0.177,0.083-0.377,0.083-0.554V25.028z"/>
		<path fill="#005B94" d="M276.344,25.818c0.023,1.403,0.92,1.981,1.958,1.981c0.743,0,1.191-0.13,1.581-0.295l0.177,0.743
			c-0.366,0.165-0.991,0.354-1.899,0.354c-1.757,0-2.807-1.156-2.807-2.878c0-1.723,1.014-3.079,2.677-3.079
			c1.864,0,2.359,1.639,2.359,2.689c0,0.212-0.024,0.377-0.036,0.484H276.344z M279.387,25.075c0.012-0.661-0.271-1.687-1.439-1.687
			c-1.05,0-1.51,0.967-1.592,1.687H279.387z"/>
		<path fill="#005B94" d="M281.795,24.32c0-0.59-0.012-1.074-0.047-1.545h0.92l0.059,0.944h0.023
			c0.283-0.542,0.944-1.073,1.887-1.073c0.791,0,2.017,0.472,2.017,2.43v3.409h-1.038v-3.291c0-0.92-0.342-1.687-1.321-1.687
			c-0.685,0-1.215,0.483-1.392,1.062c-0.047,0.13-0.071,0.307-0.071,0.483v3.433h-1.038V24.32z"/>
		<path fill="#005B94" d="M288.462,20.109h1.038v3.562h0.023c0.166-0.295,0.425-0.554,0.743-0.731
			c0.307-0.177,0.672-0.294,1.062-0.294c0.767,0,1.994,0.472,1.994,2.441v3.397h-1.038v-3.279c0-0.92-0.342-1.698-1.321-1.698
			c-0.672,0-1.203,0.472-1.392,1.038c-0.059,0.142-0.071,0.295-0.071,0.495v3.444h-1.038V20.109z"/>
		<path fill="#005B94" d="M298.289,28.484l-0.083-0.72h-0.035c-0.319,0.448-0.932,0.85-1.746,0.85c-1.156,0-1.746-0.814-1.746-1.64
			c0-1.38,1.227-2.135,3.433-2.123v-0.118c0-0.472-0.13-1.321-1.297-1.321c-0.531,0-1.085,0.165-1.486,0.424l-0.236-0.684
			c0.472-0.307,1.156-0.507,1.875-0.507c1.746,0,2.17,1.191,2.17,2.335v2.135c0,0.495,0.023,0.979,0.094,1.368H298.289z
			 M298.136,25.571c-1.132-0.024-2.418,0.177-2.418,1.285c0,0.672,0.448,0.991,0.979,0.991c0.743,0,1.215-0.472,1.38-0.956
			c0.036-0.106,0.059-0.224,0.059-0.331V25.571z"/>
		<path fill="#005B94" d="M300.933,24.556c0-0.672-0.012-1.25-0.047-1.781h0.908l0.035,1.121h0.047
			c0.259-0.767,0.885-1.25,1.581-1.25c0.118,0,0.201,0.012,0.295,0.035v0.979c-0.106-0.023-0.212-0.035-0.354-0.035
			c-0.731,0-1.25,0.554-1.392,1.333c-0.024,0.142-0.047,0.307-0.047,0.484v3.043h-1.026V24.556z"/>
		<path fill="#005B94" d="M306.113,21.171c0.012,0.354-0.248,0.637-0.661,0.637c-0.366,0-0.625-0.283-0.625-0.637
			c0-0.366,0.271-0.649,0.648-0.649C305.865,20.522,306.113,20.805,306.113,21.171z M304.957,28.484v-5.709h1.038v5.709H304.957z"/>
		<path fill="#005B94" d="M310.997,28.484l-0.083-0.72h-0.035c-0.318,0.448-0.932,0.85-1.746,0.85c-1.156,0-1.746-0.814-1.746-1.64
			c0-1.38,1.227-2.135,3.433-2.123v-0.118c0-0.472-0.13-1.321-1.297-1.321c-0.531,0-1.085,0.165-1.486,0.424l-0.236-0.684
			c0.472-0.307,1.156-0.507,1.875-0.507c1.746,0,2.17,1.191,2.17,2.335v2.135c0,0.495,0.023,0.979,0.094,1.368H310.997z
			 M310.843,25.571c-1.132-0.024-2.418,0.177-2.418,1.285c0,0.672,0.448,0.991,0.979,0.991c0.743,0,1.215-0.472,1.38-0.956
			c0.036-0.106,0.059-0.224,0.059-0.331V25.571z"/>
	</g>
	<g>
		<polygon fill="#556770" points="0.5,17.984 15.765,17.984 26.971,34.792 11.725,34.792 11.72,34.797 		"/>
		<polygon opacity="0.6" fill="#556770" points="27,1.167 11.735,1.167 0.527,17.974 15.775,17.974 15.779,17.981 		"/>
		<polygon fill="#005B94" points="38.216,17.984 22.95,17.984 11.744,34.792 26.991,34.792 26.995,34.797 		"/>
		<polygon fill="#28B67C" points="11.716,1.167 26.979,1.167 38.187,17.974 22.938,17.974 22.936,17.981 		"/>
		<g>
			<polygon fill="#005B94" points="16.55,22.184 19.356,17.989 15.582,17.989 12.776,22.184 			"/>
			<polygon fill="#005B94" points="16.543,13.776 19.356,17.989 15.585,17.989 12.776,13.776 			"/>
		</g>
		<g>
			<polygon fill="#28B67C" points="10.811,20.926 12.776,17.989 10.135,17.989 8.172,20.926 			"/>
			<polygon fill="#28B67C" points="10.808,15.041 12.776,17.989 10.137,17.989 8.172,15.041 			"/>
		</g>
	</g>
	<g>
		<path fill="#005B94" d="M86.677,24.842c-0.874-0.745-2.301-1.329-4.361-1.791c-1.959-0.434-3.271-0.871-3.898-1.296
			c-0.579-0.396-0.872-1.155-0.872-2.258c0-1.996,1.314-2.967,4.019-2.967c1.087,0,2.963,0.162,5.575,0.482l0.251,0.03l0.252-2.339
			l-1.203-0.178c-1.937-0.285-3.625-0.43-5.018-0.43c-4.374,0-6.594,1.865-6.594,5.542c0,1.836,0.502,3.168,1.488,3.963
			c0.955,0.771,2.578,1.405,4.832,1.886c1.642,0.316,2.771,0.696,3.354,1.136c0.548,0.414,0.826,1.118,0.826,2.094
			c0,2.494-1.297,3.705-3.963,3.705c-1.33,0-3.301-0.171-5.856-0.509l-0.25-0.034l-0.289,2.313l1.265,0.177
			c2.09,0.322,3.854,0.485,5.243,0.485c4.339,0,6.539-2.124,6.539-6.309C88.017,26.846,87.565,25.6,86.677,24.842z"/>
		<path fill="#005B94" d="M102.546,33.87c-0.145-1.632-0.23-3.515-0.23-5.036v-4.556c0-3.655-1.86-5.285-6.031-5.285
			c-2.161,0-4.56,0.653-4.905,0.878l-0.132,0.085l0.551,2.145l0.226-0.082c1.566-0.574,2.841-0.818,4.261-0.818
			c2.551,0,3.592,0.892,3.592,3.078v1.286c-1.261-0.404-3.084-0.845-5.07-0.845c-3.25,0-4.638,1.438-4.638,4.809
			c0,4.362,2.31,4.921,4.321,4.921c2.084,0,4.33-0.853,5.574-1.724l0.277,1.543l2.225-0.181L102.546,33.87z M94.771,26.889
			c1.508,0,3.341,0.245,5.057,0.673c0.002,1.256,0.023,2.241,0.068,3.071c-1.341,0.994-3.328,1.656-4.991,1.656
			c-1.642,0-2.224-0.667-2.224-2.553C92.681,27.972,92.781,26.889,94.771,26.889z"/>
		<path fill="#005B94" d="M113.316,34.775c-2.644,0.093-4.142-0.329-4.896-0.987c-0.752-0.66-1.13-1.91-1.13-3.75v-9.224h-3.164
			v-1.853h3.164v-4.864h2.856v4.864h3.169v1.853h-3.169v9.38c0,1.089,0.209,1.814,0.627,2.182c0.419,0.366,1.266,0.549,2.542,0.549
			V34.775z"/>
		<path fill="#005B94" d="M71.054,17.047H68.23v-2.95h2.823V17.047z M71.054,34.46H68.23V18.993h2.823V34.46z"/>
		<path fill="#005B94" d="M64.474,27.964v-6.976c0-4.084-2.734-6.892-7.956-6.892c-5.108,0-8.006,2.76-8.006,6.892v6.976
			c0,4.133,2.897,6.894,8.006,6.894c1.583,0,2.938-0.261,4.057-0.735l1.954,1.956l1.539-1.548l-1.601-1.601
			C63.794,31.718,64.474,30,64.474,27.964z M58.056,28.518l-1.538,1.547l2.468,2.468c-0.65,0.233-1.461,0.359-2.473,0.359
			c-5.434,0-5.107-3.615-5.107-8.361c0-4.775-0.326-8.467,5.107-8.467s5.064,3.693,5.064,8.467c0,2.782,0.123,5.159-0.848,6.661
			L58.056,28.518z"/>
	</g>
</g>
</svg>
