<?xml version="1.0" encoding="utf-8"?>
<!-- Generator: Adobe Illustrator 16.0.0, SVG Export Plug-In . SVG Version: 6.00 Build 0)  -->
<!DOCTYPE svg PUBLIC "-//W3C//DTD SVG 1.1//EN" "http://www.w3.org/Graphics/SVG/1.1/DTD/svg11.dtd">
<svg version="1.1" id="Camada_1" xmlns="http://www.w3.org/2000/svg" xmlns:xlink="http://www.w3.org/1999/xlink" x="0px" y="0px"
	 width="117px" height="38.5px" viewBox="0 0 117 38.5" enable-background="new 0 0 117 38.5" xml:space="preserve">
<g id="Brand_1_">
	<g id="simbol_1_">
		<polygon fill="#989898" points="15.577,0.407 31.156,27.374 25.967,36.366 10.385,9.399 		"/>
		<polygon fill="#989898" points="0,27.374 8.67,12.369 13.852,21.387 5.192,36.366 		"/>
	</g>
	<g id="brand-name_1_">
		<path fill="#989898" d="M83.277,19.873c-4.364,0-6.839,2.634-6.839,5.989v4.871c0,3.353,2.475,5.987,6.839,5.987
			c4.46,0,6.794-2.673,6.794-5.987v-4.871C90.072,22.547,87.737,19.873,83.277,19.873z M83.272,34.792
			c-4.191,0-3.941-2.788-3.941-6.453c0-3.684-0.25-6.537,3.941-6.537c4.194,0,3.91,2.853,3.91,6.537
			C87.182,32.023,87.466,34.792,83.272,34.792z"/>
		<path fill="#989898" d="M57.298,36.404h-3.391l-2.482-6.609h-9.326l-2.45,6.609h-3.221l8.658-21.774h3.757L57.298,36.404z
			 M50.62,27.547l-3.689-9.832h-0.304l-3.692,9.832H50.62L50.62,27.547z"/>
		<path fill="#989898" d="M62.644,36.412h-3.021V14.64h3.021V36.412z"/>
		<path fill="#989898" d="M74.768,36.748c-2.824,0.099-4.429-0.35-5.233-1.056c-0.805-0.704-1.207-2.042-1.207-4.011v-9.862h-3.384
			v-1.98h3.384v-5.2h3.054v5.2h3.389v1.98h-3.389V31.85c0,1.163,0.22,1.939,0.672,2.33c0.446,0.393,1.35,0.588,2.717,0.588v1.979
			H74.768z"/>
		<path fill="#989898" d="M117.134,17.792h-3.02V14.64h3.02V17.792z M117.134,36.412h-3.02v-16.54h3.02V36.412z"/>
		<path fill="#989898" d="M110.098,29.389v-7.459c0-4.367-2.922-7.367-8.507-7.367c-5.459,0-8.559,2.947-8.559,7.367v7.459
			c0,4.42,3.1,7.369,8.559,7.369c1.697,0,3.142-0.278,4.339-0.783l2.087,2.088l1.647-1.653l-1.713-1.712
			C109.373,33.401,110.098,31.563,110.098,29.389z M103.237,29.979l-1.646,1.657l2.637,2.638c-0.692,0.249-1.56,0.383-2.64,0.383
			c-5.812,0-5.46-3.866-5.46-8.938c0-5.106-0.351-9.055,5.46-9.055c5.806,0,5.413,3.949,5.413,9.055
			c0,2.974,0.132,5.516-0.907,7.121L103.237,29.979z"/>
	</g>
</g>
</svg>
