<?xml version="1.0" encoding="utf-8"?>
<!-- Generator: Adobe Illustrator 16.0.0, SVG Export Plug-In . SVG Version: 6.00 Build 0)  -->
<!DOCTYPE svg PUBLIC "-//W3C//DTD SVG 1.1//EN" "http://www.w3.org/Graphics/SVG/1.1/DTD/svg11.dtd">
<svg version="1.1" id="Camada_1" xmlns="http://www.w3.org/2000/svg" xmlns:xlink="http://www.w3.org/1999/xlink" x="0px" y="0px"
	 width="117px" height="38.5px" viewBox="0 0 117 38.5" enable-background="new 0 0 117 38.5" xml:space="preserve">
<g>
	<g>
		<polygon opacity="0.6" fill="#FFFFFF" points="0,17.257 15.412,17.257 26.725,34.227 11.332,34.227 11.329,34.232 		"/>
		<polygon opacity="0.8" fill="#FFFFFF" points="26.755,0.278 11.343,0.278 0.029,17.246 15.423,17.246 15.427,17.253 		"/>
		<polygon fill="#FFFFFF" points="38.078,17.257 22.667,17.257 11.353,34.227 26.746,34.227 26.75,34.232 		"/>
		<polygon opacity="0.8" fill="#FFFFFF" points="11.324,0.278 26.735,0.278 38.05,17.246 22.655,17.246 22.651,17.253 		"/>
		<polygon fill="#FFFFFF" points="19.038,17.262 16.198,13.008 12.395,13.008 15.23,17.262 15.228,17.262 12.395,21.497 
			16.205,21.497 19.038,17.262 		"/>
		<polygon fill="#FFFFFF" points="12.394,17.262 10.406,14.284 7.747,14.284 9.73,17.262 9.728,17.262 7.746,20.228 10.411,20.228 
			12.395,17.262 		"/>
		<g>
			<path fill="#FFFFFF" d="M87.587,24.181c-0.882-0.75-2.322-1.343-4.402-1.806c-1.979-0.439-3.304-0.881-3.937-1.313
				c-0.585-0.397-0.88-1.165-0.88-2.278c0-2.015,1.326-2.997,4.058-2.997c1.097,0,2.992,0.165,5.628,0.487l0.253,0.031l0.255-2.36
				l-1.215-0.18c-1.955-0.287-3.659-0.433-5.066-0.433c-4.415,0-6.655,1.883-6.655,5.595c0,1.854,0.504,3.198,1.501,4.001
				c0.963,0.779,2.604,1.419,4.878,1.903c1.658,0.319,2.799,0.705,3.388,1.147c0.551,0.418,0.833,1.129,0.833,2.112
				c0,2.519-1.309,3.743-4.001,3.743c-1.343,0-3.332-0.173-5.913-0.514l-0.252-0.035l-0.292,2.336l1.276,0.178
				c2.11,0.325,3.892,0.491,5.294,0.491c4.382,0,6.602-2.144,6.602-6.37C88.94,26.204,88.485,24.947,87.587,24.181z"/>
			<path fill="#FFFFFF" d="M103.61,33.296c-0.146-1.648-0.232-3.549-0.232-5.085v-4.599c0-3.69-1.878-5.335-6.089-5.335
				c-2.183,0-4.604,0.656-4.953,0.884l-0.133,0.087l0.556,2.166l0.227-0.085c1.583-0.578,2.868-0.825,4.303-0.825
				c2.575,0,3.626,0.901,3.626,3.108v1.296c-1.273-0.407-3.114-0.85-5.119-0.85c-3.282,0-4.683,1.452-4.683,4.855
				c0,4.403,2.332,4.967,4.362,4.967c2.104,0,4.372-0.861,5.629-1.74l0.279,1.559l2.247-0.184L103.61,33.296z M95.759,26.249
				c1.522,0,3.373,0.248,5.106,0.679c0.001,1.27,0.023,2.263,0.067,3.102c-1.353,1.003-3.361,1.672-5.038,1.672
				c-1.659,0-2.246-0.674-2.246-2.577C93.649,27.341,93.751,26.249,95.759,26.249z"/>
			<path fill="#FFFFFF" d="M114.484,34.209c-2.668,0.093-4.182-0.331-4.942-0.996c-0.76-0.666-1.141-1.929-1.141-3.786v-9.314
				h-3.194v-1.868h3.194v-4.912h2.884v4.912h3.199v1.868h-3.199v9.473c0,1.098,0.21,1.831,0.633,2.201s1.278,0.553,2.566,0.553
				V34.209z"/>
			<path fill="#FFFFFF" d="M71.813,16.312h-2.85v-2.978h2.85V16.312z M71.813,33.894h-2.85V18.275h2.85V33.894z"/>
			<path fill="#FFFFFF" d="M65.17,27.334v-7.043c0-4.125-2.761-6.958-8.033-6.958c-5.159,0-8.083,2.786-8.083,6.958v7.043
				c0,4.173,2.925,6.958,8.083,6.958c1.599,0,2.965-0.262,4.096-0.74l1.973,1.972l1.553-1.563l-1.615-1.615
				C64.484,31.124,65.17,29.389,65.17,27.334z M58.691,27.892l-1.553,1.563l2.491,2.493c-0.657,0.234-1.474,0.361-2.497,0.361
				c-5.484,0-5.157-3.65-5.157-8.442c0-4.821-0.328-8.548,5.157-8.548c5.486,0,5.114,3.729,5.114,8.548
				c0,2.81,0.125,5.21-0.856,6.726L58.691,27.892z"/>
		</g>
	</g>
</g>
</svg>
