<?xml version="1.0" encoding="utf-8"?>
<!-- Generator: Adobe Illustrator 17.0.0, SVG Export Plug-In . SVG Version: 6.00 Build 0)  -->
<!DOCTYPE svg PUBLIC "-//W3C//DTD SVG 1.1//EN" "http://www.w3.org/Graphics/SVG/1.1/DTD/svg11.dtd">
<svg version="1.1" id="Camada_1" xmlns="http://www.w3.org/2000/svg" xmlns:xlink="http://www.w3.org/1999/xlink" x="0px" y="0px"
	 width="415px" height="38.5px" viewBox="0 0 415 38.5" enable-background="new 0 0 415 38.5" xml:space="preserve">
<g>
	<line fill="#005B94" stroke="#005B94" stroke-miterlimit="10" x1="129.093" y1="39.237" x2="129.093" y2="1.166"/>
	<g>
		<polygon fill="#556770" points="-0.5,17.984 14.765,17.984 25.971,34.792 10.725,34.792 10.72,34.797 		"/>
		<polygon opacity="0.6" fill="#556770" points="26,1.166 10.735,1.166 -0.473,17.974 14.775,17.974 14.779,17.981 		"/>
		<polygon fill="#005B94" points="37.216,17.984 21.95,17.984 10.744,34.792 25.991,34.792 25.995,34.797 		"/>
		<polygon fill="#28B67C" points="10.716,1.166 25.979,1.166 37.187,17.974 21.938,17.974 21.935,17.981 		"/>
		<g>
			<polygon fill="#005B94" points="15.55,22.184 18.356,17.989 14.582,17.989 11.776,22.184 			"/>
			<polygon fill="#005B94" points="15.543,13.776 18.356,17.989 14.585,17.989 11.776,13.776 			"/>
		</g>
		<g>
			<polygon fill="#28B67C" points="9.811,20.926 11.776,17.989 9.135,17.989 7.172,20.926 			"/>
			<polygon fill="#28B67C" points="9.808,15.04 11.776,17.989 9.137,17.989 7.172,15.04 			"/>
		</g>
	</g>
	<g>
		<path fill="#005B94" d="M85.677,24.842c-0.874-0.745-2.301-1.329-4.361-1.791c-1.959-0.434-3.271-0.871-3.898-1.296
			c-0.579-0.396-0.872-1.155-0.872-2.258c0-1.996,1.314-2.967,4.019-2.967c1.087,0,2.963,0.162,5.575,0.482l0.251,0.03l0.252-2.339
			l-1.203-0.178c-1.937-0.285-3.625-0.43-5.018-0.43c-4.374,0-6.594,1.865-6.594,5.542c0,1.836,0.502,3.168,1.488,3.963
			c0.955,0.771,2.578,1.405,4.832,1.886c1.642,0.316,2.771,0.696,3.354,1.136c0.548,0.414,0.826,1.118,0.826,2.094
			c0,2.494-1.297,3.705-3.963,3.705c-1.33,0-3.301-0.171-5.856-0.509l-0.25-0.034l-0.289,2.314l1.265,0.177
			c2.09,0.322,3.854,0.485,5.243,0.485c4.339,0,6.539-2.124,6.539-6.309C87.017,26.846,86.565,25.6,85.677,24.842z"/>
		<path fill="#005B94" d="M101.546,33.87c-0.145-1.632-0.23-3.515-0.23-5.036v-4.556c0-3.655-1.86-5.285-6.031-5.285
			c-2.161,0-4.56,0.653-4.905,0.878l-0.132,0.085l0.551,2.144l0.226-0.082c1.566-0.574,2.841-0.818,4.261-0.818
			c2.551,0,3.592,0.892,3.592,3.078v1.286c-1.261-0.404-3.084-0.845-5.07-0.845c-3.25,0-4.638,1.438-4.638,4.809
			c0,4.362,2.31,4.921,4.321,4.921c2.084,0,4.33-0.853,5.574-1.724l0.277,1.543l2.225-0.181L101.546,33.87z M93.771,26.889
			c1.508,0,3.341,0.245,5.057,0.673c0.002,1.256,0.023,2.241,0.068,3.071c-1.341,0.994-3.328,1.656-4.991,1.656
			c-1.642,0-2.224-0.667-2.224-2.553C91.681,27.972,91.781,26.889,93.771,26.889z"/>
		<path fill="#005B94" d="M112.316,34.775c-2.644,0.093-4.142-0.329-4.896-0.987c-0.752-0.66-1.13-1.91-1.13-3.75v-9.224h-3.164
			v-1.853h3.164v-4.864h2.856v4.864h3.169v1.853h-3.169v9.38c0,1.089,0.209,1.815,0.627,2.182c0.419,0.366,1.266,0.549,2.542,0.549
			V34.775z"/>
		<path fill="#005B94" d="M70.054,17.047H67.23v-2.95h2.823V17.047z M70.054,34.46H67.23V18.993h2.823V34.46z"/>
		<path fill="#005B94" d="M63.474,27.964v-6.976c0-4.084-2.734-6.892-7.956-6.892c-5.108,0-8.006,2.76-8.006,6.892v6.976
			c0,4.133,2.897,6.893,8.006,6.893c1.583,0,2.938-0.261,4.057-0.735l1.954,1.956l1.539-1.548l-1.601-1.601
			C62.794,31.718,63.474,30,63.474,27.964z M57.056,28.518l-1.538,1.547l2.468,2.468c-0.65,0.233-1.461,0.359-2.473,0.359
			c-5.434,0-5.107-3.615-5.107-8.361c0-4.775-0.326-8.467,5.107-8.467s5.064,3.693,5.064,8.467c0,2.782,0.123,5.159-0.848,6.661
			L57.056,28.518z"/>
	</g>
	<g>
		<path fill="#005B94" d="M150.871,28.182c-0.99,0.202-1.878,0.303-2.667,0.303c-0.788,0-1.424-0.108-1.91-0.324
			s-0.86-0.552-1.124-1.009s-0.447-0.98-0.548-1.571c-0.101-0.591-0.151-1.329-0.151-2.212s0.051-1.626,0.151-2.227
			c0.101-0.6,0.284-1.131,0.548-1.592c0.264-0.461,0.636-0.797,1.117-1.009c0.48-0.211,1.104-0.317,1.874-0.317
			c0.769,0,1.672,0.106,2.709,0.317l-0.043,0.937c-0.97-0.173-1.835-0.259-2.594-0.259c-1.057,0-1.756,0.315-2.097,0.944
			c-0.341,0.629-0.512,1.703-0.512,3.221c0,0.759,0.031,1.369,0.094,1.831c0.062,0.461,0.185,0.877,0.367,1.247
			c0.183,0.37,0.449,0.634,0.8,0.792c0.351,0.159,0.864,0.238,1.542,0.238c0.677,0,1.477-0.087,2.399-0.26L150.871,28.182z"/>
		<path fill="#005B94" d="M156.837,21.134h1.081v7.206h-1.081v-0.504c-0.72,0.432-1.432,0.648-2.133,0.648
			c-0.98,0-1.631-0.254-1.953-0.764s-0.482-1.451-0.482-2.825v-3.762h1.081v3.747c0,1.047,0.091,1.749,0.274,2.104
			c0.183,0.356,0.596,0.534,1.24,0.534c0.317,0,0.639-0.046,0.965-0.137s0.577-0.18,0.75-0.267l0.259-0.13V21.134z"/>
		<path fill="#005B94" d="M159.994,28.34v-7.206h1.066v0.98c0.836-0.577,1.715-0.956,2.638-1.139v1.095
			c-0.404,0.077-0.824,0.197-1.261,0.36c-0.437,0.164-0.771,0.308-1.001,0.433l-0.36,0.187v5.29H159.994z"/>
		<path fill="#005B94" d="M167.243,21.956c-1.047,0-1.571,0.365-1.571,1.095c0,0.336,0.12,0.574,0.36,0.713
			c0.24,0.14,0.788,0.284,1.643,0.433c0.855,0.149,1.46,0.358,1.816,0.627s0.533,0.773,0.533,1.513c0,0.74-0.238,1.283-0.713,1.629
			c-0.476,0.346-1.17,0.519-2.083,0.519c-0.596,0-1.297-0.067-2.104-0.202l-0.432-0.072l0.058-0.937
			c1.095,0.164,1.921,0.245,2.479,0.245c0.557,0,0.982-0.089,1.275-0.267c0.293-0.177,0.439-0.476,0.439-0.894
			s-0.125-0.701-0.375-0.85c-0.25-0.149-0.798-0.291-1.643-0.425c-0.846-0.134-1.446-0.332-1.802-0.591s-0.533-0.74-0.533-1.441
			c0-0.701,0.248-1.22,0.742-1.556c0.495-0.336,1.112-0.504,1.852-0.504c0.586,0,1.321,0.067,2.205,0.202l0.404,0.072l-0.029,0.922
			C168.699,22.033,167.858,21.956,167.243,21.956z"/>
		<path fill="#005B94" d="M171.365,24.723c0-1.316,0.235-2.267,0.706-2.854c0.471-0.586,1.266-0.879,2.385-0.879
			s1.912,0.293,2.378,0.879c0.466,0.586,0.699,1.538,0.699,2.854c0,1.316-0.221,2.272-0.663,2.868s-1.249,0.894-2.421,0.894
			s-1.979-0.298-2.421-0.894C171.586,26.995,171.365,26.039,171.365,24.723z M172.475,24.701c0,1.052,0.127,1.79,0.382,2.212
			c0.254,0.423,0.788,0.634,1.6,0.634s1.343-0.209,1.593-0.627c0.25-0.418,0.375-1.155,0.375-2.212s-0.139-1.785-0.418-2.184
			c-0.279-0.398-0.795-0.598-1.549-0.598s-1.273,0.2-1.557,0.598C172.617,22.924,172.475,23.649,172.475,24.701z"/>
		<path fill="#005B94" d="M181.555,21.956c-1.047,0-1.571,0.365-1.571,1.095c0,0.336,0.12,0.574,0.36,0.713
			c0.24,0.14,0.788,0.284,1.643,0.433c0.855,0.149,1.46,0.358,1.816,0.627s0.533,0.773,0.533,1.513c0,0.74-0.238,1.283-0.713,1.629
			c-0.476,0.346-1.17,0.519-2.083,0.519c-0.596,0-1.297-0.067-2.104-0.202l-0.432-0.072l0.058-0.937
			c1.095,0.164,1.921,0.245,2.479,0.245c0.557,0,0.982-0.089,1.275-0.267c0.293-0.177,0.439-0.476,0.439-0.894
			s-0.125-0.701-0.375-0.85c-0.25-0.149-0.798-0.291-1.643-0.425c-0.846-0.134-1.446-0.332-1.802-0.591s-0.533-0.74-0.533-1.441
			c0-0.701,0.248-1.22,0.742-1.556c0.495-0.336,1.112-0.504,1.852-0.504c0.586,0,1.321,0.067,2.205,0.202l0.404,0.072l-0.029,0.922
			C183.01,22.033,182.169,21.956,181.555,21.956z"/>
		<path fill="#005B94" d="M194.252,23.311V27c0.029,0.355,0.307,0.567,0.836,0.634l-0.043,0.85c-0.759,0-1.331-0.192-1.715-0.576
			c-0.865,0.384-1.729,0.576-2.594,0.576c-0.663,0-1.167-0.188-1.513-0.562c-0.346-0.375-0.519-0.913-0.519-1.614
			c0-0.701,0.178-1.218,0.533-1.549s0.913-0.536,1.672-0.612l2.263-0.216v-0.62c0-0.49-0.106-0.841-0.317-1.052
			s-0.5-0.317-0.865-0.317c-0.769,0-1.566,0.048-2.392,0.144l-0.447,0.043l-0.043-0.821c1.057-0.211,1.994-0.317,2.811-0.317
			c0.816,0,1.41,0.187,1.78,0.562C194.066,21.927,194.252,22.513,194.252,23.311z M189.812,26.25c0,0.884,0.365,1.326,1.096,1.326
			c0.653,0,1.297-0.11,1.931-0.332l0.332-0.115v-2.378l-2.133,0.202c-0.432,0.038-0.745,0.163-0.937,0.375
			C189.909,25.54,189.812,25.847,189.812,26.25z"/>
		<path fill="#005B94" d="M196.385,31.54V21.134h1.066v0.519c0.73-0.442,1.451-0.663,2.162-0.663c0.913,0,1.576,0.291,1.989,0.872
			c0.413,0.582,0.62,1.54,0.62,2.875s-0.243,2.294-0.728,2.875c-0.485,0.582-1.29,0.872-2.414,0.872
			c-0.586,0-1.125-0.053-1.614-0.159v3.214H196.385z M199.455,21.956c-0.288,0-0.598,0.048-0.93,0.144
			c-0.331,0.096-0.593,0.192-0.785,0.289l-0.274,0.144v4.857c0.682,0.106,1.201,0.159,1.557,0.159c0.778,0,1.323-0.221,1.636-0.663
			c0.312-0.442,0.468-1.163,0.468-2.162c0-0.999-0.142-1.71-0.425-2.133C200.418,22.167,200.002,21.956,199.455,21.956z"/>
		<path fill="#005B94" d="M204.066,28.34V17.992h1.081V28.34H204.066z"/>
		<path fill="#005B94" d="M207.309,19.505v-1.254h1.081v1.254H207.309z M207.309,28.34v-7.206h1.081v7.206H207.309z"/>
		<path fill="#005B94" d="M213.161,20.99c0.317,0,0.855,0.058,1.614,0.173l0.346,0.043l-0.043,0.879
			c-0.769-0.086-1.335-0.13-1.7-0.13c-0.817,0-1.372,0.195-1.665,0.584s-0.439,1.109-0.439,2.162s0.137,1.785,0.411,2.198
			c0.274,0.414,0.843,0.62,1.708,0.62l1.701-0.13l0.043,0.894c-0.894,0.134-1.562,0.202-2.003,0.202c-1.125,0-1.9-0.288-2.328-0.865
			c-0.428-0.576-0.642-1.549-0.642-2.918s0.231-2.33,0.692-2.882C211.316,21.266,212.084,20.99,213.161,20.99z"/>
		<path fill="#005B94" d="M221.836,23.311V27c0.029,0.355,0.307,0.567,0.836,0.634l-0.043,0.85c-0.759,0-1.331-0.192-1.715-0.576
			c-0.865,0.384-1.729,0.576-2.594,0.576c-0.663,0-1.167-0.188-1.513-0.562c-0.346-0.375-0.519-0.913-0.519-1.614
			c0-0.701,0.178-1.218,0.533-1.549s0.913-0.536,1.672-0.612l2.263-0.216v-0.62c0-0.49-0.106-0.841-0.317-1.052
			s-0.5-0.317-0.865-0.317c-0.769,0-1.566,0.048-2.392,0.144l-0.447,0.043l-0.043-0.821c1.057-0.211,1.994-0.317,2.811-0.317
			c0.816,0,1.41,0.187,1.78,0.562C221.651,21.927,221.836,22.513,221.836,23.311z M217.397,26.25c0,0.884,0.365,1.326,1.096,1.326
			c0.653,0,1.297-0.11,1.931-0.332l0.332-0.115v-2.378l-2.133,0.202c-0.432,0.038-0.745,0.163-0.937,0.375
			C217.493,25.54,217.397,25.847,217.397,26.25z"/>
		<path fill="#005B94" d="M229.504,17.992V28.34h-1.067v-0.49c-0.74,0.423-1.47,0.634-2.19,0.634c-0.384,0-0.721-0.048-1.009-0.144
			c-0.289-0.096-0.558-0.269-0.807-0.519c-0.519-0.519-0.778-1.477-0.778-2.875s0.233-2.407,0.699-3.027
			c0.466-0.62,1.237-0.929,2.313-0.929c0.557,0,1.148,0.062,1.772,0.187v-3.185H229.504z M225.756,27.418
			c0.173,0.067,0.396,0.101,0.67,0.101s0.581-0.046,0.922-0.137c0.341-0.091,0.607-0.18,0.8-0.267l0.288-0.13V22.1
			c-0.615-0.115-1.187-0.173-1.715-0.173c-0.73,0-1.24,0.233-1.528,0.699c-0.288,0.466-0.432,1.189-0.432,2.169
			c0,1.115,0.168,1.864,0.504,2.249C225.42,27.226,225.583,27.351,225.756,27.418z"/>
		<path fill="#005B94" d="M231.276,24.723c0-1.316,0.235-2.267,0.706-2.854c0.471-0.586,1.266-0.879,2.385-0.879
			s1.912,0.293,2.378,0.879c0.466,0.586,0.699,1.538,0.699,2.854c0,1.316-0.221,2.272-0.663,2.868s-1.249,0.894-2.421,0.894
			s-1.979-0.298-2.421-0.894C231.497,26.995,231.276,26.039,231.276,24.723z M232.386,24.701c0,1.052,0.127,1.79,0.382,2.212
			c0.254,0.423,0.788,0.634,1.6,0.634s1.343-0.209,1.593-0.627c0.25-0.418,0.375-1.155,0.375-2.212s-0.139-1.785-0.418-2.184
			c-0.279-0.398-0.795-0.598-1.549-0.598s-1.273,0.2-1.557,0.598C232.528,22.924,232.386,23.649,232.386,24.701z"/>
		<path fill="#005B94" d="M241.466,21.956c-1.047,0-1.571,0.365-1.571,1.095c0,0.336,0.12,0.574,0.36,0.713
			c0.24,0.14,0.788,0.284,1.643,0.433c0.855,0.149,1.46,0.358,1.816,0.627s0.533,0.773,0.533,1.513c0,0.74-0.238,1.283-0.713,1.629
			c-0.476,0.346-1.17,0.519-2.083,0.519c-0.596,0-1.297-0.067-2.104-0.202l-0.432-0.072l0.058-0.937
			c1.095,0.164,1.921,0.245,2.479,0.245c0.557,0,0.982-0.089,1.275-0.267c0.293-0.177,0.439-0.476,0.439-0.894
			s-0.125-0.701-0.375-0.85c-0.25-0.149-0.798-0.291-1.643-0.425c-0.846-0.134-1.446-0.332-1.802-0.591s-0.533-0.74-0.533-1.441
			c0-0.701,0.248-1.22,0.742-1.556c0.495-0.336,1.112-0.504,1.852-0.504c0.586,0,1.321,0.067,2.205,0.202l0.404,0.072l-0.029,0.922
			C242.921,22.033,242.081,21.956,241.466,21.956z"/>
		<path fill="#005B94" d="M254.163,23.311V27c0.029,0.355,0.307,0.567,0.836,0.634l-0.043,0.85c-0.759,0-1.331-0.192-1.715-0.576
			c-0.865,0.384-1.729,0.576-2.594,0.576c-0.663,0-1.167-0.188-1.513-0.562c-0.346-0.375-0.519-0.913-0.519-1.614
			c0-0.701,0.178-1.218,0.533-1.549s0.913-0.536,1.672-0.612l2.263-0.216v-0.62c0-0.49-0.106-0.841-0.317-1.052
			s-0.5-0.317-0.865-0.317c-0.769,0-1.566,0.048-2.392,0.144l-0.447,0.043l-0.043-0.821c1.057-0.211,1.994-0.317,2.811-0.317
			c0.816,0,1.41,0.187,1.78,0.562C253.978,21.927,254.163,22.513,254.163,23.311z M249.724,26.25c0,0.884,0.365,1.326,1.096,1.326
			c0.653,0,1.297-0.11,1.931-0.332l0.332-0.115v-2.378l-2.133,0.202c-0.432,0.038-0.745,0.163-0.937,0.375
			C249.82,25.54,249.724,25.847,249.724,26.25z M250.156,17.675l3.113,1.412l-0.303,0.735l-3.185-1.225L250.156,17.675z"/>
		<path fill="#005B94" d="M264.367,27.447l0.418-0.043l0.029,0.851c-1.095,0.153-2.032,0.23-2.811,0.23
			c-1.038,0-1.772-0.3-2.205-0.901c-0.432-0.6-0.648-1.535-0.648-2.803c0-2.527,1.004-3.79,3.012-3.79
			c0.97,0,1.696,0.271,2.176,0.814c0.48,0.543,0.721,1.396,0.721,2.558l-0.058,0.822h-4.756c0,0.797,0.144,1.389,0.433,1.772
			c0.288,0.385,0.79,0.577,1.506,0.577S263.626,27.504,264.367,27.447z M263.978,24.319c0-0.884-0.142-1.508-0.425-1.874
			c-0.284-0.365-0.745-0.548-1.383-0.548c-0.639,0-1.12,0.192-1.441,0.577c-0.322,0.384-0.488,1-0.497,1.845H263.978z"/>
		<path fill="#005B94" d="M267.825,28.34h-1.081v-7.206h1.066v0.504c0.778-0.433,1.523-0.648,2.234-0.648
			c0.961,0,1.607,0.259,1.938,0.778c0.332,0.519,0.498,1.441,0.498,2.768v3.805h-1.066v-3.776c0-1-0.099-1.684-0.296-2.054
			c-0.197-0.37-0.617-0.555-1.261-0.555c-0.308,0-0.632,0.046-0.973,0.137c-0.341,0.091-0.603,0.18-0.785,0.267l-0.274,0.129V28.34z
			"/>
		<path fill="#005B94" d="M277.265,31.727c-1.153,0-1.958-0.156-2.414-0.468c-0.457-0.312-0.685-0.881-0.685-1.708
			c0-0.394,0.086-0.713,0.259-0.958c0.173-0.245,0.466-0.521,0.879-0.829c-0.269-0.182-0.404-0.514-0.404-0.994
			c0-0.164,0.12-0.466,0.36-0.908l0.13-0.23c-0.759-0.346-1.139-1.071-1.139-2.176c0-1.643,0.898-2.464,2.695-2.464
			c0.461,0,0.888,0.048,1.283,0.144l0.216,0.043l2.133-0.058v0.922l-1.369-0.029c0.317,0.317,0.476,0.798,0.476,1.441
			c0,0.903-0.224,1.535-0.67,1.895s-1.151,0.541-2.111,0.541c-0.259,0-0.495-0.019-0.706-0.058c-0.173,0.423-0.26,0.697-0.26,0.822
			c0,0.298,0.091,0.482,0.274,0.555s0.735,0.108,1.658,0.108s1.585,0.144,1.989,0.433c0.403,0.288,0.605,0.85,0.605,1.686
			C280.465,30.963,279.398,31.727,277.265,31.727z M275.233,29.464c0,0.509,0.142,0.862,0.425,1.06
			c0.283,0.197,0.807,0.295,1.571,0.295s1.312-0.106,1.643-0.317s0.497-0.564,0.497-1.059c0-0.495-0.12-0.814-0.36-0.958
			s-0.711-0.216-1.412-0.216l-1.557-0.072c-0.317,0.23-0.531,0.432-0.642,0.605C275.288,28.975,275.233,29.195,275.233,29.464z
			 M275.334,23.455c0,0.567,0.127,0.971,0.382,1.21c0.254,0.24,0.675,0.36,1.261,0.36c0.586,0,1.004-0.12,1.254-0.36
			c0.25-0.24,0.375-0.646,0.375-1.218c0-0.571-0.125-0.978-0.375-1.218c-0.25-0.24-0.668-0.36-1.254-0.36
			c-0.586,0-1.007,0.123-1.261,0.368C275.461,22.482,275.334,22.888,275.334,23.455z"/>
		<path fill="#005B94" d="M286.792,27.447l0.418-0.043l0.029,0.851c-1.095,0.153-2.032,0.23-2.811,0.23
			c-1.038,0-1.772-0.3-2.205-0.901c-0.432-0.6-0.648-1.535-0.648-2.803c0-2.527,1.004-3.79,3.012-3.79
			c0.97,0,1.696,0.271,2.176,0.814c0.48,0.543,0.721,1.396,0.721,2.558l-0.058,0.822h-4.756c0,0.797,0.144,1.389,0.433,1.772
			c0.288,0.385,0.79,0.577,1.506,0.577S286.052,27.504,286.792,27.447z M286.403,24.319c0-0.884-0.142-1.508-0.425-1.874
			c-0.284-0.365-0.745-0.548-1.383-0.548c-0.639,0-1.12,0.192-1.441,0.577c-0.322,0.384-0.488,1-0.497,1.845H286.403z"/>
		<path fill="#005B94" d="M290.25,28.34h-1.081v-7.206h1.066v0.504c0.778-0.433,1.523-0.648,2.234-0.648
			c0.961,0,1.607,0.259,1.938,0.778c0.332,0.519,0.498,1.441,0.498,2.768v3.805h-1.066v-3.776c0-1-0.099-1.684-0.296-2.054
			c-0.197-0.37-0.617-0.555-1.261-0.555c-0.308,0-0.632,0.046-0.973,0.137c-0.341,0.091-0.603,0.18-0.785,0.267l-0.274,0.129V28.34z
			"/>
		<path fill="#005B94" d="M297.99,28.34h-1.081V17.992h1.081v3.545c0.769-0.365,1.508-0.547,2.219-0.547
			c0.961,0,1.607,0.259,1.938,0.778c0.332,0.519,0.498,1.441,0.498,2.768v3.805h-1.081v-3.776c0-1-0.099-1.684-0.295-2.054
			c-0.197-0.37-0.612-0.555-1.247-0.555c-0.605,0-1.191,0.111-1.758,0.332l-0.274,0.101V28.34z"/>
		<path fill="#005B94" d="M309.736,23.311V27c0.029,0.355,0.307,0.567,0.836,0.634l-0.043,0.85c-0.759,0-1.331-0.192-1.715-0.576
			c-0.865,0.384-1.729,0.576-2.594,0.576c-0.663,0-1.167-0.188-1.513-0.562c-0.346-0.375-0.519-0.913-0.519-1.614
			c0-0.701,0.178-1.218,0.533-1.549s0.913-0.536,1.672-0.612l2.263-0.216v-0.62c0-0.49-0.106-0.841-0.317-1.052
			s-0.5-0.317-0.865-0.317c-0.769,0-1.566,0.048-2.392,0.144l-0.447,0.043l-0.043-0.821c1.057-0.211,1.994-0.317,2.811-0.317
			c0.816,0,1.41,0.187,1.78,0.562C309.55,21.927,309.736,22.513,309.736,23.311z M305.296,26.25c0,0.884,0.365,1.326,1.096,1.326
			c0.653,0,1.297-0.11,1.931-0.332l0.332-0.115v-2.378l-2.133,0.202c-0.432,0.038-0.745,0.163-0.937,0.375
			C305.393,25.54,305.296,25.847,305.296,26.25z"/>
		<path fill="#005B94" d="M311.869,28.34v-7.206h1.066v0.98c0.836-0.577,1.715-0.956,2.638-1.139v1.095
			c-0.404,0.077-0.824,0.197-1.261,0.36c-0.437,0.164-0.771,0.308-1.001,0.433l-0.36,0.187v5.29H311.869z"/>
		<path fill="#005B94" d="M316.855,19.505v-1.254h1.081v1.254H316.855z M316.855,28.34v-7.206h1.081v7.206H316.855z"/>
		<path fill="#005B94" d="M325.099,23.311V27c0.029,0.355,0.307,0.567,0.836,0.634l-0.043,0.85c-0.759,0-1.331-0.192-1.715-0.576
			c-0.865,0.384-1.729,0.576-2.594,0.576c-0.663,0-1.167-0.188-1.513-0.562c-0.346-0.375-0.519-0.913-0.519-1.614
			c0-0.701,0.178-1.218,0.533-1.549s0.913-0.536,1.672-0.612l2.263-0.216v-0.62c0-0.49-0.106-0.841-0.317-1.052
			s-0.5-0.317-0.865-0.317c-0.769,0-1.566,0.048-2.392,0.144l-0.447,0.043l-0.043-0.821c1.057-0.211,1.994-0.317,2.811-0.317
			c0.816,0,1.41,0.187,1.78,0.562C324.914,21.927,325.099,22.513,325.099,23.311z M320.66,26.25c0,0.884,0.365,1.326,1.096,1.326
			c0.653,0,1.297-0.11,1.931-0.332l0.332-0.115v-2.378l-2.133,0.202c-0.432,0.038-0.745,0.163-0.937,0.375
			C320.756,25.54,320.66,25.847,320.66,26.25z"/>
		<path fill="#005B94" d="M335.303,27.447l0.418-0.043l0.029,0.851c-1.095,0.153-2.032,0.23-2.811,0.23
			c-1.038,0-1.772-0.3-2.205-0.901c-0.432-0.6-0.648-1.535-0.648-2.803c0-2.527,1.004-3.79,3.012-3.79
			c0.97,0,1.696,0.271,2.176,0.814c0.48,0.543,0.721,1.396,0.721,2.558l-0.058,0.822h-4.756c0,0.797,0.144,1.389,0.433,1.772
			c0.288,0.385,0.79,0.577,1.506,0.577S334.562,27.504,335.303,27.447z M334.914,24.319c0-0.884-0.142-1.508-0.425-1.874
			c-0.284-0.365-0.745-0.548-1.383-0.548c-0.639,0-1.12,0.192-1.441,0.577c-0.322,0.384-0.488,1-0.497,1.845H334.914z"/>
		<path fill="#005B94" d="M345.939,23.311V27c0.029,0.355,0.307,0.567,0.836,0.634l-0.043,0.85c-0.759,0-1.331-0.192-1.715-0.576
			c-0.865,0.384-1.729,0.576-2.594,0.576c-0.663,0-1.167-0.188-1.513-0.562c-0.346-0.375-0.519-0.913-0.519-1.614
			c0-0.701,0.178-1.218,0.533-1.549s0.913-0.536,1.672-0.612l2.263-0.216v-0.62c0-0.49-0.106-0.841-0.317-1.052
			s-0.5-0.317-0.865-0.317c-0.769,0-1.566,0.048-2.392,0.144l-0.447,0.043l-0.043-0.821c1.057-0.211,1.994-0.317,2.811-0.317
			c0.816,0,1.41,0.187,1.78,0.562C345.753,21.927,345.939,22.513,345.939,23.311z M341.5,26.25c0,0.884,0.365,1.326,1.096,1.326
			c0.653,0,1.297-0.11,1.931-0.332l0.332-0.115v-2.378l-2.133,0.202c-0.432,0.038-0.745,0.163-0.937,0.375
			C341.596,25.54,341.5,25.847,341.5,26.25z"/>
		<path fill="#005B94" d="M348.071,28.34v-7.206h1.066v0.98c0.836-0.577,1.715-0.956,2.638-1.139v1.095
			c-0.404,0.077-0.824,0.197-1.261,0.36c-0.437,0.164-0.771,0.308-1.001,0.433l-0.36,0.187v5.29H348.071z"/>
		<path fill="#005B94" d="M355.263,28.484c-0.971,0-1.665-0.283-2.083-0.85s-0.627-1.528-0.627-2.883c0-1.354,0.25-2.32,0.75-2.896
			c0.5-0.577,1.383-0.865,2.652-0.865l2.407,0.144V31.54h-1.066v-3.531C356.623,28.326,355.945,28.484,355.263,28.484z
			 M355.969,21.927c-0.903,0-1.516,0.226-1.837,0.677c-0.322,0.452-0.483,1.17-0.483,2.155s0.132,1.691,0.396,2.119
			c0.264,0.428,0.708,0.642,1.333,0.642c0.557,0,1.11-0.106,1.657-0.317l0.26-0.101v-5.088
			C356.699,21.956,356.258,21.927,355.969,21.927z"/>
		<path fill="#005B94" d="M364.948,21.134h1.081v7.206h-1.081v-0.504c-0.72,0.432-1.432,0.648-2.133,0.648
			c-0.98,0-1.631-0.254-1.953-0.764s-0.482-1.451-0.482-2.825v-3.762h1.081v3.747c0,1.047,0.091,1.749,0.274,2.104
			c0.183,0.356,0.596,0.534,1.24,0.534c0.317,0,0.639-0.046,0.965-0.137s0.577-0.18,0.75-0.267l0.259-0.13V21.134z"/>
		<path fill="#005B94" d="M368.104,19.505v-1.254h1.081v1.254H368.104z M368.104,28.34v-7.206h1.081v7.206H368.104z"/>
		<path fill="#005B94" d="M374.994,22.071h-2.292v3.445c0,0.826,0.06,1.369,0.18,1.628s0.406,0.389,0.857,0.389l1.283-0.086
			l0.072,0.894c-0.644,0.105-1.134,0.159-1.47,0.159c-0.75,0-1.269-0.183-1.557-0.548s-0.432-1.062-0.432-2.09v-3.791h-1.023v-0.937
			h1.023v-2.205h1.066v2.205h2.292V22.071z"/>
		<path fill="#005B94" d="M381.22,27.447l0.418-0.043l0.029,0.851c-1.095,0.153-2.032,0.23-2.811,0.23
			c-1.038,0-1.772-0.3-2.205-0.901c-0.432-0.6-0.648-1.535-0.648-2.803c0-2.527,1.004-3.79,3.012-3.79
			c0.97,0,1.696,0.271,2.176,0.814c0.48,0.543,0.721,1.396,0.721,2.558l-0.058,0.822h-4.756c0,0.797,0.144,1.389,0.433,1.772
			c0.288,0.385,0.79,0.577,1.506,0.577S380.479,27.504,381.22,27.447z M380.831,24.319c0-0.884-0.142-1.508-0.425-1.874
			c-0.284-0.365-0.745-0.548-1.383-0.548c-0.639,0-1.12,0.192-1.441,0.577c-0.322,0.384-0.488,1-0.497,1.845H380.831z"/>
		<path fill="#005B94" d="M387.287,22.071h-2.292v3.445c0,0.826,0.06,1.369,0.18,1.628s0.406,0.389,0.857,0.389l1.283-0.086
			l0.072,0.894c-0.644,0.105-1.134,0.159-1.47,0.159c-0.75,0-1.269-0.183-1.557-0.548s-0.432-1.062-0.432-2.09v-3.791h-1.023v-0.937
			h1.023v-2.205h1.066v2.205h2.292V22.071z"/>
		<path fill="#005B94" d="M393.109,21.134h1.081v7.206h-1.081v-0.504c-0.72,0.432-1.432,0.648-2.133,0.648
			c-0.98,0-1.631-0.254-1.953-0.764s-0.482-1.451-0.482-2.825v-3.762h1.081v3.747c0,1.047,0.091,1.749,0.274,2.104
			c0.183,0.356,0.596,0.534,1.24,0.534c0.317,0,0.639-0.046,0.965-0.137s0.577-0.18,0.75-0.267l0.259-0.13V21.134z"/>
		<path fill="#005B94" d="M396.266,28.34v-7.206h1.066v0.98c0.836-0.577,1.715-0.956,2.638-1.139v1.095
			c-0.404,0.077-0.824,0.197-1.261,0.36c-0.437,0.164-0.771,0.308-1.001,0.433l-0.36,0.187v5.29H396.266z"/>
		<path fill="#005B94" d="M406.34,23.311V27c0.029,0.355,0.308,0.567,0.836,0.634l-0.043,0.85c-0.759,0-1.331-0.192-1.715-0.576
			c-0.865,0.384-1.729,0.576-2.595,0.576c-0.663,0-1.167-0.188-1.513-0.562c-0.347-0.375-0.52-0.913-0.52-1.614
			c0-0.701,0.178-1.218,0.533-1.549s0.913-0.536,1.672-0.612l2.263-0.216v-0.62c0-0.49-0.105-0.841-0.316-1.052
			c-0.212-0.211-0.5-0.317-0.865-0.317c-0.769,0-1.566,0.048-2.393,0.144l-0.446,0.043l-0.043-0.821
			c1.057-0.211,1.993-0.317,2.81-0.317c0.817,0,1.41,0.187,1.78,0.562C406.155,21.927,406.34,22.513,406.34,23.311z M401.901,26.25
			c0,0.884,0.365,1.326,1.095,1.326c0.653,0,1.298-0.11,1.932-0.332l0.331-0.115v-2.378l-2.133,0.202
			c-0.433,0.038-0.744,0.163-0.937,0.375S401.901,25.847,401.901,26.25z"/>
	</g>
</g>
</svg>
