<?xml version="1.0" encoding="utf-8"?>
<!-- Generator: Adobe Illustrator 16.0.0, SVG Export Plug-In . SVG Version: 6.00 Build 0)  -->
<!DOCTYPE svg PUBLIC "-//W3C//DTD SVG 1.1//EN" "http://www.w3.org/Graphics/SVG/1.1/DTD/svg11.dtd">
<svg version="1.1" id="Camada_1" xmlns="http://www.w3.org/2000/svg" xmlns:xlink="http://www.w3.org/1999/xlink" x="0px" y="0px"
	 width="117px" height="38.5px" viewBox="0 0 117 38.5" enable-background="new 0 0 117 38.5" xml:space="preserve">
<g id="Logo_Correta_6_">
	<g>
		<path fill="#373F44" d="M66.853,33.559c-2.638-0.729-4.994-1.541-7.383-2.441c-0.392-0.168-0.813-0.252-1.235-0.277
			c-4.378-0.227-8.283-3.457-8.283-9.605c0-5.836,3.623-9.938,9.041-9.938c5.473,0,8.73,4.212,8.73,9.545
			c0,4.547-2.104,7.609-4.884,8.732v0.107c1.628,0.451,3.45,0.846,4.999,1.127L66.853,33.559z M58.851,28.057
			c3.314,0,5.224-3.086,5.224-7.045c0-3.594-1.771-6.936-5.195-6.936c-3.451,0-5.275,3.286-5.275,7.077s1.938,6.904,5.219,6.904
			H58.851z"/>
		<path fill="#373F44" d="M71.762,14.89c-1.147,0-1.903-0.843-1.903-1.852c0-1.065,0.785-1.881,1.935-1.881
			c1.177,0,1.907,0.813,1.936,1.881c0,1.008-0.757,1.852-1.936,1.852H71.762z M70.053,16.855h3.45v13.674h-3.45V16.855z"/>
		<path fill="#373F44" d="M76.821,26.764c1.095,0.646,2.806,1.211,4.576,1.211c2.188,0,3.426-1.039,3.426-2.582
			c0-1.432-0.954-2.275-3.339-3.145c-3.145-1.094-5.141-2.779-5.141-5.479c0-3.117,2.585-5.444,6.709-5.444
			c2.051,0,3.539,0.445,4.52,0.924l-0.815,2.809c-0.699-0.367-2.018-0.897-3.784-0.897c-2.193,0-3.121,1.149-3.121,2.275
			c0,1.457,1.096,2.129,3.622,3.084c3.282,1.271,4.858,2.925,4.858,5.614c0,3.059-2.304,5.674-7.162,5.674
			c-2.021,0-4.099-0.563-5.137-1.184L76.821,26.764z"/>
		<path fill="#373F44" d="M101.581,27.246c0,1.232,0.059,2.436,0.226,3.281h-3.118l-0.248-1.516h-0.09
			c-0.812,1.064-2.243,1.828-4.041,1.828c-2.752,0-4.295-1.994-4.295-4.076c0-3.424,3.061-5.193,8.113-5.166v-0.221
			c0-0.896-0.366-2.389-2.779-2.389c-1.347,0-2.754,0.424-3.681,1.008l-0.671-2.244c1.01-0.621,2.776-1.208,4.941-1.208
			c4.384,0,5.643,2.778,5.643,5.781V27.246L101.581,27.246z M98.214,23.846c-2.445-0.027-4.773,0.479-4.773,2.553
			c0,1.352,0.869,1.969,1.963,1.969c1.407,0,2.389-0.898,2.722-1.883c0.089-0.25,0.089-0.502,0.089-0.76V23.846L98.214,23.846z"/>
		<path fill="#373F44" d="M108.518,13.347v3.509h3.284v2.581h-3.284v6.012c0,1.682,0.451,2.525,1.771,2.525
			c0.614,0,0.953-0.031,1.347-0.139l0.058,2.609c-0.506,0.197-1.435,0.363-2.499,0.363c-1.292,0-2.33-0.422-2.975-1.127
			c-0.757-0.787-1.099-2.047-1.099-3.842v-6.405h-1.934v-2.579h1.934v-2.555L108.518,13.347z"/>
	</g>
	<g>
		<polygon fill="#E3E5E8" points="28.799,1.245 12.438,1.245 0.428,19.276 1.025,20.152 17.367,20.152 16.771,19.264 		"/>
		<polygon fill="#C0CBCF" points="28.799,37.279 12.438,37.279 0.428,19.264 16.771,19.264 16.771,19.258 		"/>
		<polygon fill="#0B8D87" points="12.421,1.245 28.78,1.245 40.792,19.258 40.202,20.152 23.854,20.152 24.449,19.258 
			24.449,19.264 		"/>
		<polygon fill="#1B5485" points="12.421,37.279 28.78,37.279 40.792,19.264 24.449,19.264 24.449,19.258 		"/>
		<polygon fill="#0B8D87" points="11.448,22.418 8.581,22.418 10.687,19.261 8.581,16.109 11.448,16.109 13.554,19.266 		"/>
		<polygon fill="#1B5485" points="17.629,23.754 13.554,23.754 16.546,19.269 13.554,14.789 17.629,14.789 20.621,19.276 		"/>
	</g>
</g>
</svg>
