<?xml version="1.0" encoding="utf-8"?>
<!-- Generator: Adobe Illustrator 16.0.0, SVG Export Plug-In . SVG Version: 6.00 Build 0)  -->
<!DOCTYPE svg PUBLIC "-//W3C//DTD SVG 1.1//EN" "http://www.w3.org/Graphics/SVG/1.1/DTD/svg11.dtd">
<svg version="1.1" id="Camada_1" xmlns="http://www.w3.org/2000/svg" xmlns:xlink="http://www.w3.org/1999/xlink" x="0px" y="0px"
	 width="117px" height="38.5px" viewBox="0 0 117 38.5" enable-background="new 0 0 117 38.5" xml:space="preserve">
<g>
	<g>
		<polygon fill="#556770" points="0.167,17.651 15.431,17.651 26.637,34.459 11.391,34.459 11.386,34.465 		"/>
		<polygon opacity="0.6" fill="#556770" points="26.667,0.834 11.402,0.834 0.194,17.642 15.442,17.642 15.446,17.648 		"/>
		<polygon fill="#005B94" points="37.882,17.651 22.617,17.651 11.411,34.459 26.658,34.459 26.662,34.465 		"/>
		<polygon fill="#28B67C" points="11.382,0.834 26.646,0.834 37.853,17.642 22.605,17.642 22.602,17.648 		"/>
		<g>
			<polygon fill="#005B94" points="16.216,21.852 19.023,17.656 15.249,17.656 12.443,21.852 			"/>
			<polygon fill="#005B94" points="16.209,13.443 19.023,17.656 15.251,17.656 12.443,13.443 			"/>
		</g>
		<g>
			<polygon fill="#28B67C" points="10.477,20.594 12.443,17.656 9.801,17.656 7.838,20.594 			"/>
			<polygon fill="#28B67C" points="10.474,14.708 12.443,17.656 9.803,17.656 7.838,14.708 			"/>
		</g>
	</g>
	<g>
		<path fill="#005B94" d="M86.343,24.51c-0.874-0.745-2.301-1.329-4.361-1.791c-1.959-0.434-3.271-0.871-3.898-1.296
			c-0.579-0.396-0.872-1.155-0.872-2.258c0-1.996,1.314-2.967,4.019-2.967c1.087,0,2.963,0.162,5.575,0.482l0.251,0.03l0.252-2.339
			l-1.203-0.178c-1.937-0.285-3.625-0.43-5.018-0.43c-4.374,0-6.594,1.865-6.594,5.542c0,1.836,0.502,3.168,1.488,3.963
			c0.955,0.771,2.578,1.405,4.832,1.886c1.642,0.316,2.771,0.696,3.354,1.136c0.548,0.414,0.826,1.118,0.826,2.094
			c0,2.494-1.297,3.705-3.963,3.705c-1.33,0-3.301-0.171-5.856-0.509l-0.25-0.034l-0.289,2.313l1.265,0.177
			c2.09,0.322,3.854,0.485,5.243,0.485c4.339,0,6.539-2.124,6.539-6.309C87.683,26.514,87.232,25.268,86.343,24.51z"/>
		<path fill="#005B94" d="M102.212,33.537c-0.145-1.632-0.23-3.515-0.23-5.036v-4.556c0-3.655-1.86-5.285-6.031-5.285
			c-2.161,0-4.56,0.653-4.905,0.878l-0.132,0.085l0.551,2.145l0.226-0.082c1.566-0.574,2.841-0.818,4.261-0.818
			c2.551,0,3.592,0.892,3.592,3.078v1.286c-1.261-0.404-3.084-0.845-5.07-0.845c-3.25,0-4.638,1.438-4.638,4.809
			c0,4.362,2.31,4.921,4.321,4.921c2.084,0,4.33-0.853,5.574-1.724l0.277,1.543l2.225-0.181L102.212,33.537z M94.437,26.557
			c1.508,0,3.341,0.245,5.057,0.673c0.002,1.256,0.023,2.241,0.068,3.071c-1.341,0.994-3.328,1.656-4.991,1.656
			c-1.642,0-2.224-0.667-2.224-2.553C92.347,27.64,92.448,26.557,94.437,26.557z"/>
		<path fill="#005B94" d="M112.983,34.442c-2.644,0.093-4.142-0.329-4.896-0.987c-0.752-0.66-1.13-1.91-1.13-3.75v-9.224h-3.164
			v-1.853h3.164v-4.864h2.856v4.864h3.169v1.853h-3.169v9.38c0,1.089,0.209,1.814,0.627,2.182c0.419,0.366,1.266,0.549,2.542,0.549
			V34.442z"/>
		<path fill="#005B94" d="M70.72,16.715h-2.823v-2.95h2.823V16.715z M70.72,34.128h-2.823V18.66h2.823V34.128z"/>
		<path fill="#005B94" d="M64.14,27.632v-6.976c0-4.084-2.734-6.892-7.956-6.892c-5.108,0-8.006,2.76-8.006,6.892v6.976
			c0,4.133,2.897,6.894,8.006,6.894c1.583,0,2.938-0.261,4.057-0.735l1.954,1.956l1.539-1.548l-1.601-1.601
			C63.46,31.386,64.14,29.668,64.14,27.632z M57.722,28.186l-1.538,1.547l2.468,2.468c-0.65,0.233-1.461,0.359-2.473,0.359
			c-5.434,0-5.107-3.615-5.107-8.361c0-4.775-0.326-8.467,5.107-8.467s5.064,3.693,5.064,8.467c0,2.782,0.123,5.159-0.848,6.661
			L57.722,28.186z"/>
	</g>
</g>
</svg>
