<?xml version="1.0" encoding="utf-8"?>
<!-- Generator: Adobe Illustrator 16.0.0, SVG Export Plug-In . SVG Version: 6.00 Build 0)  -->
<!DOCTYPE svg PUBLIC "-//W3C//DTD SVG 1.1//EN" "http://www.w3.org/Graphics/SVG/1.1/DTD/svg11.dtd">
<svg version="1.1" id="Camada_1" xmlns="http://www.w3.org/2000/svg" xmlns:xlink="http://www.w3.org/1999/xlink" x="0px" y="0px"
	 width="317px" height="38.5px" viewBox="0 0 317 38.5" enable-background="new 0 0 317 38.5" xml:space="preserve">
<g>
	<path fill="#FFFFFF" d="M125.178,26.214c0.062,0,0.116,0.025,0.162,0.074l0.455,0.494c-0.287,0.345-0.639,0.613-1.058,0.799
		c-0.417,0.188-0.915,0.282-1.497,0.282c-0.515,0-0.98-0.09-1.396-0.267c-0.416-0.178-0.771-0.426-1.063-0.742
		c-0.294-0.32-0.521-0.699-0.678-1.139c-0.157-0.441-0.237-0.926-0.237-1.453s0.083-1.014,0.252-1.455
		c0.168-0.441,0.404-0.822,0.709-1.139c0.305-0.318,0.671-0.566,1.095-0.742c0.426-0.176,0.895-0.264,1.407-0.264
		c0.509,0,0.958,0.082,1.347,0.248c0.39,0.162,0.728,0.383,1.015,0.657l-0.376,0.532c-0.026,0.037-0.058,0.066-0.093,0.092
		c-0.036,0.027-0.085,0.042-0.146,0.042c-0.065,0-0.14-0.03-0.222-0.093c-0.084-0.06-0.19-0.127-0.319-0.199
		c-0.128-0.073-0.289-0.141-0.484-0.201c-0.193-0.061-0.435-0.091-0.726-0.091c-0.335,0-0.643,0.059-0.924,0.178
		c-0.28,0.116-0.521,0.287-0.724,0.512c-0.202,0.226-0.359,0.5-0.472,0.822c-0.112,0.323-0.168,0.688-0.168,1.101
		c0,0.414,0.058,0.783,0.175,1.108c0.117,0.325,0.279,0.599,0.484,0.822c0.206,0.224,0.447,0.392,0.725,0.51
		c0.277,0.118,0.575,0.177,0.895,0.177c0.196,0,0.37-0.01,0.526-0.033c0.155-0.02,0.298-0.055,0.428-0.102
		c0.131-0.047,0.254-0.107,0.37-0.178c0.115-0.072,0.23-0.16,0.346-0.266C125.047,26.244,125.112,26.214,125.178,26.214z"/>
	<path fill="#FFFFFF" d="M130.97,22.796v4.988h-0.636c-0.14,0-0.23-0.066-0.27-0.2l-0.078-0.464
		c-0.104,0.111-0.213,0.211-0.33,0.303c-0.116,0.091-0.239,0.17-0.37,0.235c-0.13,0.064-0.269,0.114-0.417,0.15
		c-0.149,0.037-0.308,0.055-0.478,0.055c-0.273,0-0.515-0.048-0.723-0.138c-0.209-0.091-0.384-0.221-0.526-0.387
		c-0.143-0.165-0.248-0.364-0.32-0.598c-0.073-0.233-0.109-0.491-0.109-0.771v-3.175h1.052v3.175c0,0.335,0.078,0.597,0.232,0.782
		c0.156,0.186,0.391,0.279,0.707,0.279c0.231,0,0.448-0.054,0.648-0.16c0.201-0.105,0.389-0.252,0.565-0.438v-3.639H130.97z"/>
	<path fill="#FFFFFF" d="M133.488,23.72c0.157-0.316,0.346-0.564,0.568-0.746c0.221-0.181,0.487-0.271,0.796-0.271
		c0.108,0,0.209,0.012,0.304,0.036c0.094,0.024,0.18,0.062,0.254,0.111l-0.074,0.792c-0.012,0.057-0.033,0.094-0.062,0.115
		c-0.027,0.021-0.063,0.031-0.109,0.031c-0.049,0-0.119-0.008-0.21-0.027c-0.092-0.018-0.188-0.025-0.289-0.025
		c-0.146,0-0.276,0.021-0.389,0.063c-0.113,0.043-0.214,0.104-0.303,0.188c-0.09,0.08-0.169,0.18-0.237,0.297
		c-0.068,0.118-0.131,0.252-0.191,0.402v3.1h-1.051v-4.988h0.611c0.112,0,0.188,0.02,0.23,0.061
		c0.043,0.041,0.072,0.111,0.088,0.213L133.488,23.72z"/>
	<path fill="#FFFFFF" d="M139.305,23.7c-0.026,0.047-0.056,0.078-0.088,0.098c-0.032,0.021-0.073,0.03-0.122,0.03
		c-0.056,0-0.116-0.018-0.181-0.052c-0.066-0.034-0.142-0.072-0.23-0.115c-0.088-0.041-0.191-0.08-0.311-0.114
		s-0.257-0.051-0.417-0.051c-0.131,0-0.25,0.014-0.356,0.046c-0.105,0.031-0.195,0.074-0.269,0.133
		c-0.074,0.056-0.13,0.123-0.169,0.199c-0.04,0.077-0.059,0.158-0.059,0.247c0,0.117,0.037,0.216,0.107,0.294
		c0.072,0.078,0.167,0.145,0.284,0.202c0.118,0.058,0.251,0.109,0.401,0.154c0.151,0.046,0.304,0.095,0.46,0.146
		c0.156,0.054,0.31,0.112,0.46,0.182c0.151,0.069,0.285,0.152,0.401,0.252c0.118,0.1,0.212,0.22,0.284,0.362
		c0.071,0.141,0.107,0.313,0.107,0.515c0,0.236-0.042,0.451-0.126,0.651c-0.086,0.199-0.208,0.373-0.372,0.519
		c-0.163,0.146-0.366,0.262-0.609,0.343s-0.521,0.122-0.834,0.122c-0.173,0-0.339-0.016-0.501-0.048
		c-0.161-0.029-0.315-0.071-0.459-0.126c-0.146-0.055-0.281-0.118-0.406-0.192c-0.126-0.075-0.237-0.158-0.335-0.244l0.245-0.401
		c0.029-0.05,0.066-0.087,0.109-0.116c0.043-0.027,0.098-0.041,0.164-0.041c0.067,0,0.136,0.021,0.203,0.066
		c0.067,0.043,0.146,0.092,0.235,0.143c0.09,0.053,0.197,0.101,0.325,0.145c0.127,0.045,0.287,0.066,0.475,0.066
		c0.157,0,0.291-0.019,0.406-0.056c0.113-0.038,0.208-0.089,0.283-0.155c0.075-0.064,0.13-0.139,0.166-0.222
		c0.036-0.083,0.054-0.171,0.054-0.267c0-0.127-0.036-0.23-0.108-0.313c-0.072-0.082-0.167-0.151-0.286-0.211
		c-0.119-0.059-0.254-0.111-0.406-0.156c-0.151-0.046-0.305-0.094-0.462-0.147c-0.156-0.051-0.31-0.111-0.462-0.181
		c-0.151-0.068-0.287-0.155-0.405-0.262c-0.119-0.105-0.215-0.234-0.287-0.386c-0.072-0.152-0.108-0.337-0.108-0.556
		c0-0.198,0.041-0.389,0.121-0.567c0.079-0.179,0.198-0.338,0.352-0.475c0.155-0.138,0.345-0.245,0.572-0.325s0.489-0.12,0.785-0.12
		c0.336,0,0.641,0.054,0.915,0.161c0.273,0.109,0.503,0.256,0.689,0.441L139.305,23.7z"/>
	<path fill="#FFFFFF" d="M142.999,22.717c0.368,0,0.701,0.061,0.999,0.181c0.299,0.121,0.553,0.293,0.764,0.515
		c0.21,0.221,0.372,0.489,0.487,0.808c0.114,0.314,0.172,0.671,0.172,1.065c0,0.394-0.058,0.751-0.172,1.067
		c-0.115,0.316-0.277,0.586-0.487,0.809c-0.21,0.224-0.464,0.396-0.764,0.515c-0.298,0.122-0.631,0.183-0.999,0.183
		c-0.373,0-0.708-0.061-1.005-0.183c-0.298-0.118-0.554-0.291-0.766-0.515c-0.212-0.223-0.375-0.492-0.489-0.809
		c-0.116-0.316-0.172-0.674-0.172-1.067c0-0.395,0.056-0.751,0.172-1.065c0.114-0.318,0.277-0.587,0.489-0.808
		c0.212-0.222,0.467-0.394,0.766-0.515C142.291,22.777,142.625,22.717,142.999,22.717z M142.999,27.036
		c0.449,0,0.785-0.15,1.004-0.452c0.221-0.301,0.33-0.733,0.33-1.293c0-0.562-0.109-0.995-0.33-1.299
		c-0.22-0.306-0.555-0.459-1.004-0.459c-0.457,0-0.796,0.153-1.019,0.459c-0.222,0.304-0.333,0.737-0.333,1.299
		c0,0.56,0.111,0.992,0.333,1.293C142.203,26.886,142.542,27.036,142.999,27.036z"/>
	<path fill="#FFFFFF" d="M149.65,23.7c-0.026,0.047-0.056,0.078-0.088,0.098c-0.032,0.021-0.073,0.03-0.123,0.03
		c-0.056,0-0.115-0.018-0.181-0.052s-0.142-0.072-0.23-0.115c-0.088-0.041-0.19-0.08-0.311-0.114
		c-0.119-0.034-0.258-0.051-0.417-0.051c-0.131,0-0.249,0.014-0.355,0.046c-0.105,0.031-0.195,0.074-0.268,0.133
		c-0.073,0.056-0.13,0.123-0.169,0.199c-0.039,0.077-0.059,0.158-0.059,0.247c0,0.117,0.037,0.216,0.108,0.294
		s0.166,0.145,0.283,0.202c0.118,0.058,0.251,0.109,0.402,0.154c0.15,0.046,0.303,0.095,0.459,0.146
		c0.157,0.054,0.31,0.112,0.46,0.182c0.15,0.069,0.284,0.152,0.401,0.252c0.117,0.1,0.212,0.22,0.283,0.362
		c0.071,0.141,0.107,0.313,0.107,0.515c0,0.236-0.042,0.451-0.125,0.651c-0.086,0.199-0.21,0.373-0.372,0.519
		c-0.163,0.146-0.366,0.262-0.609,0.343c-0.242,0.081-0.521,0.122-0.834,0.122c-0.173,0-0.339-0.016-0.501-0.048
		c-0.161-0.029-0.314-0.071-0.46-0.126s-0.281-0.118-0.406-0.192c-0.126-0.075-0.237-0.158-0.334-0.244l0.245-0.401
		c0.029-0.05,0.066-0.087,0.109-0.116c0.044-0.027,0.099-0.041,0.164-0.041c0.068,0,0.136,0.021,0.204,0.066
		c0.066,0.043,0.146,0.092,0.234,0.143c0.09,0.053,0.198,0.101,0.326,0.145c0.126,0.045,0.285,0.066,0.475,0.066
		c0.156,0,0.292-0.019,0.406-0.056c0.114-0.038,0.208-0.089,0.284-0.155c0.075-0.064,0.131-0.139,0.167-0.222
		s0.052-0.171,0.052-0.267c0-0.127-0.035-0.23-0.107-0.313c-0.071-0.082-0.166-0.151-0.285-0.211
		c-0.12-0.059-0.255-0.111-0.406-0.156c-0.153-0.046-0.306-0.094-0.463-0.147c-0.157-0.051-0.311-0.111-0.463-0.181
		c-0.151-0.068-0.287-0.155-0.406-0.262c-0.119-0.105-0.214-0.234-0.285-0.386c-0.072-0.152-0.108-0.337-0.108-0.556
		c0-0.198,0.041-0.389,0.121-0.567c0.08-0.179,0.197-0.338,0.352-0.475c0.154-0.138,0.346-0.245,0.572-0.325
		c0.228-0.08,0.489-0.12,0.785-0.12c0.338,0,0.642,0.054,0.915,0.161c0.273,0.109,0.504,0.256,0.689,0.441L149.65,23.7z"/>
	<path fill="#FFFFFF" d="M153.745,23.489c0.563-0.525,1.236-0.787,2.015-0.787c0.287,0,0.542,0.047,0.766,0.141
		c0.222,0.092,0.411,0.224,0.562,0.393c0.151,0.17,0.267,0.371,0.347,0.604c0.081,0.234,0.12,0.493,0.12,0.775v3.17h-0.47
		c-0.101,0-0.177-0.015-0.229-0.045c-0.051-0.032-0.095-0.094-0.131-0.189l-0.103-0.406c-0.129,0.114-0.253,0.217-0.377,0.307
		c-0.125,0.09-0.25,0.165-0.384,0.226c-0.133,0.063-0.274,0.11-0.427,0.14c-0.151,0.032-0.319,0.048-0.501,0.048
		c-0.203,0-0.391-0.028-0.564-0.083c-0.175-0.055-0.325-0.139-0.453-0.253c-0.127-0.112-0.228-0.251-0.301-0.418
		c-0.074-0.165-0.11-0.362-0.11-0.587c0-0.192,0.052-0.379,0.154-0.563c0.103-0.182,0.272-0.347,0.509-0.491
		c0.236-0.145,0.548-0.265,0.935-0.359c0.386-0.095,0.863-0.149,1.43-0.161v-0.334c0-0.357-0.078-0.624-0.229-0.802
		c-0.155-0.176-0.379-0.264-0.676-0.264c-0.202,0-0.37,0.025-0.508,0.076c-0.138,0.05-0.254,0.105-0.357,0.163
		c-0.102,0.059-0.191,0.113-0.27,0.164c-0.078,0.05-0.161,0.076-0.25,0.076c-0.072,0-0.133-0.02-0.184-0.057
		c-0.051-0.037-0.091-0.084-0.124-0.14L153.745,23.489z M156.533,25.603c-0.375,0.014-0.691,0.044-0.949,0.091
		c-0.258,0.047-0.465,0.107-0.625,0.181c-0.161,0.074-0.275,0.162-0.345,0.264c-0.071,0.1-0.105,0.212-0.105,0.332
		c0,0.115,0.019,0.217,0.057,0.3c0.036,0.085,0.089,0.152,0.155,0.206c0.067,0.053,0.146,0.092,0.235,0.117
		c0.09,0.024,0.188,0.037,0.295,0.037c0.275,0,0.509-0.052,0.708-0.154c0.197-0.104,0.388-0.252,0.574-0.447V25.603z"/>
	<path fill="#FFFFFF" d="M160.025,23.52c0.208-0.245,0.446-0.441,0.713-0.591c0.265-0.151,0.574-0.227,0.925-0.227
		c0.282,0,0.536,0.057,0.764,0.169c0.229,0.112,0.424,0.276,0.587,0.491c0.163,0.216,0.289,0.482,0.379,0.801
		s0.136,0.682,0.136,1.093c0,0.368-0.049,0.712-0.149,1.03c-0.098,0.317-0.242,0.592-0.43,0.826
		c-0.185,0.233-0.409,0.415-0.674,0.548c-0.264,0.132-0.563,0.198-0.896,0.198c-0.293,0-0.542-0.047-0.745-0.142
		c-0.204-0.095-0.389-0.226-0.556-0.393v2.119h-1.052v-6.647h0.637c0.144,0,0.235,0.065,0.274,0.2L160.025,23.52z M160.079,26.532
		c0.147,0.189,0.308,0.322,0.48,0.399c0.176,0.076,0.368,0.114,0.581,0.114c0.411,0,0.732-0.149,0.961-0.45
		c0.229-0.299,0.345-0.747,0.345-1.34c0-0.308-0.025-0.569-0.077-0.784c-0.054-0.219-0.128-0.395-0.225-0.531
		c-0.099-0.137-0.218-0.236-0.358-0.299c-0.142-0.063-0.299-0.093-0.474-0.093c-0.267,0-0.5,0.058-0.693,0.175
		c-0.193,0.115-0.373,0.279-0.54,0.496V26.532z"/>
	<path fill="#FFFFFF" d="M165.866,20.546v7.238h-1.052v-7.238H165.866z"/>
	<path fill="#FFFFFF" d="M168.682,21.289c0,0.094-0.019,0.185-0.056,0.269c-0.035,0.086-0.089,0.16-0.153,0.223
		c-0.064,0.064-0.141,0.114-0.228,0.152c-0.086,0.037-0.179,0.057-0.276,0.057c-0.095,0-0.184-0.02-0.265-0.057
		c-0.084-0.038-0.156-0.088-0.22-0.152c-0.061-0.063-0.112-0.137-0.147-0.223c-0.039-0.084-0.058-0.175-0.058-0.269
		c0-0.098,0.019-0.19,0.058-0.274c0.035-0.084,0.087-0.16,0.147-0.223c0.063-0.063,0.136-0.113,0.22-0.151
		c0.081-0.037,0.17-0.057,0.265-0.057c0.098,0,0.19,0.02,0.276,0.057c0.087,0.038,0.163,0.089,0.228,0.151s0.118,0.139,0.153,0.223
		C168.663,21.099,168.682,21.191,168.682,21.289z M168.507,22.796v4.988h-1.052v-4.988H168.507z"/>
	<path fill="#FFFFFF" d="M173.604,23.772c-0.033,0.043-0.064,0.077-0.094,0.099c-0.029,0.022-0.07,0.036-0.127,0.036
		c-0.056,0-0.112-0.021-0.174-0.061c-0.059-0.039-0.131-0.082-0.214-0.13c-0.084-0.046-0.184-0.091-0.302-0.13
		c-0.116-0.038-0.264-0.059-0.44-0.059c-0.229,0-0.426,0.042-0.599,0.123c-0.172,0.082-0.315,0.199-0.432,0.35
		c-0.114,0.152-0.204,0.336-0.26,0.553c-0.056,0.218-0.085,0.461-0.085,0.731c0,0.281,0.033,0.53,0.094,0.748
		c0.062,0.22,0.151,0.403,0.268,0.552c0.116,0.15,0.253,0.267,0.422,0.344c0.162,0.078,0.347,0.117,0.553,0.117
		c0.201,0,0.367-0.023,0.494-0.073s0.232-0.102,0.317-0.161c0.086-0.059,0.158-0.113,0.219-0.161c0.06-0.05,0.124-0.073,0.193-0.073
		c0.085,0,0.151,0.032,0.195,0.098l0.299,0.385c-0.12,0.148-0.254,0.271-0.401,0.373c-0.147,0.101-0.303,0.184-0.465,0.248
		c-0.164,0.063-0.332,0.108-0.509,0.135c-0.177,0.029-0.355,0.043-0.532,0.043c-0.312,0-0.601-0.058-0.87-0.174
		c-0.269-0.115-0.503-0.283-0.704-0.504c-0.202-0.221-0.357-0.49-0.475-0.808c-0.116-0.317-0.172-0.68-0.172-1.088
		c0-0.368,0.051-0.711,0.156-1.024c0.104-0.315,0.257-0.586,0.457-0.814c0.201-0.229,0.448-0.407,0.745-0.537
		c0.297-0.127,0.64-0.192,1.026-0.192c0.363,0,0.684,0.058,0.958,0.177c0.274,0.117,0.521,0.283,0.735,0.498L173.604,23.772z"/>
	<path fill="#FFFFFF" d="M174.895,23.489c0.565-0.525,1.236-0.787,2.018-0.787c0.286,0,0.54,0.047,0.764,0.141
		c0.225,0.092,0.41,0.224,0.563,0.393c0.151,0.17,0.266,0.371,0.349,0.604c0.077,0.234,0.119,0.493,0.119,0.775v3.17h-0.472
		c-0.1,0-0.177-0.015-0.229-0.045c-0.053-0.032-0.098-0.094-0.131-0.189l-0.106-0.406c-0.125,0.114-0.251,0.217-0.374,0.307
		c-0.124,0.09-0.253,0.165-0.384,0.226c-0.133,0.063-0.274,0.11-0.426,0.14c-0.152,0.032-0.318,0.048-0.501,0.048
		c-0.201,0-0.391-0.028-0.567-0.083c-0.172-0.055-0.324-0.139-0.451-0.253c-0.126-0.112-0.226-0.251-0.301-0.418
		c-0.072-0.165-0.11-0.362-0.11-0.587c0-0.192,0.05-0.379,0.154-0.563c0.102-0.182,0.271-0.347,0.509-0.491
		c0.236-0.145,0.549-0.265,0.933-0.359c0.389-0.095,0.866-0.149,1.434-0.161v-0.334c0-0.357-0.077-0.624-0.23-0.802
		c-0.151-0.176-0.378-0.264-0.676-0.264c-0.201,0-0.369,0.025-0.509,0.076c-0.137,0.05-0.255,0.105-0.357,0.163
		c-0.1,0.059-0.19,0.113-0.268,0.164c-0.079,0.05-0.162,0.076-0.249,0.076c-0.073,0-0.134-0.02-0.186-0.057
		c-0.05-0.037-0.091-0.084-0.124-0.14L174.895,23.489z M177.685,25.603c-0.376,0.014-0.691,0.044-0.949,0.091
		c-0.26,0.047-0.468,0.107-0.628,0.181c-0.157,0.074-0.274,0.162-0.345,0.264c-0.068,0.1-0.104,0.212-0.104,0.332
		c0,0.115,0.019,0.217,0.056,0.3c0.037,0.085,0.09,0.152,0.156,0.206c0.068,0.053,0.146,0.092,0.234,0.117
		c0.09,0.024,0.189,0.037,0.295,0.037c0.276,0,0.514-0.052,0.709-0.154c0.197-0.104,0.388-0.252,0.575-0.447V25.603z"/>
	<path fill="#FFFFFF" d="M184.415,20.546v7.238h-0.638c-0.139,0-0.229-0.066-0.268-0.2l-0.094-0.542
		c-0.21,0.244-0.444,0.441-0.712,0.592c-0.265,0.149-0.574,0.225-0.927,0.225c-0.28,0-0.536-0.056-0.763-0.169
		c-0.229-0.112-0.424-0.276-0.588-0.491c-0.162-0.216-0.289-0.482-0.378-0.801c-0.09-0.317-0.135-0.682-0.135-1.093
		c0-0.372,0.05-0.715,0.149-1.032c0.1-0.316,0.241-0.592,0.428-0.824c0.185-0.232,0.413-0.416,0.677-0.548
		c0.267-0.132,0.563-0.198,0.894-0.198c0.293,0,0.542,0.047,0.748,0.141c0.206,0.092,0.389,0.222,0.553,0.389v-2.686H184.415z
		 M183.362,24.022c-0.147-0.188-0.308-0.321-0.484-0.396c-0.174-0.074-0.367-0.111-0.573-0.111c-0.411,0-0.731,0.15-0.962,0.453
		c-0.23,0.301-0.347,0.748-0.347,1.337c0,0.307,0.024,0.569,0.079,0.786c0.052,0.217,0.124,0.393,0.222,0.529
		c0.1,0.138,0.219,0.236,0.357,0.299c0.142,0.062,0.302,0.093,0.476,0.093c0.267,0,0.499-0.058,0.692-0.173
		c0.193-0.117,0.376-0.279,0.54-0.492V24.022z"/>
	<path fill="#FFFFFF" d="M188.097,22.717c0.37,0,0.702,0.061,1.001,0.181c0.3,0.121,0.553,0.293,0.765,0.515
		c0.21,0.221,0.372,0.489,0.484,0.808c0.114,0.314,0.173,0.671,0.173,1.065c0,0.394-0.059,0.751-0.173,1.067
		c-0.112,0.316-0.274,0.586-0.484,0.809c-0.212,0.224-0.465,0.396-0.765,0.515c-0.299,0.122-0.631,0.183-1.001,0.183
		c-0.372,0-0.704-0.061-1.006-0.183c-0.297-0.118-0.552-0.291-0.764-0.515c-0.212-0.223-0.374-0.492-0.488-0.809
		c-0.116-0.316-0.173-0.674-0.173-1.067c0-0.395,0.057-0.751,0.173-1.065c0.114-0.318,0.276-0.587,0.488-0.808
		c0.212-0.222,0.467-0.394,0.764-0.515C187.393,22.777,187.725,22.717,188.097,22.717z M188.097,27.036
		c0.451,0,0.785-0.15,1.006-0.452c0.22-0.301,0.33-0.733,0.33-1.293c0-0.562-0.11-0.995-0.33-1.299
		c-0.221-0.306-0.555-0.459-1.006-0.459c-0.457,0-0.794,0.153-1.018,0.459c-0.223,0.304-0.333,0.737-0.333,1.299
		c0,0.56,0.11,0.992,0.333,1.293C187.303,26.886,187.64,27.036,188.097,27.036z"/>
	<path fill="#FFFFFF" d="M194.751,23.7c-0.027,0.047-0.056,0.078-0.089,0.098c-0.031,0.021-0.073,0.03-0.123,0.03
		c-0.056,0-0.114-0.018-0.181-0.052c-0.063-0.034-0.142-0.072-0.23-0.115c-0.088-0.041-0.189-0.08-0.31-0.114
		c-0.118-0.034-0.258-0.051-0.42-0.051c-0.127,0-0.249,0.014-0.354,0.046c-0.105,0.031-0.195,0.074-0.268,0.133
		c-0.075,0.056-0.131,0.123-0.168,0.199c-0.042,0.077-0.061,0.158-0.061,0.247c0,0.117,0.035,0.216,0.108,0.294
		c0.07,0.078,0.166,0.145,0.282,0.202c0.118,0.058,0.251,0.109,0.403,0.154c0.149,0.046,0.301,0.095,0.459,0.146
		c0.157,0.054,0.31,0.112,0.459,0.182c0.151,0.069,0.284,0.152,0.401,0.252c0.118,0.1,0.209,0.22,0.284,0.362
		c0.072,0.141,0.105,0.313,0.105,0.515c0,0.236-0.039,0.451-0.124,0.651c-0.085,0.199-0.21,0.373-0.372,0.519
		c-0.164,0.146-0.365,0.262-0.61,0.343c-0.243,0.081-0.521,0.122-0.834,0.122c-0.174,0-0.34-0.016-0.502-0.048
		c-0.16-0.029-0.316-0.071-0.459-0.126c-0.146-0.055-0.281-0.118-0.405-0.192c-0.127-0.075-0.239-0.158-0.335-0.244l0.243-0.401
		c0.029-0.05,0.066-0.087,0.11-0.116c0.046-0.027,0.098-0.041,0.166-0.041c0.066,0,0.133,0.021,0.201,0.066
		c0.069,0.043,0.146,0.092,0.235,0.143c0.089,0.053,0.197,0.101,0.324,0.145c0.126,0.045,0.286,0.066,0.476,0.066
		c0.157,0,0.291-0.019,0.405-0.056c0.114-0.038,0.21-0.089,0.284-0.155c0.075-0.064,0.131-0.139,0.166-0.222
		s0.055-0.171,0.055-0.267c0-0.127-0.038-0.23-0.108-0.313c-0.073-0.082-0.168-0.151-0.287-0.211
		c-0.118-0.059-0.253-0.111-0.404-0.156c-0.152-0.046-0.306-0.094-0.464-0.147c-0.155-0.051-0.312-0.111-0.461-0.181
		c-0.151-0.068-0.289-0.155-0.407-0.262c-0.116-0.105-0.214-0.234-0.284-0.386c-0.073-0.152-0.11-0.337-0.11-0.556
		c0-0.198,0.041-0.389,0.122-0.567c0.079-0.179,0.195-0.338,0.352-0.475c0.153-0.138,0.345-0.245,0.573-0.325
		c0.227-0.08,0.488-0.12,0.785-0.12c0.335,0,0.64,0.054,0.914,0.161c0.272,0.109,0.503,0.256,0.688,0.441L194.751,23.7z"/>
	<path fill="#FFFFFF" d="M198.844,23.489c0.563-0.525,1.236-0.787,2.015-0.787c0.289,0,0.543,0.047,0.767,0.141
		c0.223,0.092,0.409,0.224,0.563,0.393c0.151,0.17,0.268,0.371,0.347,0.604c0.079,0.234,0.12,0.493,0.12,0.775v3.17h-0.471
		c-0.101,0-0.177-0.015-0.229-0.045c-0.055-0.032-0.098-0.094-0.134-0.189l-0.102-0.406c-0.127,0.114-0.256,0.217-0.378,0.307
		c-0.123,0.09-0.251,0.165-0.382,0.226c-0.134,0.063-0.274,0.11-0.429,0.14c-0.149,0.032-0.315,0.048-0.5,0.048
		c-0.202,0-0.389-0.028-0.563-0.083s-0.326-0.139-0.453-0.253c-0.129-0.112-0.229-0.251-0.301-0.418
		c-0.073-0.165-0.11-0.362-0.11-0.587c0-0.192,0.05-0.379,0.154-0.563c0.102-0.182,0.271-0.347,0.509-0.491
		c0.236-0.145,0.548-0.265,0.933-0.359c0.389-0.095,0.864-0.149,1.432-0.161v-0.334c0-0.357-0.075-0.624-0.229-0.802
		c-0.154-0.176-0.381-0.264-0.676-0.264c-0.203,0-0.372,0.025-0.511,0.076c-0.135,0.05-0.254,0.105-0.355,0.163
		c-0.102,0.059-0.191,0.113-0.268,0.164c-0.079,0.05-0.162,0.076-0.252,0.076c-0.07,0-0.131-0.02-0.183-0.057
		c-0.05-0.037-0.094-0.084-0.124-0.14L198.844,23.489z M200.287,20.663c0.121,0,0.21,0.02,0.269,0.058
		c0.06,0.039,0.109,0.101,0.155,0.182l0.715,1.184h-0.596c-0.084,0-0.148-0.012-0.198-0.034c-0.052-0.021-0.102-0.063-0.155-0.122
		l-1.178-1.267H200.287z M201.632,25.603c-0.374,0.014-0.69,0.044-0.95,0.091c-0.257,0.047-0.465,0.107-0.625,0.181
		c-0.16,0.074-0.274,0.162-0.345,0.264c-0.068,0.1-0.105,0.212-0.105,0.332c0,0.115,0.021,0.217,0.058,0.3
		c0.037,0.085,0.087,0.152,0.154,0.206c0.068,0.053,0.147,0.092,0.236,0.117c0.092,0.024,0.189,0.037,0.295,0.037
		c0.274,0,0.509-0.052,0.709-0.154c0.197-0.104,0.386-0.252,0.573-0.447V25.603z"/>
	<path fill="#FFFFFF" d="M207.569,25.374c0.015,0.283,0.058,0.529,0.133,0.735c0.074,0.207,0.177,0.38,0.301,0.517
		c0.127,0.136,0.276,0.238,0.449,0.306c0.177,0.066,0.369,0.101,0.586,0.101c0.205,0,0.382-0.024,0.531-0.072
		c0.152-0.046,0.283-0.1,0.395-0.156c0.11-0.057,0.204-0.109,0.281-0.156c0.078-0.047,0.149-0.07,0.216-0.07
		c0.085,0,0.149,0.032,0.195,0.098l0.299,0.385c-0.124,0.148-0.264,0.271-0.422,0.373c-0.155,0.101-0.321,0.184-0.498,0.248
		c-0.175,0.063-0.357,0.108-0.543,0.135c-0.187,0.029-0.365,0.043-0.542,0.043c-0.345,0-0.667-0.058-0.962-0.174
		c-0.295-0.115-0.553-0.286-0.769-0.511c-0.216-0.226-0.384-0.505-0.507-0.836c-0.122-0.334-0.185-0.716-0.185-1.149
		c0-0.347,0.056-0.67,0.164-0.969c0.108-0.301,0.264-0.562,0.47-0.783c0.205-0.223,0.45-0.397,0.745-0.527
		c0.289-0.127,0.621-0.192,0.987-0.192c0.308,0,0.592,0.051,0.854,0.149c0.26,0.1,0.484,0.246,0.673,0.438
		c0.189,0.192,0.337,0.428,0.445,0.707c0.104,0.279,0.157,0.597,0.157,0.951c0,0.163-0.019,0.273-0.054,0.329
		c-0.037,0.055-0.102,0.083-0.195,0.083H207.569z M210.078,24.728c0-0.178-0.024-0.34-0.076-0.491
		c-0.048-0.153-0.123-0.284-0.223-0.397c-0.096-0.111-0.218-0.2-0.363-0.264c-0.144-0.063-0.312-0.096-0.501-0.096
		c-0.382,0-0.684,0.109-0.899,0.328c-0.221,0.219-0.357,0.525-0.416,0.92H210.078z"/>
	<path fill="#FFFFFF" d="M213.23,23.456c0.105-0.111,0.22-0.211,0.334-0.301s0.239-0.167,0.368-0.233
		c0.131-0.064,0.27-0.114,0.417-0.151c0.147-0.035,0.308-0.054,0.48-0.054c0.273,0,0.513,0.046,0.721,0.137
		c0.205,0.093,0.382,0.222,0.521,0.387c0.146,0.167,0.251,0.366,0.322,0.599c0.072,0.234,0.107,0.49,0.107,0.771v3.174h-1.045V24.61
		c0-0.337-0.079-0.598-0.234-0.782c-0.156-0.187-0.389-0.279-0.707-0.279c-0.232,0-0.452,0.054-0.652,0.161
		c-0.201,0.109-0.388,0.255-0.566,0.441v3.633h-1.052v-4.988h0.638c0.144,0,0.233,0.065,0.274,0.2L213.23,23.456z"/>
	<path fill="#FFFFFF" d="M222.279,22.976v0.391c0,0.131-0.079,0.212-0.236,0.242l-0.497,0.081c0.083,0.19,0.127,0.401,0.127,0.632
		c0,0.244-0.05,0.467-0.146,0.666c-0.096,0.198-0.229,0.369-0.398,0.508c-0.169,0.141-0.372,0.249-0.606,0.324
		c-0.235,0.074-0.488,0.111-0.763,0.111c-0.104,0-0.206-0.005-0.308-0.017c-0.098-0.011-0.195-0.026-0.289-0.047
		c-0.093,0.056-0.166,0.114-0.212,0.177c-0.043,0.061-0.066,0.125-0.066,0.189c0,0.107,0.046,0.188,0.142,0.24
		c0.094,0.053,0.22,0.09,0.374,0.111c0.153,0.024,0.332,0.039,0.529,0.045c0.202,0.008,0.401,0.02,0.609,0.035
		c0.205,0.015,0.406,0.043,0.606,0.08c0.195,0.037,0.374,0.1,0.529,0.187c0.156,0.087,0.28,0.202,0.374,0.349
		s0.142,0.338,0.142,0.572c0,0.217-0.055,0.427-0.16,0.632c-0.11,0.206-0.264,0.388-0.468,0.549
		c-0.203,0.16-0.452,0.287-0.748,0.383c-0.292,0.096-0.627,0.145-1.001,0.145c-0.372,0-0.696-0.036-0.97-0.107
		c-0.276-0.071-0.507-0.169-0.692-0.292c-0.183-0.122-0.319-0.263-0.409-0.423c-0.089-0.16-0.135-0.326-0.135-0.499
		c0-0.234,0.074-0.435,0.223-0.601c0.149-0.167,0.349-0.296,0.604-0.393c-0.138-0.063-0.248-0.154-0.331-0.269
		c-0.083-0.113-0.124-0.263-0.124-0.449c0-0.147,0.054-0.301,0.159-0.461c0.11-0.16,0.271-0.295,0.484-0.404
		c-0.245-0.139-0.44-0.32-0.586-0.546c-0.141-0.228-0.216-0.493-0.216-0.796c0-0.248,0.048-0.471,0.146-0.67
		c0.098-0.197,0.23-0.369,0.403-0.509c0.174-0.14,0.378-0.248,0.616-0.323c0.233-0.074,0.493-0.111,0.773-0.111
		c0.43,0,0.806,0.09,1.126,0.268H222.279z M221.222,28.03c0-0.111-0.03-0.2-0.095-0.268c-0.063-0.067-0.147-0.119-0.258-0.157
		c-0.106-0.036-0.232-0.063-0.376-0.083c-0.144-0.018-0.297-0.031-0.457-0.039c-0.162-0.008-0.324-0.017-0.492-0.023
		c-0.171-0.008-0.333-0.023-0.488-0.047c-0.158,0.08-0.285,0.18-0.385,0.294c-0.1,0.113-0.149,0.246-0.149,0.397
		c0,0.096,0.027,0.188,0.077,0.272s0.126,0.157,0.234,0.22c0.106,0.062,0.241,0.111,0.405,0.146
		c0.166,0.037,0.363,0.057,0.594,0.057c0.466,0,0.811-0.073,1.043-0.217C221.107,28.439,221.222,28.254,221.222,28.03z
		 M219.76,25.245c0.324,0,0.569-0.083,0.733-0.248c0.164-0.166,0.243-0.384,0.243-0.651c0-0.272-0.079-0.489-0.243-0.651
		c-0.164-0.158-0.409-0.238-0.733-0.238c-0.322,0-0.567,0.08-0.731,0.238c-0.164,0.162-0.247,0.379-0.247,0.651
		c0,0.13,0.021,0.251,0.064,0.363c0.041,0.11,0.104,0.206,0.187,0.285c0.081,0.08,0.181,0.141,0.304,0.187
		C219.458,25.226,219.6,25.245,219.76,25.245z"/>
	<path fill="#FFFFFF" d="M224.035,25.374c0.015,0.283,0.058,0.529,0.131,0.735c0.077,0.207,0.177,0.38,0.301,0.517
		c0.127,0.136,0.276,0.238,0.451,0.306c0.175,0.066,0.37,0.101,0.584,0.101c0.205,0,0.382-0.024,0.533-0.072
		c0.15-0.046,0.281-0.1,0.391-0.156c0.112-0.057,0.206-0.109,0.285-0.156c0.077-0.047,0.151-0.07,0.216-0.07
		c0.085,0,0.149,0.032,0.195,0.098l0.297,0.385c-0.124,0.148-0.264,0.271-0.419,0.373c-0.156,0.101-0.324,0.184-0.501,0.248
		c-0.175,0.063-0.355,0.108-0.542,0.135c-0.186,0.029-0.366,0.043-0.543,0.043c-0.347,0-0.664-0.058-0.962-0.174
		c-0.295-0.115-0.55-0.286-0.767-0.511c-0.218-0.226-0.388-0.505-0.511-0.836c-0.12-0.334-0.181-0.716-0.181-1.149
		c0-0.347,0.054-0.67,0.162-0.969c0.11-0.301,0.266-0.562,0.472-0.783c0.203-0.223,0.451-0.397,0.741-0.527
		c0.293-0.127,0.621-0.192,0.991-0.192c0.308,0,0.59,0.051,0.85,0.149c0.262,0.1,0.488,0.246,0.678,0.438
		c0.188,0.192,0.338,0.428,0.442,0.707c0.104,0.279,0.157,0.597,0.157,0.951c0,0.163-0.017,0.273-0.054,0.329
		c-0.035,0.055-0.1,0.083-0.193,0.083H224.035z M226.545,24.728c0-0.178-0.027-0.34-0.077-0.491
		c-0.05-0.153-0.125-0.284-0.223-0.397c-0.098-0.111-0.218-0.2-0.363-0.264c-0.146-0.063-0.313-0.096-0.503-0.096
		c-0.378,0-0.679,0.109-0.899,0.328c-0.218,0.219-0.355,0.525-0.415,0.92H226.545z"/>
	<path fill="#FFFFFF" d="M229.694,23.456c0.107-0.111,0.22-0.211,0.334-0.301c0.116-0.09,0.241-0.167,0.37-0.233
		c0.133-0.064,0.27-0.114,0.417-0.151c0.146-0.035,0.306-0.054,0.479-0.054c0.274,0,0.515,0.046,0.721,0.137
		c0.208,0.093,0.382,0.222,0.523,0.387c0.144,0.167,0.249,0.366,0.32,0.599c0.074,0.234,0.107,0.49,0.107,0.771v3.174h-1.047V24.61
		c0-0.337-0.075-0.598-0.23-0.782c-0.156-0.187-0.391-0.279-0.708-0.279c-0.235,0-0.451,0.054-0.652,0.161
		c-0.2,0.109-0.389,0.255-0.563,0.441v3.633h-1.054v-4.988h0.639c0.141,0,0.232,0.065,0.271,0.2L229.694,23.456z"/>
	<path fill="#FFFFFF" d="M235.494,23.388c0.208-0.203,0.433-0.365,0.678-0.487c0.243-0.122,0.529-0.184,0.855-0.184
		c0.274,0,0.514,0.046,0.721,0.137c0.208,0.093,0.381,0.222,0.523,0.387c0.142,0.167,0.248,0.366,0.322,0.599
		c0.07,0.234,0.106,0.49,0.106,0.771v3.174h-1.048V24.61c0-0.337-0.078-0.598-0.232-0.782c-0.155-0.187-0.391-0.279-0.706-0.279
		c-0.234,0-0.453,0.054-0.652,0.161c-0.201,0.109-0.391,0.255-0.567,0.441v3.633h-1.051v-7.238h1.051V23.388z"/>
	<path fill="#FFFFFF" d="M240.055,23.489c0.563-0.525,1.236-0.787,2.015-0.787c0.287,0,0.545,0.047,0.767,0.141
		c0.223,0.092,0.411,0.224,0.562,0.393c0.151,0.17,0.268,0.371,0.349,0.604c0.079,0.234,0.118,0.493,0.118,0.775v3.17h-0.467
		c-0.103,0-0.179-0.015-0.233-0.045c-0.05-0.032-0.093-0.094-0.131-0.189l-0.102-0.406c-0.129,0.114-0.254,0.217-0.378,0.307
		c-0.125,0.09-0.251,0.165-0.385,0.226c-0.131,0.063-0.271,0.11-0.424,0.14c-0.153,0.032-0.319,0.048-0.502,0.048
		c-0.202,0-0.391-0.028-0.563-0.083c-0.177-0.055-0.326-0.139-0.455-0.253c-0.127-0.112-0.227-0.251-0.299-0.418
		c-0.075-0.165-0.112-0.362-0.112-0.587c0-0.192,0.054-0.379,0.155-0.563c0.103-0.182,0.272-0.347,0.51-0.491
		c0.236-0.145,0.546-0.265,0.935-0.359c0.385-0.095,0.862-0.149,1.43-0.161v-0.334c0-0.357-0.077-0.624-0.229-0.802
		c-0.156-0.176-0.381-0.264-0.676-0.264c-0.201,0-0.372,0.025-0.509,0.076c-0.137,0.05-0.256,0.105-0.357,0.163
		c-0.102,0.059-0.191,0.113-0.27,0.164c-0.077,0.05-0.16,0.076-0.25,0.076c-0.07,0-0.133-0.02-0.183-0.057
		c-0.052-0.037-0.092-0.084-0.122-0.14L240.055,23.489z M242.843,25.603c-0.374,0.014-0.692,0.044-0.95,0.091
		c-0.257,0.047-0.465,0.107-0.625,0.181c-0.16,0.074-0.274,0.162-0.345,0.264c-0.07,0.1-0.104,0.212-0.104,0.332
		c0,0.115,0.019,0.217,0.056,0.3c0.037,0.085,0.09,0.152,0.156,0.206c0.066,0.053,0.145,0.092,0.234,0.117
		c0.092,0.024,0.189,0.037,0.297,0.037c0.272,0,0.507-0.052,0.706-0.154c0.198-0.104,0.389-0.252,0.574-0.447V25.603z"/>
	<path fill="#FFFFFF" d="M246.33,23.72c0.158-0.316,0.346-0.564,0.567-0.746c0.223-0.181,0.486-0.271,0.798-0.271
		c0.106,0,0.208,0.012,0.304,0.036c0.093,0.024,0.181,0.062,0.253,0.111l-0.072,0.792c-0.013,0.057-0.033,0.094-0.063,0.115
		c-0.027,0.021-0.064,0.031-0.11,0.031c-0.048,0-0.118-0.008-0.208-0.027c-0.091-0.018-0.188-0.025-0.29-0.025
		c-0.146,0-0.274,0.021-0.387,0.063c-0.112,0.043-0.214,0.104-0.306,0.188c-0.089,0.08-0.168,0.18-0.236,0.297
		c-0.069,0.118-0.131,0.252-0.191,0.402v3.1h-1.051v-4.988h0.61c0.112,0,0.187,0.02,0.23,0.061c0.042,0.041,0.07,0.111,0.087,0.213
		L246.33,23.72z"/>
	<path fill="#FFFFFF" d="M250.465,21.289c0,0.094-0.019,0.185-0.057,0.269c-0.039,0.086-0.091,0.16-0.155,0.223
		c-0.064,0.064-0.142,0.114-0.227,0.152c-0.087,0.037-0.179,0.057-0.276,0.057c-0.096,0-0.185-0.02-0.266-0.057
		c-0.083-0.038-0.156-0.088-0.221-0.152c-0.061-0.063-0.11-0.137-0.147-0.223c-0.039-0.084-0.058-0.175-0.058-0.269
		c0-0.098,0.019-0.19,0.058-0.274c0.037-0.084,0.087-0.16,0.147-0.223c0.064-0.063,0.138-0.113,0.221-0.151
		c0.081-0.037,0.17-0.057,0.266-0.057c0.098,0,0.189,0.02,0.276,0.057c0.085,0.038,0.162,0.089,0.227,0.151s0.116,0.139,0.155,0.223
		C250.446,21.099,250.465,21.191,250.465,21.289z M250.288,22.796v4.988h-1.054v-4.988H250.288z"/>
	<path fill="#FFFFFF" d="M251.736,23.489c0.563-0.525,1.235-0.787,2.015-0.787c0.287,0,0.54,0.047,0.765,0.141
		c0.225,0.092,0.411,0.224,0.565,0.393c0.149,0.17,0.266,0.371,0.345,0.604c0.081,0.234,0.12,0.493,0.12,0.775v3.17h-0.47
		c-0.1,0-0.178-0.015-0.229-0.045c-0.054-0.032-0.098-0.094-0.133-0.189l-0.104-0.406c-0.125,0.114-0.254,0.217-0.376,0.307
		c-0.125,0.09-0.251,0.165-0.383,0.226c-0.133,0.063-0.273,0.11-0.428,0.14c-0.149,0.032-0.317,0.048-0.5,0.048
		c-0.204,0-0.394-0.028-0.565-0.083c-0.173-0.055-0.324-0.139-0.453-0.253c-0.127-0.112-0.227-0.251-0.301-0.418
		c-0.073-0.165-0.108-0.362-0.108-0.587c0-0.192,0.05-0.379,0.153-0.563c0.103-0.182,0.272-0.347,0.508-0.491
		c0.236-0.145,0.55-0.265,0.935-0.359c0.389-0.095,0.862-0.149,1.432-0.161v-0.334c0-0.357-0.075-0.624-0.231-0.802
		c-0.151-0.176-0.378-0.264-0.673-0.264c-0.203,0-0.372,0.025-0.511,0.076c-0.135,0.05-0.256,0.105-0.357,0.163
		c-0.1,0.059-0.189,0.113-0.268,0.164c-0.079,0.05-0.16,0.076-0.25,0.076c-0.07,0-0.131-0.02-0.183-0.057s-0.094-0.084-0.127-0.14
		L251.736,23.489z M254.524,25.603c-0.374,0.014-0.692,0.044-0.95,0.091c-0.257,0.047-0.465,0.107-0.625,0.181
		c-0.16,0.074-0.276,0.162-0.345,0.264c-0.073,0.1-0.106,0.212-0.106,0.332c0,0.115,0.02,0.217,0.057,0.3
		c0.037,0.085,0.089,0.152,0.155,0.206c0.067,0.053,0.147,0.092,0.237,0.117c0.089,0.024,0.189,0.037,0.295,0.037
		c0.274,0,0.509-0.052,0.704-0.154c0.202-0.104,0.391-0.252,0.578-0.447V25.603z"/>
	<path fill="#FFFFFF" d="M260.461,25.374c0.013,0.283,0.059,0.529,0.134,0.735c0.074,0.207,0.174,0.38,0.299,0.517
		c0.129,0.136,0.278,0.238,0.453,0.306c0.172,0.066,0.367,0.101,0.583,0.101c0.204,0,0.383-0.024,0.532-0.072
		c0.151-0.046,0.282-0.1,0.393-0.156s0.206-0.109,0.282-0.156c0.077-0.047,0.15-0.07,0.215-0.07c0.085,0,0.151,0.032,0.197,0.098
		l0.297,0.385c-0.123,0.148-0.264,0.271-0.42,0.373c-0.158,0.101-0.322,0.184-0.498,0.248c-0.177,0.063-0.359,0.108-0.545,0.135
		c-0.185,0.029-0.365,0.043-0.542,0.043c-0.345,0-0.667-0.058-0.96-0.174c-0.297-0.115-0.553-0.286-0.769-0.511
		c-0.216-0.226-0.387-0.505-0.507-0.836c-0.125-0.334-0.185-0.716-0.185-1.149c0-0.347,0.054-0.67,0.164-0.969
		c0.107-0.301,0.264-0.562,0.47-0.783c0.203-0.223,0.45-0.397,0.743-0.527c0.291-0.127,0.621-0.192,0.989-0.192
		c0.308,0,0.59,0.051,0.852,0.149c0.262,0.1,0.486,0.246,0.675,0.438c0.189,0.192,0.337,0.428,0.442,0.707
		c0.106,0.279,0.16,0.597,0.16,0.951c0,0.163-0.019,0.273-0.054,0.329c-0.037,0.055-0.104,0.083-0.195,0.083H260.461z
		 M262.971,24.728c0-0.178-0.024-0.34-0.076-0.491c-0.05-0.153-0.123-0.284-0.223-0.397c-0.096-0.111-0.216-0.2-0.365-0.264
		c-0.144-0.063-0.31-0.096-0.501-0.096c-0.38,0-0.68,0.109-0.897,0.328c-0.221,0.219-0.359,0.525-0.418,0.92H262.971z"/>
	<path fill="#FFFFFF" d="M267.695,23.489c0.564-0.525,1.236-0.787,2.015-0.787c0.287,0,0.543,0.047,0.767,0.141
		c0.225,0.092,0.409,0.224,0.563,0.393c0.151,0.17,0.268,0.371,0.347,0.604c0.081,0.234,0.118,0.493,0.118,0.775v3.17h-0.467
		c-0.1,0-0.179-0.015-0.23-0.045c-0.053-0.032-0.096-0.094-0.131-0.189l-0.104-0.406c-0.129,0.114-0.253,0.217-0.376,0.307
		c-0.124,0.09-0.253,0.165-0.386,0.226c-0.129,0.063-0.272,0.11-0.424,0.14c-0.154,0.032-0.32,0.048-0.501,0.048
		c-0.202,0-0.391-0.028-0.565-0.083c-0.174-0.055-0.326-0.139-0.453-0.253c-0.126-0.112-0.226-0.251-0.301-0.418
		c-0.075-0.165-0.11-0.362-0.11-0.587c0-0.192,0.052-0.379,0.154-0.563c0.104-0.182,0.273-0.347,0.509-0.491
		c0.236-0.145,0.548-0.265,0.935-0.359s0.862-0.149,1.43-0.161v-0.334c0-0.357-0.075-0.624-0.229-0.802
		c-0.154-0.176-0.378-0.264-0.676-0.264c-0.201,0-0.371,0.025-0.509,0.076c-0.135,0.05-0.256,0.105-0.357,0.163
		c-0.1,0.059-0.188,0.113-0.268,0.164c-0.077,0.05-0.162,0.076-0.249,0.076c-0.073,0-0.136-0.02-0.184-0.057
		c-0.052-0.037-0.093-0.084-0.126-0.14L267.695,23.489z M270.483,25.603c-0.374,0.014-0.692,0.044-0.947,0.091
		c-0.258,0.047-0.468,0.107-0.628,0.181c-0.16,0.074-0.271,0.162-0.345,0.264c-0.068,0.1-0.104,0.212-0.104,0.332
		c0,0.115,0.019,0.217,0.056,0.3c0.037,0.085,0.09,0.152,0.158,0.206c0.066,0.053,0.144,0.092,0.232,0.117
		c0.092,0.024,0.188,0.037,0.297,0.037c0.272,0,0.51-0.052,0.707-0.154c0.199-0.104,0.386-0.252,0.573-0.447V25.603z"/>
	<path fill="#FFFFFF" d="M273.974,23.72c0.155-0.316,0.343-0.564,0.566-0.746c0.221-0.181,0.486-0.271,0.798-0.271
		c0.106,0,0.208,0.012,0.302,0.036c0.093,0.024,0.181,0.062,0.253,0.111l-0.07,0.792c-0.017,0.057-0.035,0.094-0.063,0.115
		s-0.064,0.031-0.112,0.031c-0.046,0-0.118-0.008-0.207-0.027c-0.092-0.018-0.188-0.025-0.291-0.025
		c-0.146,0-0.274,0.021-0.387,0.063c-0.114,0.043-0.214,0.104-0.306,0.188c-0.087,0.08-0.168,0.18-0.236,0.297
		c-0.068,0.118-0.131,0.252-0.191,0.402v3.1h-1.051v-4.988h0.612c0.112,0,0.188,0.02,0.23,0.061c0.04,0.041,0.071,0.111,0.086,0.213
		L273.974,23.72z"/>
	<path fill="#FFFFFF" d="M280.908,22.796v6.647h-1.052v-2.338c-0.205,0.225-0.436,0.405-0.691,0.544
		c-0.258,0.14-0.555,0.209-0.894,0.209c-0.28,0-0.536-0.056-0.763-0.169c-0.23-0.112-0.426-0.276-0.588-0.491
		c-0.164-0.216-0.288-0.482-0.38-0.801c-0.089-0.317-0.133-0.682-0.133-1.093c0-0.372,0.05-0.715,0.147-1.032
		c0.1-0.316,0.245-0.592,0.428-0.824c0.188-0.232,0.413-0.416,0.68-0.548c0.266-0.132,0.563-0.198,0.894-0.198
		c0.157,0,0.303,0.015,0.436,0.043c0.133,0.026,0.254,0.066,0.368,0.121s0.216,0.118,0.31,0.195c0.094,0.078,0.185,0.164,0.27,0.263
		l0.064-0.328c0.04-0.135,0.127-0.2,0.269-0.2H280.908z M279.856,24.022c-0.147-0.186-0.308-0.316-0.483-0.393
		c-0.177-0.076-0.368-0.115-0.574-0.115c-0.409,0-0.73,0.15-0.964,0.453c-0.23,0.301-0.345,0.748-0.345,1.337
		c0,0.307,0.025,0.569,0.075,0.786c0.054,0.217,0.131,0.393,0.227,0.529c0.098,0.138,0.218,0.236,0.357,0.299
		c0.141,0.062,0.299,0.093,0.476,0.093c0.266,0,0.496-0.058,0.691-0.173c0.193-0.117,0.374-0.279,0.54-0.492V24.022z"/>
	<path fill="#FFFFFF" d="M286.642,22.796v4.988h-0.638c-0.139,0-0.229-0.066-0.268-0.2l-0.079-0.464
		c-0.102,0.111-0.214,0.211-0.328,0.303c-0.119,0.091-0.239,0.17-0.37,0.235c-0.131,0.064-0.271,0.114-0.42,0.15
		c-0.149,0.037-0.308,0.055-0.476,0.055c-0.274,0-0.518-0.048-0.725-0.138c-0.208-0.091-0.385-0.221-0.526-0.387
		c-0.141-0.165-0.247-0.364-0.321-0.598c-0.071-0.233-0.104-0.491-0.104-0.771v-3.175h1.052v3.175c0,0.335,0.077,0.597,0.23,0.782
		s0.391,0.279,0.706,0.279c0.232,0,0.449-0.054,0.65-0.16c0.201-0.105,0.389-0.252,0.565-0.438v-3.639H286.642z"/>
	<path fill="#FFFFFF" d="M289.44,21.289c0,0.094-0.021,0.185-0.059,0.269c-0.035,0.086-0.087,0.16-0.151,0.223
		c-0.066,0.064-0.144,0.114-0.23,0.152c-0.086,0.037-0.177,0.057-0.276,0.057c-0.094,0-0.181-0.02-0.264-0.057
		c-0.086-0.038-0.158-0.088-0.221-0.152c-0.061-0.063-0.11-0.137-0.149-0.223c-0.035-0.084-0.057-0.175-0.057-0.269
		c0-0.098,0.021-0.19,0.057-0.274c0.039-0.084,0.089-0.16,0.149-0.223c0.063-0.063,0.135-0.113,0.221-0.151
		c0.083-0.037,0.17-0.057,0.264-0.057c0.1,0,0.19,0.02,0.276,0.057c0.087,0.038,0.164,0.089,0.23,0.151
		c0.064,0.063,0.116,0.139,0.151,0.223C289.419,21.099,289.44,21.191,289.44,21.289z M289.262,22.796v4.988h-1.052v-4.988H289.262z"
		/>
	<path fill="#FFFFFF" d="M292.432,27.863c-0.413,0-0.733-0.117-0.956-0.351c-0.224-0.232-0.334-0.561-0.334-0.984v-2.906h-0.549
		c-0.058,0-0.107-0.019-0.151-0.057c-0.041-0.037-0.064-0.094-0.064-0.168v-0.426l0.811-0.118l0.229-1.442
		c0.015-0.055,0.041-0.102,0.083-0.135c0.037-0.034,0.091-0.051,0.155-0.051h0.538v1.639h1.384v0.758h-1.384v2.832
		c0,0.18,0.044,0.317,0.131,0.412c0.092,0.094,0.206,0.141,0.354,0.141c0.083,0,0.151-0.01,0.21-0.031
		c0.061-0.021,0.108-0.044,0.153-0.069c0.042-0.024,0.077-0.048,0.108-0.067c0.033-0.021,0.061-0.033,0.092-0.033
		c0.058,0,0.105,0.033,0.141,0.098l0.313,0.516c-0.164,0.143-0.356,0.252-0.577,0.329C292.895,27.824,292.669,27.863,292.432,27.863
		z"/>
	<path fill="#FFFFFF" d="M295.382,25.374c0.015,0.283,0.058,0.529,0.131,0.735c0.077,0.207,0.177,0.38,0.301,0.517
		c0.127,0.136,0.278,0.238,0.451,0.306c0.175,0.066,0.37,0.101,0.584,0.101c0.203,0,0.382-0.024,0.533-0.072
		c0.15-0.046,0.283-0.1,0.394-0.156c0.109-0.057,0.203-0.109,0.282-0.156s0.149-0.07,0.214-0.07c0.085,0,0.149,0.032,0.197,0.098
		l0.297,0.385c-0.122,0.148-0.262,0.271-0.419,0.373c-0.158,0.101-0.324,0.184-0.499,0.248c-0.177,0.063-0.357,0.108-0.544,0.135
		c-0.186,0.029-0.366,0.043-0.543,0.043c-0.347,0-0.667-0.058-0.962-0.174c-0.293-0.115-0.55-0.286-0.767-0.511
		c-0.218-0.226-0.386-0.505-0.509-0.836c-0.122-0.334-0.183-0.716-0.183-1.149c0-0.347,0.056-0.67,0.162-0.969
		c0.11-0.301,0.266-0.562,0.472-0.783c0.201-0.223,0.451-0.397,0.741-0.527c0.293-0.127,0.624-0.192,0.993-0.192
		c0.306,0,0.588,0.051,0.85,0.149c0.26,0.1,0.486,0.246,0.676,0.438c0.187,0.192,0.336,0.428,0.442,0.707
		c0.105,0.279,0.16,0.597,0.16,0.951c0,0.163-0.02,0.273-0.055,0.329c-0.037,0.055-0.102,0.083-0.197,0.083H295.382z
		 M297.892,24.728c0-0.178-0.025-0.34-0.077-0.491c-0.05-0.153-0.123-0.284-0.223-0.397c-0.098-0.111-0.218-0.2-0.363-0.264
		c-0.146-0.063-0.313-0.096-0.503-0.096c-0.38,0-0.679,0.109-0.899,0.328c-0.218,0.219-0.357,0.525-0.415,0.92H297.892z"/>
	<path fill="#FFFFFF" d="M301.614,27.863c-0.413,0-0.733-0.117-0.958-0.351c-0.225-0.232-0.334-0.561-0.334-0.984v-2.906h-0.549
		c-0.059,0-0.108-0.019-0.151-0.057c-0.042-0.037-0.064-0.094-0.064-0.168v-0.426l0.81-0.118l0.229-1.442
		c0.017-0.055,0.044-0.102,0.084-0.135c0.039-0.034,0.093-0.051,0.155-0.051h0.538v1.639h1.386v0.758h-1.386v2.832
		c0,0.18,0.046,0.317,0.133,0.412c0.09,0.094,0.206,0.141,0.352,0.141c0.083,0,0.153-0.01,0.212-0.031
		c0.058-0.021,0.107-0.044,0.151-0.069c0.042-0.024,0.079-0.048,0.11-0.067c0.029-0.021,0.06-0.033,0.089-0.033
		c0.061,0,0.106,0.033,0.142,0.098l0.315,0.516c-0.164,0.143-0.357,0.252-0.579,0.329C302.077,27.824,301.847,27.863,301.614,27.863
		z"/>
	<path fill="#FFFFFF" d="M308.042,22.796v4.988h-0.636c-0.142,0-0.23-0.066-0.271-0.2l-0.076-0.464
		c-0.106,0.111-0.217,0.211-0.333,0.303c-0.114,0.091-0.236,0.17-0.367,0.235c-0.131,0.064-0.271,0.114-0.42,0.15
		c-0.147,0.037-0.308,0.055-0.478,0.055c-0.272,0-0.514-0.048-0.724-0.138c-0.207-0.091-0.382-0.221-0.525-0.387
		c-0.141-0.165-0.249-0.364-0.32-0.598c-0.072-0.233-0.107-0.491-0.107-0.771v-3.175h1.051v3.175c0,0.335,0.079,0.597,0.233,0.782
		c0.155,0.186,0.391,0.279,0.708,0.279c0.23,0,0.446-0.054,0.646-0.16c0.199-0.105,0.391-0.252,0.563-0.438v-3.639H308.042z"/>
	<path fill="#FFFFFF" d="M310.56,23.72c0.158-0.316,0.347-0.564,0.567-0.746c0.223-0.181,0.488-0.271,0.798-0.271
		c0.107,0,0.208,0.012,0.303,0.036c0.094,0.024,0.179,0.062,0.254,0.111l-0.073,0.792c-0.012,0.057-0.033,0.094-0.06,0.115
		c-0.027,0.021-0.064,0.031-0.11,0.031c-0.05,0-0.118-0.008-0.212-0.027c-0.089-0.018-0.187-0.025-0.287-0.025
		c-0.147,0-0.276,0.021-0.39,0.063c-0.112,0.043-0.212,0.104-0.304,0.188c-0.09,0.08-0.168,0.18-0.237,0.297
		c-0.068,0.118-0.133,0.252-0.19,0.402v3.1h-1.052v-4.988h0.611c0.112,0,0.188,0.02,0.23,0.061c0.043,0.041,0.07,0.111,0.089,0.213
		L310.56,23.72z"/>
	<path fill="#FFFFFF" d="M313.225,23.489c0.565-0.525,1.238-0.787,2.016-0.787c0.289,0,0.544,0.047,0.769,0.141
		c0.223,0.092,0.409,0.224,0.559,0.393c0.152,0.17,0.271,0.371,0.35,0.604c0.079,0.234,0.118,0.493,0.118,0.775v3.17h-0.468
		c-0.102,0-0.179-0.015-0.23-0.045c-0.052-0.032-0.096-0.094-0.133-0.189l-0.102-0.406c-0.129,0.114-0.254,0.217-0.376,0.307
		c-0.125,0.09-0.252,0.165-0.385,0.226c-0.133,0.063-0.274,0.11-0.426,0.14c-0.151,0.032-0.319,0.048-0.501,0.048
		c-0.203,0-0.39-0.028-0.566-0.083c-0.173-0.055-0.324-0.139-0.451-0.253c-0.127-0.112-0.229-0.251-0.304-0.418
		c-0.072-0.165-0.107-0.362-0.107-0.587c0-0.192,0.052-0.379,0.153-0.563c0.104-0.182,0.272-0.347,0.509-0.491
		c0.237-0.145,0.547-0.265,0.936-0.359c0.386-0.095,0.862-0.149,1.429-0.161v-0.334c0-0.357-0.074-0.624-0.229-0.802
		c-0.153-0.176-0.378-0.264-0.675-0.264c-0.201,0-0.372,0.025-0.509,0.076c-0.138,0.05-0.256,0.105-0.357,0.163
		c-0.1,0.059-0.189,0.113-0.269,0.164c-0.078,0.05-0.164,0.076-0.249,0.076c-0.072,0-0.135-0.02-0.185-0.057
		s-0.092-0.084-0.123-0.14L313.225,23.489z M316.013,25.603c-0.374,0.014-0.691,0.044-0.947,0.091
		c-0.257,0.047-0.467,0.107-0.627,0.181c-0.16,0.074-0.274,0.162-0.345,0.264c-0.068,0.1-0.104,0.212-0.104,0.332
		c0,0.115,0.017,0.217,0.057,0.3c0.037,0.085,0.089,0.152,0.155,0.206c0.066,0.053,0.146,0.092,0.235,0.117
		c0.091,0.024,0.188,0.037,0.297,0.037c0.274,0,0.509-0.052,0.706-0.154c0.197-0.104,0.389-0.252,0.573-0.447V25.603z"/>
</g>
<line fill="none" stroke="#FFFFFF" stroke-width="0.66" stroke-miterlimit="10" x1="107.124" y1="36.786" x2="107.124" y2="8.569"/>
<g>
	<path fill="#FFFFFF" d="M54.642,34.436c-2.169-0.599-4.106-1.269-6.068-2.008c-0.323-0.137-0.668-0.207-1.016-0.231
		c-3.6-0.183-6.807-2.837-6.807-7.891c0-4.799,2.976-8.167,7.429-8.167c4.501,0,7.176,3.461,7.176,7.843
		c0,3.739-1.73,6.256-4.014,7.178v0.091c1.339,0.371,2.836,0.693,4.108,0.923L54.642,34.436z M48.065,29.914
		c2.724,0,4.292-2.537,4.292-5.792c0-2.955-1.454-5.7-4.27-5.7c-2.839,0-4.338,2.701-4.338,5.816c0,3.114,1.593,5.676,4.292,5.676
		H48.065L48.065,29.914z"/>
	<path fill="#FFFFFF" d="M58.683,19.092c-0.945,0-1.568-0.694-1.568-1.521c0-0.877,0.645-1.548,1.593-1.548
		c0.968,0,1.568,0.669,1.592,1.548c0,0.828-0.623,1.521-1.592,1.521H58.683z M57.274,20.707h2.837v11.237h-2.837V20.707z"/>
	<path fill="#FFFFFF" d="M62.84,28.852c0.899,0.529,2.304,0.992,3.761,0.992c1.799,0,2.814-0.854,2.814-2.123
		c0-1.176-0.784-1.869-2.744-2.584c-2.586-0.9-4.224-2.283-4.224-4.5c0-2.562,2.122-4.477,5.515-4.477
		c1.685,0,2.908,0.369,3.715,0.761l-0.668,2.307c-0.577-0.299-1.661-0.737-3.115-0.737c-1.8,0-2.561,0.947-2.561,1.869
		c0,1.202,0.899,1.755,2.977,2.538c2.698,1.04,3.991,2.401,3.991,4.613c0,2.516-1.891,4.661-5.884,4.661
		c-1.661,0-3.37-0.461-4.223-0.969L62.84,28.852z"/>
	<path fill="#FFFFFF" d="M83.189,29.244c0,1.015,0.046,2.006,0.185,2.699h-2.561l-0.208-1.247h-0.071
		c-0.667,0.878-1.844,1.5-3.321,1.5c-2.261,0-3.531-1.637-3.531-3.344c0-2.816,2.515-4.27,6.667-4.246v-0.185
		c0-0.739-0.3-1.962-2.283-1.962c-1.106,0-2.261,0.345-3.022,0.829l-0.555-1.845c0.831-0.51,2.284-0.993,4.063-0.993
		c3.599,0,4.637,2.284,4.637,4.753V29.244z M80.42,26.454c-2.007-0.023-3.923,0.391-3.923,2.098c0,1.109,0.715,1.617,1.615,1.617
		c1.154,0,1.961-0.739,2.237-1.547c0.07-0.207,0.07-0.415,0.07-0.625L80.42,26.454L80.42,26.454z"/>
	<path fill="#FFFFFF" d="M88.89,17.822v2.884h2.7v2.122h-2.7v4.939c0,1.384,0.37,2.076,1.454,2.076c0.507,0,0.785-0.022,1.108-0.115
		l0.046,2.146c-0.417,0.161-1.178,0.299-2.054,0.299c-1.062,0-1.916-0.346-2.445-0.923c-0.623-0.646-0.901-1.683-0.901-3.16v-5.262
		h-1.591v-2.122h1.591v-2.099L88.89,17.822z"/>
	<g>
		<path fill="#FFFFFF" d="M0.722,22.438h12.769l9.477-14.101H10.207L0.722,22.438z M13.908,22.679l9.655,14.367L23.266,37.5H10.078
			c-0.091,0-0.17-0.049-0.212-0.124L0.07,22.812L0.063,22.8c-0.006-0.01-0.011-0.021-0.015-0.032
			c-0.009-0.017-0.013-0.036-0.016-0.055L0.03,22.699l-0.001-0.017v-0.01l0.001-0.016l0.002-0.016
			c0.003-0.016,0.007-0.037,0.016-0.055c0.004-0.01,0.009-0.02,0.015-0.031l0.007-0.011L9.868,7.981
			c0.041-0.073,0.121-0.125,0.211-0.125h13.187l0.296,0.456L13.908,22.679z M13.491,22.919H0.722l9.485,14.103h12.761L13.491,22.919
			z"/>
		<path fill="#FFFFFF" d="M23.416,8.162H10.089l9.788,14.583l-9.788,14.58l13.317-0.004l9.817-14.576L23.416,8.162z"/>
		<polygon fill="#FFFFFF" points="14.461,26.316 16.917,22.677 16.917,22.677 14.461,19.035 11.161,19.035 13.616,22.677 
			11.161,26.316 		"/>
		<polygon fill="#FFFFFF" points="9.251,25.228 10.97,22.68 9.251,20.131 6.943,20.131 8.66,22.68 6.943,25.228 		"/>
	</g>
</g>
</svg>
