<?xml version="1.0" encoding="utf-8"?>
<!-- Generator: Adobe Illustrator 16.0.0, SVG Export Plug-In . SVG Version: 6.00 Build 0)  -->
<!DOCTYPE svg PUBLIC "-//W3C//DTD SVG 1.1//EN" "http://www.w3.org/Graphics/SVG/1.1/DTD/svg11.dtd">
<svg version="1.1" id="Camada_1" xmlns="http://www.w3.org/2000/svg" xmlns:xlink="http://www.w3.org/1999/xlink" x="0px" y="0px"
	 width="317px" height="38.5px" viewBox="0 0 317 38.5" enable-background="new 0 0 317 38.5" xml:space="preserve">
<g>
	<g>
		<polygon opacity="0.6" fill="#FFFFFF" points="0,17.59 15.412,17.59 26.725,34.56 11.332,34.56 11.329,34.565 		"/>
		<polygon opacity="0.8" fill="#FFFFFF" points="26.755,0.612 11.343,0.612 0.029,17.58 15.423,17.58 15.427,17.586 		"/>
		<polygon fill="#FFFFFF" points="38.078,17.59 22.667,17.59 11.353,34.56 26.746,34.56 26.75,34.565 		"/>
		<polygon opacity="0.8" fill="#FFFFFF" points="11.324,0.612 26.735,0.612 38.05,17.58 22.655,17.58 22.651,17.586 		"/>
		<polygon fill="#FFFFFF" points="19.038,17.595 16.198,13.341 12.395,13.341 15.23,17.595 15.228,17.595 12.395,21.831 
			16.205,21.831 19.038,17.595 		"/>
		<polygon fill="#FFFFFF" points="12.394,17.595 10.406,14.618 7.747,14.618 9.73,17.595 9.728,17.595 7.746,20.561 10.411,20.561 
			12.395,17.595 		"/>
		<g>
			<path fill="#FFFFFF" d="M87.587,24.514c-0.882-0.75-2.322-1.343-4.402-1.806c-1.979-0.439-3.304-0.881-3.937-1.313
				c-0.585-0.397-0.88-1.165-0.88-2.278c0-2.015,1.326-2.997,4.058-2.997c1.097,0,2.992,0.165,5.628,0.487l0.253,0.031l0.255-2.36
				l-1.215-0.18c-1.955-0.287-3.659-0.433-5.066-0.433c-4.415,0-6.655,1.883-6.655,5.595c0,1.854,0.504,3.198,1.501,4.001
				c0.963,0.779,2.604,1.419,4.878,1.903c1.658,0.319,2.799,0.705,3.388,1.147c0.551,0.418,0.833,1.129,0.833,2.112
				c0,2.519-1.309,3.743-4.001,3.743c-1.343,0-3.332-0.173-5.913-0.514L76.06,31.62l-0.292,2.336l1.276,0.178
				c2.11,0.325,3.892,0.491,5.294,0.491c4.382,0,6.602-2.144,6.602-6.37C88.94,26.538,88.485,25.28,87.587,24.514z"/>
			<path fill="#FFFFFF" d="M103.61,33.629c-0.146-1.648-0.232-3.549-0.232-5.085v-4.599c0-3.69-1.878-5.335-6.089-5.335
				c-2.183,0-4.604,0.656-4.953,0.884l-0.133,0.087l0.556,2.166l0.227-0.085c1.583-0.578,2.868-0.825,4.303-0.825
				c2.575,0,3.626,0.901,3.626,3.108v1.296c-1.273-0.407-3.114-0.85-5.119-0.85c-3.282,0-4.683,1.452-4.683,4.855
				c0,4.403,2.332,4.967,4.362,4.967c2.104,0,4.372-0.861,5.629-1.74l0.279,1.559l2.247-0.184L103.61,33.629z M95.759,26.582
				c1.522,0,3.373,0.248,5.106,0.679c0.001,1.27,0.023,2.263,0.067,3.102c-1.353,1.003-3.361,1.672-5.038,1.672
				c-1.659,0-2.246-0.674-2.246-2.577C93.649,27.675,93.751,26.582,95.759,26.582z"/>
			<path fill="#FFFFFF" d="M114.484,34.543c-2.668,0.093-4.182-0.331-4.942-0.996c-0.76-0.666-1.141-1.929-1.141-3.786v-9.314
				h-3.194v-1.868h3.194v-4.912h2.884v4.912h3.199v1.868h-3.199v9.473c0,1.098,0.21,1.831,0.633,2.201s1.278,0.553,2.566,0.553
				V34.543z"/>
			<path fill="#FFFFFF" d="M71.813,16.645h-2.85v-2.978h2.85V16.645z M71.813,34.228h-2.85V18.609h2.85V34.228z"/>
			<path fill="#FFFFFF" d="M65.17,27.668v-7.043c0-4.125-2.761-6.958-8.033-6.958c-5.159,0-8.083,2.786-8.083,6.958v7.043
				c0,4.173,2.925,6.958,8.083,6.958c1.599,0,2.965-0.262,4.096-0.74l1.973,1.972l1.553-1.563l-1.615-1.615
				C64.484,31.457,65.17,29.722,65.17,27.668z M58.691,28.225l-1.553,1.563l2.491,2.493c-0.657,0.234-1.474,0.361-2.497,0.361
				c-5.484,0-5.157-3.65-5.157-8.442c0-4.821-0.328-8.548,5.157-8.548c5.486,0,5.114,3.729,5.114,8.548
				c0,2.81,0.125,5.21-0.856,6.726L58.691,28.225z"/>
		</g>
	</g>
	<line fill="#FFFFFF" stroke="#FFFFFF" stroke-miterlimit="10" x1="129.726" y1="38.5" x2="129.726" y2="1.375"/>
	<g>
		<path fill="#FFFFFF" d="M152.867,23.948c0,2.736-1.663,4.188-3.692,4.188c-2.1,0-3.574-1.628-3.574-4.034
			c0-2.524,1.568-4.175,3.692-4.175C151.463,19.926,152.867,21.589,152.867,23.948z M146.698,24.078c0,1.698,0.92,3.22,2.536,3.22
			c1.627,0,2.548-1.498,2.548-3.302c0-1.581-0.826-3.232-2.536-3.232C147.547,20.764,146.698,22.333,146.698,24.078z"/>
		<path fill="#FFFFFF" d="M160.974,27.793c-0.271,0.142-0.873,0.331-1.639,0.331c-1.722,0-2.843-1.168-2.843-2.914
			c0-1.757,1.203-3.031,3.067-3.031c0.613,0,1.156,0.153,1.439,0.295l-0.236,0.802c-0.248-0.141-0.637-0.271-1.203-0.271
			c-1.31,0-2.017,0.967-2.017,2.158c0,1.321,0.849,2.135,1.981,2.135c0.59,0,0.979-0.153,1.274-0.283L160.974,27.793z"/>
		<path fill="#FFFFFF" d="M165.47,28.006l-0.083-0.72h-0.035c-0.319,0.448-0.932,0.85-1.746,0.85c-1.156,0-1.746-0.814-1.746-1.64
			c0-1.38,1.227-2.135,3.433-2.123v-0.118c0-0.472-0.13-1.321-1.297-1.321c-0.531,0-1.085,0.165-1.486,0.424l-0.236-0.684
			c0.472-0.307,1.156-0.507,1.875-0.507c1.746,0,2.17,1.191,2.17,2.335v2.135c0,0.495,0.023,0.979,0.094,1.368H165.47z
			 M165.316,25.093c-1.132-0.024-2.418,0.177-2.418,1.285c0,0.672,0.448,0.991,0.979,0.991c0.743,0,1.215-0.472,1.38-0.956
			c0.036-0.106,0.059-0.224,0.059-0.331V25.093z"/>
		<path fill="#FFFFFF" d="M168.113,23.842c0-0.59-0.012-1.074-0.047-1.545h0.92l0.059,0.944h0.023
			c0.283-0.542,0.944-1.073,1.887-1.073c0.791,0,2.017,0.472,2.017,2.43v3.409h-1.038v-3.291c0-0.92-0.342-1.687-1.321-1.687
			c-0.685,0-1.215,0.483-1.392,1.062c-0.047,0.13-0.071,0.307-0.071,0.483v3.433h-1.038V23.842z"/>
		<path fill="#FFFFFF" d="M177.941,28.006l-0.083-0.72h-0.035c-0.318,0.448-0.932,0.85-1.746,0.85c-1.156,0-1.746-0.814-1.746-1.64
			c0-1.38,1.227-2.135,3.433-2.123v-0.118c0-0.472-0.13-1.321-1.297-1.321c-0.531,0-1.085,0.165-1.486,0.424l-0.236-0.684
			c0.472-0.307,1.156-0.507,1.875-0.507c1.746,0,2.17,1.191,2.17,2.335v2.135c0,0.495,0.023,0.979,0.094,1.368H177.941z
			 M177.788,25.093c-1.132-0.024-2.418,0.177-2.418,1.285c0,0.672,0.448,0.991,0.979,0.991c0.743,0,1.215-0.472,1.38-0.956
			c0.036-0.106,0.059-0.224,0.059-0.331V25.093z"/>
		<path fill="#FFFFFF" d="M180.585,19.631h1.038v8.375h-1.038V19.631z"/>
		<path fill="#FFFFFF" d="M186.685,25.34c0.023,1.403,0.92,1.981,1.958,1.981c0.743,0,1.191-0.13,1.581-0.295l0.177,0.743
			c-0.366,0.165-0.991,0.354-1.899,0.354c-1.757,0-2.807-1.156-2.807-2.878c0-1.723,1.014-3.079,2.677-3.079
			c1.864,0,2.359,1.639,2.359,2.689c0,0.212-0.024,0.377-0.036,0.484H186.685z M189.728,24.597c0.012-0.661-0.271-1.687-1.439-1.687
			c-1.05,0-1.51,0.967-1.592,1.687H189.728z"/>
		<path fill="#FFFFFF" d="M194.873,24.432v0.767h-2.913v-0.767H194.873z"/>
		<path fill="#FFFFFF" d="M196.207,19.631h1.038v8.375h-1.038V19.631z"/>
		<path fill="#FFFFFF" d="M199.687,25.34c0.023,1.403,0.92,1.981,1.958,1.981c0.743,0,1.191-0.13,1.581-0.295l0.177,0.743
			c-0.366,0.165-0.991,0.354-1.899,0.354c-1.757,0-2.807-1.156-2.807-2.878c0-1.723,1.014-3.079,2.677-3.079
			c1.864,0,2.359,1.639,2.359,2.689c0,0.212-0.024,0.377-0.036,0.484H199.687z M202.73,24.597c0.012-0.661-0.271-1.687-1.439-1.687
			c-1.05,0-1.51,0.967-1.592,1.687H202.73z"/>
		<path fill="#FFFFFF" d="M208.299,28.006l-0.083-0.72h-0.035c-0.318,0.448-0.932,0.85-1.746,0.85c-1.156,0-1.746-0.814-1.746-1.64
			c0-1.38,1.227-2.135,3.433-2.123v-0.118c0-0.472-0.13-1.321-1.297-1.321c-0.531,0-1.085,0.165-1.486,0.424l-0.236-0.684
			c0.472-0.307,1.156-0.507,1.875-0.507c1.746,0,2.17,1.191,2.17,2.335v2.135c0,0.495,0.023,0.979,0.094,1.368H208.299z
			 M208.146,25.093c-1.132-0.024-2.418,0.177-2.418,1.285c0,0.672,0.448,0.991,0.979,0.991c0.743,0,1.215-0.472,1.38-0.956
			c0.036-0.106,0.059-0.224,0.059-0.331V25.093z"/>
		<path fill="#FFFFFF" d="M210.943,24.078c0-0.672-0.012-1.25-0.047-1.781h0.908l0.035,1.121h0.047
			c0.259-0.767,0.885-1.25,1.581-1.25c0.118,0,0.2,0.012,0.295,0.035v0.979c-0.106-0.023-0.212-0.035-0.354-0.035
			c-0.731,0-1.25,0.554-1.392,1.333c-0.024,0.142-0.047,0.307-0.047,0.484v3.043h-1.026V24.078z"/>
		<path fill="#FFFFFF" d="M214.967,23.842c0-0.59-0.012-1.074-0.047-1.545h0.92l0.059,0.944h0.023
			c0.283-0.542,0.944-1.073,1.887-1.073c0.791,0,2.017,0.472,2.017,2.43v3.409h-1.038v-3.291c0-0.92-0.342-1.687-1.321-1.687
			c-0.685,0-1.215,0.483-1.392,1.062c-0.047,0.13-0.071,0.307-0.071,0.483v3.433h-1.038V23.842z"/>
		<path fill="#FFFFFF" d="M222.79,20.693c0.012,0.354-0.248,0.637-0.661,0.637c-0.366,0-0.625-0.283-0.625-0.637
			c0-0.366,0.271-0.649,0.648-0.649C222.542,20.044,222.79,20.327,222.79,20.693z M221.633,28.006v-5.709h1.038v5.709H221.633z"/>
		<path fill="#FFFFFF" d="M224.512,23.842c0-0.59-0.012-1.074-0.047-1.545h0.92l0.059,0.944h0.023
			c0.283-0.542,0.944-1.073,1.887-1.073c0.791,0,2.017,0.472,2.017,2.43v3.409h-1.038v-3.291c0-0.92-0.342-1.687-1.321-1.687
			c-0.685,0-1.215,0.483-1.392,1.062c-0.047,0.13-0.071,0.307-0.071,0.483v3.433h-1.038V23.842z"/>
		<path fill="#FFFFFF" d="M236.098,22.297c-0.024,0.413-0.047,0.873-0.047,1.569v3.314c0,1.309-0.259,2.111-0.814,2.607
			c-0.554,0.519-1.356,0.684-2.076,0.684c-0.684,0-1.439-0.166-1.899-0.472l0.259-0.79c0.377,0.236,0.967,0.448,1.675,0.448
			c1.062,0,1.84-0.555,1.84-1.993v-0.637h-0.024c-0.318,0.531-0.932,0.956-1.816,0.956c-1.416,0-2.43-1.203-2.43-2.784
			c0-1.935,1.262-3.031,2.571-3.031c0.991,0,1.533,0.519,1.781,0.991h0.023l0.047-0.861H236.098z M235.024,24.55
			c0-0.177-0.012-0.33-0.059-0.472c-0.189-0.602-0.696-1.097-1.451-1.097c-0.991,0-1.698,0.837-1.698,2.158
			c0,1.121,0.566,2.052,1.687,2.052c0.637,0,1.215-0.401,1.439-1.062c0.059-0.177,0.083-0.377,0.083-0.554V24.55z"/>
		<path fill="#FFFFFF" d="M245.442,19.631v6.9c0,0.507,0.012,1.085,0.047,1.475h-0.932l-0.047-0.991h-0.023
			c-0.318,0.637-1.014,1.121-1.946,1.121c-1.38,0-2.441-1.168-2.441-2.902c-0.012-1.899,1.167-3.066,2.56-3.066
			c0.873,0,1.462,0.413,1.722,0.873h0.023v-3.409H245.442z M244.404,24.621c0-0.129-0.012-0.307-0.047-0.436
			c-0.153-0.661-0.719-1.203-1.498-1.203c-1.073,0-1.71,0.943-1.71,2.206c0,1.156,0.566,2.111,1.687,2.111
			c0.696,0,1.333-0.46,1.521-1.238c0.036-0.142,0.047-0.283,0.047-0.448V24.621z"/>
		<path fill="#FFFFFF" d="M250.445,28.006l-0.083-0.72h-0.035c-0.319,0.448-0.932,0.85-1.746,0.85c-1.156,0-1.746-0.814-1.746-1.64
			c0-1.38,1.227-2.135,3.433-2.123v-0.118c0-0.472-0.13-1.321-1.297-1.321c-0.531,0-1.085,0.165-1.486,0.424l-0.236-0.684
			c0.472-0.307,1.156-0.507,1.875-0.507c1.746,0,2.17,1.191,2.17,2.335v2.135c0,0.495,0.023,0.979,0.094,1.368H250.445z
			 M250.292,25.093c-1.132-0.024-2.418,0.177-2.418,1.285c0,0.672,0.448,0.991,0.979,0.991c0.743,0,1.215-0.472,1.38-0.956
			c0.036-0.106,0.059-0.224,0.059-0.331V25.093z"/>
		<path fill="#FFFFFF" d="M256.287,25.34c0.023,1.403,0.92,1.981,1.958,1.981c0.743,0,1.191-0.13,1.581-0.295l0.177,0.743
			c-0.366,0.165-0.991,0.354-1.899,0.354c-1.757,0-2.807-1.156-2.807-2.878c0-1.723,1.014-3.079,2.677-3.079
			c1.864,0,2.359,1.639,2.359,2.689c0,0.212-0.024,0.377-0.036,0.484H256.287z M259.33,24.597c0.012-0.661-0.271-1.687-1.439-1.687
			c-1.05,0-1.51,0.967-1.592,1.687H259.33z"/>
		<path fill="#FFFFFF" d="M261.738,23.842c0-0.59-0.012-1.074-0.047-1.545h0.92l0.059,0.944h0.023
			c0.283-0.542,0.944-1.073,1.887-1.073c0.791,0,2.017,0.472,2.017,2.43v3.409h-1.038v-3.291c0-0.92-0.342-1.687-1.321-1.687
			c-0.685,0-1.215,0.483-1.392,1.062c-0.047,0.13-0.071,0.307-0.071,0.483v3.433h-1.038V23.842z"/>
		<path fill="#FFFFFF" d="M273.323,22.297c-0.024,0.413-0.047,0.873-0.047,1.569v3.314c0,1.309-0.259,2.111-0.814,2.607
			c-0.554,0.519-1.356,0.684-2.076,0.684c-0.684,0-1.439-0.166-1.899-0.472l0.259-0.79c0.377,0.236,0.967,0.448,1.675,0.448
			c1.062,0,1.84-0.555,1.84-1.993v-0.637h-0.024c-0.318,0.531-0.932,0.956-1.816,0.956c-1.416,0-2.43-1.203-2.43-2.784
			c0-1.935,1.262-3.031,2.571-3.031c0.991,0,1.533,0.519,1.781,0.991h0.023l0.047-0.861H273.323z M272.25,24.55
			c0-0.177-0.012-0.33-0.059-0.472c-0.189-0.602-0.696-1.097-1.451-1.097c-0.991,0-1.698,0.837-1.698,2.158
			c0,1.121,0.566,2.052,1.687,2.052c0.637,0,1.215-0.401,1.439-1.062c0.059-0.177,0.083-0.377,0.083-0.554V24.55z"/>
		<path fill="#FFFFFF" d="M275.696,25.34c0.023,1.403,0.92,1.981,1.958,1.981c0.743,0,1.191-0.13,1.581-0.295l0.177,0.743
			c-0.366,0.165-0.991,0.354-1.899,0.354c-1.757,0-2.807-1.156-2.807-2.878c0-1.723,1.014-3.079,2.677-3.079
			c1.864,0,2.359,1.639,2.359,2.689c0,0.212-0.024,0.377-0.036,0.484H275.696z M278.739,24.597c0.012-0.661-0.271-1.687-1.439-1.687
			c-1.05,0-1.51,0.967-1.592,1.687H278.739z"/>
		<path fill="#FFFFFF" d="M281.147,23.842c0-0.59-0.012-1.074-0.047-1.545h0.92l0.059,0.944h0.023
			c0.283-0.542,0.944-1.073,1.887-1.073c0.791,0,2.017,0.472,2.017,2.43v3.409h-1.038v-3.291c0-0.92-0.342-1.687-1.321-1.687
			c-0.685,0-1.215,0.483-1.392,1.062c-0.047,0.13-0.071,0.307-0.071,0.483v3.433h-1.038V23.842z"/>
		<path fill="#FFFFFF" d="M287.813,19.631h1.038v3.562h0.023c0.166-0.295,0.425-0.554,0.743-0.731
			c0.307-0.177,0.672-0.294,1.062-0.294c0.767,0,1.994,0.472,1.994,2.441v3.397h-1.038v-3.279c0-0.92-0.342-1.698-1.321-1.698
			c-0.672,0-1.203,0.472-1.392,1.038c-0.059,0.142-0.071,0.295-0.071,0.495v3.444h-1.038V19.631z"/>
		<path fill="#FFFFFF" d="M297.641,28.006l-0.083-0.72h-0.035c-0.319,0.448-0.932,0.85-1.746,0.85c-1.156,0-1.746-0.814-1.746-1.64
			c0-1.38,1.227-2.135,3.433-2.123v-0.118c0-0.472-0.13-1.321-1.297-1.321c-0.531,0-1.085,0.165-1.486,0.424l-0.236-0.684
			c0.472-0.307,1.156-0.507,1.875-0.507c1.746,0,2.17,1.191,2.17,2.335v2.135c0,0.495,0.023,0.979,0.094,1.368H297.641z
			 M297.487,25.093c-1.132-0.024-2.418,0.177-2.418,1.285c0,0.672,0.448,0.991,0.979,0.991c0.743,0,1.215-0.472,1.38-0.956
			c0.036-0.106,0.059-0.224,0.059-0.331V25.093z"/>
		<path fill="#FFFFFF" d="M300.285,24.078c0-0.672-0.012-1.25-0.047-1.781h0.908l0.035,1.121h0.047
			c0.259-0.767,0.885-1.25,1.581-1.25c0.118,0,0.201,0.012,0.295,0.035v0.979c-0.106-0.023-0.212-0.035-0.354-0.035
			c-0.731,0-1.25,0.554-1.392,1.333c-0.024,0.142-0.047,0.307-0.047,0.484v3.043h-1.026V24.078z"/>
		<path fill="#FFFFFF" d="M305.464,20.693c0.012,0.354-0.248,0.637-0.661,0.637c-0.366,0-0.625-0.283-0.625-0.637
			c0-0.366,0.271-0.649,0.648-0.649C305.216,20.044,305.464,20.327,305.464,20.693z M304.308,28.006v-5.709h1.038v5.709H304.308z"/>
		<path fill="#FFFFFF" d="M310.348,28.006l-0.083-0.72h-0.035c-0.318,0.448-0.932,0.85-1.746,0.85c-1.156,0-1.746-0.814-1.746-1.64
			c0-1.38,1.227-2.135,3.433-2.123v-0.118c0-0.472-0.13-1.321-1.297-1.321c-0.531,0-1.085,0.165-1.486,0.424l-0.236-0.684
			c0.472-0.307,1.156-0.507,1.875-0.507c1.746,0,2.17,1.191,2.17,2.335v2.135c0,0.495,0.023,0.979,0.094,1.368H310.348z
			 M310.195,25.093c-1.132-0.024-2.418,0.177-2.418,1.285c0,0.672,0.448,0.991,0.979,0.991c0.743,0,1.215-0.472,1.38-0.956
			c0.036-0.106,0.059-0.224,0.059-0.331V25.093z"/>
	</g>
</g>
</svg>
