<?xml version="1.0" encoding="utf-8"?>
<!-- Generator: Adobe Illustrator 17.0.0, SVG Export Plug-In . SVG Version: 6.00 Build 0)  -->
<!DOCTYPE svg PUBLIC "-//W3C//DTD SVG 1.1//EN" "http://www.w3.org/Graphics/SVG/1.1/DTD/svg11.dtd">
<svg version="1.1" id="Camada_1" xmlns="http://www.w3.org/2000/svg" xmlns:xlink="http://www.w3.org/1999/xlink" x="0px" y="0px"
	 width="415px" height="38.5px" viewBox="0 0 415 38.5" enable-background="new 0 0 415 38.5" xml:space="preserve">
<g>
	<line fill="#005B94" stroke="#005B94" stroke-miterlimit="10" x1="129.093" y1="39.237" x2="129.093" y2="1.166"/>
	<g>
		<polygon fill="#556770" points="-0.5,17.984 14.765,17.984 25.971,34.792 10.725,34.792 10.72,34.797 		"/>
		<polygon opacity="0.6" fill="#556770" points="26,1.166 10.735,1.166 -0.473,17.974 14.775,17.974 14.779,17.981 		"/>
		<polygon fill="#005B94" points="37.216,17.984 21.95,17.984 10.744,34.792 25.991,34.792 25.995,34.797 		"/>
		<polygon fill="#28B67C" points="10.716,1.166 25.979,1.166 37.187,17.974 21.938,17.974 21.935,17.981 		"/>
		<g>
			<polygon fill="#005B94" points="15.55,22.184 18.356,17.989 14.582,17.989 11.776,22.184 			"/>
			<polygon fill="#005B94" points="15.543,13.776 18.356,17.989 14.585,17.989 11.776,13.776 			"/>
		</g>
		<g>
			<polygon fill="#28B67C" points="9.811,20.926 11.776,17.989 9.135,17.989 7.172,20.926 			"/>
			<polygon fill="#28B67C" points="9.808,15.04 11.776,17.989 9.137,17.989 7.172,15.04 			"/>
		</g>
	</g>
	<g>
		<path fill="#005B94" d="M85.677,24.842c-0.874-0.745-2.301-1.329-4.361-1.791c-1.959-0.434-3.271-0.871-3.898-1.296
			c-0.579-0.396-0.872-1.155-0.872-2.258c0-1.996,1.314-2.967,4.019-2.967c1.087,0,2.963,0.162,5.575,0.482l0.251,0.03l0.252-2.339
			l-1.203-0.178c-1.937-0.285-3.625-0.43-5.018-0.43c-4.374,0-6.594,1.865-6.594,5.542c0,1.836,0.502,3.168,1.488,3.963
			c0.955,0.771,2.578,1.405,4.832,1.886c1.642,0.316,2.771,0.696,3.354,1.136c0.548,0.414,0.826,1.118,0.826,2.094
			c0,2.494-1.297,3.705-3.963,3.705c-1.33,0-3.301-0.171-5.856-0.509l-0.25-0.034l-0.289,2.314l1.265,0.177
			c2.09,0.322,3.854,0.485,5.243,0.485c4.339,0,6.539-2.124,6.539-6.309C87.017,26.846,86.565,25.6,85.677,24.842z"/>
		<path fill="#005B94" d="M101.546,33.87c-0.145-1.632-0.23-3.515-0.23-5.036v-4.556c0-3.655-1.86-5.285-6.031-5.285
			c-2.161,0-4.56,0.653-4.905,0.878l-0.132,0.085l0.551,2.144l0.226-0.082c1.566-0.574,2.841-0.818,4.261-0.818
			c2.551,0,3.592,0.892,3.592,3.078v1.286c-1.261-0.404-3.084-0.845-5.07-0.845c-3.25,0-4.638,1.438-4.638,4.809
			c0,4.362,2.31,4.921,4.321,4.921c2.084,0,4.33-0.853,5.574-1.724l0.277,1.543l2.225-0.181L101.546,33.87z M93.771,26.889
			c1.508,0,3.341,0.245,5.057,0.673c0.002,1.256,0.023,2.241,0.068,3.071c-1.341,0.994-3.328,1.656-4.991,1.656
			c-1.642,0-2.224-0.667-2.224-2.553C91.681,27.972,91.781,26.889,93.771,26.889z"/>
		<path fill="#005B94" d="M112.316,34.775c-2.644,0.093-4.142-0.329-4.896-0.987c-0.752-0.66-1.13-1.91-1.13-3.75v-9.224h-3.164
			v-1.853h3.164v-4.864h2.856v4.864h3.169v1.853h-3.169v9.38c0,1.089,0.209,1.815,0.627,2.182c0.419,0.366,1.266,0.549,2.542,0.549
			V34.775z"/>
		<path fill="#005B94" d="M70.054,17.047H67.23v-2.95h2.823V17.047z M70.054,34.46H67.23V18.993h2.823V34.46z"/>
		<path fill="#005B94" d="M63.474,27.964v-6.976c0-4.084-2.734-6.892-7.956-6.892c-5.108,0-8.006,2.76-8.006,6.892v6.976
			c0,4.133,2.897,6.893,8.006,6.893c1.583,0,2.938-0.261,4.057-0.735l1.954,1.956l1.539-1.548l-1.601-1.601
			C62.794,31.718,63.474,30,63.474,27.964z M57.056,28.518l-1.538,1.547l2.468,2.468c-0.65,0.233-1.461,0.359-2.473,0.359
			c-5.434,0-5.107-3.615-5.107-8.361c0-4.775-0.326-8.467,5.107-8.467s5.064,3.693,5.064,8.467c0,2.782,0.123,5.159-0.848,6.661
			L57.056,28.518z"/>
	</g>
	<g>
		<path fill="#005B94" d="M148.472,27.265c-1.385,0-2.325-0.383-2.819-1.15c-0.494-0.766-0.742-2.027-0.742-3.782
			c0-1.754,0.25-3.004,0.748-3.747c0.499-0.743,1.436-1.115,2.812-1.115c0.822,0,1.727,0.115,2.715,0.346l-0.055,1.246
			c-0.831-0.148-1.663-0.221-2.494-0.221c-0.831,0-1.394,0.247-1.69,0.741c-0.296,0.494-0.443,1.422-0.443,2.784
			c0,1.363,0.143,2.29,0.43,2.784c0.286,0.494,0.845,0.742,1.676,0.742c0.831,0,1.672-0.069,2.522-0.208l0.041,1.274
			C150.222,27.163,149.322,27.265,148.472,27.265z"/>
		<path fill="#005B94" d="M156.728,20.187h1.496v6.926h-1.496v-0.429c-0.675,0.387-1.297,0.582-1.87,0.582
			c-0.951,0-1.589-0.256-1.912-0.769c-0.323-0.513-0.485-1.411-0.485-2.694v-3.616h1.51v3.629c0,0.831,0.069,1.39,0.208,1.676
			c0.138,0.287,0.461,0.43,0.97,0.43c0.499,0,0.956-0.092,1.371-0.277l0.208-0.083V20.187z"/>
		<path fill="#005B94" d="M160.053,27.113v-6.926h1.496v0.831c0.785-0.508,1.57-0.836,2.355-0.984v1.51
			c-0.794,0.157-1.473,0.36-2.037,0.609l-0.305,0.125v4.834H160.053z"/>
		<path fill="#005B94" d="M169.86,21.613c-1.09-0.148-1.879-0.221-2.369-0.221s-0.829,0.058-1.018,0.173
			c-0.189,0.116-0.284,0.298-0.284,0.547c0,0.25,0.104,0.425,0.312,0.526c0.208,0.102,0.697,0.22,1.468,0.354
			c0.771,0.134,1.318,0.344,1.642,0.63c0.323,0.287,0.485,0.794,0.485,1.524c0,0.73-0.233,1.265-0.7,1.607
			c-0.466,0.342-1.147,0.513-2.043,0.513c-0.563,0-1.274-0.079-2.133-0.236l-0.429-0.069l0.055-1.261
			c1.108,0.148,1.907,0.222,2.396,0.222s0.838-0.06,1.046-0.18c0.208-0.12,0.312-0.319,0.312-0.596c0-0.277-0.1-0.469-0.298-0.575
			c-0.199-0.106-0.675-0.221-1.427-0.346s-1.304-0.321-1.655-0.589c-0.351-0.267-0.526-0.757-0.526-1.468
			c0-0.711,0.242-1.242,0.727-1.593c0.485-0.351,1.106-0.526,1.863-0.526c0.591,0,1.316,0.074,2.175,0.221l0.429,0.083
			L169.86,21.613z"/>
		<path fill="#005B94" d="M171.931,20.935c0.476-0.601,1.268-0.901,2.376-0.901c1.108,0,1.9,0.3,2.375,0.901
			c0.476,0.6,0.714,1.5,0.714,2.701c0,1.201-0.231,2.106-0.693,2.715c-0.462,0.609-1.261,0.914-2.396,0.914
			c-1.136,0-1.935-0.305-2.396-0.914c-0.462-0.609-0.693-1.514-0.693-2.715C171.217,22.435,171.455,21.535,171.931,20.935z
			 M173.06,25.437c0.213,0.37,0.628,0.554,1.247,0.554c0.619,0,1.034-0.184,1.246-0.554c0.213-0.369,0.319-0.974,0.319-1.815
			s-0.114-1.436-0.339-1.787c-0.227-0.351-0.635-0.526-1.226-0.526s-1,0.175-1.226,0.526c-0.226,0.351-0.339,0.946-0.339,1.787
			S172.847,25.068,173.06,25.437z"/>
		<path fill="#005B94" d="M183.698,21.613c-1.09-0.148-1.879-0.221-2.369-0.221c-0.489,0-0.829,0.058-1.018,0.173
			c-0.189,0.116-0.284,0.298-0.284,0.547c0,0.25,0.104,0.425,0.312,0.526c0.208,0.102,0.697,0.22,1.468,0.354
			c0.771,0.134,1.318,0.344,1.642,0.63c0.323,0.287,0.485,0.794,0.485,1.524c0,0.73-0.233,1.265-0.7,1.607
			c-0.466,0.342-1.147,0.513-2.043,0.513c-0.563,0-1.274-0.079-2.133-0.236l-0.429-0.069l0.055-1.261
			c1.108,0.148,1.907,0.222,2.396,0.222c0.489,0,0.838-0.06,1.046-0.18c0.208-0.12,0.312-0.319,0.312-0.596
			c0-0.277-0.1-0.469-0.298-0.575c-0.199-0.106-0.675-0.221-1.427-0.346s-1.304-0.321-1.655-0.589
			c-0.351-0.267-0.526-0.757-0.526-1.468c0-0.711,0.242-1.242,0.727-1.593c0.485-0.351,1.106-0.526,1.863-0.526
			c0.591,0,1.316,0.074,2.175,0.221l0.429,0.083L183.698,21.613z"/>
		<path fill="#005B94" d="M193.561,22.32v3.159c0.009,0.203,0.063,0.353,0.159,0.45c0.097,0.097,0.247,0.159,0.45,0.187l-0.041,1.15
			c-0.794,0-1.409-0.171-1.842-0.513c-0.739,0.342-1.482,0.513-2.23,0.513c-1.376,0-2.064-0.734-2.064-2.203
			c0-0.702,0.187-1.209,0.561-1.524c0.374-0.314,0.949-0.504,1.725-0.568l1.787-0.152V22.32c0-0.369-0.081-0.628-0.242-0.775
			c-0.162-0.148-0.4-0.222-0.713-0.222c-0.592,0-1.33,0.037-2.217,0.111l-0.443,0.028l-0.055-1.067
			c1.007-0.24,1.933-0.36,2.777-0.36c0.845,0,1.455,0.183,1.829,0.547C193.374,20.947,193.561,21.526,193.561,22.32z
			 M190.458,24.038c-0.637,0.055-0.956,0.402-0.956,1.039c0,0.638,0.281,0.956,0.845,0.956c0.462,0,0.951-0.074,1.468-0.222
			l0.249-0.083v-1.842L190.458,24.038z"/>
		<path fill="#005B94" d="M195.458,30.091v-9.905h1.496v0.429c0.637-0.387,1.233-0.582,1.787-0.582c0.914,0,1.584,0.28,2.009,0.838
			c0.424,0.559,0.637,1.496,0.637,2.812c0,1.316-0.242,2.242-0.727,2.777c-0.485,0.536-1.277,0.804-2.375,0.804
			c-0.379,0-0.818-0.042-1.316-0.125v2.951H195.458z M198.478,21.378c-0.434,0-0.868,0.097-1.302,0.291l-0.208,0.097v4.087
			c0.37,0.074,0.776,0.111,1.219,0.111c0.628,0,1.062-0.18,1.302-0.54c0.24-0.36,0.36-0.975,0.36-1.843
			C199.849,22.112,199.392,21.378,198.478,21.378z"/>
		<path fill="#005B94" d="M202.98,27.113v-9.808h1.51v9.808H202.98z"/>
		<path fill="#005B94" d="M206.401,19.009v-1.593h1.51v1.593H206.401z M206.401,27.113v-6.926h1.51v6.926H206.401z"/>
		<path fill="#005B94" d="M212.33,20.034c0.489,0,1.066,0.065,1.732,0.194l0.346,0.069l-0.055,1.192
			c-0.73-0.074-1.27-0.111-1.621-0.111c-0.702,0-1.173,0.157-1.413,0.471c-0.24,0.314-0.36,0.905-0.36,1.773
			s0.116,1.468,0.347,1.801c0.231,0.332,0.711,0.499,1.44,0.499l1.621-0.111l0.042,1.205c-0.933,0.167-1.635,0.25-2.105,0.25
			c-1.053,0-1.794-0.284-2.223-0.852c-0.43-0.568-0.644-1.498-0.644-2.791c0-1.293,0.226-2.214,0.679-2.763
			C210.566,20.309,211.305,20.034,212.33,20.034z"/>
		<path fill="#005B94" d="M220.987,22.32v3.159c0.009,0.203,0.063,0.353,0.159,0.45c0.097,0.097,0.247,0.159,0.45,0.187l-0.041,1.15
			c-0.794,0-1.409-0.171-1.842-0.513c-0.739,0.342-1.483,0.513-2.23,0.513c-1.376,0-2.064-0.734-2.064-2.203
			c0-0.702,0.187-1.209,0.561-1.524c0.374-0.314,0.949-0.504,1.725-0.568l1.787-0.152V22.32c0-0.369-0.081-0.628-0.242-0.775
			c-0.162-0.148-0.4-0.222-0.713-0.222c-0.592,0-1.33,0.037-2.217,0.111l-0.443,0.028l-0.055-1.067
			c1.007-0.24,1.933-0.36,2.777-0.36s1.455,0.183,1.829,0.547C220.8,20.947,220.987,21.526,220.987,22.32z M217.885,24.038
			c-0.637,0.055-0.956,0.402-0.956,1.039c0,0.638,0.281,0.956,0.845,0.956c0.462,0,0.951-0.074,1.468-0.222l0.249-0.083v-1.842
			L217.885,24.038z"/>
		<path fill="#005B94" d="M228.536,17.305v9.808h-1.496v-0.36c-0.674,0.342-1.293,0.513-1.856,0.513
			c-0.905,0-1.567-0.272-1.987-0.817c-0.421-0.545-0.63-1.459-0.63-2.743c0-1.283,0.233-2.216,0.699-2.798
			c0.467-0.582,1.193-0.873,2.182-0.873c0.332,0,0.858,0.06,1.579,0.18v-2.909H228.536z M226.791,25.672l0.236-0.097v-4.1
			c-0.554-0.092-1.067-0.138-1.538-0.138c-0.933,0-1.399,0.775-1.399,2.327c0,0.849,0.108,1.438,0.325,1.766
			c0.217,0.328,0.561,0.492,1.032,0.492C225.918,25.922,226.366,25.838,226.791,25.672z"/>
		<path fill="#005B94" d="M230.746,20.935c0.476-0.601,1.268-0.901,2.376-0.901c1.108,0,1.9,0.3,2.375,0.901
			c0.476,0.6,0.714,1.5,0.714,2.701c0,1.201-0.231,2.106-0.693,2.715c-0.462,0.609-1.261,0.914-2.396,0.914
			c-1.136,0-1.935-0.305-2.396-0.914c-0.462-0.609-0.693-1.514-0.693-2.715C230.032,22.435,230.27,21.535,230.746,20.935z
			 M231.875,25.437c0.213,0.37,0.628,0.554,1.247,0.554c0.619,0,1.034-0.184,1.246-0.554c0.213-0.369,0.319-0.974,0.319-1.815
			s-0.114-1.436-0.339-1.787c-0.227-0.351-0.635-0.526-1.226-0.526c-0.591,0-1,0.175-1.226,0.526
			c-0.226,0.351-0.339,0.946-0.339,1.787S231.662,25.068,231.875,25.437z"/>
		<path fill="#005B94" d="M242.513,21.613c-1.09-0.148-1.879-0.221-2.369-0.221s-0.829,0.058-1.018,0.173
			c-0.189,0.116-0.284,0.298-0.284,0.547c0,0.25,0.104,0.425,0.312,0.526c0.208,0.102,0.697,0.22,1.468,0.354
			c0.771,0.134,1.318,0.344,1.642,0.63c0.323,0.287,0.485,0.794,0.485,1.524c0,0.73-0.233,1.265-0.7,1.607
			c-0.466,0.342-1.147,0.513-2.043,0.513c-0.563,0-1.274-0.079-2.133-0.236l-0.429-0.069l0.055-1.261
			c1.108,0.148,1.907,0.222,2.396,0.222s0.838-0.06,1.046-0.18c0.208-0.12,0.312-0.319,0.312-0.596c0-0.277-0.1-0.469-0.298-0.575
			c-0.199-0.106-0.675-0.221-1.427-0.346s-1.304-0.321-1.655-0.589c-0.351-0.267-0.526-0.757-0.526-1.468
			c0-0.711,0.242-1.242,0.727-1.593c0.485-0.351,1.106-0.526,1.863-0.526c0.591,0,1.316,0.074,2.175,0.221l0.429,0.083
			L242.513,21.613z"/>
		<path fill="#005B94" d="M252.376,22.32v3.159c0.009,0.203,0.063,0.353,0.159,0.45c0.097,0.097,0.247,0.159,0.45,0.187l-0.041,1.15
			c-0.794,0-1.409-0.171-1.842-0.513c-0.739,0.342-1.483,0.513-2.23,0.513c-1.376,0-2.064-0.734-2.064-2.203
			c0-0.702,0.187-1.209,0.561-1.524c0.374-0.314,0.949-0.504,1.725-0.568l1.787-0.152V22.32c0-0.369-0.081-0.628-0.242-0.775
			c-0.162-0.148-0.4-0.222-0.713-0.222c-0.592,0-1.33,0.037-2.217,0.111l-0.443,0.028l-0.055-1.067
			c1.007-0.24,1.933-0.36,2.777-0.36s1.455,0.183,1.829,0.547C252.189,20.947,252.376,21.526,252.376,22.32z M248.346,16.751
			l3.269,1.399l-0.36,0.984l-3.379-1.08L248.346,16.751z M249.273,24.038c-0.637,0.055-0.956,0.402-0.956,1.039
			c0,0.638,0.281,0.956,0.845,0.956c0.462,0,0.951-0.074,1.468-0.222l0.249-0.083v-1.842L249.273,24.038z"/>
		<path fill="#005B94" d="M262.253,25.866l0.388-0.041l0.028,1.122c-1.053,0.212-1.986,0.319-2.798,0.319
			c-1.025,0-1.762-0.282-2.209-0.845c-0.448-0.563-0.672-1.464-0.672-2.701c0-2.456,1.002-3.685,3.006-3.685
			c1.939,0,2.909,1.058,2.909,3.172l-0.097,1.08h-4.294c0.009,0.573,0.134,0.993,0.374,1.261c0.24,0.268,0.687,0.402,1.344,0.402
			C260.886,25.949,261.56,25.922,262.253,25.866z M261.421,23.123c0-0.683-0.109-1.162-0.325-1.434
			c-0.217-0.272-0.584-0.408-1.101-0.408c-0.518,0-0.893,0.143-1.129,0.429c-0.236,0.287-0.358,0.758-0.367,1.413H261.421z"/>
		<path fill="#005B94" d="M265.868,27.113h-1.51v-6.926h1.496v0.429c0.674-0.387,1.311-0.582,1.912-0.582
			c0.923,0,1.553,0.261,1.891,0.783c0.337,0.522,0.505,1.383,0.505,2.583v3.713h-1.496v-3.671c0-0.748-0.081-1.279-0.242-1.593
			c-0.162-0.314-0.492-0.471-0.991-0.471c-0.471,0-0.924,0.093-1.358,0.277l-0.208,0.083V27.113z"/>
		<path fill="#005B94" d="M277.975,28.055c0,1.514-1.095,2.271-3.284,2.271c-1.053,0-1.833-0.143-2.341-0.429
			c-0.508-0.287-0.762-0.808-0.762-1.566c0-0.341,0.083-0.635,0.25-0.879c0.166-0.245,0.434-0.51,0.803-0.796
			c-0.304-0.204-0.457-0.54-0.457-1.011c0-0.184,0.125-0.485,0.374-0.9l0.125-0.208c-0.665-0.397-0.997-1.09-0.997-2.078
			c0-0.831,0.249-1.441,0.748-1.829c0.499-0.388,1.173-0.582,2.022-0.582c0.406,0,0.808,0.046,1.205,0.138l0.208,0.042l2.147-0.056
			v1.219l-1.15-0.069c0.25,0.323,0.374,0.702,0.374,1.136c0,0.905-0.229,1.53-0.686,1.877c-0.457,0.346-1.17,0.52-2.14,0.52
			c-0.24,0-0.443-0.018-0.609-0.055c-0.13,0.314-0.194,0.556-0.194,0.727s0.085,0.288,0.256,0.353
			c0.171,0.065,0.584,0.101,1.24,0.111c1.099,0.009,1.851,0.157,2.258,0.443C277.771,26.72,277.975,27.26,277.975,28.055z
			 M273.071,28.193c0,0.323,0.129,0.554,0.387,0.693c0.259,0.138,0.702,0.208,1.33,0.208c1.117,0,1.676-0.319,1.676-0.956
			c0-0.36-0.1-0.588-0.298-0.686c-0.199-0.097-0.594-0.15-1.184-0.159l-1.358-0.083c-0.204,0.166-0.346,0.32-0.43,0.464
			C273.112,27.817,273.071,27.99,273.071,28.193z M273.487,23.393c0.203,0.199,0.531,0.298,0.983,0.298
			c0.453,0,0.778-0.1,0.976-0.298s0.298-0.51,0.298-0.935s-0.102-0.737-0.305-0.935c-0.204-0.199-0.531-0.298-0.984-0.298
			c-0.849,0-1.274,0.411-1.274,1.233C273.182,22.884,273.283,23.195,273.487,23.393z"/>
		<path fill="#005B94" d="M284.125,25.866l0.388-0.041l0.028,1.122c-1.053,0.212-1.986,0.319-2.798,0.319
			c-1.025,0-1.762-0.282-2.209-0.845c-0.448-0.563-0.672-1.464-0.672-2.701c0-2.456,1.002-3.685,3.006-3.685
			c1.939,0,2.909,1.058,2.909,3.172l-0.097,1.08h-4.294c0.009,0.573,0.134,0.993,0.374,1.261c0.24,0.268,0.687,0.402,1.344,0.402
			C282.758,25.949,283.432,25.922,284.125,25.866z M283.294,23.123c0-0.683-0.109-1.162-0.325-1.434
			c-0.217-0.272-0.584-0.408-1.101-0.408c-0.518,0-0.893,0.143-1.129,0.429c-0.236,0.287-0.358,0.758-0.367,1.413H283.294z"/>
		<path fill="#005B94" d="M287.74,27.113h-1.51v-6.926h1.496v0.429c0.674-0.387,1.311-0.582,1.912-0.582
			c0.923,0,1.553,0.261,1.891,0.783c0.337,0.522,0.505,1.383,0.505,2.583v3.713h-1.496v-3.671c0-0.748-0.081-1.279-0.242-1.593
			c-0.162-0.314-0.492-0.471-0.991-0.471c-0.471,0-0.924,0.093-1.358,0.277l-0.208,0.083V27.113z"/>
		<path fill="#005B94" d="M295.303,27.113h-1.51v-9.808h1.51v3.242c0.684-0.342,1.316-0.513,1.898-0.513
			c0.923,0,1.553,0.261,1.891,0.783c0.337,0.522,0.505,1.383,0.505,2.583v3.713h-1.51v-3.671c0-0.748-0.079-1.279-0.236-1.593
			c-0.157-0.314-0.49-0.471-0.997-0.471c-0.443,0-0.887,0.074-1.33,0.222l-0.222,0.083V27.113z"/>
		<path fill="#005B94" d="M306.482,22.32v3.159c0.009,0.203,0.063,0.353,0.159,0.45c0.097,0.097,0.247,0.159,0.45,0.187l-0.041,1.15
			c-0.794,0-1.409-0.171-1.842-0.513c-0.739,0.342-1.482,0.513-2.23,0.513c-1.376,0-2.064-0.734-2.064-2.203
			c0-0.702,0.187-1.209,0.561-1.524c0.374-0.314,0.949-0.504,1.725-0.568l1.787-0.152V22.32c0-0.369-0.081-0.628-0.242-0.775
			c-0.162-0.148-0.4-0.222-0.713-0.222c-0.592,0-1.33,0.037-2.217,0.111l-0.443,0.028l-0.055-1.067
			c1.007-0.24,1.933-0.36,2.777-0.36c0.845,0,1.455,0.183,1.829,0.547C306.295,20.947,306.482,21.526,306.482,22.32z
			 M303.379,24.038c-0.637,0.055-0.956,0.402-0.956,1.039c0,0.638,0.281,0.956,0.845,0.956c0.462,0,0.951-0.074,1.468-0.222
			l0.249-0.083v-1.842L303.379,24.038z"/>
		<path fill="#005B94" d="M308.38,27.113v-6.926h1.496v0.831c0.785-0.508,1.57-0.836,2.355-0.984v1.51
			c-0.794,0.157-1.473,0.36-2.037,0.609l-0.305,0.125v4.834H308.38z"/>
		<path fill="#005B94" d="M313.38,19.009v-1.593h1.51v1.593H313.38z M313.38,27.113v-6.926h1.51v6.926H313.38z"/>
		<path fill="#005B94" d="M321.844,22.32v3.159c0.009,0.203,0.063,0.353,0.159,0.45c0.097,0.097,0.247,0.159,0.45,0.187l-0.041,1.15
			c-0.794,0-1.409-0.171-1.842-0.513c-0.739,0.342-1.483,0.513-2.23,0.513c-1.376,0-2.064-0.734-2.064-2.203
			c0-0.702,0.187-1.209,0.561-1.524c0.374-0.314,0.949-0.504,1.725-0.568l1.787-0.152V22.32c0-0.369-0.081-0.628-0.242-0.775
			c-0.162-0.148-0.4-0.222-0.713-0.222c-0.592,0-1.33,0.037-2.217,0.111l-0.443,0.028l-0.055-1.067
			c1.007-0.24,1.933-0.36,2.777-0.36s1.455,0.183,1.829,0.547C321.657,20.947,321.844,21.526,321.844,22.32z M318.741,24.038
			c-0.637,0.055-0.956,0.402-0.956,1.039c0,0.638,0.281,0.956,0.845,0.956c0.462,0,0.951-0.074,1.468-0.222l0.249-0.083v-1.842
			L318.741,24.038z"/>
		<path fill="#005B94" d="M331.721,25.866l0.388-0.041l0.028,1.122c-1.053,0.212-1.986,0.319-2.798,0.319
			c-1.025,0-1.762-0.282-2.209-0.845c-0.448-0.563-0.672-1.464-0.672-2.701c0-2.456,1.002-3.685,3.006-3.685
			c1.939,0,2.909,1.058,2.909,3.172l-0.097,1.08h-4.294c0.009,0.573,0.134,0.993,0.374,1.261c0.24,0.268,0.687,0.402,1.344,0.402
			C330.354,25.949,331.028,25.922,331.721,25.866z M330.889,23.123c0-0.683-0.109-1.162-0.325-1.434
			c-0.217-0.272-0.584-0.408-1.101-0.408c-0.518,0-0.893,0.143-1.129,0.429c-0.236,0.287-0.358,0.758-0.367,1.413H330.889z"/>
		<path fill="#005B94" d="M341.998,22.32v3.159c0.009,0.203,0.063,0.353,0.159,0.45c0.097,0.097,0.247,0.159,0.45,0.187l-0.041,1.15
			c-0.794,0-1.409-0.171-1.842-0.513c-0.739,0.342-1.483,0.513-2.23,0.513c-1.376,0-2.064-0.734-2.064-2.203
			c0-0.702,0.187-1.209,0.561-1.524c0.374-0.314,0.949-0.504,1.725-0.568l1.787-0.152V22.32c0-0.369-0.081-0.628-0.242-0.775
			c-0.162-0.148-0.4-0.222-0.713-0.222c-0.592,0-1.33,0.037-2.217,0.111l-0.443,0.028l-0.055-1.067
			c1.007-0.24,1.933-0.36,2.777-0.36s1.455,0.183,1.829,0.547C341.812,20.947,341.998,21.526,341.998,22.32z M338.896,24.038
			c-0.637,0.055-0.956,0.402-0.956,1.039c0,0.638,0.281,0.956,0.845,0.956c0.462,0,0.951-0.074,1.468-0.222l0.249-0.083v-1.842
			L338.896,24.038z"/>
		<path fill="#005B94" d="M343.896,27.113v-6.926h1.496v0.831c0.785-0.508,1.57-0.836,2.355-0.984v1.51
			c-0.794,0.157-1.473,0.36-2.037,0.609l-0.305,0.125v4.834H343.896z"/>
		<path fill="#005B94" d="M351.224,27.265c-0.951,0-1.641-0.268-2.071-0.804c-0.429-0.536-0.644-1.475-0.644-2.819
			s0.251-2.281,0.754-2.812c0.504-0.531,1.374-0.797,2.611-0.797c0.453,0,1.145,0.042,2.078,0.125l0.457,0.042v9.891h-1.496V26.85
			C352.295,27.127,351.732,27.265,351.224,27.265z M351.875,21.336c-0.73,0-1.221,0.183-1.475,0.547
			c-0.254,0.365-0.381,0.958-0.381,1.78c0,0.821,0.113,1.404,0.339,1.745c0.226,0.342,0.575,0.513,1.046,0.513
			c0.434,0,0.868-0.069,1.302-0.208l0.208-0.069v-4.253C352.471,21.355,352.125,21.336,351.875,21.336z"/>
		<path fill="#005B94" d="M360.435,20.187h1.496v6.926h-1.496v-0.429c-0.675,0.387-1.297,0.582-1.87,0.582
			c-0.951,0-1.589-0.256-1.912-0.769c-0.323-0.513-0.485-1.411-0.485-2.694v-3.616h1.51v3.629c0,0.831,0.069,1.39,0.208,1.676
			c0.138,0.287,0.461,0.43,0.97,0.43c0.499,0,0.956-0.092,1.371-0.277l0.208-0.083V20.187z"/>
		<path fill="#005B94" d="M363.76,19.009v-1.593h1.51v1.593H363.76z M363.76,27.113v-6.926h1.51v6.926H363.76z"/>
		<path fill="#005B94" d="M370.825,21.475h-1.912v3.047c0,0.564,0.042,0.938,0.125,1.122c0.083,0.185,0.295,0.277,0.637,0.277
			l1.136-0.042l0.069,1.205c-0.619,0.12-1.09,0.18-1.413,0.18c-0.785,0-1.323-0.18-1.613-0.54c-0.291-0.36-0.437-1.039-0.437-2.036
			v-3.214h-0.887v-1.288h0.887v-2.009h1.496v2.009h1.912V21.475z"/>
		<path fill="#005B94" d="M376.989,25.866l0.388-0.041l0.028,1.122c-1.053,0.212-1.986,0.319-2.798,0.319
			c-1.025,0-1.762-0.282-2.209-0.845c-0.448-0.563-0.672-1.464-0.672-2.701c0-2.456,1.002-3.685,3.006-3.685
			c1.939,0,2.909,1.058,2.909,3.172l-0.097,1.08h-4.294c0.009,0.573,0.134,0.993,0.374,1.261c0.24,0.268,0.687,0.402,1.344,0.402
			C375.622,25.949,376.296,25.922,376.989,25.866z M376.158,23.123c0-0.683-0.109-1.162-0.325-1.434
			c-0.217-0.272-0.584-0.408-1.101-0.408c-0.518,0-0.893,0.143-1.129,0.429c-0.236,0.287-0.358,0.758-0.367,1.413H376.158z"/>
		<path fill="#005B94" d="M382.82,21.475h-1.912v3.047c0,0.564,0.042,0.938,0.125,1.122c0.083,0.185,0.295,0.277,0.637,0.277
			l1.136-0.042l0.069,1.205c-0.619,0.12-1.09,0.18-1.413,0.18c-0.785,0-1.323-0.18-1.613-0.54c-0.291-0.36-0.437-1.039-0.437-2.036
			v-3.214h-0.887v-1.288h0.887v-2.009h1.496v2.009h1.912V21.475z"/>
		<path fill="#005B94" d="M388.251,20.187h1.496v6.926h-1.496v-0.429c-0.675,0.387-1.297,0.582-1.87,0.582
			c-0.951,0-1.589-0.256-1.912-0.769c-0.323-0.513-0.485-1.411-0.485-2.694v-3.616h1.51v3.629c0,0.831,0.069,1.39,0.208,1.676
			c0.138,0.287,0.461,0.43,0.97,0.43c0.499,0,0.956-0.092,1.371-0.277l0.208-0.083V20.187z"/>
		<path fill="#005B94" d="M391.575,27.113v-6.926h1.496v0.831c0.785-0.508,1.57-0.836,2.355-0.984v1.51
			c-0.794,0.157-1.473,0.36-2.037,0.609l-0.305,0.125v4.834H391.575z"/>
		<path fill="#005B94" d="M401.701,22.32v3.159c0.009,0.203,0.063,0.353,0.159,0.45c0.097,0.097,0.247,0.159,0.45,0.187l-0.041,1.15
			c-0.794,0-1.409-0.171-1.842-0.513c-0.739,0.342-1.483,0.513-2.23,0.513c-1.376,0-2.064-0.734-2.064-2.203
			c0-0.702,0.187-1.209,0.561-1.524c0.374-0.314,0.949-0.504,1.725-0.568l1.787-0.152V22.32c0-0.369-0.081-0.628-0.242-0.775
			c-0.162-0.148-0.4-0.222-0.713-0.222c-0.592,0-1.33,0.037-2.217,0.111l-0.443,0.028l-0.055-1.067
			c1.007-0.24,1.933-0.36,2.777-0.36c0.845,0,1.455,0.183,1.829,0.547C401.514,20.947,401.701,21.526,401.701,22.32z
			 M398.598,24.038c-0.637,0.055-0.956,0.402-0.956,1.039c0,0.638,0.281,0.956,0.845,0.956c0.462,0,0.951-0.074,1.468-0.222
			l0.249-0.083v-1.842L398.598,24.038z"/>
	</g>
</g>
</svg>
