<?xml version="1.0" encoding="utf-8"?>
<!-- Generator: Adobe Illustrator 16.0.0, SVG Export Plug-In . SVG Version: 6.00 Build 0)  -->
<!DOCTYPE svg PUBLIC "-//W3C//DTD SVG 1.1//EN" "http://www.w3.org/Graphics/SVG/1.1/DTD/svg11.dtd">
<svg version="1.1" id="Camada_1" xmlns="http://www.w3.org/2000/svg" xmlns:xlink="http://www.w3.org/1999/xlink" x="0px" y="0px"
	 width="117px" height="38.5px" viewBox="0 0 117 38.5" enable-background="new 0 0 117 38.5" xml:space="preserve">
<g id="Logo_Branca">
	<g>
		<path fill="#FFFFFF" d="M69.765,34.148c-2.768-0.764-5.236-1.619-7.738-2.561c-0.412-0.176-0.854-0.266-1.295-0.295
			c-4.592-0.236-8.682-3.619-8.682-10.064c0-6.12,3.796-10.416,9.475-10.416c5.74,0,9.15,4.413,9.15,10.001
			c0,4.77-2.205,7.979-5.119,9.154v0.115c1.709,0.473,3.619,0.887,5.24,1.178L69.765,34.148z M61.376,28.381
			c3.475,0,5.475-3.236,5.475-7.387c0-3.768-1.854-7.269-5.443-7.269c-3.622,0-5.535,3.443-5.535,7.417
			c0,3.973,2.033,7.238,5.474,7.238H61.376L61.376,28.381z"/>
		<path fill="#FFFFFF" d="M74.919,14.579c-1.207,0-2.002-0.885-2.002-1.941c0-1.118,0.824-1.974,2.031-1.974
			c1.234,0,2.002,0.854,2.031,1.974c0,1.058-0.795,1.941-2.031,1.941H74.919z M73.122,16.638h3.619v14.333h-3.619V16.638z"/>
		<path fill="#FFFFFF" d="M80.218,27.025c1.148,0.674,2.943,1.264,4.799,1.264c2.293,0,3.588-1.088,3.588-2.707
			c0-1.498-1-2.383-3.498-3.295c-3.299-1.146-5.389-2.911-5.389-5.738c0-3.268,2.707-5.709,7.033-5.709
			c2.15,0,3.709,0.47,4.738,0.97l-0.852,2.943c-0.736-0.382-2.121-0.94-3.975-0.94c-2.295,0-3.266,1.206-3.266,2.383
			c0,1.532,1.148,2.236,3.795,3.235c3.445,1.327,5.092,3.063,5.092,5.885c0,3.207-2.412,5.943-7.504,5.943
			c-2.119,0-4.299-0.588-5.387-1.236L80.218,27.025z"/>
		<path fill="#FFFFFF" d="M106.173,27.527c0,1.293,0.057,2.557,0.234,3.441h-3.266l-0.266-1.59h-0.09
			c-0.85,1.119-2.352,1.914-4.234,1.914c-2.885,0-4.504-2.09-4.504-4.268c0-3.59,3.209-5.445,8.504-5.414v-0.236
			c0-0.941-0.383-2.501-2.912-2.501c-1.412,0-2.885,0.44-3.855,1.058l-0.707-2.354c1.059-0.649,2.912-1.268,5.18-1.268
			c4.592,0,5.916,2.915,5.916,6.063V27.527z M102.642,23.967c-2.563-0.029-5.004,0.5-5.004,2.678c0,1.414,0.912,2.061,2.059,2.061
			c1.473,0,2.502-0.941,2.854-1.973c0.09-0.264,0.09-0.529,0.09-0.795v-1.971H102.642z"/>
		<path fill="#FFFFFF" d="M113.442,12.958v3.679h3.441v2.708h-3.441v6.298c0,1.766,0.469,2.646,1.854,2.646
			c0.646,0,1.002-0.027,1.412-0.145l0.061,2.736c-0.533,0.205-1.502,0.381-2.621,0.381c-1.354,0-2.443-0.441-3.117-1.178
			c-0.795-0.822-1.15-2.145-1.15-4.031v-6.708h-2.029v-2.708h2.029V13.96L113.442,12.958z"/>
	</g>
	<g>
		<path fill="#FFFFFF" d="M0.997,18.859h16.274L29.349,0.887H13.085L0.997,18.859z M17.802,19.166l12.306,18.311l-0.38,0.578H12.921
			c-0.116,0-0.218-0.063-0.27-0.158L0.166,19.335l-0.01-0.015c-0.008-0.013-0.014-0.026-0.019-0.041
			c-0.011-0.021-0.017-0.046-0.02-0.069l-0.002-0.019l-0.001-0.02v-0.013l0.001-0.02l0.002-0.02c0.003-0.021,0.009-0.047,0.02-0.069
			c0.005-0.014,0.011-0.026,0.019-0.04l0.01-0.015L12.652,0.433c0.053-0.093,0.154-0.159,0.27-0.159h16.806l0.378,0.581
			L17.802,19.166z M17.271,19.471H0.997l12.089,17.974h16.263L17.271,19.471z"/>
		<path fill="#FFFFFF" d="M42.42,19.169H25.409L12.919,0.585h17.001L42.42,19.169z M42.42,19.169H25.409L12.919,37.752h17.001
			L42.42,19.169z"/>
		<polygon fill="#FFFFFF" points="18.507,23.801 21.636,19.164 21.636,19.162 18.507,14.523 14.302,14.523 17.429,19.162 
			14.302,23.801 		"/>
		<polygon fill="#FFFFFF" points="11.867,22.414 14.059,19.167 11.867,15.919 8.926,15.919 11.114,19.167 8.926,22.414 		"/>
	</g>
</g>
</svg>
