<?xml version="1.0" encoding="utf-8"?>
<!-- Generator: Adobe Illustrator 16.0.0, SVG Export Plug-In . SVG Version: 6.00 Build 0)  -->
<!DOCTYPE svg PUBLIC "-//W3C//DTD SVG 1.1//EN" "http://www.w3.org/Graphics/SVG/1.1/DTD/svg11.dtd">
<svg version="1.1" id="Camada_1" xmlns="http://www.w3.org/2000/svg" xmlns:xlink="http://www.w3.org/1999/xlink" x="0px" y="0px"
	 width="415px" height="38.5px" viewBox="0 0 415 38.5" enable-background="new 0 0 415 38.5" xml:space="preserve">
<g id="Logo_Horizontal">
	<g>
		<path fill="#373F44" d="M157.522,23.9c0.078,0,0.146,0.029,0.204,0.092l0.57,0.619c-0.361,0.432-0.802,0.768-1.325,1.002
			c-0.523,0.236-1.149,0.352-1.877,0.352c-0.645,0-1.227-0.111-1.749-0.332c-0.521-0.223-0.964-0.533-1.333-0.934
			c-0.368-0.398-0.651-0.873-0.85-1.426c-0.198-0.551-0.297-1.156-0.297-1.818s0.104-1.27,0.316-1.824
			c0.21-0.553,0.505-1.029,0.888-1.428c0.382-0.399,0.84-0.708,1.373-0.929c0.534-0.221,1.121-0.33,1.763-0.33
			c0.637,0,1.2,0.103,1.688,0.309c0.488,0.206,0.912,0.481,1.272,0.824l-0.473,0.668c-0.032,0.045-0.072,0.083-0.116,0.116
			c-0.044,0.033-0.105,0.05-0.183,0.05c-0.082,0-0.176-0.038-0.28-0.114c-0.104-0.076-0.238-0.16-0.398-0.252
			c-0.161-0.09-0.364-0.176-0.608-0.251c-0.241-0.075-0.545-0.114-0.909-0.114c-0.42,0-0.806,0.075-1.158,0.222
			c-0.351,0.146-0.654,0.361-0.907,0.643c-0.254,0.282-0.452,0.625-0.592,1.028c-0.141,0.406-0.212,0.865-0.212,1.381
			c0,0.518,0.074,0.98,0.222,1.389c0.146,0.406,0.35,0.75,0.606,1.029c0.257,0.279,0.561,0.492,0.908,0.641
			c0.347,0.146,0.72,0.221,1.122,0.221c0.245,0,0.465-0.014,0.659-0.041c0.193-0.025,0.373-0.068,0.537-0.127
			c0.163-0.061,0.318-0.137,0.463-0.225c0.144-0.09,0.287-0.201,0.431-0.332C157.359,23.936,157.439,23.9,157.522,23.9z"/>
		<path fill="#373F44" d="M164.779,19.616v6.251h-0.797c-0.176,0-0.289-0.084-0.338-0.252l-0.098-0.582
			c-0.129,0.141-0.267,0.266-0.413,0.381c-0.145,0.115-0.299,0.213-0.463,0.295c-0.164,0.08-0.337,0.145-0.524,0.189
			c-0.187,0.045-0.386,0.066-0.598,0.066c-0.343,0-0.646-0.057-0.907-0.172c-0.262-0.113-0.482-0.275-0.659-0.482
			c-0.178-0.209-0.312-0.459-0.4-0.752c-0.09-0.293-0.137-0.613-0.137-0.965v-3.978h1.32v3.978c0,0.42,0.097,0.748,0.29,0.98
			c0.194,0.232,0.49,0.35,0.887,0.35c0.289,0,0.56-0.066,0.811-0.199c0.251-0.133,0.487-0.316,0.708-0.549v-4.56H164.779z"/>
		<path fill="#373F44" d="M167.935,20.775c0.197-0.398,0.435-0.709,0.711-0.936c0.278-0.227,0.611-0.341,1-0.341
			c0.134,0,0.262,0.015,0.38,0.046c0.117,0.031,0.226,0.076,0.318,0.138l-0.092,0.992c-0.016,0.07-0.042,0.117-0.076,0.145
			c-0.035,0.027-0.081,0.039-0.139,0.039c-0.062,0-0.149-0.012-0.263-0.033c-0.115-0.021-0.234-0.033-0.361-0.033
			c-0.185,0-0.347,0.027-0.488,0.08c-0.142,0.051-0.269,0.129-0.379,0.232c-0.113,0.102-0.213,0.227-0.298,0.373
			c-0.086,0.148-0.166,0.316-0.239,0.504v3.885h-1.317v-6.251h0.767c0.138,0,0.234,0.025,0.286,0.076
			c0.055,0.052,0.091,0.14,0.111,0.267L167.935,20.775z"/>
		<path fill="#373F44" d="M175.224,20.75c-0.033,0.057-0.069,0.098-0.111,0.123c-0.04,0.023-0.092,0.037-0.152,0.037
			c-0.069,0-0.146-0.023-0.227-0.064c-0.083-0.043-0.179-0.092-0.289-0.146c-0.11-0.051-0.24-0.1-0.389-0.143
			c-0.149-0.043-0.324-0.064-0.524-0.064c-0.164,0-0.313,0.02-0.445,0.059c-0.132,0.039-0.244,0.094-0.336,0.164
			c-0.093,0.072-0.163,0.156-0.211,0.252c-0.051,0.098-0.074,0.199-0.074,0.309c0,0.148,0.045,0.271,0.135,0.369
			c0.091,0.098,0.208,0.182,0.356,0.254c0.146,0.072,0.313,0.137,0.501,0.193c0.188,0.057,0.381,0.119,0.577,0.184
			c0.195,0.066,0.389,0.143,0.576,0.227c0.188,0.088,0.355,0.191,0.502,0.316c0.148,0.125,0.266,0.275,0.356,0.453
			c0.09,0.178,0.135,0.393,0.135,0.646c0,0.295-0.054,0.566-0.159,0.816c-0.106,0.248-0.262,0.465-0.466,0.648
			c-0.205,0.186-0.459,0.328-0.764,0.43s-0.653,0.152-1.046,0.152c-0.216,0-0.425-0.018-0.627-0.057
			c-0.203-0.039-0.396-0.092-0.576-0.16c-0.184-0.066-0.352-0.148-0.51-0.242c-0.157-0.094-0.297-0.195-0.419-0.307l0.307-0.502
			c0.036-0.063,0.082-0.109,0.138-0.145c0.055-0.035,0.122-0.053,0.204-0.053c0.086,0,0.171,0.027,0.255,0.084
			c0.085,0.055,0.183,0.115,0.294,0.18c0.112,0.064,0.249,0.125,0.409,0.182c0.159,0.055,0.356,0.082,0.594,0.082
			c0.196,0,0.364-0.023,0.509-0.07c0.144-0.047,0.261-0.111,0.356-0.193c0.093-0.08,0.162-0.174,0.207-0.277
			c0.046-0.105,0.067-0.217,0.067-0.334c0-0.16-0.044-0.291-0.135-0.393c-0.09-0.104-0.209-0.191-0.358-0.264
			c-0.148-0.074-0.318-0.139-0.509-0.197c-0.19-0.057-0.383-0.117-0.579-0.184c-0.196-0.064-0.391-0.141-0.579-0.227
			c-0.19-0.086-0.36-0.195-0.509-0.328s-0.269-0.295-0.358-0.484s-0.136-0.422-0.136-0.695c0-0.25,0.051-0.486,0.15-0.711
			s0.247-0.424,0.442-0.596c0.193-0.17,0.433-0.305,0.716-0.406c0.285-0.1,0.612-0.151,0.984-0.151c0.422,0,0.803,0.067,1.146,0.203
			c0.343,0.135,0.631,0.319,0.863,0.551L175.224,20.75z"/>
		<path fill="#373F44" d="M179.852,19.518c0.461,0,0.878,0.077,1.252,0.228c0.375,0.149,0.692,0.364,0.957,0.644
			c0.264,0.277,0.466,0.613,0.61,1.01c0.142,0.396,0.215,0.842,0.215,1.338c0,0.492-0.073,0.939-0.215,1.336
			c-0.145,0.396-0.347,0.734-0.61,1.014c-0.265,0.279-0.582,0.496-0.957,0.646c-0.374,0.15-0.791,0.227-1.252,0.227
			c-0.468,0-0.887-0.076-1.26-0.227c-0.375-0.15-0.694-0.367-0.96-0.646s-0.47-0.617-0.612-1.014
			c-0.145-0.396-0.215-0.844-0.215-1.336c0-0.496,0.07-0.941,0.215-1.338c0.143-0.396,0.347-0.732,0.612-1.01
			c0.266-0.279,0.585-0.494,0.96-0.644C178.965,19.594,179.384,19.518,179.852,19.518z M179.852,24.93
			c0.563,0,0.982-0.188,1.259-0.566s0.414-0.918,0.414-1.621s-0.138-1.246-0.414-1.629c-0.276-0.381-0.696-0.572-1.259-0.572
			c-0.573,0-0.997,0.191-1.276,0.572c-0.277,0.383-0.416,0.926-0.416,1.629s0.139,1.242,0.416,1.621
			C178.855,24.742,179.279,24.93,179.852,24.93z"/>
		<path fill="#373F44" d="M188.188,20.75c-0.034,0.057-0.069,0.098-0.11,0.123c-0.043,0.023-0.093,0.037-0.152,0.037
			c-0.071,0-0.147-0.023-0.229-0.064c-0.08-0.043-0.177-0.092-0.287-0.146c-0.11-0.051-0.24-0.1-0.391-0.143
			c-0.147-0.043-0.322-0.064-0.523-0.064c-0.163,0-0.312,0.02-0.444,0.059c-0.132,0.039-0.245,0.094-0.336,0.164
			c-0.093,0.072-0.163,0.156-0.212,0.252c-0.049,0.098-0.074,0.199-0.074,0.309c0,0.148,0.046,0.271,0.135,0.369
			c0.091,0.098,0.209,0.182,0.356,0.254c0.146,0.072,0.313,0.137,0.502,0.193s0.38,0.119,0.577,0.184
			c0.195,0.066,0.389,0.143,0.575,0.227c0.188,0.088,0.356,0.191,0.504,0.316c0.146,0.125,0.265,0.275,0.354,0.453
			c0.091,0.178,0.136,0.393,0.136,0.646c0,0.295-0.056,0.566-0.16,0.816c-0.106,0.248-0.261,0.465-0.465,0.648
			c-0.206,0.186-0.46,0.328-0.765,0.43c-0.304,0.102-0.652,0.152-1.044,0.152c-0.218,0-0.428-0.018-0.629-0.057
			c-0.202-0.039-0.395-0.092-0.576-0.16c-0.183-0.066-0.352-0.148-0.508-0.242c-0.158-0.094-0.298-0.195-0.421-0.307l0.307-0.502
			c0.036-0.063,0.084-0.109,0.139-0.145c0.056-0.035,0.123-0.053,0.204-0.053c0.086,0,0.172,0.027,0.255,0.084
			c0.084,0.055,0.182,0.115,0.295,0.18c0.112,0.064,0.247,0.125,0.407,0.182c0.159,0.055,0.358,0.082,0.595,0.082
			c0.194,0,0.365-0.023,0.508-0.07c0.144-0.047,0.262-0.111,0.356-0.193c0.093-0.08,0.163-0.174,0.208-0.277
			c0.044-0.105,0.067-0.217,0.067-0.334c0-0.16-0.045-0.291-0.135-0.393c-0.089-0.104-0.208-0.191-0.358-0.264
			c-0.15-0.074-0.318-0.139-0.509-0.197c-0.191-0.057-0.383-0.117-0.58-0.184c-0.196-0.064-0.389-0.141-0.579-0.227
			s-0.358-0.195-0.508-0.328s-0.269-0.295-0.358-0.484c-0.091-0.189-0.135-0.422-0.135-0.695c0-0.25,0.05-0.486,0.149-0.711
			s0.247-0.424,0.441-0.596c0.194-0.17,0.434-0.305,0.718-0.406c0.284-0.1,0.61-0.151,0.982-0.151c0.422,0,0.804,0.067,1.146,0.203
			c0.345,0.135,0.632,0.319,0.864,0.551L188.188,20.75z"/>
		<path fill="#373F44" d="M193.319,20.486c0.704-0.658,1.547-0.987,2.523-0.987c0.36,0,0.68,0.059,0.96,0.175
			c0.278,0.117,0.515,0.281,0.703,0.492c0.191,0.213,0.337,0.465,0.437,0.758c0.101,0.293,0.15,0.617,0.15,0.971v3.973h-0.587
			c-0.128,0-0.226-0.018-0.29-0.057c-0.065-0.039-0.12-0.119-0.165-0.238l-0.129-0.508c-0.16,0.143-0.316,0.271-0.473,0.383
			c-0.154,0.111-0.315,0.207-0.48,0.285s-0.343,0.137-0.532,0.176c-0.19,0.039-0.401,0.057-0.629,0.057
			c-0.254,0-0.489-0.033-0.708-0.104c-0.218-0.07-0.408-0.174-0.567-0.316c-0.16-0.141-0.284-0.314-0.378-0.523
			c-0.091-0.207-0.137-0.455-0.137-0.736c0-0.24,0.065-0.475,0.191-0.705c0.13-0.229,0.343-0.432,0.639-0.615
			c0.297-0.182,0.687-0.332,1.172-0.449c0.482-0.119,1.08-0.188,1.792-0.203v-0.418c0-0.447-0.096-0.783-0.289-1.004
			c-0.191-0.221-0.474-0.332-0.845-0.332c-0.254,0-0.465,0.033-0.638,0.096c-0.172,0.064-0.321,0.133-0.447,0.205
			c-0.127,0.074-0.239,0.143-0.339,0.207c-0.098,0.063-0.202,0.094-0.313,0.094c-0.088,0-0.165-0.023-0.229-0.07
			s-0.115-0.105-0.156-0.176L193.319,20.486z M196.811,23.135c-0.47,0.016-0.866,0.053-1.189,0.111
			c-0.322,0.061-0.585,0.135-0.784,0.229c-0.2,0.092-0.344,0.201-0.433,0.328c-0.087,0.127-0.13,0.266-0.13,0.416
			c0,0.146,0.021,0.271,0.069,0.377c0.046,0.104,0.111,0.189,0.195,0.258c0.083,0.066,0.183,0.115,0.295,0.146
			c0.113,0.031,0.235,0.047,0.37,0.047c0.345,0,0.64-0.064,0.886-0.193c0.247-0.129,0.488-0.316,0.721-0.561V23.135z"/>
		<path fill="#373F44" d="M201.188,20.523c0.261-0.307,0.556-0.553,0.892-0.742c0.332-0.187,0.719-0.282,1.16-0.282
			c0.352,0,0.67,0.071,0.957,0.212c0.285,0.141,0.531,0.346,0.732,0.615c0.207,0.27,0.365,0.605,0.479,1.002
			c0.111,0.398,0.168,0.855,0.168,1.371c0,0.461-0.063,0.893-0.188,1.289c-0.125,0.398-0.303,0.744-0.537,1.035
			c-0.232,0.293-0.514,0.521-0.846,0.689c-0.33,0.164-0.705,0.246-1.121,0.246c-0.367,0-0.678-0.059-0.934-0.178
			c-0.256-0.117-0.488-0.281-0.697-0.49v2.654h-1.318v-8.329h0.797c0.18,0,0.295,0.083,0.345,0.251L201.188,20.523z M201.254,24.299
			c0.184,0.236,0.387,0.404,0.605,0.5c0.217,0.096,0.459,0.143,0.725,0.143c0.516,0,0.916-0.188,1.205-0.563
			c0.287-0.377,0.432-0.938,0.432-1.68c0-0.385-0.031-0.713-0.098-0.984s-0.16-0.494-0.281-0.666
			c-0.121-0.17-0.271-0.295-0.447-0.373s-0.373-0.117-0.596-0.117c-0.336,0-0.625,0.072-0.867,0.219
			c-0.244,0.145-0.469,0.352-0.678,0.621V24.299z"/>
		<path fill="#373F44" d="M208.506,16.797v9.07h-1.318v-9.07H208.506z"/>
		<path fill="#373F44" d="M212.035,17.728c0,0.119-0.023,0.231-0.07,0.337c-0.047,0.106-0.111,0.199-0.193,0.279
			c-0.08,0.081-0.176,0.144-0.285,0.191c-0.107,0.046-0.223,0.07-0.346,0.07c-0.117,0-0.229-0.024-0.334-0.07
			c-0.105-0.047-0.195-0.11-0.273-0.191c-0.076-0.08-0.141-0.172-0.184-0.279c-0.051-0.105-0.072-0.218-0.072-0.337
			c0-0.122,0.021-0.237,0.072-0.343c0.043-0.107,0.107-0.2,0.184-0.279c0.078-0.08,0.168-0.144,0.273-0.19s0.217-0.07,0.334-0.07
			c0.123,0,0.238,0.023,0.346,0.07c0.109,0.047,0.205,0.111,0.285,0.19c0.082,0.079,0.146,0.172,0.193,0.279
			C212.012,17.491,212.035,17.606,212.035,17.728z M211.814,19.616v6.251h-1.316v-6.251H211.814z"/>
		<path fill="#373F44" d="M218.203,20.842c-0.041,0.053-0.08,0.094-0.117,0.123c-0.039,0.027-0.09,0.043-0.158,0.043
			c-0.07,0-0.143-0.025-0.219-0.074c-0.074-0.049-0.166-0.104-0.27-0.164c-0.104-0.057-0.229-0.111-0.379-0.16
			c-0.145-0.051-0.33-0.074-0.549-0.074c-0.287,0-0.537,0.051-0.752,0.152c-0.217,0.104-0.395,0.25-0.539,0.439
			c-0.146,0.189-0.254,0.42-0.324,0.691c-0.072,0.271-0.109,0.578-0.109,0.918c0,0.352,0.041,0.664,0.115,0.936
			c0.08,0.275,0.191,0.506,0.336,0.693c0.146,0.188,0.32,0.332,0.527,0.43c0.205,0.098,0.438,0.146,0.695,0.146
			c0.254,0,0.459-0.029,0.619-0.092c0.16-0.061,0.291-0.127,0.4-0.203c0.104-0.072,0.195-0.139,0.271-0.201
			c0.076-0.061,0.156-0.092,0.242-0.092c0.105,0,0.189,0.041,0.246,0.123l0.371,0.484c-0.148,0.184-0.316,0.338-0.502,0.465
			c-0.182,0.127-0.377,0.23-0.582,0.311c-0.203,0.08-0.414,0.137-0.637,0.172c-0.223,0.033-0.443,0.051-0.67,0.051
			c-0.387,0-0.748-0.072-1.088-0.217c-0.334-0.146-0.629-0.355-0.881-0.631c-0.252-0.277-0.449-0.613-0.596-1.012
			c-0.145-0.398-0.217-0.854-0.217-1.363c0-0.463,0.064-0.891,0.197-1.285c0.131-0.395,0.32-0.734,0.572-1.02
			c0.25-0.287,0.563-0.51,0.934-0.672c0.375-0.16,0.803-0.242,1.287-0.242c0.453,0,0.855,0.074,1.199,0.221
			c0.344,0.148,0.652,0.355,0.924,0.625L218.203,20.842z"/>
		<path fill="#373F44" d="M219.818,20.486c0.709-0.658,1.551-0.987,2.525-0.987c0.359,0,0.68,0.059,0.961,0.175
			c0.281,0.117,0.514,0.281,0.705,0.492c0.189,0.213,0.334,0.465,0.434,0.758s0.152,0.617,0.152,0.971v3.973h-0.59
			c-0.127,0-0.223-0.018-0.287-0.057c-0.066-0.039-0.121-0.119-0.166-0.238l-0.129-0.508c-0.158,0.143-0.316,0.271-0.471,0.383
			c-0.156,0.111-0.318,0.207-0.482,0.285c-0.166,0.078-0.342,0.137-0.535,0.176c-0.188,0.039-0.396,0.057-0.625,0.057
			c-0.254,0-0.49-0.033-0.711-0.104c-0.217-0.07-0.406-0.174-0.564-0.316c-0.16-0.141-0.285-0.314-0.377-0.523
			c-0.094-0.207-0.139-0.455-0.139-0.736c0-0.24,0.063-0.475,0.193-0.705c0.127-0.229,0.34-0.432,0.637-0.615
			c0.297-0.182,0.688-0.332,1.172-0.449c0.484-0.119,1.082-0.188,1.791-0.203v-0.418c0-0.447-0.096-0.783-0.287-1.004
			s-0.475-0.332-0.844-0.332c-0.256,0-0.467,0.033-0.639,0.096c-0.174,0.064-0.322,0.133-0.449,0.205
			c-0.125,0.074-0.238,0.143-0.336,0.207c-0.098,0.063-0.203,0.094-0.313,0.094c-0.088,0-0.166-0.023-0.229-0.07
			c-0.064-0.047-0.117-0.105-0.158-0.176L219.818,20.486z M223.313,23.135c-0.469,0.016-0.865,0.053-1.186,0.111
			c-0.326,0.061-0.588,0.135-0.787,0.229c-0.201,0.092-0.344,0.201-0.434,0.328c-0.086,0.127-0.131,0.266-0.131,0.416
			c0,0.146,0.025,0.271,0.07,0.377c0.047,0.104,0.115,0.189,0.197,0.258c0.084,0.066,0.182,0.115,0.295,0.146
			c0.111,0.031,0.234,0.047,0.369,0.047c0.344,0,0.639-0.064,0.887-0.193s0.486-0.316,0.719-0.561V23.135z"/>
		<path fill="#373F44" d="M231.746,16.797v9.07h-0.795c-0.176,0-0.289-0.084-0.338-0.252l-0.117-0.68
			c-0.262,0.307-0.557,0.555-0.891,0.742c-0.332,0.189-0.721,0.281-1.162,0.281c-0.35,0-0.67-0.07-0.955-0.211
			c-0.287-0.141-0.531-0.346-0.736-0.617c-0.205-0.27-0.363-0.604-0.475-1.002c-0.113-0.398-0.168-0.855-0.168-1.369
			c0-0.467,0.061-0.896,0.188-1.293c0.125-0.396,0.301-0.74,0.533-1.033c0.234-0.291,0.52-0.52,0.852-0.686
			c0.332-0.165,0.703-0.249,1.117-0.249c0.367,0,0.68,0.059,0.938,0.175c0.26,0.117,0.488,0.279,0.691,0.488v-3.365H231.746z
			 M230.428,21.154c-0.182-0.236-0.383-0.402-0.605-0.496c-0.221-0.094-0.461-0.143-0.719-0.143c-0.514,0-0.914,0.189-1.205,0.568
			c-0.291,0.377-0.436,0.938-0.436,1.676c0,0.385,0.031,0.713,0.098,0.984s0.16,0.492,0.281,0.664
			c0.125,0.172,0.271,0.297,0.449,0.375c0.174,0.076,0.373,0.115,0.594,0.115c0.336,0,0.625-0.072,0.865-0.217
			c0.246-0.145,0.471-0.35,0.678-0.617V21.154z"/>
		<path fill="#373F44" d="M236.363,19.518c0.461,0,0.879,0.077,1.252,0.228c0.375,0.149,0.693,0.364,0.957,0.644
			c0.264,0.277,0.467,0.613,0.611,1.01c0.143,0.396,0.213,0.842,0.213,1.338c0,0.492-0.07,0.939-0.213,1.336
			c-0.145,0.396-0.348,0.734-0.611,1.014s-0.582,0.496-0.957,0.646c-0.373,0.15-0.791,0.227-1.252,0.227
			c-0.467,0-0.885-0.076-1.26-0.227c-0.373-0.15-0.693-0.367-0.959-0.646s-0.471-0.617-0.613-1.014
			c-0.145-0.396-0.215-0.844-0.215-1.336c0-0.496,0.07-0.941,0.215-1.338c0.143-0.396,0.348-0.732,0.613-1.01
			c0.266-0.279,0.586-0.494,0.959-0.644C235.479,19.594,235.896,19.518,236.363,19.518z M236.363,24.93
			c0.563,0,0.982-0.188,1.26-0.566c0.275-0.379,0.412-0.918,0.412-1.621s-0.137-1.246-0.412-1.629
			c-0.277-0.381-0.697-0.572-1.26-0.572c-0.574,0-0.996,0.191-1.275,0.572c-0.277,0.383-0.418,0.926-0.418,1.629
			s0.141,1.242,0.418,1.621C235.367,24.742,235.789,24.93,236.363,24.93z"/>
		<path fill="#373F44" d="M244.699,20.75c-0.033,0.057-0.07,0.098-0.109,0.123c-0.041,0.023-0.094,0.037-0.154,0.037
			c-0.07,0-0.146-0.023-0.227-0.064c-0.084-0.043-0.18-0.092-0.289-0.146c-0.109-0.051-0.24-0.1-0.389-0.143
			s-0.322-0.064-0.525-0.064c-0.162,0-0.311,0.02-0.443,0.059s-0.246,0.094-0.336,0.164c-0.094,0.072-0.164,0.156-0.213,0.252
			c-0.049,0.098-0.072,0.199-0.072,0.309c0,0.148,0.045,0.271,0.135,0.369c0.088,0.098,0.207,0.182,0.355,0.254
			c0.146,0.072,0.314,0.137,0.502,0.193s0.379,0.119,0.574,0.184c0.197,0.066,0.391,0.143,0.578,0.227
			c0.189,0.088,0.355,0.191,0.504,0.316c0.145,0.125,0.264,0.275,0.352,0.453c0.092,0.178,0.137,0.393,0.137,0.646
			c0,0.295-0.053,0.566-0.158,0.816c-0.107,0.248-0.262,0.465-0.465,0.648c-0.205,0.186-0.459,0.328-0.764,0.43
			s-0.654,0.152-1.045,0.152c-0.219,0-0.426-0.018-0.629-0.057s-0.395-0.092-0.576-0.16c-0.182-0.066-0.352-0.148-0.51-0.242
			c-0.156-0.094-0.297-0.195-0.42-0.307l0.309-0.502c0.035-0.063,0.08-0.109,0.137-0.145c0.055-0.035,0.123-0.053,0.205-0.053
			c0.088,0,0.17,0.027,0.256,0.084c0.084,0.055,0.182,0.115,0.295,0.18c0.109,0.064,0.246,0.125,0.406,0.182
			c0.158,0.055,0.355,0.082,0.594,0.082c0.195,0,0.365-0.023,0.51-0.07c0.143-0.047,0.26-0.111,0.355-0.193
			c0.094-0.08,0.162-0.174,0.209-0.277c0.045-0.105,0.066-0.217,0.066-0.334c0-0.16-0.047-0.291-0.137-0.393
			c-0.09-0.104-0.209-0.191-0.357-0.264c-0.148-0.074-0.318-0.139-0.51-0.197c-0.189-0.057-0.381-0.117-0.578-0.184
			c-0.195-0.064-0.389-0.141-0.578-0.227c-0.191-0.086-0.361-0.195-0.51-0.328s-0.268-0.295-0.357-0.484s-0.137-0.422-0.137-0.695
			c0-0.25,0.053-0.486,0.152-0.711c0.098-0.225,0.246-0.424,0.439-0.596c0.193-0.17,0.434-0.305,0.717-0.406
			c0.283-0.1,0.611-0.151,0.984-0.151c0.422,0,0.805,0.067,1.145,0.203c0.346,0.135,0.633,0.319,0.865,0.551L244.699,20.75z"/>
		<path fill="#373F44" d="M249.826,20.486c0.709-0.658,1.551-0.987,2.527-0.987c0.361,0,0.678,0.059,0.959,0.175
			c0.279,0.117,0.514,0.281,0.705,0.492c0.191,0.213,0.334,0.465,0.436,0.758c0.1,0.293,0.148,0.617,0.148,0.971v3.973h-0.588
			c-0.125,0-0.223-0.018-0.287-0.057c-0.066-0.039-0.121-0.119-0.166-0.238l-0.127-0.508c-0.16,0.143-0.318,0.271-0.473,0.383
			c-0.156,0.111-0.316,0.207-0.48,0.285c-0.166,0.078-0.346,0.137-0.535,0.176s-0.398,0.057-0.629,0.057
			c-0.254,0-0.486-0.033-0.707-0.104c-0.219-0.07-0.406-0.174-0.566-0.316c-0.16-0.141-0.285-0.314-0.377-0.523
			c-0.094-0.207-0.139-0.455-0.139-0.736c0-0.24,0.064-0.475,0.195-0.705c0.127-0.229,0.34-0.432,0.637-0.615
			c0.295-0.182,0.686-0.332,1.17-0.449c0.486-0.119,1.082-0.188,1.791-0.203v-0.418c0-0.447-0.094-0.783-0.287-1.004
			c-0.189-0.221-0.475-0.332-0.844-0.332c-0.254,0-0.467,0.033-0.639,0.096c-0.172,0.064-0.32,0.133-0.449,0.205
			c-0.123,0.074-0.236,0.143-0.334,0.207c-0.098,0.063-0.203,0.094-0.313,0.094c-0.092,0-0.168-0.023-0.23-0.07
			s-0.117-0.105-0.158-0.176L249.826,20.486z M251.637,16.944c0.15,0,0.264,0.024,0.338,0.072c0.072,0.049,0.139,0.125,0.195,0.227
			l0.895,1.483h-0.748c-0.102,0-0.186-0.013-0.246-0.042c-0.064-0.028-0.131-0.08-0.193-0.154l-1.477-1.586H251.637z M253.32,23.135
			c-0.469,0.016-0.865,0.053-1.188,0.111c-0.322,0.061-0.584,0.135-0.785,0.229c-0.199,0.092-0.344,0.201-0.432,0.328
			c-0.086,0.127-0.131,0.266-0.131,0.416c0,0.146,0.025,0.271,0.068,0.377c0.049,0.104,0.113,0.189,0.197,0.258
			c0.084,0.066,0.182,0.115,0.295,0.146c0.111,0.031,0.236,0.047,0.371,0.047c0.342,0,0.637-0.064,0.885-0.193
			s0.486-0.316,0.719-0.561V23.135z"/>
		<path fill="#373F44" d="M260.762,22.846c0.018,0.355,0.072,0.662,0.166,0.922s0.221,0.477,0.377,0.646
			c0.158,0.172,0.346,0.301,0.563,0.385c0.221,0.082,0.467,0.125,0.734,0.125c0.258,0,0.479-0.029,0.668-0.09
			c0.189-0.059,0.352-0.125,0.49-0.195c0.139-0.072,0.258-0.137,0.357-0.197c0.098-0.059,0.186-0.088,0.268-0.088
			c0.105,0,0.188,0.041,0.244,0.123l0.375,0.484c-0.156,0.184-0.33,0.338-0.527,0.465c-0.195,0.127-0.404,0.23-0.625,0.311
			s-0.449,0.137-0.682,0.172c-0.232,0.033-0.459,0.051-0.68,0.051c-0.432,0-0.834-0.072-1.205-0.217
			c-0.369-0.146-0.689-0.359-0.961-0.641c-0.271-0.283-0.484-0.633-0.637-1.049s-0.23-0.895-0.23-1.439
			c0-0.434,0.07-0.838,0.205-1.215c0.137-0.375,0.332-0.701,0.59-0.98c0.256-0.277,0.566-0.496,0.932-0.658
			c0.365-0.16,0.779-0.242,1.24-0.242c0.385,0,0.738,0.063,1.066,0.188c0.326,0.125,0.609,0.307,0.846,0.547
			c0.236,0.242,0.424,0.537,0.555,0.887c0.133,0.35,0.199,0.748,0.199,1.193c0,0.203-0.021,0.34-0.066,0.41
			c-0.047,0.068-0.127,0.104-0.246,0.104H260.762z M263.908,22.037c0-0.221-0.033-0.426-0.098-0.617
			c-0.063-0.189-0.154-0.354-0.277-0.496c-0.123-0.141-0.273-0.252-0.457-0.332c-0.18-0.078-0.391-0.117-0.629-0.117
			c-0.479,0-0.852,0.137-1.125,0.41c-0.275,0.273-0.449,0.658-0.523,1.152H263.908z"/>
		<path fill="#373F44" d="M267.854,20.443c0.135-0.139,0.275-0.264,0.42-0.377s0.299-0.209,0.463-0.291
			c0.166-0.082,0.338-0.145,0.521-0.19c0.184-0.044,0.383-0.067,0.6-0.067c0.346,0,0.646,0.058,0.906,0.171
			c0.258,0.114,0.477,0.276,0.654,0.485c0.18,0.207,0.313,0.457,0.402,0.75s0.133,0.613,0.133,0.965v3.979h-1.309v-3.979
			c0-0.42-0.098-0.748-0.293-0.979c-0.193-0.234-0.488-0.352-0.885-0.352c-0.295,0-0.566,0.068-0.818,0.203
			s-0.488,0.318-0.709,0.551v4.555h-1.316v-6.251h0.797c0.18,0,0.293,0.083,0.342,0.251L267.854,20.443z"/>
		<path fill="#373F44" d="M279.193,19.844v0.488c0,0.164-0.098,0.264-0.293,0.301l-0.627,0.105c0.107,0.236,0.16,0.5,0.16,0.789
			c0,0.307-0.061,0.584-0.182,0.834c-0.119,0.25-0.287,0.463-0.498,0.639c-0.215,0.176-0.467,0.311-0.762,0.404
			s-0.611,0.141-0.957,0.141c-0.129,0-0.256-0.008-0.381-0.021c-0.125-0.016-0.248-0.035-0.363-0.059
			c-0.121,0.07-0.209,0.143-0.268,0.221c-0.055,0.076-0.082,0.156-0.082,0.24c0,0.135,0.057,0.234,0.176,0.299
			c0.119,0.066,0.275,0.113,0.471,0.141c0.193,0.029,0.414,0.047,0.662,0.057c0.25,0.008,0.504,0.021,0.76,0.041
			c0.26,0.021,0.514,0.055,0.762,0.104c0.248,0.047,0.471,0.123,0.664,0.232c0.195,0.107,0.352,0.254,0.469,0.438
			c0.121,0.184,0.18,0.422,0.18,0.717c0,0.27-0.07,0.533-0.203,0.791c-0.137,0.258-0.33,0.486-0.584,0.688
			c-0.256,0.199-0.568,0.359-0.938,0.48c-0.367,0.119-0.785,0.18-1.256,0.18c-0.465,0-0.869-0.045-1.217-0.135
			c-0.344-0.09-0.633-0.211-0.863-0.363c-0.232-0.154-0.402-0.332-0.516-0.531c-0.111-0.199-0.168-0.408-0.168-0.625
			c0-0.295,0.092-0.545,0.279-0.754c0.186-0.209,0.436-0.371,0.758-0.49c-0.172-0.082-0.311-0.195-0.416-0.338
			c-0.104-0.143-0.156-0.33-0.156-0.563c0-0.184,0.07-0.377,0.203-0.576c0.135-0.201,0.336-0.371,0.607-0.51
			c-0.311-0.172-0.557-0.398-0.736-0.682c-0.178-0.285-0.27-0.617-0.27-0.998c0-0.311,0.061-0.59,0.182-0.84
			c0.119-0.248,0.289-0.461,0.504-0.637c0.219-0.176,0.475-0.31,0.771-0.404c0.295-0.094,0.617-0.14,0.969-0.14
			c0.543,0,1.01,0.113,1.412,0.337H279.193z M277.869,26.174c0-0.139-0.039-0.25-0.121-0.334c-0.078-0.084-0.184-0.148-0.32-0.195
			c-0.133-0.049-0.293-0.082-0.473-0.105c-0.18-0.021-0.371-0.039-0.572-0.049c-0.203-0.01-0.408-0.02-0.619-0.029
			s-0.412-0.031-0.609-0.059c-0.197,0.102-0.357,0.225-0.48,0.367c-0.125,0.143-0.188,0.309-0.188,0.498
			c0,0.121,0.031,0.234,0.094,0.342c0.064,0.105,0.162,0.197,0.295,0.275s0.303,0.141,0.51,0.184
			c0.205,0.045,0.455,0.068,0.744,0.068c0.582,0,1.016-0.092,1.305-0.27C277.725,26.688,277.869,26.457,277.869,26.174z
			 M276.035,22.686c0.408,0,0.717-0.104,0.92-0.313c0.205-0.207,0.307-0.479,0.307-0.814c0-0.344-0.102-0.615-0.307-0.816
			c-0.203-0.199-0.512-0.299-0.92-0.299c-0.404,0-0.709,0.1-0.914,0.299c-0.209,0.201-0.311,0.473-0.311,0.816
			c0,0.162,0.027,0.314,0.08,0.453s0.133,0.26,0.232,0.359c0.104,0.1,0.23,0.178,0.383,0.232
			C275.66,22.658,275.838,22.686,276.035,22.686z"/>
		<path fill="#373F44" d="M281.395,22.846c0.018,0.355,0.072,0.662,0.164,0.922c0.094,0.26,0.221,0.477,0.377,0.646
			c0.16,0.172,0.348,0.301,0.564,0.385c0.219,0.082,0.463,0.125,0.732,0.125c0.258,0,0.48-0.029,0.668-0.09
			c0.188-0.059,0.354-0.125,0.49-0.195c0.139-0.072,0.258-0.137,0.355-0.197c0.1-0.059,0.188-0.088,0.27-0.088
			c0.107,0,0.189,0.041,0.246,0.123l0.373,0.484c-0.156,0.184-0.332,0.338-0.525,0.465c-0.197,0.127-0.406,0.23-0.625,0.311
			c-0.223,0.08-0.447,0.137-0.682,0.172c-0.232,0.033-0.461,0.051-0.68,0.051c-0.434,0-0.834-0.072-1.205-0.217
			c-0.369-0.146-0.691-0.359-0.963-0.641c-0.271-0.283-0.484-0.633-0.637-1.049s-0.229-0.895-0.229-1.439
			c0-0.434,0.066-0.838,0.203-1.215c0.137-0.375,0.332-0.701,0.59-0.98c0.254-0.277,0.564-0.496,0.932-0.658
			c0.363-0.16,0.779-0.242,1.24-0.242c0.385,0,0.738,0.063,1.066,0.188c0.328,0.125,0.609,0.307,0.846,0.547
			c0.238,0.242,0.422,0.537,0.557,0.887c0.129,0.35,0.199,0.748,0.199,1.193c0,0.203-0.025,0.34-0.07,0.41
			c-0.043,0.068-0.125,0.104-0.244,0.104H281.395z M284.539,22.037c0-0.221-0.033-0.426-0.096-0.617
			c-0.064-0.189-0.156-0.354-0.279-0.496c-0.123-0.141-0.275-0.252-0.455-0.332c-0.184-0.078-0.393-0.117-0.629-0.117
			c-0.479,0-0.854,0.137-1.129,0.41c-0.273,0.273-0.447,0.658-0.52,1.152H284.539z"/>
		<path fill="#373F44" d="M288.486,20.443c0.135-0.139,0.275-0.264,0.42-0.377s0.299-0.209,0.461-0.291
			c0.164-0.082,0.338-0.145,0.521-0.19c0.186-0.044,0.385-0.067,0.602-0.067c0.342,0,0.645,0.058,0.904,0.171
			s0.477,0.276,0.654,0.485c0.178,0.207,0.313,0.457,0.402,0.75s0.135,0.613,0.135,0.965v3.979h-1.311v-3.979
			c0-0.42-0.098-0.748-0.293-0.979c-0.193-0.234-0.488-0.352-0.883-0.352c-0.295,0-0.568,0.068-0.82,0.203s-0.486,0.318-0.707,0.551
			v4.555h-1.32v-6.251h0.799c0.18,0,0.293,0.083,0.342,0.251L288.486,20.443z"/>
		<path fill="#373F44" d="M295.756,20.357c0.256-0.254,0.539-0.457,0.846-0.61c0.305-0.153,0.662-0.23,1.072-0.23
			c0.344,0,0.645,0.058,0.902,0.171c0.26,0.114,0.479,0.276,0.658,0.485c0.176,0.207,0.311,0.457,0.398,0.75
			c0.09,0.293,0.137,0.613,0.137,0.965v3.979h-1.313v-3.979c0-0.42-0.096-0.748-0.289-0.979c-0.195-0.234-0.49-0.352-0.887-0.352
			c-0.295,0-0.568,0.068-0.818,0.203c-0.252,0.135-0.488,0.318-0.707,0.551v4.555h-1.318v-9.07h1.318V20.357z"/>
		<path fill="#373F44" d="M301.469,20.486c0.705-0.658,1.549-0.987,2.523-0.987c0.359,0,0.68,0.059,0.959,0.175
			c0.279,0.117,0.516,0.281,0.705,0.492c0.189,0.213,0.336,0.465,0.438,0.758c0.1,0.293,0.148,0.617,0.148,0.971v3.973h-0.588
			c-0.127,0-0.223-0.018-0.289-0.057s-0.121-0.119-0.164-0.238l-0.131-0.508c-0.16,0.143-0.314,0.271-0.471,0.383
			c-0.154,0.111-0.316,0.207-0.482,0.285c-0.164,0.078-0.342,0.137-0.531,0.176c-0.191,0.039-0.4,0.057-0.629,0.057
			c-0.254,0-0.49-0.033-0.709-0.104c-0.217-0.07-0.408-0.174-0.566-0.316c-0.158-0.141-0.285-0.314-0.377-0.523
			c-0.092-0.207-0.139-0.455-0.139-0.736c0-0.24,0.066-0.475,0.193-0.705c0.129-0.229,0.342-0.432,0.637-0.615
			c0.297-0.182,0.688-0.332,1.172-0.449c0.482-0.119,1.082-0.188,1.793-0.203v-0.418c0-0.447-0.096-0.783-0.287-1.004
			c-0.193-0.221-0.475-0.332-0.848-0.332c-0.254,0-0.465,0.033-0.637,0.096c-0.172,0.064-0.32,0.133-0.447,0.205
			c-0.127,0.074-0.24,0.143-0.338,0.207c-0.098,0.063-0.201,0.094-0.313,0.094c-0.09,0-0.166-0.023-0.23-0.07
			c-0.063-0.047-0.115-0.105-0.156-0.176L301.469,20.486z M304.961,23.135c-0.469,0.016-0.867,0.053-1.189,0.111
			c-0.322,0.061-0.584,0.135-0.785,0.229c-0.199,0.092-0.344,0.201-0.432,0.328s-0.131,0.266-0.131,0.416
			c0,0.146,0.021,0.271,0.07,0.377c0.047,0.104,0.111,0.189,0.195,0.258c0.084,0.066,0.182,0.115,0.295,0.146
			s0.236,0.047,0.371,0.047c0.344,0,0.639-0.064,0.885-0.193c0.248-0.129,0.488-0.316,0.721-0.561V23.135z"/>
		<path fill="#373F44" d="M309.332,20.775c0.195-0.398,0.434-0.709,0.709-0.936c0.277-0.227,0.611-0.341,1-0.341
			c0.135,0,0.262,0.015,0.379,0.046c0.119,0.031,0.225,0.076,0.32,0.138l-0.092,0.992c-0.016,0.07-0.043,0.117-0.078,0.145
			c-0.033,0.027-0.08,0.039-0.137,0.039c-0.063,0-0.148-0.012-0.264-0.033s-0.234-0.033-0.361-0.033
			c-0.186,0-0.348,0.027-0.488,0.08c-0.141,0.051-0.268,0.129-0.379,0.232c-0.113,0.102-0.211,0.227-0.297,0.373
			c-0.088,0.148-0.168,0.316-0.24,0.504v3.885h-1.318v-6.251h0.768c0.139,0,0.234,0.025,0.287,0.076
			c0.053,0.052,0.09,0.14,0.109,0.267L309.332,20.775z"/>
		<path fill="#373F44" d="M314.51,17.728c0,0.119-0.023,0.231-0.07,0.337c-0.047,0.106-0.111,0.199-0.193,0.279
			c-0.082,0.081-0.178,0.144-0.283,0.191c-0.111,0.046-0.225,0.07-0.346,0.07c-0.119,0-0.232-0.024-0.336-0.07
			c-0.104-0.047-0.195-0.11-0.271-0.191c-0.078-0.08-0.141-0.172-0.189-0.279c-0.045-0.105-0.068-0.218-0.068-0.337
			c0-0.122,0.023-0.237,0.068-0.343c0.049-0.107,0.111-0.2,0.189-0.279c0.076-0.08,0.168-0.144,0.271-0.19s0.217-0.07,0.336-0.07
			c0.121,0,0.234,0.023,0.346,0.07c0.105,0.047,0.201,0.111,0.283,0.19c0.082,0.079,0.146,0.172,0.193,0.279
			C314.486,17.491,314.51,17.606,314.51,17.728z M314.291,19.616v6.251h-1.32v-6.251H314.291z"/>
		<path fill="#373F44" d="M316.104,20.486c0.707-0.658,1.549-0.987,2.525-0.987c0.359,0,0.68,0.059,0.959,0.175
			c0.281,0.117,0.516,0.281,0.705,0.492c0.189,0.213,0.336,0.465,0.436,0.758s0.15,0.617,0.15,0.971v3.973h-0.59
			c-0.125,0-0.221-0.018-0.285-0.057c-0.068-0.039-0.123-0.119-0.168-0.238l-0.127-0.508c-0.16,0.143-0.32,0.271-0.475,0.383
			s-0.313,0.207-0.48,0.285c-0.164,0.078-0.342,0.137-0.531,0.176c-0.191,0.039-0.4,0.057-0.629,0.057
			c-0.254,0-0.49-0.033-0.709-0.104c-0.217-0.07-0.406-0.174-0.566-0.316c-0.158-0.141-0.285-0.314-0.377-0.523
			c-0.092-0.207-0.137-0.455-0.137-0.736c0-0.24,0.063-0.475,0.191-0.705c0.129-0.229,0.342-0.432,0.637-0.615
			c0.297-0.182,0.689-0.332,1.172-0.449c0.484-0.119,1.082-0.188,1.793-0.203v-0.418c0-0.447-0.096-0.783-0.287-1.004
			c-0.193-0.221-0.475-0.332-0.848-0.332c-0.254,0-0.465,0.033-0.637,0.096c-0.17,0.064-0.32,0.133-0.447,0.205
			c-0.127,0.074-0.238,0.143-0.336,0.207c-0.1,0.063-0.203,0.094-0.314,0.094c-0.09,0-0.164-0.023-0.229-0.07
			s-0.117-0.105-0.158-0.176L316.104,20.486z M319.598,23.135c-0.471,0.016-0.867,0.053-1.189,0.111
			c-0.322,0.061-0.584,0.135-0.785,0.229c-0.199,0.092-0.342,0.201-0.432,0.328c-0.088,0.127-0.133,0.266-0.133,0.416
			c0,0.146,0.025,0.271,0.072,0.377c0.047,0.104,0.111,0.189,0.197,0.258c0.082,0.066,0.18,0.115,0.293,0.146
			s0.234,0.047,0.369,0.047c0.344,0,0.641-0.064,0.887-0.193c0.248-0.129,0.488-0.316,0.721-0.561V23.135z"/>
		<path fill="#373F44" d="M327.037,22.846c0.018,0.355,0.072,0.662,0.166,0.922s0.221,0.477,0.377,0.646
			c0.158,0.172,0.346,0.301,0.564,0.385c0.219,0.082,0.463,0.125,0.73,0.125c0.26,0,0.482-0.029,0.67-0.09
			c0.188-0.059,0.352-0.125,0.492-0.195c0.137-0.072,0.256-0.137,0.354-0.197c0.1-0.059,0.189-0.088,0.268-0.088
			c0.109,0,0.191,0.041,0.248,0.123l0.373,0.484c-0.156,0.184-0.33,0.338-0.525,0.465c-0.197,0.127-0.406,0.23-0.627,0.311
			s-0.447,0.137-0.68,0.172c-0.232,0.033-0.459,0.051-0.682,0.051c-0.434,0-0.832-0.072-1.203-0.217
			c-0.371-0.146-0.691-0.359-0.963-0.641c-0.271-0.283-0.484-0.633-0.637-1.049s-0.23-0.895-0.23-1.439
			c0-0.434,0.068-0.838,0.205-1.215c0.135-0.375,0.332-0.701,0.59-0.98c0.254-0.277,0.564-0.496,0.932-0.658
			c0.363-0.16,0.777-0.242,1.24-0.242c0.385,0,0.738,0.063,1.066,0.188c0.328,0.125,0.609,0.307,0.846,0.547
			c0.238,0.242,0.422,0.537,0.555,0.887s0.199,0.748,0.199,1.193c0,0.203-0.023,0.34-0.066,0.41
			c-0.047,0.068-0.127,0.104-0.246,0.104H327.037z M330.182,22.037c0-0.221-0.029-0.426-0.096-0.617
			c-0.063-0.189-0.154-0.354-0.279-0.496c-0.119-0.141-0.273-0.252-0.453-0.332c-0.184-0.078-0.393-0.117-0.631-0.117
			c-0.477,0-0.854,0.137-1.127,0.41c-0.275,0.273-0.447,0.658-0.52,1.152H330.182z"/>
		<path fill="#373F44" d="M336.102,20.486c0.709-0.658,1.551-0.987,2.527-0.987c0.359,0,0.678,0.059,0.959,0.175
			c0.281,0.117,0.516,0.281,0.705,0.492c0.189,0.213,0.334,0.465,0.434,0.758s0.152,0.617,0.152,0.971v3.973h-0.59
			c-0.127,0-0.225-0.018-0.287-0.057c-0.066-0.039-0.121-0.119-0.166-0.238l-0.129-0.508c-0.16,0.143-0.316,0.271-0.471,0.383
			c-0.156,0.111-0.318,0.207-0.482,0.285c-0.166,0.078-0.344,0.137-0.535,0.176c-0.188,0.039-0.396,0.057-0.625,0.057
			c-0.254,0-0.49-0.033-0.709-0.104s-0.408-0.174-0.568-0.316c-0.158-0.141-0.283-0.314-0.375-0.523
			c-0.094-0.207-0.139-0.455-0.139-0.736c0-0.24,0.064-0.475,0.193-0.705c0.127-0.229,0.34-0.432,0.637-0.615
			c0.297-0.182,0.688-0.332,1.172-0.449c0.484-0.119,1.08-0.188,1.793-0.203v-0.418c0-0.447-0.098-0.783-0.291-1.004
			c-0.189-0.221-0.473-0.332-0.842-0.332c-0.254,0-0.467,0.033-0.639,0.096c-0.172,0.064-0.322,0.133-0.447,0.205
			c-0.127,0.074-0.24,0.143-0.338,0.207c-0.098,0.063-0.203,0.094-0.313,0.094c-0.088,0-0.166-0.023-0.229-0.07
			c-0.064-0.047-0.117-0.105-0.158-0.176L336.102,20.486z M339.598,23.135c-0.471,0.016-0.867,0.053-1.188,0.111
			c-0.324,0.061-0.588,0.135-0.789,0.229c-0.199,0.092-0.342,0.201-0.432,0.328c-0.086,0.127-0.131,0.266-0.131,0.416
			c0,0.146,0.025,0.271,0.07,0.377c0.047,0.104,0.115,0.189,0.197,0.258c0.084,0.066,0.182,0.115,0.295,0.146
			c0.111,0.031,0.234,0.047,0.369,0.047c0.344,0,0.639-0.064,0.887-0.193s0.486-0.316,0.721-0.561V23.135z"/>
		<path fill="#373F44" d="M343.967,20.775c0.197-0.398,0.434-0.709,0.711-0.936c0.277-0.227,0.611-0.341,1-0.341
			c0.133,0,0.26,0.015,0.379,0.046c0.117,0.031,0.227,0.076,0.318,0.138l-0.092,0.992c-0.016,0.07-0.041,0.117-0.076,0.145
			s-0.08,0.039-0.139,0.039c-0.061,0-0.148-0.012-0.262-0.033c-0.115-0.021-0.236-0.033-0.363-0.033
			c-0.184,0-0.346,0.027-0.486,0.08c-0.143,0.051-0.268,0.129-0.381,0.232c-0.111,0.102-0.211,0.227-0.297,0.373
			c-0.086,0.148-0.166,0.316-0.238,0.504v3.885h-1.318v-6.251h0.766c0.139,0,0.234,0.025,0.289,0.076
			c0.053,0.052,0.09,0.14,0.109,0.267L343.967,20.775z"/>
		<path fill="#373F44" d="M352.656,19.616v8.329h-1.316v-2.93c-0.256,0.281-0.547,0.51-0.867,0.684s-0.693,0.26-1.119,0.26
			c-0.35,0-0.668-0.07-0.955-0.211s-0.531-0.346-0.736-0.617c-0.203-0.27-0.361-0.604-0.475-1.002
			c-0.111-0.398-0.168-0.855-0.168-1.369c0-0.467,0.063-0.896,0.188-1.293s0.303-0.74,0.535-1.033
			c0.232-0.291,0.516-0.52,0.85-0.686c0.332-0.165,0.705-0.249,1.117-0.249c0.201,0,0.383,0.018,0.549,0.052
			c0.166,0.036,0.318,0.086,0.461,0.154c0.141,0.066,0.27,0.148,0.389,0.244c0.117,0.098,0.23,0.205,0.338,0.328l0.078-0.41
			c0.049-0.167,0.162-0.251,0.338-0.251H352.656z M351.34,21.154c-0.184-0.232-0.385-0.396-0.605-0.494
			c-0.223-0.096-0.461-0.145-0.717-0.145c-0.516,0-0.918,0.189-1.209,0.568c-0.291,0.377-0.434,0.938-0.434,1.676
			c0,0.385,0.031,0.713,0.098,0.984c0.064,0.271,0.16,0.492,0.281,0.664c0.123,0.172,0.271,0.297,0.447,0.375
			c0.174,0.076,0.373,0.115,0.594,0.115c0.336,0,0.627-0.072,0.869-0.217s0.469-0.35,0.676-0.617V21.154z"/>
		<path fill="#373F44" d="M359.842,19.616v6.251h-0.797c-0.176,0-0.287-0.084-0.338-0.252l-0.098-0.582
			c-0.129,0.141-0.268,0.266-0.414,0.381c-0.145,0.115-0.299,0.213-0.463,0.295c-0.162,0.08-0.338,0.145-0.523,0.189
			s-0.385,0.066-0.598,0.066c-0.344,0-0.645-0.057-0.906-0.172c-0.262-0.113-0.482-0.275-0.658-0.482
			c-0.18-0.209-0.313-0.459-0.404-0.752c-0.09-0.293-0.133-0.613-0.133-0.965v-3.978h1.318v3.978c0,0.42,0.096,0.748,0.289,0.98
			c0.195,0.232,0.488,0.35,0.889,0.35c0.289,0,0.559-0.066,0.811-0.199c0.25-0.133,0.486-0.316,0.709-0.549v-4.56H359.842z"/>
		<path fill="#373F44" d="M363.348,17.728c0,0.119-0.023,0.231-0.07,0.337c-0.047,0.106-0.111,0.199-0.191,0.279
			c-0.084,0.081-0.18,0.144-0.287,0.191c-0.107,0.046-0.223,0.07-0.346,0.07c-0.119,0-0.23-0.024-0.334-0.07
			c-0.105-0.047-0.195-0.11-0.273-0.191c-0.076-0.08-0.141-0.172-0.188-0.279c-0.045-0.105-0.07-0.218-0.07-0.337
			c0-0.122,0.025-0.237,0.07-0.343c0.047-0.107,0.111-0.2,0.188-0.279c0.078-0.08,0.168-0.144,0.273-0.19
			c0.104-0.047,0.215-0.07,0.334-0.07c0.123,0,0.238,0.023,0.346,0.07s0.203,0.111,0.287,0.19c0.08,0.079,0.145,0.172,0.191,0.279
			C363.324,17.491,363.348,17.606,363.348,17.728z M363.127,19.616v6.251h-1.318v-6.251H363.127z"/>
		<path fill="#373F44" d="M367.098,25.965c-0.518,0-0.916-0.145-1.197-0.438c-0.281-0.291-0.418-0.703-0.418-1.234V20.65h-0.688
			c-0.074,0-0.137-0.021-0.189-0.068c-0.055-0.047-0.08-0.119-0.08-0.213v-0.531l1.012-0.149l0.287-1.808
			c0.02-0.07,0.055-0.126,0.104-0.168c0.049-0.043,0.115-0.065,0.195-0.065h0.676v2.054h1.734v0.948h-1.734v3.551
			c0,0.225,0.055,0.395,0.164,0.514c0.113,0.119,0.26,0.178,0.443,0.178c0.1,0,0.189-0.014,0.262-0.039
			c0.074-0.027,0.139-0.055,0.191-0.086c0.051-0.031,0.1-0.061,0.137-0.086c0.039-0.027,0.076-0.039,0.113-0.039
			c0.074,0,0.133,0.041,0.178,0.121l0.393,0.645c-0.205,0.178-0.445,0.318-0.723,0.412
			C367.678,25.918,367.393,25.965,367.098,25.965z"/>
		<path fill="#373F44" d="M370.795,22.846c0.016,0.355,0.07,0.662,0.166,0.922c0.094,0.26,0.219,0.477,0.375,0.646
			c0.158,0.172,0.346,0.301,0.564,0.385c0.219,0.082,0.463,0.125,0.732,0.125c0.256,0,0.48-0.029,0.668-0.09
			c0.188-0.059,0.352-0.125,0.49-0.195c0.141-0.072,0.26-0.137,0.357-0.197c0.098-0.059,0.188-0.088,0.27-0.088
			c0.105,0,0.186,0.041,0.244,0.123l0.373,0.484c-0.154,0.184-0.33,0.338-0.525,0.465c-0.197,0.127-0.404,0.23-0.627,0.311
			c-0.221,0.08-0.447,0.137-0.68,0.172c-0.232,0.033-0.459,0.051-0.682,0.051c-0.432,0-0.834-0.072-1.203-0.217
			c-0.369-0.146-0.691-0.359-0.961-0.641c-0.273-0.283-0.484-0.633-0.639-1.049s-0.229-0.895-0.229-1.439
			c0-0.434,0.068-0.838,0.205-1.215c0.135-0.375,0.332-0.701,0.586-0.98c0.256-0.277,0.566-0.496,0.934-0.658
			c0.365-0.16,0.777-0.242,1.242-0.242c0.383,0,0.738,0.063,1.066,0.188c0.326,0.125,0.605,0.307,0.844,0.547
			c0.236,0.242,0.424,0.537,0.557,0.887c0.131,0.35,0.197,0.748,0.197,1.193c0,0.203-0.021,0.34-0.066,0.41
			c-0.047,0.068-0.127,0.104-0.246,0.104H370.795z M373.939,22.037c0-0.221-0.033-0.426-0.098-0.617
			c-0.063-0.189-0.154-0.354-0.277-0.496c-0.121-0.141-0.273-0.252-0.455-0.332c-0.184-0.078-0.393-0.117-0.631-0.117
			c-0.477,0-0.854,0.137-1.127,0.41s-0.447,0.658-0.521,1.152H373.939z"/>
		<path fill="#373F44" d="M378.602,25.965c-0.518,0-0.916-0.145-1.195-0.438c-0.281-0.291-0.42-0.703-0.42-1.234V20.65h-0.688
			c-0.072,0-0.137-0.021-0.189-0.068c-0.055-0.047-0.08-0.119-0.08-0.213v-0.531l1.014-0.149l0.285-1.808
			c0.021-0.07,0.055-0.126,0.105-0.168c0.047-0.043,0.115-0.065,0.195-0.065h0.674v2.054h1.734v0.948h-1.734v3.551
			c0,0.225,0.055,0.395,0.166,0.514s0.258,0.178,0.441,0.178c0.1,0,0.189-0.014,0.264-0.039c0.072-0.027,0.137-0.055,0.189-0.086
			c0.051-0.031,0.1-0.061,0.137-0.086c0.041-0.027,0.078-0.039,0.113-0.039c0.074,0,0.133,0.041,0.18,0.121l0.393,0.645
			c-0.207,0.178-0.447,0.318-0.725,0.412C379.184,25.918,378.896,25.965,378.602,25.965z"/>
		<path fill="#373F44" d="M386.658,19.616v6.251h-0.799c-0.176,0-0.287-0.084-0.338-0.252l-0.098-0.582
			c-0.129,0.141-0.268,0.266-0.412,0.381s-0.299,0.213-0.465,0.295c-0.162,0.08-0.336,0.145-0.523,0.189
			c-0.186,0.045-0.383,0.066-0.598,0.066c-0.342,0-0.645-0.057-0.906-0.172c-0.262-0.113-0.48-0.275-0.658-0.482
			c-0.178-0.209-0.313-0.459-0.402-0.752s-0.137-0.613-0.137-0.965v-3.978h1.32v3.978c0,0.42,0.096,0.748,0.289,0.98
			c0.195,0.232,0.49,0.35,0.889,0.35c0.289,0,0.561-0.066,0.813-0.199c0.248-0.133,0.486-0.316,0.707-0.549v-4.56H386.658z"/>
		<path fill="#373F44" d="M389.813,20.775c0.197-0.398,0.434-0.709,0.711-0.936c0.279-0.227,0.611-0.341,1-0.341
			c0.135,0,0.262,0.015,0.381,0.046c0.117,0.031,0.223,0.076,0.316,0.138l-0.09,0.992c-0.018,0.07-0.043,0.117-0.078,0.145
			c-0.033,0.027-0.08,0.039-0.139,0.039c-0.061,0-0.146-0.012-0.262-0.033c-0.113-0.021-0.234-0.033-0.361-0.033
			c-0.184,0-0.348,0.027-0.488,0.08c-0.141,0.051-0.268,0.129-0.379,0.232c-0.113,0.102-0.213,0.227-0.299,0.373
			c-0.084,0.148-0.164,0.316-0.238,0.504v3.885h-1.318v-6.251h0.768c0.139,0,0.234,0.025,0.287,0.076
			c0.053,0.052,0.092,0.14,0.111,0.267L389.813,20.775z"/>
		<path fill="#373F44" d="M393.154,20.486c0.705-0.658,1.549-0.987,2.525-0.987c0.359,0,0.68,0.059,0.959,0.175
			c0.279,0.117,0.516,0.281,0.703,0.492c0.191,0.213,0.338,0.465,0.438,0.758s0.15,0.617,0.15,0.971v3.973h-0.588
			c-0.127,0-0.225-0.018-0.289-0.057c-0.066-0.039-0.119-0.119-0.166-0.238l-0.129-0.508c-0.16,0.143-0.316,0.271-0.473,0.383
			c-0.154,0.111-0.314,0.207-0.48,0.285c-0.164,0.078-0.342,0.137-0.533,0.176s-0.4,0.057-0.627,0.057
			c-0.254,0-0.49-0.033-0.709-0.104s-0.408-0.174-0.566-0.316c-0.158-0.141-0.285-0.314-0.379-0.523
			c-0.09-0.207-0.137-0.455-0.137-0.736c0-0.24,0.066-0.475,0.191-0.705c0.129-0.229,0.342-0.432,0.639-0.615
			c0.297-0.182,0.688-0.332,1.172-0.449c0.482-0.119,1.08-0.188,1.793-0.203v-0.418c0-0.447-0.096-0.783-0.289-1.004
			s-0.473-0.332-0.846-0.332c-0.254,0-0.465,0.033-0.637,0.096c-0.172,0.064-0.322,0.133-0.447,0.205
			c-0.129,0.074-0.24,0.143-0.338,0.207c-0.1,0.063-0.203,0.094-0.314,0.094c-0.088,0-0.164-0.023-0.229-0.07
			s-0.115-0.105-0.154-0.176L393.154,20.486z M396.648,23.135c-0.471,0.016-0.867,0.053-1.189,0.111
			c-0.322,0.061-0.584,0.135-0.785,0.229c-0.199,0.092-0.344,0.201-0.432,0.328s-0.131,0.266-0.131,0.416
			c0,0.146,0.021,0.271,0.07,0.377c0.045,0.104,0.111,0.189,0.195,0.258c0.084,0.066,0.182,0.115,0.293,0.146
			c0.115,0.031,0.236,0.047,0.371,0.047c0.346,0,0.639-0.064,0.887-0.193s0.488-0.316,0.721-0.561V23.135z"/>
	</g>
	<line fill="#373F44" x1="134.899" y1="37.146" x2="134.899" y2="1.79"/>
	<line fill="none" stroke="#373F44" stroke-width="0.66" stroke-miterlimit="10" x1="134.899" y1="37.146" x2="134.899" y2="1.79"/>
	<g id="Logo_Correta_10_">
		<g>
			<path fill="#373F44" d="M69.444,34.266c-2.729-0.754-5.168-1.596-7.639-2.525c-0.406-0.176-0.842-0.264-1.278-0.291
				c-4.533-0.234-8.572-3.576-8.572-9.939c0-6.037,3.749-10.283,9.355-10.283c5.665,0,9.036,4.359,9.036,9.876
				c0,4.707-2.18,7.875-5.055,9.039v0.109c1.684,0.467,3.572,0.875,5.172,1.166L69.444,34.266z M61.164,28.572
				c3.428,0,5.405-3.197,5.405-7.291c0-3.719-1.832-7.177-5.375-7.177c-3.573,0-5.462,3.398-5.462,7.323
				c0,3.92,2.005,7.145,5.404,7.145H61.164z"/>
			<path fill="#373F44" d="M74.523,14.946c-1.189,0-1.971-0.874-1.971-1.917c0-1.102,0.812-1.946,2.002-1.946
				c1.219,0,1.974,0.84,2.006,1.946c0,1.043-0.783,1.917-2.006,1.917H74.523z M72.756,16.98h3.57v14.152h-3.57V16.98z"/>
			<path fill="#373F44" d="M79.761,27.232c1.129,0.668,2.901,1.252,4.735,1.252c2.264,0,3.545-1.076,3.545-2.674
				c0-1.48-0.987-2.352-3.458-3.252c-3.253-1.133-5.317-2.875-5.317-5.668c0-3.224,2.673-5.634,6.943-5.634
				c2.123,0,3.661,0.46,4.676,0.957l-0.842,2.905c-0.726-0.379-2.09-0.928-3.919-0.928c-2.268,0-3.226,1.189-3.226,2.355
				c0,1.509,1.133,2.204,3.747,3.193c3.398,1.31,5.029,3.023,5.029,5.808c0,3.164-2.383,5.871-7.412,5.871
				c-2.091,0-4.241-0.582-5.315-1.223L79.761,27.232z"/>
			<path fill="#373F44" d="M105.384,27.732c0,1.275,0.058,2.52,0.232,3.395h-3.226l-0.26-1.57h-0.09
				c-0.841,1.104-2.323,1.893-4.183,1.893c-2.846,0-4.445-2.063-4.445-4.217c0-3.543,3.166-5.375,8.396-5.346V21.66
				c0-0.932-0.378-2.473-2.875-2.473c-1.394,0-2.849,0.438-3.808,1.041l-0.695-2.321c1.047-0.642,2.873-1.25,5.114-1.25
				c4.535,0,5.841,2.877,5.841,5.984V27.732z M101.896,24.215c-2.528-0.029-4.938,0.492-4.938,2.643
				c0,1.398,0.899,2.033,2.032,2.033c1.454,0,2.469-0.928,2.815-1.945c0.09-0.26,0.09-0.523,0.09-0.785V24.215z"/>
			<path fill="#373F44" d="M112.56,13.35v3.631h3.398v2.669h-3.398v6.219c0,1.742,0.466,2.615,1.831,2.615
				c0.636,0,0.987-0.029,1.394-0.145l0.059,2.701c-0.524,0.205-1.485,0.377-2.586,0.377c-1.337,0-2.412-0.438-3.078-1.166
				c-0.786-0.813-1.137-2.117-1.137-3.975V19.65h-2.002V16.98h2.002v-2.643L112.56,13.35z"/>
		</g>
		<g>
			<polygon fill="#E3E5E8" points="30.063,0.825 13.133,0.825 0.705,19.485 1.322,20.391 18.234,20.391 17.618,19.474 			"/>
			<polygon fill="#C0CBCF" points="30.063,38.115 13.133,38.115 0.705,19.474 17.618,19.474 17.618,19.465 			"/>
			<polygon fill="#0B8D87" points="13.117,0.825 30.045,0.825 42.475,19.465 41.864,20.391 24.947,20.391 25.563,19.465 
				25.563,19.474 			"/>
			<polygon fill="#1B5485" points="13.117,38.115 30.045,38.115 42.475,19.474 25.563,19.474 25.563,19.465 			"/>
			<polygon fill="#0B8D87" points="12.108,22.736 9.141,22.736 11.32,19.471 9.141,16.208 12.108,16.208 14.289,19.476 			"/>
			<polygon fill="#1B5485" points="18.505,24.119 14.289,24.119 17.384,19.479 14.289,14.842 18.505,14.842 21.601,19.485 			"/>
		</g>
	</g>
</g>
</svg>
