<?xml version="1.0" encoding="utf-8"?>
<!-- Generator: Adobe Illustrator 16.0.0, SVG Export Plug-In . SVG Version: 6.00 Build 0)  -->
<!DOCTYPE svg PUBLIC "-//W3C//DTD SVG 1.1//EN" "http://www.w3.org/Graphics/SVG/1.1/DTD/svg11.dtd">
<svg version="1.1" id="Camada_1" xmlns="http://www.w3.org/2000/svg" xmlns:xlink="http://www.w3.org/1999/xlink" x="0px" y="0px"
	 width="364.667px" height="38.5px" viewBox="0 0 364.667 38.5" enable-background="new 0 0 364.667 38.5" xml:space="preserve">
<g id="Logo_Vertical">
	<g id="Logo_Horizontal_1_">
		<g>
			<path fill="#FFFFFF" d="M143.941,23.579c0.071,0,0.133,0.028,0.186,0.085l0.523,0.567c-0.33,0.397-0.735,0.705-1.216,0.92
				c-0.479,0.216-1.053,0.324-1.721,0.324c-0.592,0-1.127-0.104-1.605-0.307c-0.479-0.204-0.886-0.489-1.223-0.854
				c-0.338-0.367-0.599-0.803-0.78-1.309c-0.181-0.507-0.273-1.064-0.273-1.672c0-0.605,0.096-1.164,0.29-1.672
				c0.193-0.508,0.465-0.946,0.815-1.311c0.351-0.366,0.771-0.649,1.26-0.852c0.49-0.203,1.028-0.304,1.618-0.304
				c0.585,0,1.102,0.095,1.549,0.285c0.448,0.188,0.837,0.441,1.167,0.756l-0.433,0.612c-0.03,0.042-0.066,0.077-0.107,0.107
				c-0.042,0.03-0.097,0.046-0.168,0.046c-0.075,0-0.161-0.035-0.256-0.104c-0.096-0.07-0.218-0.146-0.366-0.231
				c-0.148-0.083-0.333-0.161-0.558-0.23c-0.222-0.069-0.5-0.104-0.834-0.104c-0.386,0-0.74,0.068-1.063,0.204
				c-0.322,0.134-0.6,0.331-0.833,0.589c-0.232,0.259-0.413,0.574-0.543,0.945c-0.129,0.371-0.193,0.792-0.193,1.265
				c0,0.478,0.066,0.901,0.202,1.275c0.135,0.373,0.321,0.688,0.557,0.945c0.236,0.257,0.514,0.451,0.833,0.587
				c0.318,0.135,0.661,0.203,1.029,0.203c0.226,0,0.426-0.012,0.604-0.038c0.178-0.023,0.342-0.063,0.492-0.117
				c0.151-0.055,0.292-0.123,0.425-0.204c0.133-0.084,0.265-0.185,0.397-0.306C143.791,23.613,143.866,23.579,143.941,23.579z"/>
			<path fill="#FFFFFF" d="M150.601,19.647v5.737h-0.731c-0.161,0-0.265-0.076-0.311-0.23l-0.09-0.534
				c-0.12,0.128-0.246,0.243-0.379,0.349c-0.133,0.104-0.275,0.195-0.425,0.271c-0.149,0.074-0.309,0.132-0.48,0.174
				c-0.171,0.042-0.354,0.063-0.549,0.063c-0.314,0-0.592-0.055-0.832-0.158c-0.24-0.105-0.441-0.254-0.604-0.444
				c-0.164-0.19-0.286-0.42-0.368-0.688c-0.083-0.268-0.125-0.564-0.125-0.886v-3.651h1.21v3.651c0,0.386,0.089,0.687,0.268,0.899
				c0.179,0.213,0.45,0.321,0.812,0.321c0.267,0,0.515-0.062,0.746-0.184c0.231-0.122,0.447-0.29,0.65-0.504v-4.185H150.601z"/>
			<path fill="#FFFFFF" d="M153.497,20.711c0.181-0.364,0.398-0.649,0.653-0.858c0.255-0.208,0.561-0.312,0.917-0.312
				c0.124,0,0.24,0.013,0.349,0.042c0.108,0.028,0.207,0.071,0.292,0.127l-0.084,0.911c-0.014,0.064-0.039,0.107-0.07,0.132
				c-0.031,0.024-0.073,0.036-0.126,0.036c-0.057,0-0.137-0.01-0.242-0.031c-0.106-0.021-0.215-0.029-0.333-0.029
				c-0.168,0-0.317,0.024-0.447,0.072c-0.13,0.049-0.246,0.119-0.349,0.215c-0.104,0.092-0.194,0.207-0.273,0.342
				c-0.079,0.136-0.151,0.289-0.219,0.463v3.564h-1.209v-5.737h0.703c0.128,0,0.216,0.022,0.264,0.07
				c0.05,0.048,0.083,0.128,0.102,0.245L153.497,20.711z"/>
			<path fill="#FFFFFF" d="M160.186,20.688c-0.031,0.054-0.064,0.09-0.102,0.113s-0.084,0.034-0.14,0.034
				c-0.064,0-0.134-0.021-0.208-0.06c-0.076-0.039-0.163-0.084-0.264-0.133c-0.102-0.047-0.22-0.092-0.358-0.131
				c-0.137-0.04-0.296-0.059-0.48-0.059c-0.151,0-0.287,0.016-0.409,0.053c-0.122,0.036-0.225,0.086-0.309,0.152
				c-0.084,0.064-0.149,0.142-0.194,0.229c-0.046,0.089-0.067,0.183-0.067,0.284c0,0.135,0.042,0.248,0.124,0.338
				c0.083,0.09,0.191,0.167,0.326,0.232c0.135,0.066,0.289,0.126,0.461,0.178c0.173,0.053,0.35,0.109,0.529,0.169
				c0.18,0.061,0.356,0.129,0.529,0.208c0.173,0.08,0.327,0.176,0.461,0.29c0.135,0.114,0.244,0.253,0.327,0.416
				c0.082,0.163,0.123,0.36,0.123,0.593c0,0.271-0.048,0.519-0.146,0.749c-0.098,0.229-0.239,0.429-0.428,0.596
				c-0.188,0.169-0.421,0.301-0.7,0.395c-0.28,0.093-0.6,0.141-0.959,0.141c-0.199,0-0.391-0.019-0.577-0.055
				c-0.185-0.035-0.362-0.083-0.528-0.146c-0.167-0.063-0.323-0.137-0.467-0.222c-0.145-0.086-0.273-0.181-0.385-0.28l0.282-0.462
				c0.034-0.057,0.076-0.101,0.126-0.133c0.05-0.031,0.113-0.048,0.189-0.048c0.078,0,0.156,0.025,0.233,0.076
				c0.077,0.05,0.167,0.106,0.271,0.165c0.103,0.061,0.227,0.115,0.374,0.166s0.329,0.076,0.546,0.076
				c0.181,0,0.335-0.021,0.467-0.064c0.13-0.043,0.239-0.102,0.326-0.178c0.086-0.074,0.15-0.16,0.19-0.256
				c0.042-0.096,0.063-0.196,0.063-0.306c0-0.146-0.041-0.267-0.124-0.36c-0.083-0.095-0.192-0.174-0.329-0.243
				c-0.137-0.066-0.292-0.127-0.467-0.18c-0.174-0.052-0.351-0.107-0.532-0.169c-0.179-0.058-0.356-0.128-0.531-0.208
				c-0.174-0.078-0.331-0.178-0.466-0.3c-0.137-0.122-0.248-0.271-0.33-0.444c-0.083-0.175-0.125-0.388-0.125-0.639
				c0-0.229,0.047-0.446,0.138-0.652c0.092-0.206,0.228-0.389,0.405-0.546c0.179-0.158,0.397-0.282,0.658-0.375
				c0.261-0.091,0.562-0.138,0.903-0.138c0.387,0,0.736,0.063,1.052,0.186c0.313,0.125,0.579,0.293,0.792,0.507L160.186,20.688z"/>
			<path fill="#FFFFFF" d="M164.433,19.557c0.423,0,0.806,0.07,1.149,0.209c0.344,0.139,0.636,0.336,0.878,0.591
				c0.242,0.254,0.428,0.563,0.559,0.929c0.131,0.362,0.198,0.771,0.198,1.226c0,0.453-0.066,0.863-0.198,1.227
				c-0.131,0.364-0.317,0.674-0.559,0.931c-0.242,0.257-0.534,0.455-0.878,0.592c-0.343,0.141-0.726,0.21-1.149,0.21
				c-0.429,0-0.813-0.069-1.156-0.21c-0.343-0.137-0.637-0.335-0.88-0.592s-0.431-0.566-0.563-0.931
				c-0.132-0.363-0.197-0.773-0.197-1.227c0-0.454,0.065-0.863,0.197-1.226c0.131-0.365,0.319-0.675,0.563-0.929
				c0.244-0.255,0.537-0.452,0.88-0.591S164.004,19.557,164.433,19.557z M164.433,24.524c0.517,0,0.902-0.174,1.155-0.521
				c0.254-0.346,0.38-0.843,0.38-1.486c0-0.646-0.126-1.144-0.38-1.494c-0.253-0.352-0.638-0.527-1.155-0.527
				c-0.525,0-0.916,0.176-1.171,0.527c-0.255,0.351-0.383,0.848-0.383,1.494c0,0.644,0.128,1.141,0.383,1.486
				C163.518,24.351,163.908,24.524,164.433,24.524z"/>
			<path fill="#FFFFFF" d="M172.082,20.688c-0.03,0.054-0.063,0.09-0.101,0.113c-0.037,0.023-0.084,0.034-0.141,0.034
				c-0.064,0-0.133-0.021-0.208-0.06s-0.163-0.084-0.264-0.133c-0.101-0.047-0.22-0.092-0.357-0.131
				c-0.137-0.04-0.297-0.059-0.481-0.059c-0.15,0-0.286,0.016-0.408,0.053c-0.122,0.036-0.225,0.086-0.308,0.152
				c-0.084,0.064-0.15,0.142-0.195,0.229c-0.044,0.089-0.068,0.183-0.068,0.284c0,0.135,0.042,0.248,0.125,0.338
				s0.191,0.167,0.326,0.232c0.136,0.066,0.29,0.126,0.462,0.178c0.173,0.053,0.349,0.109,0.529,0.169
				c0.18,0.061,0.356,0.129,0.528,0.208c0.173,0.08,0.327,0.176,0.461,0.29s0.244,0.253,0.326,0.416
				c0.083,0.163,0.124,0.36,0.124,0.593c0,0.271-0.049,0.519-0.146,0.749c-0.098,0.229-0.241,0.429-0.428,0.596
				c-0.188,0.169-0.42,0.301-0.701,0.395c-0.278,0.093-0.598,0.141-0.958,0.141c-0.199,0-0.391-0.019-0.577-0.055
				c-0.186-0.035-0.361-0.083-0.528-0.146c-0.167-0.063-0.322-0.137-0.467-0.222c-0.144-0.086-0.272-0.181-0.385-0.28l0.281-0.462
				c0.033-0.057,0.077-0.101,0.126-0.133c0.051-0.031,0.114-0.048,0.188-0.048c0.079,0,0.157,0.025,0.234,0.076
				c0.076,0.05,0.167,0.106,0.27,0.165c0.104,0.061,0.228,0.115,0.374,0.166c0.146,0.051,0.328,0.076,0.546,0.076
				c0.18,0,0.335-0.021,0.467-0.064c0.13-0.043,0.239-0.102,0.326-0.178c0.085-0.074,0.15-0.16,0.191-0.256
				c0.042-0.096,0.062-0.196,0.062-0.306c0-0.146-0.041-0.267-0.123-0.36c-0.083-0.095-0.192-0.174-0.329-0.243
				c-0.137-0.066-0.293-0.127-0.467-0.18c-0.175-0.052-0.352-0.107-0.532-0.169c-0.18-0.058-0.357-0.128-0.532-0.208
				c-0.174-0.078-0.33-0.178-0.467-0.3c-0.136-0.122-0.246-0.271-0.328-0.444c-0.083-0.175-0.125-0.388-0.125-0.639
				c0-0.229,0.046-0.446,0.138-0.652s0.227-0.389,0.405-0.546c0.177-0.158,0.397-0.282,0.658-0.375
				c0.261-0.091,0.562-0.138,0.903-0.138c0.387,0,0.737,0.063,1.052,0.186c0.314,0.125,0.58,0.293,0.793,0.507L172.082,20.688z"/>
			<path fill="#FFFFFF" d="M176.791,20.445c0.647-0.604,1.421-0.905,2.317-0.905c0.33,0,0.624,0.054,0.881,0.16
				c0.255,0.107,0.473,0.258,0.646,0.453c0.175,0.195,0.307,0.427,0.399,0.694c0.093,0.27,0.138,0.566,0.138,0.892v3.646h-0.54
				c-0.116,0-0.204-0.018-0.264-0.053c-0.06-0.037-0.11-0.107-0.151-0.218l-0.118-0.466c-0.148,0.131-0.291,0.249-0.435,0.352
				c-0.142,0.103-0.288,0.189-0.441,0.26c-0.152,0.072-0.314,0.126-0.489,0.161c-0.174,0.036-0.368,0.055-0.577,0.055
				c-0.233,0-0.449-0.033-0.649-0.096c-0.201-0.063-0.374-0.16-0.52-0.291c-0.147-0.129-0.262-0.288-0.347-0.48
				c-0.084-0.19-0.126-0.417-0.126-0.675c0-0.222,0.059-0.437,0.176-0.646c0.118-0.21,0.313-0.399,0.586-0.565
				c0.271-0.166,0.629-0.304,1.074-0.413c0.444-0.109,0.993-0.172,1.645-0.186v-0.384c0-0.411-0.089-0.718-0.264-0.922
				c-0.177-0.202-0.436-0.304-0.777-0.304c-0.232,0-0.426,0.029-0.584,0.088c-0.158,0.058-0.293,0.121-0.41,0.188
				c-0.117,0.067-0.221,0.13-0.311,0.188c-0.09,0.058-0.186,0.088-0.287,0.088c-0.083,0-0.153-0.022-0.211-0.065
				c-0.059-0.043-0.106-0.096-0.143-0.16L176.791,20.445z M179.996,22.876c-0.431,0.015-0.794,0.05-1.091,0.104
				c-0.296,0.055-0.536,0.124-0.719,0.208c-0.185,0.085-0.316,0.187-0.397,0.303c-0.081,0.116-0.121,0.244-0.121,0.382
				c0,0.134,0.021,0.251,0.066,0.346c0.042,0.097,0.102,0.175,0.178,0.236c0.077,0.062,0.167,0.106,0.271,0.135
				c0.104,0.028,0.217,0.042,0.34,0.042c0.315,0,0.585-0.059,0.813-0.177c0.226-0.118,0.447-0.289,0.66-0.515V22.876z"/>
			<path fill="#FFFFFF" d="M184.012,20.48c0.24-0.282,0.514-0.508,0.819-0.681s0.66-0.259,1.065-0.259
				c0.324,0,0.614,0.065,0.877,0.194c0.263,0.128,0.488,0.318,0.676,0.565c0.188,0.248,0.332,0.555,0.436,0.92
				c0.104,0.366,0.155,0.784,0.155,1.257c0,0.424-0.057,0.818-0.171,1.185c-0.114,0.365-0.28,0.682-0.494,0.95
				c-0.213,0.269-0.472,0.478-0.775,0.631c-0.304,0.151-0.647,0.228-1.03,0.228c-0.338,0-0.622-0.055-0.856-0.163
				c-0.235-0.108-0.448-0.259-0.64-0.451v2.437h-1.209v-7.645h0.732c0.164,0,0.27,0.076,0.314,0.23L184.012,20.48z M184.074,23.945
				c0.17,0.217,0.354,0.37,0.554,0.459c0.201,0.087,0.424,0.131,0.667,0.131c0.474,0,0.842-0.172,1.105-0.518
				c0.265-0.344,0.396-0.859,0.396-1.541c0-0.353-0.029-0.654-0.09-0.902c-0.061-0.25-0.146-0.453-0.258-0.61
				c-0.112-0.157-0.25-0.272-0.411-0.343c-0.162-0.071-0.344-0.107-0.546-0.107c-0.307,0-0.573,0.066-0.796,0.201
				c-0.223,0.133-0.431,0.321-0.622,0.57V23.945z"/>
			<path fill="#FFFFFF" d="M190.729,17.06v8.325h-1.21V17.06H190.729z"/>
			<path fill="#FFFFFF" d="M193.967,17.915c0,0.109-0.021,0.212-0.064,0.309c-0.042,0.098-0.102,0.184-0.176,0.256
				c-0.075,0.074-0.163,0.132-0.262,0.175c-0.101,0.042-0.206,0.065-0.318,0.065c-0.109,0-0.211-0.022-0.306-0.065
				c-0.095-0.043-0.18-0.102-0.251-0.175c-0.07-0.072-0.13-0.158-0.171-0.256c-0.044-0.097-0.065-0.2-0.065-0.309
				c0-0.112,0.021-0.217,0.065-0.315c0.041-0.097,0.101-0.184,0.171-0.256c0.071-0.073,0.156-0.131,0.251-0.174
				c0.095-0.043,0.196-0.064,0.306-0.064c0.112,0,0.218,0.021,0.318,0.064c0.099,0.043,0.187,0.101,0.262,0.174
				c0.074,0.073,0.134,0.159,0.176,0.256C193.946,17.698,193.967,17.803,193.967,17.915z M193.765,19.647v5.737h-1.209v-5.737
				H193.765z"/>
			<path fill="#FFFFFF" d="M199.627,20.771c-0.037,0.05-0.074,0.088-0.107,0.113c-0.034,0.026-0.082,0.041-0.146,0.041
				c-0.064,0-0.131-0.023-0.201-0.069c-0.068-0.044-0.15-0.095-0.246-0.149c-0.096-0.053-0.211-0.104-0.346-0.148
				s-0.304-0.067-0.507-0.067c-0.262,0-0.491,0.048-0.688,0.141c-0.198,0.094-0.362,0.229-0.495,0.402
				c-0.134,0.175-0.234,0.386-0.299,0.636c-0.066,0.25-0.099,0.529-0.099,0.841c0,0.323,0.037,0.609,0.107,0.86
				c0.071,0.252,0.174,0.463,0.307,0.635c0.135,0.173,0.293,0.306,0.484,0.395c0.188,0.09,0.401,0.135,0.637,0.135
				c0.233,0,0.423-0.027,0.569-0.084c0.146-0.057,0.268-0.117,0.365-0.186c0.098-0.067,0.181-0.13,0.251-0.186
				c0.068-0.057,0.143-0.084,0.222-0.084c0.098,0,0.173,0.037,0.225,0.112l0.344,0.443c-0.139,0.17-0.292,0.312-0.462,0.429
				c-0.168,0.115-0.348,0.211-0.535,0.284s-0.381,0.125-0.584,0.156c-0.203,0.033-0.407,0.049-0.613,0.049
				c-0.356,0-0.688-0.066-0.999-0.2c-0.309-0.133-0.579-0.326-0.809-0.579c-0.232-0.254-0.413-0.563-0.546-0.929
				c-0.134-0.365-0.199-0.782-0.199-1.251c0-0.424,0.059-0.817,0.181-1.179c0.119-0.362,0.294-0.674,0.524-0.937
				c0.23-0.262,0.516-0.468,0.857-0.616c0.342-0.147,0.736-0.223,1.181-0.223c0.418,0,0.784,0.067,1.101,0.203
				s0.6,0.326,0.847,0.574L199.627,20.771z"/>
			<path fill="#FFFFFF" d="M201.112,20.445c0.649-0.604,1.421-0.905,2.318-0.905c0.329,0,0.622,0.054,0.879,0.16
				c0.258,0.107,0.473,0.258,0.648,0.453c0.174,0.195,0.307,0.427,0.399,0.694c0.091,0.27,0.137,0.566,0.137,0.892v3.646h-0.541
				c-0.115,0-0.204-0.018-0.264-0.053c-0.061-0.037-0.11-0.107-0.15-0.218l-0.12-0.466c-0.146,0.131-0.29,0.249-0.432,0.352
				c-0.143,0.103-0.292,0.189-0.442,0.26c-0.151,0.072-0.314,0.126-0.489,0.161c-0.174,0.036-0.365,0.055-0.575,0.055
				c-0.232,0-0.449-0.033-0.651-0.096c-0.2-0.063-0.373-0.16-0.521-0.291c-0.145-0.129-0.26-0.288-0.346-0.48
				c-0.083-0.19-0.127-0.417-0.127-0.675c0-0.222,0.06-0.437,0.179-0.646c0.117-0.21,0.312-0.399,0.584-0.565
				c0.273-0.166,0.631-0.304,1.074-0.413c0.444-0.109,0.994-0.172,1.646-0.186v-0.384c0-0.411-0.087-0.718-0.264-0.922
				c-0.176-0.202-0.436-0.304-0.777-0.304c-0.232,0-0.426,0.029-0.585,0.088c-0.157,0.058-0.294,0.121-0.411,0.188
				c-0.115,0.067-0.218,0.13-0.308,0.188c-0.091,0.058-0.187,0.088-0.287,0.088c-0.083,0-0.152-0.022-0.211-0.065
				s-0.106-0.096-0.145-0.16L201.112,20.445z M204.318,22.876c-0.432,0.015-0.795,0.05-1.091,0.104
				c-0.297,0.055-0.537,0.124-0.721,0.208c-0.183,0.085-0.316,0.187-0.396,0.303c-0.079,0.116-0.12,0.244-0.12,0.382
				c0,0.134,0.021,0.251,0.064,0.346c0.043,0.097,0.103,0.175,0.181,0.236c0.077,0.062,0.165,0.106,0.27,0.135
				c0.104,0.028,0.217,0.042,0.34,0.042c0.315,0,0.587-0.059,0.813-0.177s0.446-0.289,0.66-0.515V22.876z"/>
			<path fill="#FFFFFF" d="M212.058,17.06v8.325h-0.731c-0.161,0-0.265-0.076-0.309-0.23l-0.108-0.624
				c-0.239,0.281-0.512,0.508-0.817,0.681s-0.661,0.259-1.066,0.259c-0.322,0-0.616-0.064-0.878-0.194
				c-0.261-0.129-0.486-0.318-0.675-0.565c-0.188-0.248-0.332-0.554-0.436-0.92c-0.103-0.365-0.155-0.784-0.155-1.257
				c0-0.428,0.058-0.822,0.173-1.187c0.114-0.364,0.277-0.681,0.492-0.948c0.213-0.268,0.474-0.479,0.779-0.63
				c0.305-0.152,0.646-0.228,1.025-0.228c0.338,0,0.624,0.054,0.861,0.16c0.235,0.107,0.446,0.256,0.635,0.448V17.06H212.058z
				 M210.848,21.059c-0.17-0.216-0.354-0.369-0.558-0.455c-0.201-0.086-0.422-0.129-0.657-0.129c-0.473,0-0.842,0.173-1.107,0.521
				c-0.267,0.346-0.399,0.859-0.399,1.537c0,0.353,0.029,0.654,0.09,0.903s0.146,0.452,0.258,0.609
				c0.114,0.158,0.25,0.272,0.411,0.344c0.162,0.07,0.345,0.106,0.546,0.106c0.307,0,0.572-0.065,0.795-0.199
				s0.432-0.321,0.622-0.565V21.059z"/>
			<path fill="#FFFFFF" d="M216.293,19.557c0.423,0,0.807,0.07,1.149,0.209c0.344,0.139,0.638,0.336,0.879,0.591
				c0.242,0.254,0.429,0.563,0.56,0.929c0.131,0.362,0.196,0.771,0.196,1.226c0,0.453-0.065,0.863-0.196,1.227
				c-0.131,0.364-0.317,0.674-0.56,0.931c-0.241,0.257-0.535,0.455-0.879,0.592c-0.343,0.141-0.727,0.21-1.149,0.21
				c-0.428,0-0.812-0.069-1.156-0.21c-0.343-0.137-0.636-0.335-0.88-0.592s-0.431-0.566-0.563-0.931
				c-0.132-0.363-0.197-0.773-0.197-1.227c0-0.454,0.065-0.863,0.197-1.226c0.132-0.365,0.318-0.675,0.563-0.929
				c0.244-0.255,0.537-0.452,0.88-0.591C215.482,19.627,215.866,19.557,216.293,19.557z M216.293,24.524
				c0.518,0,0.902-0.174,1.156-0.521c0.253-0.346,0.379-0.843,0.379-1.486c0-0.646-0.126-1.144-0.379-1.494
				c-0.254-0.352-0.639-0.527-1.156-0.527c-0.525,0-0.913,0.176-1.171,0.527c-0.255,0.351-0.382,0.848-0.382,1.494
				c0,0.644,0.127,1.141,0.382,1.486C215.38,24.351,215.768,24.524,216.293,24.524z"/>
			<path fill="#FFFFFF" d="M223.944,20.688c-0.03,0.054-0.064,0.09-0.103,0.113c-0.037,0.023-0.083,0.034-0.141,0.034
				c-0.064,0-0.133-0.021-0.208-0.06c-0.073-0.039-0.163-0.084-0.264-0.133c-0.102-0.047-0.22-0.092-0.357-0.131
				c-0.137-0.04-0.297-0.059-0.482-0.059c-0.147,0-0.285,0.016-0.406,0.053c-0.122,0.036-0.226,0.086-0.309,0.152
				c-0.085,0.064-0.149,0.142-0.194,0.229c-0.046,0.089-0.067,0.183-0.067,0.284c0,0.135,0.04,0.248,0.124,0.338
				c0.081,0.09,0.19,0.167,0.325,0.232c0.136,0.066,0.288,0.126,0.462,0.178c0.172,0.053,0.348,0.109,0.528,0.169
				c0.181,0.061,0.357,0.129,0.529,0.208c0.174,0.08,0.326,0.176,0.46,0.29c0.136,0.114,0.243,0.253,0.326,0.416
				c0.084,0.163,0.124,0.36,0.124,0.593c0,0.271-0.048,0.519-0.145,0.749c-0.099,0.229-0.241,0.429-0.428,0.596
				c-0.188,0.169-0.421,0.301-0.702,0.395c-0.278,0.093-0.599,0.141-0.959,0.141c-0.198,0-0.39-0.019-0.576-0.055
				c-0.185-0.035-0.362-0.083-0.529-0.146s-0.321-0.137-0.467-0.222c-0.144-0.086-0.272-0.181-0.383-0.28l0.28-0.462
				c0.032-0.057,0.075-0.101,0.126-0.133c0.052-0.031,0.112-0.048,0.189-0.048c0.078,0,0.154,0.025,0.233,0.076
				c0.077,0.05,0.167,0.106,0.27,0.165c0.103,0.061,0.229,0.115,0.373,0.166c0.146,0.051,0.329,0.076,0.546,0.076
				c0.182,0,0.336-0.021,0.468-0.064c0.131-0.043,0.239-0.102,0.326-0.178c0.086-0.074,0.149-0.16,0.19-0.256
				c0.042-0.096,0.063-0.196,0.063-0.306c0-0.146-0.042-0.267-0.124-0.36c-0.082-0.095-0.193-0.174-0.329-0.243
				c-0.137-0.066-0.292-0.127-0.467-0.18c-0.174-0.052-0.352-0.107-0.532-0.169c-0.179-0.058-0.357-0.128-0.53-0.208
				c-0.176-0.078-0.332-0.178-0.468-0.3c-0.135-0.122-0.246-0.271-0.329-0.444c-0.081-0.175-0.124-0.388-0.124-0.639
				c0-0.229,0.046-0.446,0.14-0.652c0.09-0.206,0.226-0.389,0.403-0.546c0.178-0.158,0.397-0.282,0.659-0.375
				c0.26-0.091,0.561-0.138,0.902-0.138c0.386,0,0.736,0.063,1.051,0.186c0.315,0.125,0.581,0.293,0.793,0.507L223.944,20.688z"/>
			<path fill="#FFFFFF" d="M228.651,20.445c0.648-0.604,1.421-0.905,2.316-0.905c0.331,0,0.625,0.054,0.882,0.16
				c0.256,0.107,0.472,0.258,0.646,0.453c0.175,0.195,0.309,0.427,0.4,0.694c0.091,0.27,0.137,0.566,0.137,0.892v3.646h-0.54
				c-0.115,0-0.204-0.018-0.265-0.053c-0.06-0.037-0.111-0.107-0.151-0.218l-0.117-0.466c-0.146,0.131-0.293,0.249-0.434,0.352
				c-0.143,0.103-0.291,0.189-0.442,0.26c-0.151,0.072-0.314,0.126-0.489,0.161c-0.174,0.036-0.366,0.055-0.576,0.055
				c-0.233,0-0.448-0.033-0.649-0.096c-0.201-0.063-0.374-0.16-0.521-0.291c-0.146-0.129-0.262-0.288-0.346-0.48
				c-0.085-0.19-0.127-0.417-0.127-0.675c0-0.222,0.059-0.437,0.178-0.646c0.116-0.21,0.313-0.399,0.584-0.565
				c0.272-0.166,0.63-0.304,1.074-0.413s0.993-0.172,1.646-0.186v-0.384c0-0.411-0.088-0.718-0.264-0.922
				c-0.177-0.202-0.437-0.304-0.777-0.304c-0.233,0-0.427,0.029-0.585,0.088c-0.157,0.058-0.294,0.121-0.411,0.188
				c-0.115,0.067-0.218,0.13-0.308,0.188c-0.091,0.058-0.186,0.088-0.287,0.088c-0.083,0-0.153-0.022-0.211-0.065
				c-0.059-0.043-0.107-0.096-0.144-0.16L228.651,20.445z M230.311,17.195c0.138,0,0.241,0.023,0.308,0.067
				c0.068,0.045,0.127,0.116,0.181,0.208l0.821,1.362h-0.687c-0.094,0-0.169-0.014-0.227-0.04c-0.06-0.025-0.118-0.072-0.178-0.14
				l-1.355-1.458H230.311z M231.857,22.876c-0.431,0.015-0.795,0.05-1.091,0.104c-0.297,0.055-0.537,0.124-0.721,0.208
				c-0.184,0.085-0.315,0.187-0.397,0.303c-0.078,0.116-0.12,0.244-0.12,0.382c0,0.134,0.022,0.251,0.065,0.346
				c0.043,0.097,0.103,0.175,0.179,0.236c0.077,0.062,0.168,0.106,0.271,0.135c0.104,0.028,0.216,0.042,0.34,0.042
				c0.314,0,0.586-0.059,0.813-0.177c0.227-0.118,0.446-0.289,0.66-0.515V22.876z"/>
			<path fill="#FFFFFF" d="M238.684,22.612c0.017,0.326,0.066,0.608,0.153,0.846c0.087,0.238,0.201,0.438,0.346,0.594
				c0.145,0.157,0.316,0.275,0.517,0.353c0.202,0.076,0.426,0.115,0.673,0.115c0.236,0,0.44-0.028,0.612-0.083
				c0.174-0.053,0.323-0.114,0.452-0.18c0.127-0.065,0.235-0.126,0.325-0.18c0.09-0.055,0.172-0.081,0.247-0.081
				c0.098,0,0.173,0.037,0.226,0.112l0.343,0.443c-0.143,0.17-0.303,0.312-0.484,0.429c-0.18,0.115-0.37,0.211-0.573,0.284
				c-0.202,0.073-0.41,0.125-0.624,0.156c-0.214,0.033-0.422,0.049-0.624,0.049c-0.397,0-0.766-0.066-1.105-0.2
				c-0.34-0.133-0.635-0.329-0.883-0.587c-0.251-0.26-0.444-0.58-0.584-0.962c-0.142-0.384-0.212-0.823-0.212-1.322
				c0-0.397,0.063-0.77,0.188-1.113c0.125-0.346,0.306-0.646,0.541-0.9c0.234-0.256,0.518-0.457,0.855-0.605
				c0.334-0.147,0.715-0.223,1.138-0.223c0.354,0,0.679,0.059,0.979,0.172c0.3,0.115,0.558,0.283,0.776,0.504
				c0.217,0.221,0.387,0.492,0.509,0.813c0.121,0.321,0.182,0.687,0.182,1.094c0,0.188-0.021,0.314-0.061,0.379
				c-0.042,0.063-0.116,0.095-0.226,0.095H238.684z M241.571,21.869c0-0.203-0.029-0.391-0.088-0.564
				c-0.058-0.176-0.143-0.327-0.256-0.457c-0.112-0.128-0.252-0.23-0.418-0.303c-0.167-0.073-0.359-0.11-0.577-0.11
				c-0.438,0-0.784,0.126-1.035,0.378c-0.252,0.251-0.41,0.603-0.478,1.057H241.571z"/>
			<path fill="#FFFFFF" d="M245.194,20.407c0.123-0.128,0.253-0.243,0.385-0.346c0.133-0.104,0.275-0.192,0.424-0.269
				c0.15-0.074,0.31-0.132,0.479-0.174c0.168-0.041,0.352-0.063,0.551-0.063c0.314,0,0.591,0.053,0.83,0.158
				c0.237,0.105,0.439,0.254,0.601,0.444c0.165,0.191,0.288,0.421,0.369,0.688c0.083,0.27,0.124,0.564,0.124,0.887v3.65h-1.203
				v-3.65c0-0.387-0.089-0.688-0.269-0.899c-0.178-0.214-0.448-0.321-0.813-0.321c-0.269,0-0.521,0.062-0.751,0.186
				c-0.229,0.125-0.446,0.293-0.649,0.508v4.178h-1.209v-5.737h0.731c0.166,0,0.269,0.076,0.314,0.23L245.194,20.407z"/>
			<path fill="#FFFFFF" d="M255.599,19.855v0.449c0,0.15-0.09,0.243-0.271,0.277l-0.573,0.094c0.098,0.219,0.146,0.461,0.146,0.727
				c0,0.281-0.056,0.537-0.166,0.766c-0.111,0.229-0.263,0.424-0.458,0.585c-0.196,0.16-0.428,0.285-0.698,0.372
				c-0.271,0.085-0.562,0.128-0.878,0.128c-0.12,0-0.237-0.006-0.352-0.02c-0.113-0.013-0.227-0.03-0.333-0.054
				c-0.109,0.064-0.19,0.132-0.244,0.203c-0.05,0.07-0.076,0.145-0.076,0.219c0,0.123,0.054,0.216,0.163,0.276
				c0.106,0.061,0.251,0.103,0.429,0.128c0.178,0.027,0.383,0.044,0.609,0.052c0.23,0.008,0.462,0.021,0.699,0.039
				c0.236,0.018,0.469,0.051,0.698,0.093c0.227,0.043,0.43,0.114,0.609,0.215c0.179,0.099,0.321,0.232,0.43,0.401
				c0.108,0.168,0.163,0.388,0.163,0.657c0,0.249-0.062,0.49-0.186,0.728c-0.125,0.235-0.303,0.445-0.537,0.63
				c-0.233,0.184-0.52,0.33-0.858,0.441c-0.337,0.109-0.722,0.165-1.152,0.165c-0.428,0-0.799-0.041-1.116-0.124
				c-0.316-0.081-0.581-0.193-0.795-0.335c-0.211-0.14-0.367-0.303-0.471-0.486s-0.155-0.375-0.155-0.573
				c0-0.27,0.086-0.5,0.256-0.691c0.172-0.192,0.402-0.341,0.695-0.451c-0.157-0.073-0.284-0.178-0.38-0.309
				s-0.144-0.303-0.144-0.518c0-0.169,0.062-0.345,0.186-0.529c0.124-0.184,0.311-0.339,0.557-0.466
				c-0.284-0.158-0.509-0.367-0.674-0.627c-0.164-0.262-0.248-0.567-0.248-0.915c0-0.285,0.055-0.541,0.166-0.771
				c0.11-0.228,0.265-0.424,0.463-0.585c0.2-0.161,0.436-0.285,0.708-0.372c0.271-0.086,0.568-0.129,0.89-0.129
				c0.496,0,0.927,0.104,1.296,0.309H255.599z M254.384,25.667c0-0.128-0.036-0.23-0.11-0.308c-0.071-0.077-0.171-0.137-0.295-0.181
				c-0.123-0.042-0.269-0.073-0.434-0.095c-0.165-0.021-0.341-0.036-0.525-0.045c-0.186-0.009-0.374-0.02-0.567-0.028
				c-0.194-0.009-0.38-0.026-0.56-0.054c-0.182,0.093-0.328,0.207-0.442,0.338s-0.171,0.283-0.171,0.457
				c0,0.11,0.028,0.216,0.087,0.313c0.058,0.098,0.147,0.182,0.27,0.253s0.277,0.128,0.468,0.168
				c0.188,0.043,0.417,0.064,0.684,0.064c0.533,0,0.931-0.084,1.197-0.249S254.384,25.925,254.384,25.667z M252.702,22.465
				c0.375,0,0.656-0.096,0.844-0.285c0.188-0.191,0.281-0.441,0.281-0.749c0-0.314-0.093-0.563-0.281-0.749
				c-0.188-0.183-0.469-0.274-0.844-0.274c-0.37,0-0.65,0.092-0.84,0.274c-0.189,0.186-0.284,0.435-0.284,0.749
				c0,0.149,0.024,0.289,0.073,0.417c0.048,0.127,0.119,0.237,0.214,0.328c0.095,0.092,0.21,0.162,0.351,0.214
				S252.518,22.465,252.702,22.465z"/>
			<path fill="#FFFFFF" d="M257.619,22.612c0.016,0.326,0.066,0.608,0.151,0.846c0.087,0.238,0.202,0.438,0.346,0.594
				c0.146,0.157,0.318,0.275,0.519,0.353c0.2,0.076,0.425,0.115,0.671,0.115c0.238,0,0.44-0.028,0.614-0.083
				c0.172-0.053,0.323-0.114,0.45-0.18c0.128-0.065,0.235-0.126,0.326-0.18c0.09-0.055,0.174-0.081,0.247-0.081
				c0.098,0,0.172,0.037,0.226,0.112l0.342,0.443c-0.143,0.17-0.303,0.312-0.482,0.429c-0.18,0.115-0.371,0.211-0.574,0.284
				c-0.202,0.073-0.411,0.125-0.625,0.156c-0.213,0.033-0.421,0.049-0.623,0.049c-0.398,0-0.766-0.066-1.106-0.2
				c-0.339-0.133-0.634-0.329-0.883-0.587c-0.25-0.26-0.444-0.58-0.585-0.962c-0.141-0.384-0.21-0.823-0.21-1.322
				c0-0.397,0.063-0.77,0.187-1.113c0.126-0.346,0.306-0.646,0.542-0.9c0.234-0.256,0.519-0.457,0.854-0.605
				c0.336-0.147,0.715-0.223,1.138-0.223c0.354,0,0.679,0.059,0.979,0.172c0.3,0.115,0.56,0.283,0.776,0.504s0.389,0.492,0.51,0.813
				c0.12,0.321,0.183,0.687,0.183,1.094c0,0.188-0.021,0.314-0.063,0.379c-0.042,0.063-0.116,0.095-0.224,0.095H257.619z
				 M260.504,21.869c0-0.203-0.029-0.391-0.088-0.564c-0.058-0.176-0.143-0.327-0.256-0.457c-0.112-0.128-0.251-0.23-0.418-0.303
				c-0.168-0.073-0.359-0.11-0.578-0.11c-0.437,0-0.782,0.126-1.034,0.378c-0.251,0.251-0.41,0.603-0.479,1.057H260.504z"/>
			<path fill="#FFFFFF" d="M264.126,20.407c0.124-0.128,0.253-0.243,0.386-0.346c0.133-0.104,0.275-0.192,0.424-0.269
				c0.151-0.074,0.311-0.132,0.479-0.174c0.169-0.041,0.352-0.063,0.55-0.063c0.315,0,0.593,0.053,0.83,0.158
				c0.238,0.105,0.439,0.254,0.602,0.444c0.164,0.191,0.287,0.421,0.369,0.688c0.083,0.27,0.123,0.564,0.123,0.887v3.65h-1.203
				v-3.65c0-0.387-0.089-0.688-0.267-0.899c-0.179-0.214-0.449-0.321-0.813-0.321c-0.271,0-0.521,0.062-0.751,0.186
				c-0.229,0.125-0.446,0.293-0.648,0.508v4.178h-1.211v-5.737h0.732c0.165,0,0.27,0.076,0.314,0.23L264.126,20.407z"/>
			<path fill="#FFFFFF" d="M270.797,20.328c0.237-0.232,0.495-0.42,0.777-0.56c0.281-0.141,0.608-0.212,0.983-0.212
				c0.316,0,0.592,0.053,0.83,0.158c0.238,0.105,0.438,0.254,0.603,0.444c0.162,0.191,0.285,0.421,0.368,0.688
				c0.082,0.27,0.123,0.564,0.123,0.887v3.65h-1.204v-3.65c0-0.387-0.09-0.688-0.266-0.899c-0.18-0.214-0.45-0.321-0.813-0.321
				c-0.271,0-0.521,0.062-0.751,0.186c-0.231,0.125-0.447,0.293-0.65,0.508v4.178h-1.209V17.06h1.209V20.328z"/>
			<path fill="#FFFFFF" d="M276.041,20.445c0.647-0.604,1.421-0.905,2.316-0.905c0.33,0,0.625,0.054,0.881,0.16
				c0.256,0.107,0.473,0.258,0.646,0.453c0.175,0.195,0.308,0.427,0.4,0.694c0.092,0.27,0.137,0.566,0.137,0.892v3.646h-0.539
				c-0.116,0-0.204-0.018-0.266-0.053c-0.058-0.037-0.108-0.107-0.15-0.218l-0.118-0.466c-0.147,0.131-0.292,0.249-0.434,0.352
				c-0.143,0.103-0.289,0.189-0.441,0.26c-0.151,0.072-0.315,0.126-0.489,0.161c-0.176,0.036-0.367,0.055-0.577,0.055
				c-0.232,0-0.449-0.033-0.649-0.096c-0.202-0.063-0.375-0.16-0.521-0.291c-0.146-0.129-0.262-0.288-0.346-0.48
				c-0.085-0.19-0.127-0.417-0.127-0.675c0-0.222,0.06-0.437,0.177-0.646c0.118-0.21,0.313-0.399,0.586-0.565
				c0.271-0.166,0.629-0.304,1.074-0.413c0.444-0.109,0.992-0.172,1.645-0.186v-0.384c0-0.411-0.088-0.718-0.264-0.922
				c-0.177-0.202-0.436-0.304-0.775-0.304c-0.232,0-0.428,0.029-0.586,0.088c-0.158,0.058-0.293,0.121-0.409,0.188
				c-0.117,0.067-0.221,0.13-0.312,0.188c-0.09,0.058-0.186,0.088-0.286,0.088c-0.083,0-0.153-0.022-0.211-0.065
				c-0.059-0.043-0.105-0.096-0.142-0.16L276.041,20.445z M279.246,22.876c-0.43,0.015-0.795,0.05-1.091,0.104
				c-0.298,0.055-0.536,0.124-0.72,0.208c-0.185,0.085-0.315,0.187-0.396,0.303s-0.121,0.244-0.121,0.382
				c0,0.134,0.021,0.251,0.064,0.346c0.044,0.097,0.104,0.175,0.181,0.236c0.076,0.062,0.167,0.106,0.271,0.135
				s0.217,0.042,0.34,0.042c0.314,0,0.585-0.059,0.813-0.177c0.227-0.118,0.447-0.289,0.66-0.515V22.876z"/>
			<path fill="#FFFFFF" d="M283.256,20.711c0.181-0.364,0.398-0.649,0.653-0.858c0.255-0.208,0.56-0.312,0.917-0.312
				c0.123,0,0.239,0.013,0.349,0.042c0.107,0.028,0.207,0.071,0.292,0.127l-0.084,0.911c-0.015,0.064-0.038,0.107-0.07,0.132
				s-0.074,0.036-0.127,0.036c-0.056,0-0.138-0.01-0.241-0.031c-0.105-0.021-0.217-0.029-0.333-0.029
				c-0.169,0-0.317,0.024-0.446,0.072c-0.129,0.049-0.245,0.119-0.35,0.215c-0.103,0.092-0.193,0.207-0.272,0.342
				c-0.078,0.136-0.151,0.289-0.22,0.463v3.564h-1.209v-5.737h0.703c0.128,0,0.216,0.022,0.264,0.07
				c0.05,0.048,0.083,0.128,0.102,0.245L283.256,20.711z"/>
			<path fill="#FFFFFF" d="M288.009,17.915c0,0.109-0.021,0.212-0.064,0.309c-0.044,0.098-0.103,0.184-0.177,0.256
				c-0.075,0.074-0.162,0.132-0.262,0.175c-0.101,0.042-0.206,0.065-0.317,0.065c-0.108,0-0.212-0.022-0.307-0.065
				c-0.096-0.043-0.18-0.102-0.251-0.175c-0.071-0.072-0.128-0.158-0.171-0.256c-0.044-0.097-0.065-0.2-0.065-0.309
				c0-0.112,0.021-0.217,0.065-0.315c0.043-0.097,0.1-0.184,0.171-0.256s0.155-0.131,0.251-0.174
				c0.095-0.043,0.198-0.064,0.307-0.064c0.111,0,0.217,0.021,0.317,0.064c0.1,0.043,0.187,0.101,0.262,0.174
				c0.074,0.073,0.133,0.159,0.177,0.256C287.988,17.698,288.009,17.803,288.009,17.915z M287.807,19.647v5.737h-1.209v-5.737
				H287.807z"/>
			<path fill="#FFFFFF" d="M289.472,20.445c0.649-0.604,1.422-0.905,2.317-0.905c0.33,0,0.623,0.054,0.88,0.16
				c0.258,0.107,0.473,0.258,0.648,0.453c0.174,0.195,0.307,0.427,0.398,0.694c0.092,0.27,0.137,0.566,0.137,0.892v3.646h-0.539
				c-0.115,0-0.205-0.018-0.264-0.053c-0.062-0.037-0.111-0.107-0.152-0.218l-0.118-0.466c-0.146,0.131-0.291,0.249-0.432,0.352
				c-0.145,0.103-0.292,0.189-0.442,0.26c-0.151,0.072-0.314,0.126-0.49,0.161c-0.173,0.036-0.366,0.055-0.575,0.055
				c-0.234,0-0.451-0.033-0.65-0.096c-0.2-0.063-0.374-0.16-0.521-0.291c-0.145-0.129-0.261-0.288-0.346-0.48
				c-0.084-0.19-0.126-0.417-0.126-0.675c0-0.222,0.059-0.437,0.178-0.646c0.117-0.21,0.313-0.399,0.585-0.565
				c0.271-0.166,0.63-0.304,1.074-0.413s0.992-0.172,1.645-0.186v-0.384c0-0.411-0.087-0.718-0.265-0.922
				c-0.175-0.202-0.435-0.304-0.775-0.304c-0.232,0-0.428,0.029-0.585,0.088c-0.157,0.058-0.295,0.121-0.412,0.188
				c-0.115,0.067-0.217,0.13-0.308,0.188c-0.091,0.058-0.186,0.088-0.287,0.088c-0.082,0-0.152-0.022-0.211-0.065
				s-0.106-0.096-0.145-0.16L289.472,20.445z M292.678,22.876c-0.431,0.015-0.795,0.05-1.09,0.104
				c-0.297,0.055-0.537,0.124-0.721,0.208c-0.185,0.085-0.316,0.187-0.396,0.303c-0.082,0.116-0.121,0.244-0.121,0.382
				c0,0.134,0.021,0.251,0.063,0.346c0.044,0.097,0.104,0.175,0.181,0.236c0.076,0.062,0.167,0.106,0.271,0.135
				c0.103,0.028,0.216,0.042,0.339,0.042c0.314,0,0.587-0.059,0.812-0.177c0.229-0.118,0.449-0.289,0.662-0.515V22.876z"/>
			<path fill="#FFFFFF" d="M299.506,22.612c0.016,0.326,0.065,0.608,0.151,0.846c0.088,0.238,0.202,0.438,0.346,0.594
				c0.146,0.157,0.318,0.275,0.52,0.353c0.199,0.076,0.424,0.115,0.672,0.115c0.235,0,0.44-0.028,0.612-0.083
				c0.173-0.053,0.323-0.114,0.45-0.18c0.128-0.065,0.237-0.126,0.326-0.18c0.089-0.055,0.173-0.081,0.247-0.081
				c0.097,0,0.174,0.037,0.226,0.112l0.343,0.443c-0.142,0.17-0.303,0.312-0.483,0.429c-0.181,0.115-0.371,0.211-0.573,0.284
				c-0.203,0.073-0.412,0.125-0.625,0.156c-0.214,0.033-0.422,0.049-0.625,0.049c-0.397,0-0.766-0.066-1.104-0.2
				c-0.34-0.133-0.634-0.329-0.883-0.587c-0.249-0.26-0.445-0.58-0.584-0.962c-0.142-0.384-0.212-0.823-0.212-1.322
				c0-0.397,0.063-0.77,0.188-1.113c0.125-0.346,0.306-0.646,0.54-0.9c0.233-0.256,0.519-0.457,0.854-0.605
				c0.336-0.147,0.716-0.223,1.14-0.223c0.353,0,0.678,0.059,0.979,0.172c0.301,0.115,0.558,0.283,0.776,0.504
				c0.218,0.221,0.387,0.492,0.508,0.813c0.122,0.321,0.184,0.687,0.184,1.094c0,0.188-0.021,0.314-0.062,0.379
				c-0.041,0.063-0.117,0.095-0.225,0.095H299.506z M302.392,21.869c0-0.203-0.029-0.391-0.088-0.564
				c-0.058-0.176-0.143-0.327-0.256-0.457c-0.111-0.128-0.25-0.23-0.419-0.303c-0.166-0.073-0.358-0.11-0.576-0.11
				c-0.438,0-0.782,0.126-1.034,0.378c-0.252,0.251-0.411,0.603-0.479,1.057H302.392z"/>
			<path fill="#FFFFFF" d="M307.825,20.445c0.649-0.604,1.421-0.905,2.317-0.905c0.331,0,0.624,0.054,0.882,0.16
				c0.257,0.107,0.471,0.258,0.646,0.453c0.175,0.195,0.308,0.427,0.399,0.694c0.092,0.27,0.138,0.566,0.138,0.892v3.646h-0.54
				c-0.115,0-0.205-0.018-0.265-0.053c-0.06-0.037-0.109-0.107-0.15-0.218l-0.119-0.466c-0.146,0.131-0.291,0.249-0.433,0.352
				c-0.143,0.103-0.29,0.189-0.442,0.26c-0.15,0.072-0.315,0.126-0.489,0.161c-0.175,0.036-0.366,0.055-0.576,0.055
				c-0.232,0-0.449-0.033-0.649-0.096c-0.2-0.063-0.374-0.16-0.521-0.291c-0.146-0.129-0.26-0.288-0.347-0.48
				c-0.084-0.19-0.126-0.417-0.126-0.675c0-0.222,0.059-0.437,0.177-0.646s0.314-0.399,0.585-0.565
				c0.272-0.166,0.631-0.304,1.074-0.413c0.445-0.109,0.992-0.172,1.646-0.186v-0.384c0-0.411-0.087-0.718-0.265-0.922
				c-0.176-0.202-0.435-0.304-0.774-0.304c-0.232,0-0.429,0.029-0.586,0.088c-0.157,0.058-0.294,0.121-0.411,0.188
				c-0.115,0.067-0.219,0.13-0.309,0.188c-0.09,0.058-0.187,0.088-0.287,0.088c-0.083,0-0.153-0.022-0.211-0.065
				c-0.059-0.043-0.106-0.096-0.144-0.16L307.825,20.445z M311.032,22.876c-0.431,0.015-0.795,0.05-1.091,0.104
				c-0.296,0.055-0.537,0.124-0.722,0.208c-0.183,0.085-0.313,0.187-0.395,0.303s-0.121,0.244-0.121,0.382
				c0,0.134,0.021,0.251,0.065,0.346c0.043,0.097,0.103,0.175,0.18,0.236c0.076,0.062,0.166,0.106,0.269,0.135
				c0.104,0.028,0.216,0.042,0.341,0.042c0.314,0,0.586-0.059,0.813-0.177c0.229-0.118,0.446-0.289,0.661-0.515V22.876z"/>
			<path fill="#FFFFFF" d="M315.042,20.711c0.181-0.364,0.397-0.649,0.653-0.858c0.254-0.208,0.56-0.312,0.917-0.312
				c0.122,0,0.239,0.013,0.348,0.042c0.108,0.028,0.207,0.071,0.292,0.127l-0.083,0.911c-0.017,0.064-0.039,0.107-0.07,0.132
				c-0.032,0.024-0.076,0.036-0.128,0.036c-0.056,0-0.137-0.01-0.24-0.031c-0.105-0.021-0.216-0.029-0.334-0.029
				c-0.168,0-0.316,0.024-0.446,0.072c-0.13,0.049-0.245,0.119-0.349,0.215c-0.103,0.092-0.194,0.207-0.273,0.342
				c-0.078,0.136-0.15,0.289-0.219,0.463v3.564h-1.209v-5.737h0.703c0.128,0,0.217,0.022,0.266,0.07
				c0.047,0.048,0.081,0.128,0.1,0.245L315.042,20.711z"/>
			<path fill="#FFFFFF" d="M323.018,19.647v7.645h-1.208v-2.688c-0.236,0.259-0.502,0.467-0.797,0.626
				c-0.294,0.16-0.637,0.24-1.026,0.24c-0.323,0-0.615-0.064-0.877-0.194c-0.264-0.129-0.489-0.318-0.676-0.565
				c-0.188-0.248-0.333-0.554-0.437-0.92c-0.103-0.365-0.153-0.784-0.153-1.257c0-0.428,0.057-0.822,0.17-1.187
				c0.115-0.364,0.28-0.681,0.492-0.948c0.215-0.268,0.474-0.479,0.78-0.63c0.305-0.152,0.647-0.228,1.027-0.228
				c0.183,0,0.351,0.016,0.503,0.048c0.151,0.031,0.291,0.078,0.422,0.14c0.13,0.063,0.248,0.137,0.356,0.226
				s0.211,0.188,0.311,0.302l0.072-0.378c0.045-0.154,0.147-0.23,0.31-0.23H323.018z M321.81,21.059
				c-0.17-0.213-0.355-0.363-0.557-0.451c-0.204-0.088-0.423-0.133-0.659-0.133c-0.472,0-0.842,0.173-1.109,0.521
				c-0.265,0.346-0.397,0.859-0.397,1.537c0,0.353,0.03,0.654,0.089,0.903c0.061,0.249,0.147,0.452,0.259,0.609
				c0.112,0.158,0.25,0.272,0.411,0.344c0.161,0.07,0.344,0.106,0.546,0.106c0.307,0,0.572-0.065,0.796-0.199
				c0.223-0.134,0.431-0.321,0.622-0.565V21.059z"/>
			<path fill="#FFFFFF" d="M329.612,19.647v5.737h-0.732c-0.16,0-0.264-0.076-0.31-0.23l-0.09-0.534
				c-0.119,0.128-0.246,0.243-0.379,0.349c-0.134,0.104-0.275,0.195-0.425,0.271c-0.15,0.074-0.311,0.132-0.481,0.174
				s-0.354,0.063-0.548,0.063c-0.315,0-0.594-0.055-0.834-0.158c-0.238-0.105-0.441-0.254-0.604-0.444
				c-0.163-0.19-0.285-0.42-0.369-0.688c-0.082-0.268-0.122-0.564-0.122-0.886v-3.651h1.209v3.651c0,0.386,0.089,0.687,0.267,0.899
				s0.448,0.321,0.813,0.321c0.267,0,0.516-0.062,0.747-0.184c0.23-0.122,0.446-0.29,0.648-0.504v-4.185H329.612z"/>
			<path fill="#FFFFFF" d="M332.83,17.915c0,0.109-0.023,0.212-0.065,0.309c-0.042,0.098-0.102,0.184-0.177,0.256
				c-0.075,0.074-0.163,0.132-0.264,0.175c-0.099,0.042-0.203,0.065-0.317,0.065c-0.108,0-0.21-0.022-0.306-0.065
				c-0.097-0.043-0.18-0.102-0.251-0.175c-0.07-0.072-0.128-0.158-0.172-0.256c-0.042-0.097-0.064-0.2-0.064-0.309
				c0-0.112,0.022-0.217,0.064-0.315c0.044-0.097,0.102-0.184,0.172-0.256c0.071-0.073,0.154-0.131,0.251-0.174
				c0.096-0.043,0.197-0.064,0.306-0.064c0.114,0,0.219,0.021,0.317,0.064c0.101,0.043,0.188,0.101,0.264,0.174
				s0.135,0.159,0.177,0.256C332.806,17.698,332.83,17.803,332.83,17.915z M332.625,19.647v5.737h-1.209v-5.737H332.625z"/>
			<path fill="#FFFFFF" d="M336.27,25.476c-0.476,0-0.843-0.135-1.1-0.403c-0.257-0.267-0.384-0.645-0.384-1.133v-3.342h-0.631
				c-0.067,0-0.125-0.021-0.175-0.064c-0.048-0.043-0.072-0.107-0.072-0.193v-0.49l0.929-0.135l0.264-1.659
				c0.018-0.064,0.05-0.116,0.096-0.154c0.044-0.04,0.105-0.06,0.18-0.06h0.617v1.885h1.593v0.871h-1.593v3.258
				c0,0.205,0.052,0.364,0.153,0.473c0.103,0.108,0.236,0.162,0.405,0.162c0.094,0,0.174-0.012,0.241-0.036
				c0.069-0.023,0.125-0.05,0.175-0.079c0.049-0.028,0.091-0.055,0.126-0.078c0.038-0.024,0.07-0.037,0.104-0.037
				c0.067,0,0.122,0.038,0.163,0.112l0.36,0.592c-0.188,0.164-0.409,0.291-0.664,0.379C336.802,25.431,336.541,25.476,336.27,25.476
				z"/>
			<path fill="#FFFFFF" d="M339.662,22.612c0.016,0.326,0.066,0.608,0.151,0.846c0.088,0.238,0.203,0.438,0.348,0.594
				c0.144,0.157,0.317,0.275,0.517,0.353c0.201,0.076,0.426,0.115,0.672,0.115c0.235,0,0.44-0.028,0.614-0.083
				c0.172-0.053,0.323-0.114,0.45-0.18s0.235-0.126,0.325-0.18c0.091-0.055,0.173-0.081,0.248-0.081
				c0.098,0,0.172,0.037,0.225,0.112l0.343,0.443c-0.143,0.17-0.303,0.312-0.483,0.429c-0.18,0.115-0.372,0.211-0.573,0.284
				c-0.203,0.073-0.411,0.125-0.625,0.156c-0.213,0.033-0.422,0.049-0.624,0.049c-0.398,0-0.767-0.066-1.105-0.2
				c-0.339-0.133-0.634-0.329-0.883-0.587c-0.25-0.26-0.444-0.58-0.585-0.962c-0.14-0.384-0.211-0.823-0.211-1.322
				c0-0.397,0.064-0.77,0.188-1.113c0.124-0.346,0.305-0.646,0.54-0.9c0.233-0.256,0.52-0.457,0.854-0.605
				c0.336-0.147,0.716-0.223,1.14-0.223c0.352,0,0.678,0.059,0.979,0.172c0.3,0.115,0.559,0.283,0.776,0.504
				c0.217,0.221,0.388,0.492,0.51,0.813c0.121,0.321,0.183,0.687,0.183,1.094c0,0.188-0.021,0.314-0.062,0.379
				c-0.043,0.063-0.117,0.095-0.227,0.095H339.662z M342.548,21.869c0-0.203-0.029-0.391-0.089-0.564
				c-0.057-0.176-0.142-0.327-0.255-0.457c-0.112-0.128-0.252-0.23-0.419-0.303c-0.167-0.073-0.36-0.11-0.577-0.11
				c-0.438,0-0.783,0.126-1.034,0.378c-0.252,0.251-0.411,0.603-0.479,1.057H342.548z"/>
			<path fill="#FFFFFF" d="M346.829,25.476c-0.476,0-0.843-0.135-1.1-0.403c-0.258-0.267-0.385-0.645-0.385-1.133v-3.342h-0.632
				c-0.066,0-0.124-0.021-0.174-0.064c-0.049-0.043-0.073-0.107-0.073-0.193v-0.49l0.929-0.135l0.265-1.659
				c0.019-0.064,0.05-0.116,0.096-0.154c0.045-0.04,0.106-0.06,0.18-0.06h0.618v1.885h1.593v0.871h-1.593v3.258
				c0,0.205,0.051,0.364,0.153,0.473c0.102,0.108,0.236,0.162,0.403,0.162c0.094,0,0.177-0.012,0.242-0.036
				c0.068-0.023,0.126-0.05,0.175-0.079c0.048-0.028,0.092-0.055,0.127-0.078c0.035-0.024,0.07-0.037,0.104-0.037
				c0.067,0,0.121,0.038,0.162,0.112l0.362,0.592c-0.188,0.164-0.41,0.291-0.665,0.379S347.098,25.476,346.829,25.476z"/>
			<path fill="#FFFFFF" d="M354.22,19.647v5.737h-0.732c-0.161,0-0.264-0.076-0.31-0.23l-0.089-0.534
				c-0.12,0.128-0.248,0.243-0.381,0.349c-0.132,0.104-0.273,0.195-0.424,0.271c-0.15,0.074-0.31,0.132-0.481,0.174
				c-0.171,0.042-0.354,0.063-0.549,0.063c-0.314,0-0.592-0.055-0.832-0.158c-0.239-0.105-0.44-0.254-0.604-0.444
				c-0.162-0.19-0.286-0.42-0.369-0.688c-0.082-0.268-0.123-0.564-0.123-0.886v-3.651h1.209v3.651c0,0.386,0.091,0.687,0.267,0.899
				c0.179,0.213,0.45,0.321,0.813,0.321c0.267,0,0.516-0.062,0.745-0.184c0.23-0.122,0.448-0.29,0.648-0.504v-4.185H354.22z"/>
			<path fill="#FFFFFF" d="M357.115,20.711c0.182-0.364,0.398-0.649,0.652-0.858c0.256-0.208,0.563-0.312,0.919-0.312
				c0.122,0,0.238,0.013,0.349,0.042c0.108,0.028,0.206,0.071,0.291,0.127l-0.083,0.911c-0.015,0.064-0.039,0.107-0.07,0.132
				c-0.032,0.024-0.074,0.036-0.128,0.036c-0.056,0-0.135-0.01-0.242-0.031c-0.104-0.021-0.214-0.029-0.33-0.029
				c-0.169,0-0.318,0.024-0.448,0.072c-0.13,0.049-0.245,0.119-0.349,0.215c-0.103,0.092-0.193,0.207-0.272,0.342
				c-0.079,0.136-0.152,0.289-0.22,0.463v3.564h-1.21v-5.737h0.703c0.129,0,0.217,0.022,0.266,0.07
				c0.05,0.048,0.082,0.128,0.101,0.245L357.115,20.711z"/>
			<path fill="#FFFFFF" d="M360.181,20.445c0.648-0.604,1.423-0.905,2.317-0.905c0.331,0,0.625,0.054,0.882,0.16
				c0.256,0.107,0.472,0.258,0.646,0.453c0.174,0.195,0.308,0.427,0.399,0.694c0.093,0.27,0.138,0.566,0.138,0.892v3.646h-0.539
				c-0.116,0-0.205-0.018-0.265-0.053c-0.06-0.037-0.109-0.107-0.151-0.218l-0.117-0.466c-0.149,0.131-0.293,0.249-0.435,0.352
				s-0.289,0.189-0.441,0.26c-0.151,0.072-0.314,0.126-0.489,0.161c-0.175,0.036-0.367,0.055-0.577,0.055
				c-0.233,0-0.449-0.033-0.649-0.096c-0.2-0.063-0.374-0.16-0.52-0.291c-0.147-0.129-0.263-0.288-0.348-0.48
				c-0.084-0.19-0.126-0.417-0.126-0.675c0-0.222,0.061-0.437,0.178-0.646c0.118-0.21,0.313-0.399,0.585-0.565
				s0.629-0.304,1.075-0.413c0.444-0.109,0.991-0.172,1.644-0.186v-0.384c0-0.411-0.087-0.718-0.263-0.922
				c-0.178-0.202-0.436-0.304-0.777-0.304c-0.232,0-0.427,0.029-0.585,0.088c-0.157,0.058-0.293,0.121-0.41,0.188
				c-0.116,0.067-0.219,0.13-0.31,0.188c-0.09,0.058-0.187,0.088-0.287,0.088c-0.082,0-0.153-0.022-0.21-0.065
				c-0.06-0.043-0.106-0.096-0.144-0.16L360.181,20.445z M363.387,22.876c-0.431,0.015-0.795,0.05-1.091,0.104
				c-0.296,0.055-0.536,0.124-0.72,0.208c-0.185,0.085-0.315,0.187-0.396,0.303s-0.12,0.244-0.12,0.382
				c0,0.134,0.021,0.251,0.065,0.346c0.043,0.097,0.102,0.175,0.179,0.236c0.076,0.062,0.167,0.106,0.27,0.135
				c0.104,0.028,0.217,0.042,0.341,0.042c0.316,0,0.585-0.059,0.813-0.177s0.447-0.289,0.66-0.515V22.876z"/>
		</g>
		
			<line fill="none" stroke="#FFFFFF" stroke-width="0.66" stroke-miterlimit="10" x1="123.181" y1="35.736" x2="123.181" y2="3.289"/>
		<g id="Logo_Correta_1_" display="none">
			<g display="inline">
				<path fill="#384044" d="M63.11,33.093c-2.504-0.692-4.742-1.467-7.01-2.318c-0.372-0.16-0.773-0.241-1.173-0.267
					c-4.159-0.216-7.867-3.283-7.867-9.121c0-5.542,3.44-9.438,8.585-9.438c5.199,0,8.292,4,8.292,9.064c0,4.32-2,7.227-4.639,8.295
					v0.102c1.546,0.428,3.278,0.804,4.747,1.07L63.11,33.093z M55.512,27.867c3.147,0,4.96-2.935,4.96-6.692
					c0-3.412-1.681-6.585-4.933-6.585c-3.279,0-5.013,3.119-5.013,6.721c0,3.598,1.841,6.557,4.959,6.557H55.512z"/>
				<path fill="#384044" d="M67.773,15.362c-1.091,0-1.809-0.802-1.809-1.76c0-1.01,0.745-1.785,1.837-1.785
					c1.119,0,1.812,0.771,1.841,1.785c0,0.958-0.719,1.76-1.841,1.76H67.773z M66.15,17.229h3.276v12.987H66.15V17.229z"/>
				<path fill="#384044" d="M72.579,26.638c1.036,0.613,2.662,1.148,4.345,1.148c2.078,0,3.253-0.986,3.253-2.453
					c0-1.359-0.907-2.159-3.173-2.983c-2.985-1.041-4.88-2.64-4.88-5.204c0-2.958,2.454-5.17,6.371-5.17
					c1.948,0,3.36,0.422,4.292,0.878l-0.773,2.666c-0.666-0.348-1.918-0.851-3.597-0.851c-2.082,0-2.96,1.091-2.96,2.161
					c0,1.386,1.04,2.023,3.438,2.93c3.118,1.203,4.614,2.775,4.614,5.33c0,2.905-2.187,5.389-6.801,5.389
					c-1.92,0-3.893-0.534-4.879-1.121L72.579,26.638z"/>
				<path fill="#384044" d="M96.093,27.097c0,1.17,0.053,2.313,0.213,3.116h-2.96l-0.239-1.441h-0.083
					c-0.772,1.012-2.132,1.736-3.839,1.736c-2.612,0-4.078-1.895-4.078-3.87c0-3.252,2.905-4.933,7.704-4.906v-0.208
					c0-0.854-0.347-2.27-2.639-2.27c-1.279,0-2.613,0.402-3.494,0.956l-0.639-2.13c0.961-0.589,2.637-1.147,4.693-1.147
					c4.161,0,5.36,2.639,5.36,5.491V27.097z M92.893,23.868c-2.321-0.027-4.533,0.452-4.533,2.425c0,1.283,0.825,1.866,1.865,1.866
					c1.334,0,2.267-0.852,2.584-1.786c0.084-0.238,0.084-0.479,0.084-0.721V23.868z"/>
				<path fill="#384044" d="M102.678,13.897v3.332h3.12v2.45h-3.12v5.708c0,1.598,0.428,2.399,1.681,2.399
					c0.583,0,0.906-0.026,1.279-0.132l0.053,2.479c-0.48,0.188-1.362,0.346-2.373,0.346c-1.228,0-2.213-0.4-2.825-1.069
					c-0.72-0.746-1.043-1.944-1.043-3.649v-6.081h-1.837v-2.45h1.837v-2.426L102.678,13.897z"/>
			</g>
			<g display="inline">
				<polygon fill="#E2E4E8" points="26.971,2.403 11.434,2.403 0.029,19.526 0.595,20.359 16.115,20.359 15.549,19.517 				"/>
				<polygon fill="#BFCACE" points="26.971,36.625 11.434,36.625 0.029,19.517 15.549,19.517 15.549,19.51 				"/>
				<polygon fill="#0E8D86" points="11.419,2.403 26.955,2.403 38.361,19.51 37.801,20.359 22.275,20.359 22.84,19.51 22.84,19.517 
									"/>
				<polygon fill="#1B5485" points="11.419,36.625 26.955,36.625 38.361,19.517 22.84,19.517 22.84,19.51 				"/>
				<polygon fill="#0E8D86" points="10.493,22.511 7.771,22.511 9.771,19.514 7.771,16.521 10.493,16.521 12.495,19.519 				"/>
				<polygon fill="#1B5485" points="16.364,23.781 12.495,23.781 15.334,19.523 12.495,15.266 16.364,15.266 19.205,19.526 				"/>
			</g>
		</g>
	</g>
	<g>
		<path fill="#FFFFFF" d="M62.83,33.033c-2.494-0.688-4.722-1.459-6.977-2.309c-0.372-0.158-0.769-0.238-1.168-0.267
			c-4.139-0.211-7.827-3.263-7.827-9.073c0-5.519,3.422-9.392,8.542-9.392c5.176,0,8.252,3.979,8.252,9.019
			c0,4.3-1.99,7.193-4.616,8.254v0.104c1.54,0.427,3.262,0.799,4.724,1.063L62.83,33.033z M55.267,27.834
			c3.132,0,4.936-2.918,4.936-6.66c0-3.398-1.672-6.555-4.909-6.555c-3.265,0-4.989,3.105-4.989,6.688s1.832,6.526,4.936,6.526
			L55.267,27.834L55.267,27.834z"/>
		<path fill="#FFFFFF" d="M67.477,15.389c-1.087,0-1.804-0.798-1.804-1.75c0-1.008,0.742-1.778,1.832-1.778
			c1.113,0,1.803,0.769,1.831,1.778c0,0.954-0.716,1.75-1.831,1.75H67.477z M65.857,17.246h3.262v12.923h-3.262V17.246z"/>
		<path fill="#FFFFFF" d="M72.256,26.611c1.035,0.609,2.65,1.141,4.325,1.141c2.069,0,3.236-0.981,3.236-2.44
			c0-1.353-0.902-2.149-3.156-2.972c-2.974-1.035-4.857-2.625-4.857-5.175c0-2.946,2.44-5.147,6.341-5.147
			c1.938,0,3.344,0.423,4.272,0.875l-0.769,2.652c-0.664-0.344-1.91-0.848-3.582-0.848c-2.07,0-2.945,1.087-2.945,2.148
			c0,1.382,1.034,2.017,3.422,2.918c3.103,1.196,4.59,2.762,4.59,5.306c0,2.893-2.174,5.36-6.767,5.36
			c-1.91,0-3.875-0.53-4.856-1.115L72.256,26.611z"/>
		<path fill="#FFFFFF" d="M95.657,27.063c0,1.167,0.053,2.307,0.212,3.105h-2.945l-0.238-1.435h-0.082
			c-0.767,1.009-2.12,1.725-3.819,1.725c-2.6,0-4.06-1.883-4.06-3.846c0-3.238,2.892-4.909,7.667-4.883v-0.212
			c0-0.85-0.344-2.256-2.625-2.256c-1.273,0-2.6,0.397-3.476,0.954l-0.638-2.121c0.956-0.585,2.626-1.143,4.671-1.143
			c4.139,0,5.333,2.627,5.333,5.466V27.063z M92.473,23.854c-2.309-0.027-4.511,0.449-4.511,2.413c0,1.275,0.823,1.858,1.857,1.858
			c1.328,0,2.256-0.85,2.573-1.778c0.08-0.238,0.08-0.478,0.08-0.718v-1.775H92.473z"/>
		<path fill="#FFFFFF" d="M102.212,13.928v3.317h3.104v2.44h-3.104v5.68c0,1.591,0.425,2.387,1.671,2.387
			c0.583,0,0.903-0.025,1.274-0.133l0.053,2.468c-0.479,0.186-1.354,0.345-2.362,0.345c-1.221,0-2.202-0.397-2.812-1.063
			c-0.716-0.742-1.037-1.935-1.037-3.634v-6.05h-1.83v-2.44h1.83v-2.414L102.212,13.928z"/>
		<g>
			<path fill="#FFFFFF" d="M0.826,19.237H15.51L26.407,3.021H11.732L0.826,19.237z M15.989,19.514l11.102,16.521l-0.341,0.521
				H11.584c-0.104,0-0.196-0.056-0.244-0.143L0.076,19.667l-0.009-0.013c-0.007-0.013-0.013-0.024-0.017-0.038
				c-0.01-0.019-0.015-0.042-0.018-0.063L0.03,19.537l-0.001-0.019v-0.011l0.001-0.018l0.002-0.019
				c0.003-0.018,0.008-0.042,0.018-0.062c0.004-0.012,0.01-0.022,0.017-0.036l0.009-0.013L11.343,2.612
				c0.047-0.084,0.139-0.144,0.243-0.144H26.75l0.34,0.525L15.989,19.514z M15.51,19.789H0.826l10.907,16.217h14.674L15.51,19.789z"
				/>
			<path fill="#FFFFFF" d="M26.922,2.82H11.597l11.256,16.77L11.597,36.356l15.313-0.005L38.2,19.59L26.922,2.82z"/>
			<polygon fill="#FFFFFF" points="16.625,23.696 19.448,19.512 19.448,19.511 16.625,15.325 12.83,15.325 15.653,19.511 
				12.83,23.696 			"/>
			<polygon fill="#FFFFFF" points="10.634,22.444 12.611,19.515 10.634,16.584 7.979,16.584 9.954,19.515 7.979,22.444 			"/>
		</g>
	</g>
</g>
</svg>
