<?xml version="1.0" encoding="utf-8"?>
<!-- Generator: Adobe Illustrator 17.0.0, SVG Export Plug-In . SVG Version: 6.00 Build 0)  -->
<!DOCTYPE svg PUBLIC "-//W3C//DTD SVG 1.1//EN" "http://www.w3.org/Graphics/SVG/1.1/DTD/svg11.dtd">
<svg version="1.1" id="Camada_1" xmlns="http://www.w3.org/2000/svg" xmlns:xlink="http://www.w3.org/1999/xlink" x="0px" y="0px"
	 width="364.667px" height="38.5px" viewBox="0 0 364.667 38.5" enable-background="new 0 0 364.667 38.5" xml:space="preserve">
<g>
	<g>
		<polygon opacity="0.6" fill="#FFFFFF" points="0,17.59 15.412,17.59 26.725,34.56 11.332,34.56 11.329,34.565 		"/>
		<polygon opacity="0.8" fill="#FFFFFF" points="26.755,0.612 11.343,0.612 0.029,17.58 15.423,17.58 15.427,17.586 		"/>
		<polygon fill="#FFFFFF" points="38.078,17.59 22.667,17.59 11.353,34.56 26.746,34.56 26.75,34.565 		"/>
		<polygon opacity="0.8" fill="#FFFFFF" points="11.324,0.612 26.735,0.612 38.05,17.58 22.655,17.58 22.651,17.586 		"/>
		<polygon fill="#FFFFFF" points="19.038,17.595 16.198,13.341 12.395,13.341 15.23,17.595 15.228,17.595 12.395,21.831 
			16.205,21.831 19.038,17.595 		"/>
		<polygon fill="#FFFFFF" points="12.394,17.595 10.406,14.618 7.747,14.618 9.73,17.595 9.728,17.595 7.746,20.561 10.411,20.561 
			12.395,17.595 		"/>
		<g>
			<path fill="#FFFFFF" d="M87.587,24.514c-0.882-0.75-2.322-1.343-4.402-1.806c-1.979-0.44-3.304-0.881-3.937-1.312
				c-0.585-0.397-0.88-1.165-0.88-2.278c0-2.015,1.326-2.997,4.058-2.997c1.097,0,2.992,0.165,5.628,0.487l0.253,0.031l0.255-2.36
				l-1.215-0.18c-1.955-0.287-3.659-0.433-5.066-0.433c-4.415,0-6.655,1.883-6.655,5.595c0,1.854,0.504,3.198,1.501,4.002
				c0.963,0.779,2.604,1.419,4.878,1.903c1.658,0.319,2.799,0.705,3.388,1.147c0.551,0.418,0.833,1.129,0.833,2.112
				c0,2.519-1.309,3.743-4.001,3.743c-1.343,0-3.332-0.173-5.913-0.514L76.06,31.62l-0.292,2.336l1.276,0.178
				c2.11,0.325,3.892,0.491,5.294,0.491c4.382,0,6.602-2.144,6.602-6.37C88.94,26.538,88.485,25.28,87.587,24.514z"/>
			<path fill="#FFFFFF" d="M103.61,33.629c-0.146-1.648-0.232-3.549-0.232-5.085v-4.599c0-3.69-1.878-5.335-6.089-5.335
				c-2.183,0-4.604,0.656-4.953,0.884l-0.133,0.087l0.556,2.166l0.227-0.086c1.583-0.578,2.868-0.825,4.303-0.825
				c2.575,0,3.626,0.901,3.626,3.108v1.296c-1.273-0.407-3.114-0.85-5.119-0.85c-3.282,0-4.683,1.452-4.683,4.855
				c0,4.403,2.332,4.967,4.362,4.967c2.104,0,4.372-0.861,5.629-1.74l0.279,1.559l2.247-0.184L103.61,33.629z M95.759,26.582
				c1.522,0,3.373,0.248,5.106,0.679c0.001,1.27,0.023,2.263,0.067,3.102c-1.353,1.003-3.361,1.672-5.038,1.672
				c-1.659,0-2.246-0.674-2.246-2.577C93.649,27.675,93.751,26.582,95.759,26.582z"/>
			<path fill="#FFFFFF" d="M114.484,34.543c-2.668,0.093-4.182-0.331-4.942-0.996c-0.76-0.666-1.141-1.929-1.141-3.786v-9.314
				h-3.194v-1.868h3.194v-4.912h2.884v4.912h3.199v1.868h-3.199v9.473c0,1.098,0.21,1.831,0.633,2.201
				c0.423,0.37,1.278,0.553,2.566,0.553V34.543z"/>
			<path fill="#FFFFFF" d="M71.813,16.645h-2.85v-2.978h2.85V16.645z M71.813,34.228h-2.85V18.609h2.85V34.228z"/>
			<path fill="#FFFFFF" d="M65.17,27.668v-7.043c0-4.125-2.761-6.958-8.033-6.958c-5.159,0-8.083,2.786-8.083,6.958v7.043
				c0,4.173,2.925,6.958,8.083,6.958c1.599,0,2.965-0.262,4.096-0.74l1.973,1.972l1.553-1.563l-1.615-1.615
				C64.484,31.457,65.17,29.722,65.17,27.668z M58.691,28.225l-1.553,1.563l2.491,2.493c-0.657,0.234-1.474,0.361-2.497,0.361
				c-5.484,0-5.157-3.65-5.157-8.442c0-4.821-0.328-8.548,5.157-8.548c5.486,0,5.114,3.729,5.114,8.548
				c0,2.81,0.125,5.21-0.857,6.726L58.691,28.225z"/>
		</g>
	</g>
	<line fill="#FFFFFF" stroke="#FFFFFF" stroke-miterlimit="10" x1="129.726" y1="38.5" x2="129.726" y2="1.375"/>
	<g>
		<path fill="#FFFFFF" d="M149,25.32c-1.1,0-1.846-0.304-2.238-0.913c-0.393-0.608-0.589-1.609-0.589-3.003
			c0-1.393,0.198-2.385,0.594-2.976s1.14-0.885,2.233-0.885c0.653,0,1.371,0.091,2.156,0.275l-0.044,0.99
			c-0.66-0.117-1.32-0.176-1.98-0.176c-0.66,0-1.107,0.196-1.342,0.588c-0.235,0.393-0.352,1.129-0.352,2.211
			c0,1.082,0.114,1.819,0.341,2.211c0.227,0.393,0.671,0.589,1.331,0.589c0.66,0,1.328-0.055,2.002-0.165l0.033,1.012
			C150.39,25.239,149.675,25.32,149,25.32z"/>
		<path fill="#FFFFFF" d="M155.557,19.699h1.188v5.5h-1.188v-0.341c-0.536,0.308-1.03,0.462-1.485,0.462
			c-0.755,0-1.262-0.204-1.518-0.61c-0.257-0.407-0.385-1.12-0.385-2.14v-2.871h1.199v2.882c0,0.66,0.055,1.104,0.165,1.331
			c0.11,0.228,0.366,0.341,0.77,0.341c0.396,0,0.759-0.073,1.089-0.22l0.165-0.066V19.699z"/>
		<path fill="#FFFFFF" d="M158.197,25.199v-5.5h1.188v0.66c0.623-0.403,1.247-0.664,1.87-0.781v1.199
			c-0.631,0.125-1.17,0.286-1.617,0.484l-0.242,0.099v3.839H158.197z"/>
		<path fill="#FFFFFF" d="M165.984,20.832c-0.865-0.117-1.492-0.176-1.881-0.176s-0.658,0.046-0.809,0.138s-0.226,0.236-0.226,0.434
			c0,0.198,0.083,0.337,0.248,0.418c0.165,0.081,0.554,0.174,1.166,0.281s1.047,0.273,1.304,0.5c0.256,0.228,0.385,0.631,0.385,1.21
			c0,0.58-0.185,1.005-0.556,1.276c-0.37,0.271-0.911,0.407-1.623,0.407c-0.447,0-1.012-0.062-1.694-0.187l-0.341-0.055l0.044-1.001
			c0.88,0.118,1.514,0.176,1.903,0.176s0.666-0.048,0.831-0.143s0.248-0.253,0.248-0.473s-0.079-0.372-0.236-0.457
			c-0.158-0.084-0.536-0.176-1.133-0.275s-1.036-0.255-1.314-0.468c-0.279-0.212-0.418-0.601-0.418-1.166
			c0-0.565,0.192-0.986,0.578-1.265c0.385-0.279,0.878-0.418,1.479-0.418c0.469,0,1.045,0.059,1.727,0.176l0.341,0.066
			L165.984,20.832z"/>
		<path fill="#FFFFFF" d="M167.629,20.293c0.378-0.477,1.007-0.715,1.887-0.715s1.509,0.238,1.886,0.715
			c0.378,0.477,0.567,1.191,0.567,2.145c0,0.954-0.184,1.672-0.55,2.156s-1.001,0.726-1.903,0.726s-1.537-0.242-1.903-0.726
			c-0.367-0.484-0.55-1.203-0.55-2.156C167.062,21.484,167.251,20.77,167.629,20.293z M168.525,23.868
			c0.169,0.293,0.499,0.44,0.99,0.44s0.821-0.146,0.99-0.44c0.169-0.293,0.253-0.773,0.253-1.441s-0.09-1.14-0.27-1.419
			c-0.18-0.279-0.504-0.418-0.974-0.418s-0.794,0.139-0.974,0.418s-0.27,0.751-0.27,1.419S168.357,23.575,168.525,23.868z"/>
		<path fill="#FFFFFF" d="M176.973,20.832c-0.865-0.117-1.492-0.176-1.881-0.176s-0.658,0.046-0.809,0.138s-0.226,0.236-0.226,0.434
			c0,0.198,0.083,0.337,0.248,0.418c0.165,0.081,0.554,0.174,1.166,0.281s1.047,0.273,1.304,0.5c0.256,0.228,0.385,0.631,0.385,1.21
			c0,0.58-0.185,1.005-0.556,1.276c-0.37,0.271-0.911,0.407-1.623,0.407c-0.447,0-1.012-0.062-1.694-0.187l-0.341-0.055l0.044-1.001
			c0.88,0.118,1.514,0.176,1.903,0.176s0.666-0.048,0.831-0.143s0.248-0.253,0.248-0.473s-0.079-0.372-0.236-0.457
			c-0.158-0.084-0.536-0.176-1.133-0.275s-1.036-0.255-1.314-0.468c-0.279-0.212-0.418-0.601-0.418-1.166
			c0-0.565,0.192-0.986,0.578-1.265c0.385-0.279,0.878-0.418,1.479-0.418c0.469,0,1.045,0.059,1.727,0.176l0.341,0.066
			L176.973,20.832z"/>
		<path fill="#FFFFFF" d="M184.805,21.393v2.508c0.007,0.161,0.05,0.28,0.126,0.357c0.077,0.077,0.196,0.126,0.357,0.148
			l-0.033,0.913c-0.631,0-1.119-0.136-1.463-0.407c-0.587,0.271-1.177,0.407-1.771,0.407c-1.093,0-1.639-0.583-1.639-1.749
			c0-0.557,0.148-0.96,0.445-1.21c0.297-0.25,0.754-0.4,1.37-0.451l1.419-0.121v-0.396c0-0.293-0.064-0.499-0.192-0.616
			s-0.317-0.176-0.566-0.176c-0.47,0-1.056,0.029-1.76,0.088l-0.352,0.022l-0.044-0.847c0.799-0.19,1.535-0.286,2.206-0.286
			s1.155,0.145,1.452,0.435C184.657,20.302,184.805,20.762,184.805,21.393z M182.341,22.757c-0.506,0.044-0.759,0.319-0.759,0.825
			c0,0.506,0.223,0.759,0.671,0.759c0.367,0,0.755-0.059,1.166-0.176l0.198-0.066v-1.463L182.341,22.757z"/>
		<path fill="#FFFFFF" d="M186.312,27.564v-7.865h1.188v0.341c0.506-0.308,0.979-0.462,1.419-0.462c0.726,0,1.258,0.222,1.595,0.666
			c0.337,0.444,0.506,1.188,0.506,2.233s-0.192,1.78-0.578,2.206c-0.385,0.425-1.014,0.638-1.886,0.638
			c-0.301,0-0.649-0.033-1.045-0.099v2.343H186.312z M188.71,20.645c-0.345,0-0.689,0.077-1.034,0.231l-0.165,0.077v3.245
			c0.293,0.059,0.616,0.088,0.968,0.088c0.499,0,0.843-0.143,1.034-0.429c0.191-0.286,0.286-0.774,0.286-1.463
			C189.799,21.228,189.436,20.645,188.71,20.645z"/>
		<path fill="#FFFFFF" d="M192.285,25.199v-7.788h1.199v7.788H192.285z"/>
		<path fill="#FFFFFF" d="M195.002,18.764v-1.265h1.199v1.265H195.002z M195.002,25.199v-5.5h1.199v5.5H195.002z"/>
		<path fill="#FFFFFF" d="M199.71,19.578c0.388,0,0.847,0.051,1.375,0.154l0.275,0.055l-0.044,0.946
			c-0.58-0.059-1.009-0.088-1.287-0.088c-0.558,0-0.932,0.125-1.122,0.374c-0.191,0.25-0.286,0.719-0.286,1.408
			s0.092,1.166,0.275,1.43c0.183,0.264,0.564,0.396,1.144,0.396l1.287-0.088l0.033,0.957c-0.741,0.132-1.298,0.198-1.672,0.198
			c-0.836,0-1.425-0.226-1.766-0.677c-0.341-0.451-0.512-1.189-0.512-2.216s0.18-1.758,0.539-2.194
			C198.309,19.796,198.896,19.578,199.71,19.578z"/>
		<path fill="#FFFFFF" d="M206.584,21.393v2.508c0.007,0.161,0.05,0.28,0.126,0.357c0.077,0.077,0.196,0.126,0.357,0.148
			l-0.033,0.913c-0.631,0-1.119-0.136-1.463-0.407c-0.587,0.271-1.177,0.407-1.771,0.407c-1.093,0-1.639-0.583-1.639-1.749
			c0-0.557,0.148-0.96,0.445-1.21c0.297-0.25,0.754-0.4,1.37-0.451l1.419-0.121v-0.396c0-0.293-0.064-0.499-0.192-0.616
			s-0.317-0.176-0.566-0.176c-0.47,0-1.056,0.029-1.76,0.088l-0.352,0.022l-0.044-0.847c0.799-0.19,1.535-0.286,2.206-0.286
			s1.155,0.145,1.452,0.435C206.436,20.302,206.584,20.762,206.584,21.393z M204.121,22.757c-0.506,0.044-0.759,0.319-0.759,0.825
			c0,0.506,0.223,0.759,0.671,0.759c0.367,0,0.755-0.059,1.166-0.176l0.198-0.066v-1.463L204.121,22.757z"/>
		<path fill="#FFFFFF" d="M212.579,17.411v7.788h-1.188v-0.286c-0.535,0.271-1.027,0.407-1.474,0.407
			c-0.719,0-1.245-0.216-1.578-0.649c-0.334-0.433-0.5-1.159-0.5-2.178c0-1.019,0.185-1.76,0.555-2.222
			c0.371-0.462,0.948-0.693,1.733-0.693c0.264,0,0.682,0.048,1.254,0.143v-2.31H212.579z M211.193,24.055l0.187-0.077v-3.256
			c-0.44-0.073-0.847-0.11-1.221-0.11c-0.741,0-1.111,0.616-1.111,1.848c0,0.674,0.086,1.142,0.258,1.402s0.446,0.391,0.82,0.391
			C210.5,24.253,210.856,24.187,211.193,24.055z"/>
		<path fill="#FFFFFF" d="M214.333,20.293c0.378-0.477,1.007-0.715,1.887-0.715s1.509,0.238,1.886,0.715
			c0.378,0.477,0.567,1.191,0.567,2.145c0,0.954-0.184,1.672-0.55,2.156s-1.001,0.726-1.903,0.726s-1.537-0.242-1.903-0.726
			c-0.367-0.484-0.55-1.203-0.55-2.156C213.767,21.484,213.956,20.77,214.333,20.293z M215.23,23.868
			c0.169,0.293,0.499,0.44,0.99,0.44s0.821-0.146,0.99-0.44c0.169-0.293,0.253-0.773,0.253-1.441s-0.09-1.14-0.27-1.419
			c-0.18-0.279-0.504-0.418-0.974-0.418s-0.794,0.139-0.974,0.418s-0.27,0.751-0.27,1.419S215.062,23.575,215.23,23.868z"/>
		<path fill="#FFFFFF" d="M223.678,20.832c-0.865-0.117-1.492-0.176-1.881-0.176s-0.658,0.046-0.809,0.138s-0.226,0.236-0.226,0.434
			c0,0.198,0.083,0.337,0.248,0.418c0.165,0.081,0.554,0.174,1.166,0.281s1.047,0.273,1.304,0.5c0.256,0.228,0.385,0.631,0.385,1.21
			c0,0.58-0.185,1.005-0.556,1.276c-0.37,0.271-0.911,0.407-1.623,0.407c-0.447,0-1.012-0.062-1.694-0.187l-0.341-0.055l0.044-1.001
			c0.88,0.118,1.514,0.176,1.903,0.176s0.666-0.048,0.831-0.143s0.248-0.253,0.248-0.473s-0.079-0.372-0.236-0.457
			c-0.158-0.084-0.536-0.176-1.133-0.275s-1.036-0.255-1.314-0.468c-0.279-0.212-0.418-0.601-0.418-1.166
			c0-0.565,0.192-0.986,0.578-1.265c0.385-0.279,0.878-0.418,1.479-0.418c0.469,0,1.045,0.059,1.727,0.176l0.341,0.066
			L223.678,20.832z"/>
		<path fill="#FFFFFF" d="M231.51,21.393v2.508c0.007,0.161,0.05,0.28,0.126,0.357c0.077,0.077,0.196,0.126,0.357,0.148
			l-0.033,0.913c-0.631,0-1.119-0.136-1.463-0.407c-0.587,0.271-1.177,0.407-1.771,0.407c-1.093,0-1.639-0.583-1.639-1.749
			c0-0.557,0.148-0.96,0.445-1.21c0.297-0.25,0.754-0.4,1.37-0.451l1.419-0.121v-0.396c0-0.293-0.064-0.499-0.192-0.616
			s-0.317-0.176-0.566-0.176c-0.47,0-1.056,0.029-1.76,0.088l-0.352,0.022l-0.044-0.847c0.799-0.19,1.535-0.286,2.206-0.286
			s1.155,0.145,1.452,0.435C231.362,20.302,231.51,20.762,231.51,21.393z M228.31,16.971l2.596,1.111l-0.286,0.781l-2.684-0.858
			L228.31,16.971z M229.046,22.757c-0.506,0.044-0.759,0.319-0.759,0.825c0,0.506,0.223,0.759,0.671,0.759
			c0.367,0,0.755-0.059,1.166-0.176l0.198-0.066v-1.463L229.046,22.757z"/>
		<path fill="#FFFFFF" d="M239.353,24.208l0.308-0.033l0.022,0.891c-0.836,0.168-1.577,0.253-2.222,0.253
			c-0.814,0-1.399-0.224-1.754-0.671c-0.356-0.447-0.534-1.163-0.534-2.145c0-1.951,0.796-2.926,2.387-2.926
			c1.54,0,2.31,0.84,2.31,2.519l-0.077,0.858h-3.41c0.007,0.455,0.106,0.789,0.297,1.001c0.19,0.213,0.546,0.319,1.067,0.319
			C238.268,24.275,238.803,24.253,239.353,24.208z M238.693,22.031c0-0.542-0.086-0.922-0.258-1.139
			c-0.172-0.216-0.464-0.324-0.875-0.324c-0.411,0-0.709,0.114-0.896,0.341c-0.187,0.228-0.284,0.602-0.292,1.122H238.693z"/>
		<path fill="#FFFFFF" d="M242.224,25.199h-1.199v-5.5h1.188v0.341c0.535-0.308,1.041-0.462,1.518-0.462
			c0.733,0,1.233,0.208,1.501,0.622c0.268,0.415,0.401,1.098,0.401,2.051v2.948h-1.188v-2.915c0-0.594-0.064-1.016-0.192-1.265
			c-0.128-0.249-0.391-0.374-0.787-0.374c-0.374,0-0.733,0.074-1.078,0.22l-0.165,0.066V25.199z"/>
		<path fill="#FFFFFF" d="M251.838,25.947c0,1.203-0.869,1.804-2.607,1.804c-0.836,0-1.456-0.114-1.859-0.341
			c-0.403-0.228-0.605-0.642-0.605-1.243c0-0.271,0.066-0.504,0.198-0.698c0.132-0.194,0.344-0.405,0.638-0.632
			c-0.242-0.162-0.363-0.429-0.363-0.803c0-0.146,0.099-0.385,0.297-0.715l0.099-0.165c-0.528-0.315-0.792-0.865-0.792-1.65
			c0-0.66,0.198-1.144,0.594-1.452s0.932-0.462,1.606-0.462c0.323,0,0.642,0.037,0.957,0.11l0.165,0.033l1.705-0.044v0.968
			l-0.913-0.055c0.198,0.257,0.297,0.558,0.297,0.902c0,0.719-0.182,1.215-0.545,1.49c-0.363,0.275-0.929,0.413-1.699,0.413
			c-0.191,0-0.352-0.015-0.484-0.044c-0.103,0.25-0.154,0.442-0.154,0.578s0.068,0.229,0.204,0.28s0.464,0.081,0.984,0.088
			c0.873,0.007,1.47,0.125,1.793,0.352C251.676,24.887,251.838,25.316,251.838,25.947z M247.944,26.057
			c0,0.257,0.103,0.44,0.308,0.55c0.206,0.11,0.558,0.165,1.056,0.165c0.887,0,1.331-0.253,1.331-0.759
			c0-0.286-0.079-0.467-0.236-0.544c-0.158-0.077-0.472-0.119-0.94-0.126l-1.078-0.066c-0.162,0.132-0.275,0.254-0.341,0.368
			C247.977,25.758,247.944,25.896,247.944,26.057z M248.274,22.245c0.161,0.158,0.421,0.237,0.781,0.237s0.618-0.079,0.775-0.237
			s0.237-0.405,0.237-0.742s-0.081-0.585-0.242-0.743c-0.162-0.158-0.422-0.236-0.781-0.236c-0.674,0-1.012,0.326-1.012,0.979
			C248.032,21.84,248.112,22.087,248.274,22.245z"/>
		<path fill="#FFFFFF" d="M256.722,24.208l0.308-0.033l0.022,0.891c-0.836,0.168-1.577,0.253-2.222,0.253
			c-0.814,0-1.399-0.224-1.754-0.671c-0.356-0.447-0.534-1.163-0.534-2.145c0-1.951,0.796-2.926,2.387-2.926
			c1.54,0,2.31,0.84,2.31,2.519l-0.077,0.858h-3.41c0.007,0.455,0.106,0.789,0.297,1.001c0.19,0.213,0.546,0.319,1.067,0.319
			C255.636,24.275,256.171,24.253,256.722,24.208z M256.062,22.031c0-0.542-0.086-0.922-0.258-1.139
			c-0.172-0.216-0.464-0.324-0.875-0.324c-0.411,0-0.709,0.114-0.896,0.341c-0.187,0.228-0.284,0.602-0.292,1.122H256.062z"/>
		<path fill="#FFFFFF" d="M259.592,25.199h-1.199v-5.5h1.188v0.341c0.535-0.308,1.041-0.462,1.518-0.462
			c0.733,0,1.233,0.208,1.501,0.622c0.268,0.415,0.401,1.098,0.401,2.051v2.948h-1.188v-2.915c0-0.594-0.064-1.016-0.192-1.265
			c-0.128-0.249-0.391-0.374-0.787-0.374c-0.374,0-0.733,0.074-1.078,0.22l-0.165,0.066V25.199z"/>
		<path fill="#FFFFFF" d="M265.598,25.199h-1.199v-7.788h1.199v2.574c0.543-0.271,1.045-0.407,1.507-0.407
			c0.733,0,1.233,0.208,1.501,0.622c0.268,0.415,0.401,1.098,0.401,2.051v2.948h-1.199v-2.915c0-0.594-0.062-1.016-0.187-1.265
			c-0.125-0.249-0.389-0.374-0.792-0.374c-0.352,0-0.704,0.059-1.056,0.176l-0.176,0.066V25.199z"/>
		<path fill="#FFFFFF" d="M274.475,21.393v2.508c0.007,0.161,0.05,0.28,0.126,0.357c0.077,0.077,0.196,0.126,0.357,0.148
			l-0.033,0.913c-0.631,0-1.119-0.136-1.463-0.407c-0.587,0.271-1.177,0.407-1.771,0.407c-1.093,0-1.639-0.583-1.639-1.749
			c0-0.557,0.148-0.96,0.445-1.21c0.297-0.25,0.754-0.4,1.37-0.451l1.419-0.121v-0.396c0-0.293-0.064-0.499-0.192-0.616
			s-0.317-0.176-0.566-0.176c-0.47,0-1.056,0.029-1.76,0.088l-0.352,0.022l-0.044-0.847c0.799-0.19,1.535-0.286,2.206-0.286
			s1.155,0.145,1.452,0.435C274.327,20.302,274.475,20.762,274.475,21.393z M272.011,22.757c-0.506,0.044-0.759,0.319-0.759,0.825
			c0,0.506,0.223,0.759,0.671,0.759c0.367,0,0.755-0.059,1.166-0.176l0.198-0.066v-1.463L272.011,22.757z"/>
		<path fill="#FFFFFF" d="M275.982,25.199v-5.5h1.188v0.66c0.623-0.403,1.247-0.664,1.87-0.781v1.199
			c-0.631,0.125-1.17,0.286-1.617,0.484l-0.242,0.099v3.839H275.982z"/>
		<path fill="#FFFFFF" d="M279.953,18.764v-1.265h1.199v1.265H279.953z M279.953,25.199v-5.5h1.199v5.5H279.953z"/>
		<path fill="#FFFFFF" d="M286.674,21.393v2.508c0.007,0.161,0.05,0.28,0.126,0.357c0.077,0.077,0.196,0.126,0.357,0.148
			l-0.033,0.913c-0.631,0-1.119-0.136-1.463-0.407c-0.587,0.271-1.177,0.407-1.771,0.407c-1.093,0-1.639-0.583-1.639-1.749
			c0-0.557,0.148-0.96,0.445-1.21c0.297-0.25,0.754-0.4,1.37-0.451l1.419-0.121v-0.396c0-0.293-0.064-0.499-0.192-0.616
			s-0.317-0.176-0.566-0.176c-0.47,0-1.056,0.029-1.76,0.088l-0.352,0.022l-0.044-0.847c0.799-0.19,1.535-0.286,2.206-0.286
			s1.155,0.145,1.452,0.435C286.525,20.302,286.674,20.762,286.674,21.393z M284.21,22.757c-0.506,0.044-0.759,0.319-0.759,0.825
			c0,0.506,0.223,0.759,0.671,0.759c0.367,0,0.755-0.059,1.166-0.176l0.198-0.066v-1.463L284.21,22.757z"/>
		<path fill="#FFFFFF" d="M294.517,24.208l0.308-0.033l0.022,0.891c-0.836,0.168-1.577,0.253-2.222,0.253
			c-0.814,0-1.399-0.224-1.754-0.671c-0.356-0.447-0.534-1.163-0.534-2.145c0-1.951,0.796-2.926,2.387-2.926
			c1.54,0,2.31,0.84,2.31,2.519l-0.077,0.858h-3.41c0.007,0.455,0.106,0.789,0.297,1.001c0.19,0.213,0.546,0.319,1.067,0.319
			C293.432,24.275,293.967,24.253,294.517,24.208z M293.857,22.031c0-0.542-0.086-0.922-0.258-1.139
			c-0.172-0.216-0.464-0.324-0.875-0.324c-0.411,0-0.709,0.114-0.896,0.341c-0.187,0.228-0.284,0.602-0.292,1.122H293.857z"/>
		<path fill="#FFFFFF" d="M302.679,21.393v2.508c0.007,0.161,0.05,0.28,0.126,0.357c0.077,0.077,0.196,0.126,0.357,0.148
			l-0.033,0.913c-0.631,0-1.119-0.136-1.463-0.407c-0.587,0.271-1.177,0.407-1.771,0.407c-1.093,0-1.639-0.583-1.639-1.749
			c0-0.557,0.148-0.96,0.445-1.21c0.297-0.25,0.754-0.4,1.37-0.451l1.419-0.121v-0.396c0-0.293-0.064-0.499-0.192-0.616
			s-0.317-0.176-0.566-0.176c-0.47,0-1.056,0.029-1.76,0.088l-0.352,0.022l-0.044-0.847c0.799-0.19,1.535-0.286,2.206-0.286
			s1.155,0.145,1.452,0.435C302.53,20.302,302.679,20.762,302.679,21.393z M300.215,22.757c-0.506,0.044-0.759,0.319-0.759,0.825
			c0,0.506,0.223,0.759,0.671,0.759c0.367,0,0.755-0.059,1.166-0.176l0.198-0.066v-1.463L300.215,22.757z"/>
		<path fill="#FFFFFF" d="M304.186,25.199v-5.5h1.188v0.66c0.623-0.403,1.247-0.664,1.87-0.781v1.199
			c-0.631,0.125-1.17,0.286-1.617,0.484l-0.242,0.099v3.839H304.186z"/>
		<path fill="#FFFFFF" d="M310.004,25.32c-0.755,0-1.303-0.213-1.645-0.638c-0.341-0.425-0.511-1.171-0.511-2.238
			s0.2-1.812,0.599-2.233c0.4-0.422,1.091-0.633,2.074-0.633c0.359,0,0.909,0.033,1.65,0.099l0.363,0.033v7.854h-1.188V24.99
			C310.855,25.21,310.408,25.32,310.004,25.32z M310.521,20.612c-0.58,0-0.97,0.145-1.171,0.435s-0.303,0.761-0.303,1.414
			c0,0.652,0.09,1.115,0.27,1.386c0.18,0.271,0.457,0.407,0.831,0.407c0.345,0,0.689-0.055,1.034-0.165l0.165-0.055v-3.377
			C310.995,20.626,310.72,20.612,310.521,20.612z"/>
		<path fill="#FFFFFF" d="M317.319,19.699h1.188v5.5h-1.188v-0.341c-0.536,0.308-1.03,0.462-1.485,0.462
			c-0.755,0-1.262-0.204-1.518-0.61c-0.257-0.407-0.385-1.12-0.385-2.14v-2.871h1.199v2.882c0,0.66,0.055,1.104,0.165,1.331
			c0.11,0.228,0.366,0.341,0.77,0.341c0.396,0,0.759-0.073,1.089-0.22l0.165-0.066V19.699z"/>
		<path fill="#FFFFFF" d="M319.959,18.764v-1.265h1.199v1.265H319.959z M319.959,25.199v-5.5h1.199v5.5H319.959z"/>
		<path fill="#FFFFFF" d="M325.569,20.722h-1.518v2.42c0,0.448,0.033,0.745,0.099,0.891c0.066,0.147,0.234,0.22,0.506,0.22
			l0.902-0.033l0.055,0.957c-0.491,0.095-0.865,0.143-1.122,0.143c-0.624,0-1.05-0.143-1.281-0.429s-0.347-0.825-0.347-1.617v-2.552
			h-0.704v-1.023h0.704v-1.595h1.188v1.595h1.518V20.722z"/>
		<path fill="#FFFFFF" d="M330.464,24.208l0.308-0.033l0.022,0.891c-0.836,0.168-1.577,0.253-2.222,0.253
			c-0.814,0-1.399-0.224-1.754-0.671c-0.356-0.447-0.534-1.163-0.534-2.145c0-1.951,0.796-2.926,2.387-2.926
			c1.54,0,2.31,0.84,2.31,2.519l-0.077,0.858h-3.41c0.007,0.455,0.106,0.789,0.297,1.001c0.19,0.213,0.546,0.319,1.067,0.319
			C329.379,24.275,329.914,24.253,330.464,24.208z M329.804,22.031c0-0.542-0.086-0.922-0.258-1.139
			c-0.172-0.216-0.464-0.324-0.875-0.324c-0.411,0-0.709,0.114-0.896,0.341c-0.187,0.228-0.284,0.602-0.292,1.122H329.804z"/>
		<path fill="#FFFFFF" d="M335.095,20.722h-1.518v2.42c0,0.448,0.033,0.745,0.099,0.891c0.066,0.147,0.234,0.22,0.506,0.22
			l0.902-0.033l0.055,0.957c-0.491,0.095-0.865,0.143-1.122,0.143c-0.624,0-1.05-0.143-1.281-0.429s-0.347-0.825-0.347-1.617v-2.552
			h-0.704v-1.023h0.704v-1.595h1.188v1.595h1.518V20.722z"/>
		<path fill="#FFFFFF" d="M339.407,19.699h1.188v5.5h-1.188v-0.341c-0.536,0.308-1.03,0.462-1.485,0.462
			c-0.755,0-1.262-0.204-1.518-0.61c-0.257-0.407-0.385-1.12-0.385-2.14v-2.871h1.199v2.882c0,0.66,0.055,1.104,0.165,1.331
			c0.11,0.228,0.366,0.341,0.77,0.341c0.396,0,0.759-0.073,1.089-0.22l0.165-0.066V19.699z"/>
		<path fill="#FFFFFF" d="M342.047,25.199v-5.5h1.188v0.66c0.623-0.403,1.247-0.664,1.87-0.781v1.199
			c-0.631,0.125-1.17,0.286-1.617,0.484l-0.242,0.099v3.839H342.047z"/>
		<path fill="#FFFFFF" d="M350.088,21.393v2.508c0.007,0.161,0.05,0.28,0.126,0.357c0.077,0.077,0.196,0.126,0.357,0.148
			l-0.033,0.913c-0.631,0-1.119-0.136-1.463-0.407c-0.587,0.271-1.177,0.407-1.771,0.407c-1.093,0-1.639-0.583-1.639-1.749
			c0-0.557,0.148-0.96,0.445-1.21c0.297-0.25,0.754-0.4,1.37-0.451l1.419-0.121v-0.396c0-0.293-0.064-0.499-0.192-0.616
			s-0.317-0.176-0.566-0.176c-0.47,0-1.056,0.029-1.76,0.088l-0.352,0.022l-0.044-0.847c0.799-0.19,1.535-0.286,2.206-0.286
			s1.155,0.145,1.452,0.435C349.939,20.302,350.088,20.762,350.088,21.393z M347.624,22.757c-0.506,0.044-0.759,0.319-0.759,0.825
			c0,0.506,0.223,0.759,0.671,0.759c0.367,0,0.755-0.059,1.166-0.176l0.198-0.066v-1.463L347.624,22.757z"/>
	</g>
</g>
</svg>
