<?xml version="1.0" encoding="utf-8"?>
<!-- Generator: Adobe Illustrator 16.0.0, SVG Export Plug-In . SVG Version: 6.00 Build 0)  -->
<!DOCTYPE svg PUBLIC "-//W3C//DTD SVG 1.1//EN" "http://www.w3.org/Graphics/SVG/1.1/DTD/svg11.dtd">
<svg version="1.1" id="Camada_1" xmlns="http://www.w3.org/2000/svg" xmlns:xlink="http://www.w3.org/1999/xlink" x="0px" y="0px"
	 width="415px" height="38.5px" viewBox="0 0 415 38.5" enable-background="new 0 0 415 38.5" xml:space="preserve">
<g id="Logo_Horizontal">
	<g>
		<path fill="#373F44" d="M157.746,23.676c0.078,0,0.145,0.029,0.201,0.092l0.572,0.619c-0.36,0.434-0.803,0.77-1.327,1.004
			c-0.523,0.234-1.149,0.352-1.877,0.352c-0.646,0-1.23-0.111-1.752-0.334s-0.967-0.533-1.334-0.934
			c-0.37-0.398-0.653-0.875-0.85-1.428c-0.199-0.551-0.299-1.158-0.299-1.822c0-0.662,0.106-1.27,0.317-1.826
			c0.211-0.554,0.507-1.03,0.89-1.43c0.382-0.399,0.841-0.709,1.375-0.929c0.533-0.221,1.122-0.331,1.764-0.331
			c0.64,0,1.203,0.103,1.692,0.31c0.489,0.206,0.913,0.481,1.272,0.824l-0.472,0.668c-0.033,0.045-0.072,0.085-0.116,0.118
			c-0.046,0.032-0.106,0.049-0.186,0.049c-0.081,0-0.174-0.038-0.279-0.114c-0.104-0.075-0.237-0.16-0.398-0.251
			c-0.163-0.092-0.364-0.177-0.608-0.252c-0.244-0.075-0.546-0.114-0.911-0.114c-0.422,0-0.809,0.075-1.161,0.222
			c-0.351,0.147-0.654,0.362-0.908,0.644c-0.252,0.282-0.451,0.625-0.592,1.033c-0.14,0.402-0.211,0.863-0.211,1.379
			c0,0.52,0.073,0.984,0.22,1.393c0.148,0.406,0.35,0.75,0.608,1.031c0.257,0.279,0.561,0.492,0.908,0.641
			c0.348,0.146,0.722,0.221,1.124,0.221c0.245,0,0.464-0.012,0.66-0.041c0.193-0.025,0.373-0.068,0.536-0.127
			c0.165-0.061,0.318-0.135,0.464-0.227c0.146-0.09,0.29-0.199,0.434-0.328C157.582,23.711,157.663,23.676,157.746,23.676z"/>
		<path fill="#373F44" d="M165.011,19.385v6.258h-0.798c-0.176,0-0.289-0.08-0.338-0.25l-0.099-0.584
			c-0.131,0.141-0.268,0.266-0.414,0.381c-0.146,0.117-0.3,0.213-0.464,0.295c-0.162,0.082-0.336,0.145-0.524,0.191
			c-0.186,0.045-0.386,0.066-0.599,0.066c-0.344,0-0.646-0.057-0.909-0.17c-0.261-0.115-0.481-0.277-0.659-0.486
			c-0.178-0.207-0.312-0.459-0.403-0.752c-0.09-0.293-0.134-0.615-0.134-0.967v-3.982h1.319v3.982c0,0.422,0.097,0.748,0.292,0.982
			c0.194,0.232,0.49,0.35,0.886,0.35c0.292,0,0.561-0.066,0.814-0.199c0.251-0.133,0.487-0.316,0.708-0.549v-4.566H165.011z"/>
		<path fill="#373F44" d="M168.17,20.545c0.197-0.398,0.435-0.711,0.713-0.938c0.278-0.227,0.611-0.34,1-0.34
			c0.135,0,0.262,0.015,0.381,0.045c0.118,0.031,0.226,0.077,0.318,0.138l-0.092,0.997c-0.016,0.068-0.042,0.115-0.077,0.143
			c-0.034,0.029-0.08,0.041-0.138,0.041c-0.062,0-0.149-0.012-0.265-0.035c-0.114-0.02-0.234-0.033-0.362-0.033
			c-0.183,0-0.346,0.027-0.487,0.08c-0.142,0.053-0.269,0.131-0.381,0.234c-0.113,0.102-0.211,0.227-0.298,0.373
			c-0.085,0.148-0.165,0.314-0.238,0.506v3.887h-1.319v-6.258h0.767c0.14,0,0.235,0.025,0.288,0.077
			c0.054,0.051,0.091,0.14,0.112,0.266L168.17,20.545z"/>
		<path fill="#373F44" d="M175.468,20.52c-0.033,0.059-0.069,0.1-0.11,0.123c-0.041,0.025-0.092,0.037-0.153,0.037
			c-0.069,0-0.146-0.023-0.228-0.066c-0.081-0.039-0.177-0.09-0.288-0.143c-0.11-0.053-0.24-0.102-0.39-0.145
			c-0.149-0.043-0.323-0.064-0.524-0.064c-0.165,0-0.313,0.021-0.446,0.061c-0.133,0.035-0.244,0.092-0.338,0.164
			c-0.092,0.072-0.162,0.154-0.21,0.252c-0.05,0.098-0.073,0.201-0.073,0.309c0,0.146,0.044,0.271,0.134,0.369
			c0.089,0.098,0.208,0.184,0.355,0.254c0.147,0.072,0.315,0.137,0.504,0.193c0.188,0.059,0.381,0.117,0.577,0.186
			c0.196,0.064,0.389,0.141,0.577,0.227c0.189,0.086,0.356,0.191,0.503,0.316s0.266,0.277,0.355,0.453
			c0.091,0.178,0.135,0.395,0.135,0.648c0,0.295-0.053,0.566-0.159,0.816c-0.107,0.25-0.262,0.465-0.466,0.65
			c-0.206,0.182-0.46,0.326-0.764,0.43c-0.305,0.102-0.654,0.152-1.047,0.152c-0.216,0-0.426-0.02-0.629-0.057
			c-0.202-0.041-0.396-0.094-0.577-0.162c-0.182-0.064-0.352-0.148-0.51-0.24c-0.157-0.096-0.297-0.197-0.42-0.309l0.308-0.502
			c0.037-0.063,0.083-0.109,0.138-0.145s0.123-0.055,0.206-0.055c0.086,0,0.171,0.029,0.254,0.086
			c0.084,0.055,0.183,0.115,0.295,0.182c0.112,0.064,0.248,0.125,0.408,0.182c0.16,0.053,0.358,0.082,0.596,0.082
			c0.197,0,0.366-0.025,0.51-0.072c0.142-0.045,0.261-0.111,0.355-0.191c0.095-0.082,0.165-0.176,0.208-0.281
			c0.046-0.104,0.068-0.215,0.068-0.334c0-0.158-0.044-0.291-0.134-0.393c-0.091-0.102-0.209-0.191-0.359-0.264
			c-0.149-0.074-0.32-0.139-0.51-0.197c-0.19-0.057-0.383-0.117-0.581-0.184c-0.195-0.066-0.389-0.141-0.579-0.227
			c-0.19-0.086-0.36-0.195-0.51-0.328c-0.149-0.133-0.268-0.295-0.359-0.484c-0.088-0.191-0.135-0.424-0.135-0.697
			c0-0.25,0.05-0.486,0.151-0.713c0.1-0.225,0.247-0.424,0.441-0.594c0.194-0.174,0.434-0.308,0.718-0.409
			c0.284-0.101,0.613-0.151,0.985-0.151c0.422,0,0.803,0.068,1.148,0.202c0.342,0.136,0.632,0.321,0.865,0.553L175.468,20.52z"/>
		<path fill="#373F44" d="M180.101,19.286c0.462,0,0.881,0.077,1.256,0.227c0.374,0.153,0.693,0.368,0.956,0.644
			c0.265,0.281,0.468,0.617,0.61,1.016c0.145,0.395,0.217,0.842,0.217,1.338c0,0.492-0.072,0.939-0.217,1.336
			c-0.142,0.398-0.345,0.736-0.61,1.018c-0.263,0.279-0.582,0.494-0.956,0.646c-0.375,0.15-0.793,0.227-1.256,0.227
			c-0.466,0-0.887-0.076-1.262-0.227c-0.374-0.152-0.693-0.367-0.959-0.646c-0.266-0.281-0.47-0.619-0.614-1.018
			c-0.143-0.396-0.213-0.844-0.213-1.336c0-0.496,0.07-0.943,0.213-1.338c0.145-0.398,0.349-0.734,0.614-1.016
			c0.267-0.275,0.586-0.491,0.959-0.644C179.213,19.362,179.634,19.286,180.101,19.286z M180.101,24.705
			c0.564,0,0.985-0.189,1.261-0.566c0.277-0.379,0.414-0.92,0.414-1.623c0-0.705-0.137-1.248-0.414-1.631
			c-0.275-0.383-0.696-0.574-1.261-0.574c-0.572,0-0.998,0.191-1.276,0.574c-0.279,0.383-0.417,0.926-0.417,1.631
			c0,0.703,0.139,1.244,0.417,1.623C179.103,24.516,179.528,24.705,180.101,24.705z"/>
		<path fill="#373F44" d="M188.446,20.52c-0.032,0.059-0.069,0.1-0.109,0.123c-0.041,0.025-0.092,0.037-0.153,0.037
			c-0.069,0-0.146-0.023-0.227-0.066c-0.082-0.039-0.179-0.09-0.29-0.143c-0.11-0.053-0.24-0.102-0.389-0.145
			s-0.324-0.064-0.524-0.064c-0.164,0-0.313,0.021-0.446,0.061c-0.132,0.035-0.245,0.092-0.336,0.164
			c-0.092,0.072-0.163,0.154-0.212,0.252c-0.048,0.098-0.073,0.201-0.073,0.309c0,0.146,0.044,0.271,0.135,0.369
			c0.089,0.098,0.208,0.184,0.355,0.254c0.148,0.072,0.316,0.137,0.505,0.193c0.188,0.059,0.38,0.117,0.576,0.186
			c0.197,0.064,0.388,0.141,0.577,0.227c0.188,0.086,0.356,0.191,0.503,0.316c0.146,0.125,0.266,0.277,0.355,0.453
			c0.09,0.178,0.136,0.395,0.136,0.648c0,0.295-0.054,0.566-0.16,0.816c-0.107,0.25-0.262,0.465-0.467,0.65
			c-0.204,0.182-0.458,0.326-0.764,0.43c-0.305,0.102-0.653,0.152-1.047,0.152c-0.216,0-0.426-0.02-0.628-0.057
			c-0.202-0.041-0.395-0.094-0.577-0.162c-0.183-0.064-0.352-0.148-0.51-0.24c-0.157-0.096-0.297-0.197-0.42-0.309l0.307-0.502
			c0.037-0.063,0.083-0.109,0.138-0.145c0.055-0.035,0.125-0.055,0.206-0.055c0.086,0,0.172,0.029,0.255,0.086
			c0.083,0.055,0.182,0.115,0.293,0.182c0.113,0.064,0.249,0.125,0.409,0.182c0.159,0.053,0.357,0.082,0.595,0.082
			c0.197,0,0.366-0.025,0.51-0.072c0.143-0.045,0.261-0.111,0.355-0.191c0.095-0.082,0.164-0.176,0.21-0.281
			c0.044-0.104,0.066-0.215,0.066-0.334c0-0.158-0.044-0.291-0.135-0.393s-0.21-0.191-0.359-0.264
			c-0.149-0.074-0.319-0.139-0.51-0.197c-0.189-0.057-0.382-0.117-0.579-0.184c-0.197-0.066-0.391-0.141-0.581-0.227
			c-0.19-0.086-0.359-0.195-0.51-0.328c-0.149-0.133-0.269-0.295-0.357-0.484c-0.091-0.191-0.137-0.424-0.137-0.697
			c0-0.25,0.052-0.486,0.151-0.713c0.101-0.225,0.248-0.424,0.442-0.594c0.193-0.174,0.434-0.308,0.717-0.409
			c0.285-0.101,0.614-0.151,0.985-0.151c0.422,0,0.805,0.068,1.148,0.202c0.343,0.136,0.631,0.321,0.864,0.553L188.446,20.52z"/>
		<path fill="#373F44" d="M193.583,20.256c0.707-0.659,1.55-0.989,2.528-0.989c0.361,0,0.681,0.058,0.961,0.175
			c0.279,0.115,0.516,0.281,0.705,0.493c0.189,0.215,0.334,0.467,0.436,0.76s0.15,0.615,0.15,0.973v3.975h-0.59
			c-0.127,0-0.223-0.018-0.287-0.057c-0.066-0.039-0.121-0.117-0.166-0.238l-0.128-0.506c-0.161,0.143-0.318,0.27-0.474,0.383
			c-0.154,0.111-0.314,0.207-0.481,0.285c-0.167,0.076-0.343,0.135-0.533,0.176c-0.192,0.037-0.401,0.057-0.63,0.057
			c-0.255,0-0.49-0.035-0.708-0.105c-0.22-0.066-0.409-0.172-0.568-0.314c-0.159-0.141-0.286-0.316-0.378-0.523
			c-0.092-0.209-0.137-0.455-0.137-0.736c0-0.244,0.063-0.479,0.191-0.707c0.131-0.229,0.343-0.436,0.641-0.617
			c0.295-0.182,0.686-0.332,1.17-0.451c0.486-0.117,1.083-0.186,1.796-0.203v-0.416c0-0.449-0.097-0.785-0.288-1.006
			c-0.193-0.223-0.475-0.332-0.848-0.332c-0.254,0-0.465,0.029-0.637,0.094c-0.173,0.064-0.321,0.133-0.448,0.207
			c-0.127,0.072-0.24,0.143-0.339,0.207c-0.098,0.061-0.202,0.094-0.313,0.094c-0.09,0-0.166-0.023-0.23-0.072
			c-0.063-0.045-0.115-0.105-0.156-0.174L193.583,20.256z M197.081,22.906c-0.47,0.018-0.867,0.055-1.191,0.115
			c-0.323,0.059-0.584,0.133-0.784,0.227c-0.201,0.092-0.345,0.201-0.433,0.328c-0.089,0.127-0.132,0.266-0.132,0.418
			c0,0.146,0.023,0.271,0.07,0.377c0.047,0.104,0.111,0.189,0.195,0.258c0.084,0.066,0.182,0.117,0.295,0.146
			c0.113,0.031,0.237,0.045,0.372,0.045c0.343,0,0.638-0.063,0.888-0.191c0.246-0.129,0.486-0.314,0.72-0.563V22.906z"/>
		<path fill="#373F44" d="M201.463,20.293c0.261-0.307,0.56-0.556,0.893-0.743c0.334-0.188,0.722-0.283,1.163-0.283
			c0.353,0,0.671,0.07,0.956,0.212c0.288,0.141,0.534,0.347,0.737,0.616c0.204,0.271,0.362,0.605,0.476,1.004
			c0.112,0.4,0.168,0.857,0.168,1.373c0,0.461-0.061,0.893-0.186,1.291c-0.125,0.4-0.305,0.744-0.537,1.037
			c-0.234,0.293-0.516,0.521-0.848,0.688c-0.33,0.166-0.707,0.248-1.123,0.248c-0.367,0-0.68-0.059-0.936-0.176
			c-0.256-0.121-0.488-0.283-0.696-0.494v2.658h-1.319v-8.34h0.797c0.18,0,0.295,0.083,0.346,0.252L201.463,20.293z M201.53,24.074
			c0.185,0.238,0.386,0.402,0.604,0.5c0.218,0.096,0.46,0.145,0.727,0.145c0.516,0,0.918-0.189,1.207-0.566
			c0.288-0.375,0.432-0.936,0.432-1.68c0-0.387-0.032-0.713-0.098-0.986c-0.065-0.271-0.16-0.494-0.282-0.664
			c-0.124-0.174-0.272-0.299-0.448-0.375c-0.176-0.078-0.375-0.117-0.595-0.117c-0.335,0-0.626,0.072-0.869,0.219
			c-0.243,0.145-0.47,0.35-0.678,0.623V24.074z"/>
		<path fill="#373F44" d="M208.791,16.562v9.081h-1.322v-9.081H208.791z"/>
		<path fill="#373F44" d="M212.324,17.493c0,0.119-0.023,0.231-0.07,0.338c-0.047,0.107-0.112,0.199-0.193,0.279
			s-0.178,0.143-0.285,0.19c-0.109,0.046-0.225,0.071-0.347,0.071c-0.118,0-0.229-0.025-0.333-0.071
			c-0.105-0.048-0.197-0.11-0.274-0.19s-0.14-0.172-0.188-0.279c-0.047-0.106-0.071-0.219-0.071-0.338
			c0-0.122,0.024-0.237,0.071-0.343c0.048-0.107,0.11-0.2,0.188-0.279s0.169-0.143,0.274-0.19c0.104-0.047,0.215-0.07,0.333-0.07
			c0.122,0,0.237,0.023,0.347,0.07c0.107,0.047,0.204,0.111,0.285,0.19s0.146,0.172,0.193,0.279
			C212.301,17.256,212.324,17.372,212.324,17.493z M212.104,19.385v6.258h-1.318v-6.258H212.104z"/>
		<path fill="#373F44" d="M218.498,20.611c-0.039,0.055-0.078,0.094-0.117,0.123c-0.037,0.027-0.09,0.043-0.158,0.043
			s-0.143-0.025-0.219-0.074s-0.164-0.104-0.27-0.164c-0.104-0.057-0.23-0.113-0.377-0.16c-0.148-0.049-0.332-0.074-0.553-0.074
			c-0.285,0-0.535,0.051-0.752,0.152c-0.217,0.104-0.395,0.25-0.541,0.439c-0.145,0.193-0.254,0.424-0.324,0.693
			c-0.072,0.273-0.107,0.58-0.107,0.92c0,0.352,0.039,0.664,0.116,0.938s0.188,0.506,0.333,0.693
			c0.148,0.188,0.322,0.332,0.529,0.428c0.207,0.1,0.439,0.15,0.697,0.15c0.254,0,0.459-0.031,0.619-0.094
			c0.16-0.061,0.293-0.127,0.398-0.203c0.107-0.072,0.197-0.139,0.275-0.201c0.072-0.063,0.154-0.094,0.24-0.094
			c0.107,0,0.188,0.043,0.246,0.125l0.375,0.484c-0.152,0.184-0.32,0.338-0.506,0.467c-0.182,0.125-0.377,0.23-0.582,0.309
			c-0.205,0.08-0.416,0.139-0.639,0.174c-0.221,0.033-0.443,0.051-0.668,0.051c-0.389,0-0.752-0.072-1.09-0.219
			c-0.337-0.145-0.632-0.354-0.883-0.631c-0.252-0.275-0.449-0.615-0.594-1.012c-0.146-0.4-0.219-0.854-0.219-1.365
			c0-0.463,0.064-0.893,0.196-1.287c0.13-0.393,0.321-0.736,0.573-1.023c0.252-0.283,0.563-0.509,0.937-0.672
			c0.372-0.161,0.802-0.241,1.288-0.241c0.455,0,0.854,0.073,1.199,0.221c0.348,0.146,0.654,0.356,0.924,0.624L218.498,20.611z"/>
		<path fill="#373F44" d="M220.117,20.256c0.707-0.659,1.551-0.989,2.529-0.989c0.359,0,0.678,0.058,0.959,0.175
			c0.281,0.115,0.518,0.281,0.707,0.493c0.191,0.215,0.336,0.467,0.436,0.76s0.15,0.615,0.15,0.973v3.975h-0.592
			c-0.125,0-0.221-0.018-0.285-0.057c-0.066-0.039-0.123-0.117-0.164-0.238l-0.131-0.506c-0.16,0.143-0.318,0.27-0.473,0.383
			c-0.154,0.111-0.316,0.207-0.482,0.285c-0.166,0.076-0.342,0.135-0.533,0.176c-0.191,0.037-0.4,0.057-0.629,0.057
			c-0.252,0-0.49-0.035-0.709-0.105c-0.219-0.066-0.406-0.172-0.568-0.314c-0.158-0.141-0.283-0.316-0.377-0.523
			c-0.092-0.209-0.137-0.455-0.137-0.736c0-0.244,0.063-0.479,0.191-0.707s0.344-0.436,0.639-0.617
			c0.299-0.182,0.688-0.332,1.172-0.451c0.484-0.117,1.084-0.186,1.795-0.203v-0.416c0-0.449-0.094-0.785-0.289-1.006
			c-0.191-0.223-0.475-0.332-0.846-0.332c-0.252,0-0.467,0.029-0.639,0.094c-0.17,0.064-0.32,0.133-0.447,0.207
			c-0.125,0.072-0.238,0.143-0.338,0.207c-0.098,0.061-0.203,0.094-0.311,0.094c-0.092,0-0.168-0.023-0.232-0.072
			c-0.063-0.045-0.115-0.105-0.156-0.174L220.117,20.256z M223.615,22.906c-0.471,0.018-0.867,0.055-1.189,0.115
			c-0.324,0.059-0.586,0.133-0.787,0.227c-0.199,0.092-0.344,0.201-0.432,0.328s-0.133,0.266-0.133,0.418
			c0,0.146,0.025,0.271,0.07,0.377c0.047,0.104,0.113,0.189,0.197,0.258c0.084,0.066,0.182,0.117,0.295,0.146
			c0.111,0.031,0.238,0.045,0.371,0.045c0.344,0,0.641-0.063,0.887-0.191c0.248-0.129,0.486-0.314,0.721-0.563V22.906z"/>
		<path fill="#373F44" d="M232.061,16.562v9.081h-0.799c-0.176,0-0.287-0.08-0.336-0.25l-0.119-0.682
			c-0.26,0.309-0.557,0.555-0.891,0.742c-0.334,0.189-0.723,0.283-1.164,0.283c-0.352,0-0.67-0.07-0.959-0.213
			c-0.285-0.139-0.529-0.346-0.734-0.615c-0.205-0.271-0.363-0.605-0.475-1.002c-0.113-0.4-0.17-0.859-0.17-1.375
			c0-0.465,0.063-0.895,0.188-1.293c0.123-0.396,0.303-0.742,0.537-1.035c0.234-0.291,0.516-0.521,0.852-0.688
			c0.33-0.165,0.703-0.248,1.117-0.248c0.369,0,0.682,0.058,0.939,0.175c0.26,0.115,0.488,0.278,0.695,0.489v-3.37H232.061z
			 M230.742,20.926c-0.188-0.238-0.389-0.404-0.609-0.5c-0.221-0.092-0.459-0.139-0.719-0.139c-0.514,0-0.918,0.189-1.207,0.568
			c-0.293,0.379-0.438,0.938-0.438,1.676c0,0.387,0.033,0.715,0.1,0.986c0.064,0.273,0.16,0.494,0.281,0.666
			c0.123,0.174,0.271,0.297,0.449,0.375c0.176,0.076,0.373,0.115,0.594,0.115c0.336,0,0.625-0.07,0.867-0.215
			c0.246-0.146,0.473-0.354,0.682-0.619V20.926z"/>
		<path fill="#373F44" d="M236.68,19.286c0.463,0,0.881,0.077,1.256,0.227c0.375,0.153,0.695,0.368,0.959,0.644
			c0.262,0.281,0.467,0.617,0.609,1.016c0.143,0.395,0.215,0.842,0.215,1.338c0,0.492-0.072,0.939-0.215,1.336
			c-0.143,0.398-0.348,0.736-0.609,1.018c-0.264,0.279-0.584,0.494-0.959,0.646c-0.375,0.15-0.793,0.227-1.256,0.227
			c-0.467,0-0.885-0.076-1.26-0.227c-0.375-0.152-0.693-0.367-0.961-0.646c-0.266-0.281-0.471-0.619-0.613-1.018
			c-0.145-0.396-0.215-0.844-0.215-1.336c0-0.496,0.07-0.943,0.215-1.338c0.143-0.398,0.348-0.734,0.613-1.016
			c0.268-0.275,0.586-0.491,0.961-0.644C235.795,19.362,236.213,19.286,236.68,19.286z M236.68,24.705
			c0.564,0,0.986-0.189,1.262-0.566c0.277-0.379,0.414-0.92,0.414-1.623c0-0.705-0.137-1.248-0.414-1.631
			c-0.275-0.383-0.697-0.574-1.262-0.574c-0.572,0-0.996,0.191-1.275,0.574c-0.277,0.383-0.416,0.926-0.416,1.631
			c0,0.703,0.139,1.244,0.416,1.623C235.684,24.516,236.107,24.705,236.68,24.705z"/>
		<path fill="#373F44" d="M245.027,20.52c-0.033,0.059-0.072,0.1-0.111,0.123c-0.041,0.025-0.092,0.037-0.154,0.037
			c-0.068,0-0.145-0.023-0.227-0.066c-0.08-0.039-0.178-0.09-0.287-0.143c-0.111-0.053-0.24-0.102-0.391-0.145
			c-0.148-0.043-0.322-0.064-0.523-0.064c-0.164,0-0.313,0.021-0.445,0.061c-0.133,0.035-0.246,0.092-0.338,0.164
			s-0.164,0.154-0.213,0.252c-0.047,0.098-0.072,0.201-0.072,0.309c0,0.146,0.045,0.271,0.135,0.369s0.209,0.184,0.355,0.254
			c0.148,0.072,0.314,0.137,0.504,0.193c0.188,0.059,0.379,0.117,0.576,0.186c0.197,0.064,0.389,0.141,0.578,0.227
			c0.188,0.086,0.355,0.191,0.502,0.316c0.148,0.125,0.266,0.277,0.355,0.453c0.09,0.178,0.137,0.395,0.137,0.648
			c0,0.295-0.053,0.566-0.158,0.816c-0.107,0.25-0.266,0.465-0.469,0.65c-0.205,0.182-0.459,0.326-0.766,0.43
			c-0.303,0.102-0.65,0.152-1.045,0.152c-0.217,0-0.424-0.02-0.627-0.057c-0.203-0.041-0.396-0.094-0.58-0.162
			c-0.182-0.064-0.35-0.148-0.508-0.24c-0.156-0.096-0.297-0.197-0.42-0.309l0.307-0.502c0.037-0.063,0.084-0.109,0.139-0.145
			s0.123-0.055,0.205-0.055c0.084,0,0.17,0.029,0.254,0.086c0.084,0.055,0.182,0.115,0.295,0.182
			c0.111,0.064,0.25,0.125,0.408,0.182c0.16,0.053,0.359,0.082,0.596,0.082c0.197,0,0.365-0.025,0.51-0.072
			c0.143-0.045,0.26-0.111,0.355-0.191c0.094-0.082,0.164-0.176,0.207-0.281c0.045-0.104,0.07-0.215,0.07-0.334
			c0-0.158-0.047-0.291-0.137-0.393s-0.211-0.191-0.357-0.264c-0.15-0.074-0.32-0.139-0.512-0.197
			c-0.189-0.057-0.383-0.117-0.58-0.184c-0.195-0.066-0.389-0.141-0.578-0.227c-0.191-0.086-0.361-0.195-0.51-0.328
			c-0.15-0.133-0.268-0.295-0.359-0.484c-0.09-0.191-0.135-0.424-0.135-0.697c0-0.25,0.049-0.486,0.15-0.713
			c0.1-0.225,0.248-0.424,0.441-0.594c0.195-0.174,0.434-0.308,0.719-0.409c0.283-0.101,0.611-0.151,0.986-0.151
			c0.42,0,0.801,0.068,1.145,0.202c0.346,0.136,0.633,0.321,0.865,0.553L245.027,20.52z"/>
		<path fill="#373F44" d="M250.162,20.256c0.709-0.659,1.553-0.989,2.529-0.989c0.359,0,0.68,0.058,0.961,0.175
			c0.279,0.115,0.514,0.281,0.705,0.493c0.189,0.215,0.336,0.467,0.436,0.76s0.15,0.615,0.15,0.973v3.975h-0.59
			c-0.125,0-0.223-0.018-0.287-0.057c-0.066-0.039-0.121-0.117-0.166-0.238l-0.129-0.506c-0.16,0.143-0.316,0.27-0.473,0.383
			c-0.156,0.111-0.316,0.207-0.482,0.285c-0.164,0.076-0.344,0.135-0.535,0.176c-0.188,0.037-0.396,0.057-0.627,0.057
			c-0.254,0-0.49-0.035-0.709-0.105c-0.219-0.066-0.41-0.172-0.566-0.314c-0.16-0.141-0.285-0.316-0.377-0.523
			c-0.094-0.209-0.141-0.455-0.141-0.736c0-0.244,0.064-0.479,0.195-0.707c0.125-0.229,0.34-0.436,0.637-0.617
			s0.688-0.332,1.172-0.451c0.484-0.117,1.084-0.186,1.795-0.203v-0.416c0-0.449-0.094-0.785-0.287-1.006
			c-0.193-0.223-0.477-0.332-0.848-0.332c-0.254,0-0.467,0.029-0.639,0.094s-0.32,0.133-0.449,0.207
			c-0.125,0.072-0.238,0.143-0.336,0.207c-0.098,0.061-0.201,0.094-0.314,0.094c-0.088,0-0.166-0.023-0.229-0.072
			c-0.063-0.045-0.115-0.105-0.156-0.174L250.162,20.256z M251.973,16.709c0.152,0,0.264,0.024,0.336,0.072
			c0.076,0.049,0.141,0.126,0.197,0.228l0.896,1.486h-0.748c-0.102,0-0.186-0.015-0.248-0.043s-0.129-0.079-0.193-0.153l-1.48-1.589
			H251.973z M253.66,22.906c-0.469,0.018-0.867,0.055-1.189,0.115c-0.324,0.059-0.586,0.133-0.785,0.227
			c-0.201,0.092-0.346,0.201-0.436,0.328c-0.086,0.127-0.129,0.266-0.129,0.418c0,0.146,0.021,0.271,0.07,0.377
			c0.047,0.104,0.111,0.189,0.195,0.258c0.086,0.066,0.184,0.117,0.295,0.146c0.113,0.031,0.236,0.045,0.371,0.045
			c0.344,0,0.641-0.063,0.887-0.191c0.248-0.129,0.488-0.314,0.721-0.563V22.906z"/>
		<path fill="#373F44" d="M261.109,22.619c0.018,0.357,0.072,0.664,0.166,0.924c0.096,0.26,0.221,0.477,0.377,0.646
			c0.158,0.172,0.348,0.301,0.564,0.385c0.221,0.084,0.465,0.125,0.734,0.125c0.258,0,0.48-0.029,0.668-0.088
			c0.189-0.061,0.354-0.127,0.492-0.197s0.258-0.139,0.355-0.197s0.189-0.09,0.27-0.09c0.107,0,0.189,0.043,0.246,0.125l0.373,0.484
			c-0.154,0.184-0.33,0.338-0.527,0.467c-0.197,0.125-0.404,0.23-0.623,0.309c-0.223,0.08-0.449,0.139-0.684,0.174
			c-0.232,0.033-0.461,0.051-0.68,0.051c-0.436,0-0.836-0.072-1.207-0.219c-0.371-0.145-0.691-0.357-0.965-0.639
			c-0.27-0.283-0.482-0.633-0.637-1.051c-0.152-0.418-0.23-0.898-0.23-1.443c0-0.432,0.07-0.838,0.205-1.213
			c0.137-0.379,0.334-0.705,0.592-0.982c0.254-0.281,0.564-0.5,0.932-0.663c0.363-0.161,0.779-0.241,1.242-0.241
			c0.385,0,0.74,0.062,1.068,0.188c0.326,0.124,0.609,0.308,0.846,0.548c0.238,0.242,0.424,0.539,0.557,0.889
			s0.199,0.748,0.199,1.193c0,0.205-0.023,0.342-0.066,0.412c-0.047,0.068-0.127,0.104-0.248,0.104H261.109z M264.258,21.809
			c0-0.221-0.033-0.426-0.096-0.617c-0.063-0.189-0.154-0.354-0.277-0.496c-0.125-0.141-0.275-0.252-0.459-0.332
			c-0.182-0.08-0.391-0.121-0.629-0.121c-0.477,0-0.854,0.139-1.129,0.412c-0.273,0.273-0.447,0.66-0.521,1.154H264.258z"/>
		<path fill="#373F44" d="M268.209,20.213c0.137-0.139,0.277-0.266,0.422-0.379c0.145-0.111,0.301-0.208,0.463-0.291
			c0.164-0.082,0.338-0.145,0.523-0.19c0.184-0.045,0.383-0.068,0.6-0.068c0.344,0,0.646,0.058,0.908,0.171
			c0.256,0.115,0.477,0.276,0.652,0.484c0.18,0.211,0.314,0.461,0.402,0.754c0.092,0.293,0.137,0.613,0.137,0.967v3.98h-1.314v-3.98
			c0-0.422-0.096-0.748-0.293-0.982c-0.191-0.232-0.486-0.35-0.885-0.35c-0.295,0-0.568,0.066-0.82,0.201
			c-0.252,0.137-0.486,0.32-0.707,0.555v4.557h-1.32v-6.258h0.799c0.18,0,0.295,0.083,0.342,0.252L268.209,20.213z"/>
		<path fill="#373F44" d="M279.563,19.612v0.49c0,0.164-0.098,0.266-0.295,0.303l-0.625,0.102c0.107,0.238,0.16,0.502,0.16,0.793
			c0,0.309-0.061,0.586-0.182,0.836c-0.121,0.248-0.287,0.461-0.5,0.639c-0.213,0.176-0.467,0.311-0.762,0.404
			c-0.295,0.096-0.611,0.141-0.957,0.141c-0.131,0-0.26-0.008-0.383-0.021c-0.125-0.014-0.246-0.033-0.365-0.057
			c-0.119,0.068-0.207,0.143-0.266,0.219c-0.057,0.078-0.084,0.158-0.084,0.24c0,0.135,0.059,0.236,0.178,0.301
			c0.117,0.066,0.275,0.111,0.469,0.141s0.418,0.047,0.666,0.057c0.25,0.008,0.504,0.021,0.762,0.043
			c0.256,0.02,0.51,0.053,0.762,0.102c0.248,0.047,0.471,0.123,0.664,0.232c0.193,0.105,0.352,0.252,0.471,0.439
			c0.117,0.182,0.178,0.422,0.178,0.717c0,0.27-0.068,0.533-0.203,0.791c-0.137,0.26-0.33,0.486-0.586,0.688
			s-0.568,0.361-0.936,0.482c-0.369,0.119-0.787,0.182-1.26,0.182c-0.467,0-0.871-0.045-1.217-0.137
			c-0.346-0.088-0.635-0.211-0.865-0.365c-0.23-0.152-0.402-0.328-0.516-0.529c-0.113-0.199-0.17-0.41-0.17-0.627
			c0-0.295,0.094-0.547,0.281-0.754c0.186-0.209,0.438-0.373,0.758-0.492c-0.172-0.082-0.313-0.193-0.414-0.338
			c-0.105-0.141-0.158-0.33-0.158-0.564c0-0.184,0.068-0.375,0.203-0.576s0.338-0.369,0.607-0.508
			c-0.311-0.174-0.557-0.4-0.734-0.686c-0.18-0.283-0.27-0.617-0.27-0.998c0-0.311,0.059-0.59,0.18-0.842
			c0.119-0.246,0.289-0.461,0.506-0.637s0.473-0.312,0.77-0.407c0.297-0.093,0.621-0.14,0.973-0.14c0.541,0,1.01,0.113,1.412,0.338
			H279.563z M278.238,25.951c0-0.139-0.041-0.25-0.121-0.334c-0.078-0.084-0.188-0.15-0.322-0.195
			c-0.133-0.049-0.291-0.084-0.471-0.105c-0.182-0.023-0.373-0.039-0.576-0.051c-0.201-0.01-0.406-0.02-0.617-0.031
			c-0.211-0.008-0.414-0.027-0.611-0.057c-0.197,0.104-0.357,0.225-0.482,0.369c-0.125,0.143-0.188,0.309-0.188,0.496
			c0,0.121,0.031,0.238,0.096,0.346c0.063,0.105,0.162,0.197,0.295,0.273c0.133,0.078,0.301,0.141,0.51,0.186
			c0.205,0.045,0.453,0.068,0.746,0.068c0.58,0,1.016-0.092,1.307-0.271C278.092,26.465,278.238,26.234,278.238,25.951z
			 M276.402,22.459c0.408,0,0.715-0.104,0.922-0.313c0.203-0.209,0.305-0.48,0.305-0.816c0-0.344-0.102-0.615-0.305-0.818
			c-0.207-0.197-0.514-0.299-0.922-0.299c-0.404,0-0.711,0.102-0.916,0.299c-0.207,0.203-0.313,0.475-0.313,0.818
			c0,0.164,0.029,0.316,0.082,0.453c0.053,0.141,0.129,0.262,0.232,0.359c0.104,0.1,0.23,0.18,0.385,0.232
			C276.025,22.432,276.201,22.459,276.402,22.459z"/>
		<path fill="#373F44" d="M281.766,22.619c0.018,0.357,0.072,0.664,0.166,0.924c0.096,0.26,0.221,0.477,0.377,0.646
			c0.16,0.172,0.346,0.301,0.566,0.385c0.219,0.084,0.463,0.125,0.732,0.125c0.258,0,0.48-0.029,0.67-0.088
			c0.188-0.061,0.352-0.127,0.49-0.197s0.258-0.139,0.355-0.197c0.1-0.059,0.189-0.09,0.27-0.09c0.107,0,0.188,0.043,0.246,0.125
			l0.375,0.484c-0.158,0.184-0.332,0.338-0.527,0.467c-0.197,0.125-0.404,0.23-0.627,0.309c-0.223,0.08-0.449,0.139-0.682,0.174
			c-0.232,0.033-0.459,0.051-0.682,0.051c-0.434,0-0.834-0.072-1.205-0.219c-0.371-0.145-0.691-0.357-0.963-0.639
			c-0.271-0.283-0.484-0.633-0.639-1.051s-0.23-0.898-0.23-1.443c0-0.432,0.07-0.838,0.207-1.213
			c0.135-0.379,0.332-0.705,0.588-0.982c0.256-0.281,0.568-0.5,0.934-0.663c0.365-0.161,0.779-0.241,1.242-0.241
			c0.385,0,0.738,0.062,1.068,0.188c0.328,0.124,0.609,0.308,0.846,0.548c0.236,0.242,0.424,0.539,0.557,0.889
			c0.131,0.35,0.199,0.748,0.199,1.193c0,0.205-0.023,0.342-0.068,0.412c-0.045,0.068-0.127,0.104-0.246,0.104H281.766z
			 M284.914,21.809c0-0.221-0.031-0.426-0.096-0.617c-0.063-0.189-0.156-0.354-0.279-0.496c-0.121-0.141-0.273-0.252-0.455-0.332
			c-0.184-0.08-0.393-0.121-0.631-0.121c-0.479,0-0.854,0.139-1.129,0.412s-0.447,0.66-0.521,1.154H284.914z"/>
		<path fill="#373F44" d="M288.867,20.213c0.137-0.139,0.275-0.266,0.42-0.379c0.145-0.111,0.301-0.208,0.461-0.291
			c0.166-0.082,0.34-0.145,0.523-0.19c0.186-0.045,0.385-0.068,0.602-0.068c0.344,0,0.646,0.058,0.906,0.171
			c0.26,0.115,0.479,0.276,0.656,0.484c0.178,0.211,0.311,0.461,0.402,0.754c0.09,0.293,0.133,0.613,0.133,0.967v3.98h-1.311v-3.98
			c0-0.422-0.098-0.748-0.293-0.982c-0.195-0.232-0.49-0.35-0.887-0.35c-0.295,0-0.568,0.066-0.82,0.201
			c-0.25,0.137-0.488,0.32-0.707,0.555v4.557h-1.32v-6.258h0.799c0.18,0,0.293,0.083,0.344,0.252L288.867,20.213z"/>
		<path fill="#373F44" d="M296.145,20.127c0.258-0.254,0.541-0.458,0.846-0.612c0.307-0.152,0.664-0.229,1.074-0.229
			c0.344,0,0.646,0.058,0.904,0.171c0.262,0.115,0.48,0.276,0.658,0.484c0.178,0.211,0.313,0.461,0.402,0.754
			s0.135,0.613,0.135,0.967v3.98h-1.313v-3.98c0-0.422-0.098-0.748-0.293-0.982c-0.193-0.232-0.488-0.35-0.885-0.35
			c-0.295,0-0.568,0.066-0.818,0.201c-0.252,0.137-0.488,0.32-0.711,0.555v4.557h-1.32v-9.081h1.32V20.127z"/>
		<path fill="#373F44" d="M301.865,20.256c0.705-0.659,1.549-0.989,2.527-0.989c0.359,0,0.68,0.058,0.961,0.175
			c0.279,0.115,0.516,0.281,0.703,0.493c0.191,0.215,0.336,0.467,0.438,0.76s0.148,0.615,0.148,0.973v3.975h-0.588
			c-0.127,0-0.223-0.018-0.287-0.057c-0.066-0.039-0.121-0.117-0.166-0.238l-0.129-0.506c-0.16,0.143-0.318,0.27-0.473,0.383
			c-0.156,0.111-0.316,0.207-0.482,0.285c-0.164,0.076-0.344,0.135-0.533,0.176c-0.191,0.037-0.4,0.057-0.631,0.057
			c-0.252,0-0.488-0.035-0.707-0.105c-0.221-0.066-0.408-0.172-0.568-0.314c-0.158-0.141-0.283-0.316-0.377-0.523
			c-0.092-0.209-0.137-0.455-0.137-0.736c0-0.244,0.063-0.479,0.191-0.707s0.342-0.436,0.639-0.617s0.688-0.332,1.172-0.451
			c0.484-0.117,1.084-0.186,1.795-0.203v-0.416c0-0.449-0.096-0.785-0.289-1.006c-0.191-0.223-0.473-0.332-0.848-0.332
			c-0.252,0-0.465,0.029-0.637,0.094s-0.32,0.133-0.447,0.207c-0.127,0.072-0.24,0.143-0.338,0.207
			c-0.098,0.061-0.203,0.094-0.313,0.094c-0.092,0-0.166-0.023-0.23-0.072c-0.064-0.045-0.113-0.105-0.156-0.174L301.865,20.256z
			 M305.361,22.906c-0.471,0.018-0.865,0.055-1.191,0.115c-0.322,0.059-0.584,0.133-0.785,0.227
			c-0.199,0.092-0.344,0.201-0.432,0.328s-0.131,0.266-0.131,0.418c0,0.146,0.021,0.271,0.068,0.377
			c0.049,0.104,0.111,0.189,0.197,0.258c0.084,0.066,0.184,0.117,0.295,0.146c0.113,0.031,0.236,0.045,0.371,0.045
			c0.346,0,0.641-0.063,0.887-0.191s0.488-0.314,0.721-0.563V22.906z"/>
		<path fill="#373F44" d="M309.738,20.545c0.195-0.398,0.434-0.711,0.711-0.938c0.279-0.227,0.611-0.34,1-0.34
			c0.135,0,0.262,0.015,0.381,0.045s0.225,0.077,0.32,0.138l-0.094,0.997c-0.016,0.068-0.043,0.115-0.076,0.143
			c-0.035,0.029-0.08,0.041-0.139,0.041c-0.061,0-0.15-0.012-0.264-0.035c-0.113-0.02-0.234-0.033-0.361-0.033
			c-0.186,0-0.348,0.027-0.488,0.08s-0.268,0.131-0.381,0.234c-0.113,0.102-0.211,0.227-0.297,0.373
			c-0.086,0.148-0.166,0.314-0.24,0.506v3.887h-1.32v-6.258h0.768c0.141,0,0.236,0.025,0.289,0.077
			c0.053,0.051,0.09,0.14,0.109,0.266L309.738,20.545z"/>
		<path fill="#373F44" d="M314.922,17.493c0,0.119-0.023,0.231-0.068,0.338c-0.049,0.107-0.113,0.199-0.195,0.279
			c-0.08,0.08-0.176,0.143-0.283,0.19c-0.111,0.046-0.227,0.071-0.348,0.071c-0.117,0-0.23-0.025-0.334-0.071
			c-0.105-0.048-0.197-0.11-0.275-0.19c-0.076-0.08-0.139-0.172-0.186-0.279c-0.049-0.106-0.07-0.219-0.07-0.338
			c0-0.122,0.021-0.237,0.07-0.343c0.047-0.107,0.109-0.2,0.186-0.279c0.078-0.08,0.17-0.143,0.275-0.19
			c0.104-0.047,0.217-0.07,0.334-0.07c0.121,0,0.236,0.023,0.348,0.07c0.107,0.047,0.203,0.111,0.283,0.19
			c0.082,0.08,0.146,0.172,0.195,0.279C314.898,17.256,314.922,17.372,314.922,17.493z M314.703,19.385v6.258h-1.32v-6.258H314.703z
			"/>
		<path fill="#373F44" d="M316.518,20.256c0.709-0.659,1.551-0.989,2.529-0.989c0.357,0,0.68,0.058,0.961,0.175
			c0.281,0.115,0.514,0.281,0.705,0.493c0.191,0.215,0.336,0.467,0.436,0.76s0.152,0.615,0.152,0.973v3.975h-0.592
			c-0.125,0-0.221-0.018-0.289-0.057c-0.064-0.039-0.119-0.117-0.164-0.238l-0.129-0.506c-0.158,0.143-0.318,0.27-0.473,0.383
			c-0.156,0.111-0.316,0.207-0.482,0.285c-0.164,0.076-0.342,0.135-0.533,0.176c-0.189,0.037-0.398,0.057-0.629,0.057
			c-0.254,0-0.49-0.035-0.709-0.105c-0.219-0.066-0.408-0.172-0.566-0.314c-0.16-0.141-0.285-0.316-0.379-0.523
			c-0.092-0.209-0.137-0.455-0.137-0.736c0-0.244,0.063-0.479,0.193-0.707c0.127-0.229,0.34-0.436,0.637-0.617
			s0.688-0.332,1.172-0.451c0.486-0.117,1.084-0.186,1.795-0.203v-0.416c0-0.449-0.094-0.785-0.287-1.006
			c-0.193-0.223-0.477-0.332-0.848-0.332c-0.254,0-0.467,0.029-0.639,0.094s-0.322,0.133-0.447,0.207
			c-0.127,0.072-0.238,0.143-0.338,0.207c-0.098,0.061-0.201,0.094-0.313,0.094c-0.09,0-0.166-0.023-0.229-0.072
			c-0.064-0.045-0.117-0.105-0.158-0.174L316.518,20.256z M320.016,22.906c-0.471,0.018-0.867,0.055-1.189,0.115
			c-0.322,0.059-0.586,0.133-0.785,0.227c-0.201,0.092-0.344,0.201-0.436,0.328c-0.086,0.127-0.129,0.266-0.129,0.418
			c0,0.146,0.023,0.271,0.07,0.377c0.045,0.104,0.111,0.189,0.195,0.258c0.084,0.066,0.182,0.117,0.295,0.146
			c0.113,0.031,0.236,0.045,0.371,0.045c0.344,0,0.639-0.063,0.887-0.191s0.488-0.314,0.721-0.563V22.906z"/>
		<path fill="#373F44" d="M327.467,22.619c0.016,0.357,0.07,0.664,0.164,0.924c0.096,0.26,0.221,0.477,0.377,0.646
			c0.158,0.172,0.348,0.301,0.564,0.385c0.221,0.084,0.465,0.125,0.734,0.125c0.258,0,0.48-0.029,0.67-0.088
			c0.188-0.061,0.352-0.127,0.492-0.197c0.137-0.07,0.256-0.139,0.354-0.197c0.1-0.059,0.189-0.09,0.27-0.09
			c0.107,0,0.189,0.043,0.248,0.125l0.373,0.484c-0.156,0.184-0.332,0.338-0.527,0.467c-0.197,0.125-0.406,0.23-0.627,0.309
			c-0.221,0.08-0.447,0.139-0.68,0.174c-0.234,0.033-0.463,0.051-0.682,0.051c-0.436,0-0.838-0.072-1.205-0.219
			c-0.371-0.145-0.693-0.357-0.965-0.639c-0.271-0.283-0.484-0.633-0.637-1.051c-0.154-0.418-0.23-0.898-0.23-1.443
			c0-0.432,0.066-0.838,0.203-1.213c0.139-0.379,0.334-0.705,0.59-0.982c0.256-0.281,0.566-0.5,0.934-0.663
			c0.365-0.161,0.781-0.241,1.242-0.241c0.385,0,0.74,0.062,1.068,0.188c0.326,0.124,0.609,0.308,0.848,0.548
			c0.236,0.242,0.42,0.539,0.555,0.889c0.131,0.35,0.199,0.748,0.199,1.193c0,0.205-0.023,0.342-0.068,0.412
			c-0.043,0.068-0.125,0.104-0.244,0.104H327.467z M330.613,21.809c0-0.221-0.031-0.426-0.094-0.617
			c-0.066-0.189-0.156-0.354-0.279-0.496c-0.123-0.141-0.275-0.252-0.459-0.332c-0.182-0.08-0.391-0.121-0.627-0.121
			c-0.48,0-0.855,0.139-1.131,0.412c-0.273,0.273-0.447,0.66-0.521,1.154H330.613z"/>
		<path fill="#373F44" d="M336.541,20.256c0.709-0.659,1.551-0.989,2.529-0.989c0.359,0,0.68,0.058,0.959,0.175
			c0.281,0.115,0.516,0.281,0.707,0.493c0.191,0.215,0.336,0.467,0.438,0.76c0.1,0.293,0.148,0.615,0.148,0.973v3.975h-0.59
			c-0.125,0-0.223-0.018-0.287-0.057c-0.066-0.039-0.121-0.117-0.166-0.238l-0.129-0.506c-0.16,0.143-0.318,0.27-0.473,0.383
			c-0.156,0.111-0.316,0.207-0.482,0.285c-0.164,0.076-0.344,0.135-0.533,0.176c-0.189,0.037-0.398,0.057-0.629,0.057
			c-0.254,0-0.49-0.035-0.709-0.105c-0.219-0.066-0.406-0.172-0.568-0.314c-0.158-0.141-0.285-0.316-0.377-0.523
			c-0.092-0.209-0.137-0.455-0.137-0.736c0-0.244,0.063-0.479,0.193-0.707c0.127-0.229,0.342-0.436,0.637-0.617
			c0.297-0.182,0.689-0.332,1.172-0.451c0.486-0.117,1.084-0.186,1.795-0.203v-0.416c0-0.449-0.096-0.785-0.287-1.006
			c-0.191-0.223-0.475-0.332-0.848-0.332c-0.254,0-0.467,0.029-0.637,0.094c-0.174,0.064-0.322,0.133-0.449,0.207
			c-0.127,0.072-0.238,0.143-0.338,0.207c-0.098,0.061-0.203,0.094-0.313,0.094c-0.09,0-0.166-0.023-0.23-0.072
			c-0.063-0.045-0.117-0.105-0.156-0.174L336.541,20.256z M340.039,22.906c-0.471,0.018-0.867,0.055-1.189,0.115
			c-0.324,0.059-0.586,0.133-0.785,0.227c-0.201,0.092-0.344,0.201-0.434,0.328c-0.088,0.127-0.131,0.266-0.131,0.418
			c0,0.146,0.023,0.271,0.068,0.377c0.049,0.104,0.113,0.189,0.197,0.258c0.084,0.066,0.182,0.117,0.295,0.146
			c0.113,0.031,0.236,0.045,0.371,0.045c0.344,0,0.639-0.063,0.887-0.191s0.488-0.314,0.721-0.563V22.906z"/>
		<path fill="#373F44" d="M344.414,20.545c0.197-0.398,0.436-0.711,0.713-0.938c0.279-0.227,0.611-0.34,1-0.34
			c0.135,0,0.262,0.015,0.381,0.045s0.225,0.077,0.32,0.138l-0.094,0.997c-0.016,0.068-0.041,0.115-0.076,0.143
			c-0.033,0.029-0.082,0.041-0.139,0.041c-0.061,0-0.148-0.012-0.264-0.035c-0.115-0.02-0.234-0.033-0.361-0.033
			c-0.184,0-0.346,0.027-0.488,0.08c-0.141,0.053-0.266,0.131-0.379,0.234c-0.113,0.102-0.213,0.227-0.299,0.373
			c-0.086,0.148-0.166,0.314-0.24,0.506v3.887h-1.318v-6.258h0.766c0.141,0,0.236,0.025,0.291,0.077
			c0.053,0.051,0.088,0.14,0.109,0.266L344.414,20.545z"/>
		<path fill="#373F44" d="M353.115,19.385v8.34h-1.316v-2.934c-0.258,0.283-0.547,0.51-0.869,0.684
			c-0.32,0.176-0.693,0.262-1.121,0.262c-0.352,0-0.67-0.07-0.955-0.213c-0.289-0.139-0.533-0.346-0.738-0.615
			c-0.205-0.271-0.363-0.605-0.475-1.002c-0.111-0.4-0.17-0.859-0.17-1.375c0-0.465,0.063-0.895,0.188-1.293
			c0.127-0.396,0.305-0.742,0.537-1.035c0.234-0.291,0.516-0.521,0.85-0.688c0.332-0.165,0.707-0.248,1.119-0.248
			c0.201,0,0.387,0.019,0.551,0.052c0.164,0.035,0.318,0.086,0.459,0.154c0.143,0.066,0.271,0.149,0.393,0.246
			c0.117,0.098,0.229,0.205,0.334,0.328l0.082-0.41c0.049-0.169,0.16-0.252,0.338-0.252H353.115z M351.799,20.926
			c-0.186-0.234-0.389-0.398-0.609-0.494s-0.459-0.145-0.717-0.145c-0.516,0-0.92,0.189-1.209,0.568
			c-0.291,0.379-0.436,0.938-0.436,1.676c0,0.387,0.031,0.715,0.098,0.986c0.066,0.273,0.16,0.494,0.281,0.666
			c0.123,0.174,0.273,0.297,0.449,0.375c0.176,0.076,0.375,0.115,0.594,0.115c0.336,0,0.625-0.07,0.869-0.215
			c0.244-0.146,0.471-0.354,0.68-0.619V20.926z"/>
		<path fill="#373F44" d="M360.309,19.385v6.258h-0.797c-0.176,0-0.289-0.08-0.338-0.25l-0.098-0.584
			c-0.131,0.141-0.27,0.266-0.414,0.381c-0.146,0.117-0.301,0.213-0.463,0.295c-0.166,0.082-0.34,0.145-0.525,0.191
			c-0.188,0.045-0.387,0.066-0.6,0.066c-0.344,0-0.645-0.057-0.908-0.17c-0.26-0.115-0.48-0.277-0.658-0.486
			c-0.178-0.207-0.314-0.459-0.402-0.752c-0.092-0.293-0.135-0.615-0.135-0.967v-3.982h1.32v3.982c0,0.422,0.096,0.748,0.291,0.982
			c0.193,0.232,0.488,0.35,0.887,0.35c0.291,0,0.563-0.066,0.814-0.199c0.25-0.133,0.484-0.316,0.707-0.549v-4.566H360.309z"/>
		<path fill="#373F44" d="M363.82,17.493c0,0.119-0.025,0.231-0.07,0.338c-0.047,0.107-0.111,0.199-0.195,0.279
			c-0.082,0.08-0.176,0.143-0.285,0.19c-0.109,0.046-0.223,0.071-0.348,0.071c-0.117,0-0.229-0.025-0.334-0.071
			c-0.104-0.048-0.195-0.11-0.271-0.19c-0.078-0.08-0.141-0.172-0.188-0.279c-0.049-0.106-0.07-0.219-0.07-0.338
			c0-0.122,0.021-0.237,0.07-0.343c0.047-0.107,0.109-0.2,0.188-0.279c0.076-0.08,0.168-0.143,0.271-0.19
			c0.105-0.047,0.217-0.07,0.334-0.07c0.125,0,0.238,0.023,0.348,0.07c0.109,0.047,0.203,0.111,0.285,0.19
			c0.084,0.08,0.148,0.172,0.195,0.279C363.795,17.256,363.82,17.372,363.82,17.493z M363.598,19.385v6.258h-1.318v-6.258H363.598z"
			/>
		<path fill="#373F44" d="M367.574,25.742c-0.52,0-0.918-0.146-1.199-0.438c-0.281-0.293-0.418-0.707-0.418-1.238v-3.645h-0.689
			c-0.074,0-0.137-0.025-0.191-0.07c-0.051-0.047-0.078-0.119-0.078-0.211v-0.536l1.012-0.148l0.287-1.81
			c0.021-0.07,0.057-0.126,0.105-0.169c0.049-0.043,0.115-0.065,0.197-0.065h0.674v2.056h1.736v0.953h-1.736v3.553
			c0,0.227,0.057,0.396,0.168,0.518c0.109,0.119,0.258,0.176,0.441,0.176c0.1,0,0.189-0.012,0.262-0.039
			c0.076-0.025,0.139-0.055,0.191-0.086s0.1-0.061,0.137-0.084c0.043-0.029,0.078-0.043,0.115-0.043
			c0.072,0,0.133,0.043,0.178,0.125l0.393,0.643c-0.205,0.18-0.447,0.32-0.725,0.414C368.156,25.695,367.869,25.742,367.574,25.742z
			"/>
		<path fill="#373F44" d="M371.275,22.619c0.016,0.357,0.072,0.664,0.164,0.924c0.096,0.26,0.221,0.477,0.379,0.646
			c0.158,0.172,0.346,0.301,0.564,0.385s0.465,0.125,0.732,0.125c0.26,0,0.48-0.029,0.67-0.088c0.188-0.061,0.354-0.127,0.492-0.197
			s0.256-0.139,0.355-0.197c0.098-0.059,0.188-0.09,0.27-0.09c0.107,0,0.189,0.043,0.246,0.125l0.373,0.484
			c-0.156,0.184-0.33,0.338-0.525,0.467c-0.197,0.125-0.406,0.23-0.629,0.309c-0.221,0.08-0.445,0.139-0.68,0.174
			c-0.234,0.033-0.461,0.051-0.682,0.051c-0.434,0-0.836-0.072-1.205-0.219c-0.371-0.145-0.693-0.357-0.965-0.639
			c-0.271-0.283-0.482-0.633-0.637-1.051s-0.23-0.898-0.23-1.443c0-0.432,0.066-0.838,0.205-1.213
			c0.137-0.379,0.334-0.705,0.59-0.982c0.254-0.281,0.564-0.5,0.932-0.663c0.365-0.161,0.781-0.241,1.244-0.241
			c0.383,0,0.738,0.062,1.068,0.188c0.326,0.124,0.609,0.308,0.846,0.548c0.238,0.242,0.422,0.539,0.557,0.889
			c0.131,0.35,0.199,0.748,0.199,1.193c0,0.205-0.023,0.342-0.068,0.412c-0.045,0.068-0.127,0.104-0.246,0.104H371.275z
			 M374.424,21.809c0-0.221-0.033-0.426-0.096-0.617c-0.064-0.189-0.156-0.354-0.279-0.496c-0.121-0.141-0.275-0.252-0.457-0.332
			s-0.393-0.121-0.629-0.121c-0.479,0-0.855,0.139-1.129,0.412c-0.275,0.273-0.449,0.66-0.521,1.154H374.424z"/>
		<path fill="#373F44" d="M379.092,25.742c-0.518,0-0.918-0.146-1.199-0.438c-0.279-0.293-0.418-0.707-0.418-1.238v-3.645h-0.689
			c-0.072,0-0.137-0.025-0.189-0.07c-0.053-0.047-0.08-0.119-0.08-0.211v-0.536l1.014-0.148l0.289-1.81
			c0.02-0.07,0.055-0.126,0.102-0.169c0.051-0.043,0.115-0.065,0.197-0.065h0.674v2.056h1.738v0.953h-1.738v3.553
			c0,0.227,0.055,0.396,0.168,0.518c0.111,0.119,0.258,0.176,0.441,0.176c0.102,0,0.191-0.012,0.262-0.039
			c0.076-0.025,0.141-0.055,0.193-0.086s0.098-0.061,0.137-0.084c0.041-0.029,0.076-0.043,0.113-0.043
			c0.074,0,0.133,0.043,0.178,0.125l0.393,0.643c-0.205,0.18-0.443,0.32-0.723,0.414C379.676,25.695,379.389,25.742,379.092,25.742z
			"/>
		<path fill="#373F44" d="M387.156,19.385v6.258h-0.797c-0.176,0-0.289-0.08-0.338-0.25l-0.098-0.584
			c-0.131,0.141-0.27,0.266-0.416,0.381c-0.145,0.117-0.299,0.213-0.463,0.295c-0.162,0.082-0.336,0.145-0.523,0.191
			c-0.188,0.045-0.387,0.066-0.6,0.066c-0.342,0-0.646-0.057-0.906-0.17c-0.264-0.115-0.482-0.277-0.66-0.486
			c-0.178-0.207-0.313-0.459-0.402-0.752s-0.135-0.615-0.135-0.967v-3.982h1.32v3.982c0,0.422,0.096,0.748,0.289,0.982
			c0.195,0.232,0.49,0.35,0.887,0.35c0.291,0,0.563-0.066,0.814-0.199s0.488-0.316,0.709-0.549v-4.566H387.156z"/>
		<path fill="#373F44" d="M390.316,20.545c0.195-0.398,0.434-0.711,0.713-0.938c0.277-0.227,0.609-0.34,1.002-0.34
			c0.133,0,0.26,0.015,0.379,0.045s0.225,0.077,0.318,0.138l-0.092,0.997c-0.016,0.068-0.041,0.115-0.076,0.143
			c-0.035,0.029-0.08,0.041-0.139,0.041c-0.061,0-0.148-0.012-0.264-0.035c-0.113-0.02-0.234-0.033-0.363-0.033
			c-0.184,0-0.346,0.027-0.486,0.08c-0.143,0.053-0.268,0.131-0.379,0.234c-0.113,0.102-0.215,0.227-0.301,0.373
			c-0.086,0.148-0.164,0.314-0.238,0.506v3.887h-1.318v-6.258h0.766c0.141,0,0.236,0.025,0.289,0.077
			c0.053,0.051,0.09,0.14,0.111,0.266L390.316,20.545z"/>
		<path fill="#373F44" d="M393.662,20.256c0.707-0.659,1.551-0.989,2.529-0.989c0.359,0,0.68,0.058,0.961,0.175
			c0.277,0.115,0.514,0.281,0.703,0.493c0.189,0.215,0.336,0.467,0.438,0.76c0.1,0.293,0.148,0.615,0.148,0.973v3.975h-0.588
			c-0.127,0-0.223-0.018-0.289-0.057c-0.064-0.039-0.121-0.117-0.164-0.238l-0.129-0.506c-0.162,0.143-0.318,0.27-0.475,0.383
			c-0.154,0.111-0.314,0.207-0.48,0.285c-0.166,0.076-0.344,0.135-0.533,0.176c-0.191,0.037-0.4,0.057-0.631,0.057
			c-0.254,0-0.49-0.035-0.707-0.105c-0.221-0.066-0.408-0.172-0.568-0.314c-0.16-0.141-0.287-0.316-0.379-0.523
			c-0.09-0.209-0.137-0.455-0.137-0.736c0-0.244,0.064-0.479,0.193-0.707s0.342-0.436,0.639-0.617
			c0.295-0.182,0.688-0.332,1.172-0.451c0.484-0.117,1.082-0.186,1.795-0.203v-0.416c0-0.449-0.096-0.785-0.289-1.006
			c-0.193-0.223-0.473-0.332-0.846-0.332c-0.256,0-0.467,0.029-0.639,0.094s-0.32,0.133-0.449,0.207
			c-0.125,0.072-0.238,0.143-0.336,0.207c-0.1,0.061-0.203,0.094-0.314,0.094c-0.09,0-0.166-0.023-0.23-0.072
			c-0.063-0.045-0.115-0.105-0.154-0.174L393.662,20.256z M397.16,22.906c-0.471,0.018-0.867,0.055-1.191,0.115
			c-0.324,0.059-0.584,0.133-0.785,0.227c-0.201,0.092-0.344,0.201-0.432,0.328c-0.09,0.127-0.133,0.266-0.133,0.418
			c0,0.146,0.023,0.271,0.07,0.377c0.049,0.104,0.113,0.189,0.195,0.258c0.084,0.066,0.184,0.117,0.295,0.146
			c0.113,0.031,0.238,0.045,0.373,0.045c0.342,0,0.639-0.063,0.887-0.191s0.486-0.314,0.721-0.563V22.906z"/>
	</g>
	<line fill="#373F44" x1="135.095" y1="36.938" x2="135.095" y2="1.537"/>
	
		<line fill="none" stroke="#373F44" stroke-width="0.66" stroke-miterlimit="10" x1="135.095" y1="36.938" x2="135.095" y2="1.537"/>
	<g id="Logo_Correta_10_">
		<g>
			<path fill="#373F44" d="M69.56,34.053c-2.732-0.756-5.174-1.598-7.648-2.527c-0.405-0.176-0.843-0.266-1.279-0.291
				c-4.538-0.236-8.582-3.582-8.582-9.951c0-6.048,3.752-10.299,9.366-10.299c5.672,0,9.047,4.365,9.047,9.891
				c0,4.713-2.183,7.883-5.062,9.049v0.109c1.687,0.469,3.577,0.879,5.179,1.17L69.56,34.053z M61.27,28.352
				c3.432,0,5.412-3.197,5.412-7.301c0-3.723-1.834-7.185-5.382-7.185c-3.578,0-5.469,3.403-5.469,7.333
				c0,3.926,2.008,7.152,5.41,7.152H61.27z"/>
			<path fill="#373F44" d="M74.646,14.709c-1.19,0-1.973-0.875-1.973-1.919c0-1.104,0.813-1.948,2.005-1.948
				c1.221,0,1.977,0.841,2.009,1.948c0,1.044-0.785,1.919-2.009,1.919H74.646z M72.875,16.745h3.575v14.171h-3.575V16.745z"/>
			<path fill="#373F44" d="M79.89,27.01c1.13,0.67,2.904,1.256,4.74,1.256c2.267,0,3.55-1.076,3.55-2.678
				c0-1.482-0.99-2.357-3.462-3.256c-3.257-1.137-5.324-2.881-5.324-5.676c0-3.229,2.677-5.642,6.952-5.642
				c2.125,0,3.666,0.461,4.682,0.958l-0.843,2.909c-0.727-0.379-2.092-0.929-3.924-0.929c-2.271,0-3.229,1.19-3.229,2.358
				c0,1.511,1.135,2.208,3.751,3.197c3.402,1.315,5.035,3.03,5.035,5.817c0,3.166-2.386,5.877-7.42,5.877
				c-2.095,0-4.247-0.582-5.322-1.223L79.89,27.01z"/>
			<path fill="#373F44" d="M105.543,27.512c0,1.277,0.057,2.521,0.232,3.4h-3.229l-0.26-1.572h-0.091
				c-0.842,1.104-2.326,1.895-4.188,1.895c-2.85,0-4.45-2.066-4.45-4.225c0-3.549,3.169-5.381,8.405-5.352v-0.227
				c0-0.934-0.379-2.477-2.879-2.477c-1.395,0-2.851,0.438-3.811,1.045l-0.698-2.326c1.049-0.644,2.878-1.253,5.121-1.253
				c4.54,0,5.848,2.882,5.848,5.991V27.512z M102.052,23.99c-2.532-0.031-4.944,0.492-4.944,2.646c0,1.398,0.9,2.037,2.034,2.037
				c1.456,0,2.473-0.932,2.819-1.949c0.091-0.262,0.091-0.525,0.091-0.789V23.99z"/>
			<path fill="#373F44" d="M112.728,13.11v3.635h3.403v2.673h-3.403v6.227c0,1.744,0.467,2.621,1.833,2.621
				c0.637,0,0.988-0.029,1.396-0.145l0.058,2.705c-0.524,0.203-1.486,0.375-2.589,0.375c-1.339,0-2.414-0.438-3.082-1.168
				c-0.786-0.813-1.138-2.117-1.138-3.979v-6.637h-2.004v-2.673h2.004v-2.646L112.728,13.11z"/>
		</g>
		<g>
			<polygon fill="#E3E5E8" points="30.131,0.57 13.181,0.57 0.738,19.253 1.354,20.16 18.287,20.16 17.67,19.243 			"/>
			<polygon fill="#C0CBCF" points="30.131,37.908 13.181,37.908 0.738,19.243 17.67,19.243 17.67,19.232 			"/>
			<polygon fill="#0B8D87" points="13.164,0.57 30.113,0.57 42.558,19.232 41.947,20.16 25.009,20.16 25.625,19.232 25.625,19.243 
							"/>
			<polygon fill="#1B5485" points="13.164,37.908 30.113,37.908 42.558,19.243 25.625,19.243 25.625,19.232 			"/>
			<polygon fill="#0B8D87" points="12.154,22.51 9.184,22.51 11.366,19.238 9.184,15.972 12.154,15.972 14.338,19.245 			"/>
			<polygon fill="#1B5485" points="18.56,23.895 14.338,23.895 17.437,19.247 14.338,14.604 18.56,14.604 21.659,19.253 			"/>
		</g>
	</g>
</g>
</svg>
